<svg width="20" height="20" viewBox="0 0 20 20" fill="none" xmlns="http://www.w3.org/2000/svg">
<g clip-path="url(#clip0_3077_61374)">
<path d="M15.5511 11.03V13.8357C15.5511 14.3786 15.3054 14.8928 14.8711 15.2185C14.094 15.8071 12.5797 16.5843 10.0025 16.5843C7.41967 16.5843 5.90541 15.8071 5.12827 15.2185C4.69398 14.8928 4.44827 14.3786 4.44827 13.8357V11.03L8.67682 12.8014C9.09395 12.9785 9.53968 13.0642 10.0025 13.0642C10.4597 13.0642 10.9054 12.9785 11.3225 12.8014L15.5511 11.03ZM1.0311 9.59566V12.8985C1.2254 12.8014 1.44255 12.7442 1.66538 12.7442C1.88825 12.7442 2.10539 12.8014 2.29969 12.8985V10.1271L1.0311 9.59566ZM2.68777 15.3009L2.50761 14.0434C2.44759 13.6243 2.08866 13.3132 1.66537 13.3132C1.24208 13.3132 0.883154 13.6243 0.823126 14.0434L0.642967 15.3009C0.600613 15.5966 0.829988 15.8611 1.12864 15.8611H2.2021C2.50075 15.8611 2.73012 15.5966 2.68777 15.3009ZM19.4578 7.14043L11.1039 3.63805C10.3977 3.342 9.60227 3.342 8.89613 3.63805L0.542173 7.14043C-0.180724 7.4435 -0.180724 8.46775 0.542173 8.77083L8.89613 12.2732C9.60227 12.5693 10.3977 12.5693 11.1039 12.2732L19.4578 8.77083C20.1807 8.46775 20.1807 7.4435 19.4578 7.14043Z" fill="#FB5933"/>
</g>
<defs>
<clipPath id="clip0_3077_61374">
<rect width="20" height="20" fill="white"/>
</clipPath>
</defs>
</svg>
