<svg width="20" height="20" viewBox="0 0 20 20" fill="none" xmlns="http://www.w3.org/2000/svg">
<path d="M13.1673 12.1346C13.1673 13.8809 11.7465 15.3016 10.0002 15.3016C8.2539 15.3016 6.83316 13.8809 6.83316 12.1346C6.83316 10.3883 8.2539 8.96753 10.0002 8.96753C11.7465 8.96753 13.1673 10.3883 13.1673 12.1346ZM15.5976 13.4197C15.3692 13.7031 15.2535 14.0595 15.2715 14.4232C15.3185 15.3626 14.6935 16.2228 13.7857 16.4685C13.4343 16.5635 13.1313 16.7838 12.9322 17.0885C12.4178 17.876 11.4067 18.2047 10.5276 17.8696C10.1876 17.7403 9.81286 17.7403 9.47282 17.8696C8.59798 18.2037 7.58428 17.8788 7.06819 17.0885C6.86916 16.7838 6.56613 16.5635 6.21475 16.4685C5.30697 16.2228 4.68189 15.3626 4.7289 14.4232C4.7469 14.0595 4.63122 13.7031 4.40286 13.4197C3.81279 12.6873 3.81279 11.6242 4.40286 10.8914C4.63122 10.6081 4.7469 10.252 4.7289 9.88831C4.68189 8.94886 5.30697 8.08875 6.21475 7.84305C6.56613 7.74771 6.86916 7.52768 7.06819 7.22298C7.58258 6.43521 8.59371 6.10684 9.47282 6.44155C9.81286 6.57123 10.1876 6.57123 10.5276 6.44155C11.4067 6.10684 12.4178 6.43521 12.9322 7.22298C13.1313 7.52768 13.4343 7.74771 13.7857 7.84305C14.6935 8.08875 15.3185 8.94886 15.2715 9.88831C15.2535 10.252 15.3692 10.6081 15.5976 10.8914C16.1876 11.6242 16.1876 12.6873 15.5976 13.4197ZM13.7007 12.1346C13.7007 10.0941 12.0407 8.43413 10.0002 8.43413C7.95976 8.43413 6.29976 10.0941 6.29976 12.1346C6.29976 14.175 7.95976 15.835 10.0002 15.835C12.0407 15.835 13.7007 14.175 13.7007 12.1346ZM5.17199 2.15629C5.12871 2.06107 5.0338 2 4.92919 2H3.17304C2.98042 2 2.85007 2.19932 2.93034 2.37705L5.21123 7.39507C5.2738 7.53272 5.43905 7.59272 5.57337 7.52328C5.73662 7.43887 5.90578 7.37383 6.0754 7.32799C6.55762 7.19798 6.56086 6.91331 6.96101 6.51579C7.04038 6.43695 7.06319 6.31753 7.01688 6.21569C6.60143 5.30154 5.59324 3.08333 5.17199 2.15629ZM13.8996 2H11.9055C11.8008 2 11.7061 2.06101 11.6628 2.15635L10.0002 5.8138L8.33768 2.15635C8.29434 2.06101 8.19966 2 8.09498 2H6.10083C5.90688 2 5.77776 2.20039 5.858 2.37698C6.28016 3.30583 7.01658 4.92573 7.43067 5.83661C7.48987 5.96682 7.64176 6.02823 7.77374 5.97312C8.38215 5.71913 9.06353 5.71346 9.66251 5.94315C10.0629 6.09454 10.325 5.93499 10.5603 5.87014C11.0967 5.72059 11.6853 5.74756 12.2239 5.97192C12.357 6.02736 12.5101 5.96792 12.5698 5.83661C12.9825 4.92869 13.7189 3.30886 14.1425 2.37698C14.2227 2.20039 14.0936 2 13.8996 2ZM16.8274 2H15.0712C14.9667 2 14.8718 2.06107 14.8285 2.15629C14.4072 3.08337 13.3989 5.30174 12.9835 6.21579C12.9372 6.31757 12.9598 6.43688 13.0392 6.51552C13.1661 6.64117 13.2802 6.78039 13.3786 6.93124C13.6536 7.35239 13.9274 7.26522 14.4255 7.52195C14.5605 7.59152 14.7265 7.53302 14.7893 7.39473L17.0701 2.37705C17.1504 2.19932 17.02 2 16.8274 2Z" fill="#FB5933"/>
</svg>
