<svg width="21" height="20" viewBox="0 0 21 20" fill="none" xmlns="http://www.w3.org/2000/svg">
<g clip-path="url(#clip0_9816_57527)">
<path d="M17.3242 6.48235C16.0582 7.26471 15.2762 8.60588 15.2762 10.0961C15.2762 11.7725 16.2816 13.3 17.8083 13.9333C17.5104 14.902 17.0636 15.7961 16.505 16.6157C15.6858 17.7706 14.8294 18.9627 13.5633 18.9627C12.2972 18.9627 11.9249 18.2176 10.4354 18.2176C8.98316 18.2176 8.46184 19 7.27026 19C6.07867 19 5.25946 17.9196 4.32854 16.5784C3.09972 14.7157 2.39222 12.5549 2.35498 10.2824C2.35498 6.59412 4.73814 4.61961 7.12131 4.61961C8.38736 4.61961 9.43 5.43922 10.212 5.43922C10.9567 5.43922 12.1483 4.58235 13.5633 4.58235C15.0528 4.5451 16.4678 5.25294 17.3242 6.48235ZM12.893 3.01765C13.5261 2.27255 13.8612 1.34118 13.8984 0.372549C13.8984 0.260784 13.8984 0.111765 13.8612 0C12.7813 0.111765 11.7759 0.633333 11.0684 1.45294C10.4354 2.16078 10.063 3.0549 10.0258 4.02353C10.0258 4.13529 10.0258 4.24706 10.063 4.35882C10.1375 4.35882 10.2492 4.39608 10.3237 4.39608C11.3291 4.32157 12.26 3.8 12.893 3.01765Z" fill="black"/>
</g>
<defs>
<clipPath id="clip0_9816_57527">
<rect width="15.4533" height="19" fill="white" transform="translate(2.35938)"/>
</clipPath>
</defs>
</svg>
