<svg width="50" height="50" viewBox="0 0 50 50" fill="none" xmlns="http://www.w3.org/2000/svg">
<path d="M19.4414 30.5865L22.5449 33.6899L30.8207 25.4141" stroke="white" stroke-width="4.5" stroke-linecap="round" stroke-linejoin="round"/>
<path d="M20.8645 12.5854H29.1404C33.2783 12.5854 33.2783 10.5165 33.2783 8.4475C33.2783 4.30957 31.2093 4.30957 29.1404 4.30957H20.8645C18.7955 4.30957 16.7266 4.30957 16.7266 8.4475C16.7266 12.5854 18.7955 12.5854 20.8645 12.5854Z" stroke="white" stroke-width="4.5" stroke-miterlimit="10" stroke-linecap="round" stroke-linejoin="round"/>
<path d="M33.2755 8.48828C40.1651 8.8607 43.6203 11.4055 43.6203 20.8607V33.2745C43.6203 41.5503 41.5513 45.6883 31.2065 45.6883H18.7927C8.44787 45.6883 6.37891 41.5503 6.37891 33.2745V20.8607C6.37891 11.4262 9.83408 8.8607 16.7237 8.48828" stroke="white" stroke-width="4.5" stroke-miterlimit="10" stroke-linecap="round" stroke-linejoin="round"/>
</svg>
