<svg width="34" height="34" viewBox="0 0 34 34" fill="none" xmlns="http://www.w3.org/2000/svg">
<path d="M16.9805 27C14.9125 27 13.2305 25.318 13.2305 23.25C13.2305 22.836 13.5665 22.5 13.9805 22.5C14.3945 22.5 14.7305 22.836 14.7305 23.25C14.7305 24.4911 15.7394 25.5 16.9805 25.5C18.2214 25.5 19.2305 24.4911 19.2305 23.25C19.2305 22.836 19.5665 22.5 19.9805 22.5C20.3945 22.5 20.7305 22.836 20.7305 23.25C20.7305 25.318 19.0485 27 16.9805 27Z" fill="#FB5933"/>
<path d="M25.2306 24H8.73059C7.76544 24 6.98047 23.215 6.98047 22.2501C6.98047 21.7379 7.20349 21.2531 7.59259 20.92C9.11346 19.6349 9.98047 17.7671 9.98047 15.7881V12.9999C9.98047 9.14008 13.1205 6 16.9806 6C20.8405 6 23.9805 9.14008 23.9805 12.9999V15.7881C23.9805 17.7671 24.8475 19.6349 26.3585 20.913C26.7575 21.2531 26.9805 21.7379 26.9805 22.2501C26.9805 23.215 26.1956 24 25.2306 24ZM16.9806 7.5C13.9474 7.5 11.4805 9.96698 11.4805 12.9999V15.7881C11.4805 18.2089 10.4196 20.495 8.57056 22.058C8.53558 22.088 8.48047 22.1501 8.48047 22.2501C8.48047 22.3859 8.59454 22.5 8.73059 22.5H25.2306C25.3665 22.5 25.4805 22.3859 25.4805 22.2501C25.4805 22.1501 25.4256 22.088 25.3925 22.06C23.5414 20.495 22.4805 18.2089 22.4805 15.7881V12.9999C22.4805 9.96698 20.0135 7.5 16.9806 7.5Z" fill="#FB5933"/>
</svg>
