<svg width="169" height="193" viewBox="0 0 169 193" fill="none" xmlns="http://www.w3.org/2000/svg">
<g filter="url(#filter0_dddd_2476_25821)">
<path d="M152.944 58.2366C152.809 54.697 152.348 51.1773 151.567 47.7224L148.579 47.2937L150.44 43.4486C149.391 40.0645 148.028 36.7857 146.369 33.6548L144.16 31.719V29.8297C142.27 26.8341 140.108 24.0187 137.703 21.4192L135.32 20.67L134.571 18.2945C131.972 15.8865 129.157 13.7228 126.161 11.8308H124.271L122.336 9.62103C119.205 7.96251 115.926 6.59978 112.542 5.55058L108.803 7.41123L108.268 4.42358C104.813 3.64216 101.294 3.1813 97.7539 3.04688L95.5441 5.20143L93.3343 3.04688C89.7946 3.1813 86.275 3.64216 82.8201 4.42358L82.2853 7.41123L78.5463 5.55058C75.1622 6.59978 71.8834 7.96251 68.7525 9.62103L66.8167 11.8308H64.9273C61.9317 13.7207 59.1164 15.8821 56.5168 18.2879L55.7677 20.67L53.3921 21.4192C50.9841 24.0184 48.8204 26.8338 46.9285 29.8297V31.719L44.7187 33.6548C43.0602 36.7857 41.6974 40.0645 40.6482 43.4486L42.5089 47.2937L39.5212 47.7224C38.7398 51.1773 38.279 54.697 38.1445 58.2366L40.2991 60.4464L38.1445 62.6562C38.279 66.1959 38.7398 69.7155 39.5212 73.1704L42.5089 73.5992L40.6482 77.4442C41.6974 80.8283 43.0602 84.1072 44.7187 87.238L46.9285 89.1738V91.0632C48.8183 94.0588 50.9798 96.8741 53.3855 99.4737L55.7677 100.223L56.5168 102.598C59.1161 105.006 61.9314 107.17 64.9273 109.062L69.0265 106.852L68.7525 111.272C71.8834 112.93 75.1622 114.293 78.5463 115.342L82.2853 113.482L82.8201 116.469C86.275 117.251 89.7946 117.712 93.3343 117.846L95.5441 115.691L97.7539 117.846C101.294 117.712 104.813 117.251 108.268 116.469L108.803 113.482L112.542 115.342C115.926 114.293 119.205 112.93 122.336 111.272L124.271 109.062H126.161C129.156 107.172 131.972 105.011 134.571 102.605L135.32 100.223L137.696 99.4737C140.104 96.8744 142.268 94.0591 144.16 91.0632V89.1738L146.369 87.238C148.028 84.1072 149.391 80.8283 150.44 77.4442L148.579 73.7052L151.567 73.1704C152.348 69.7155 152.809 66.1959 152.944 62.6562L150.789 60.4464L152.944 58.2366Z" fill="#FFC864"/>
<path d="M73.4461 20.6738C65.4692 20.6692 57.5676 22.2161 50.1813 25.2282C49.03 26.711 47.9406 28.2424 46.9351 29.8335L46.9285 31.7228L44.7187 33.6586C43.0602 36.7895 41.6974 40.0683 40.6482 43.4525L42.5089 47.2975L39.5212 47.7262C38.7398 51.1811 38.279 54.7008 38.1445 58.2404L40.2991 60.4502L38.1445 62.66C38.279 66.1997 38.7398 69.7193 39.5212 73.1743L42.5089 73.603L40.6482 77.448C41.6974 80.8321 43.0602 84.111 44.7187 87.2418L46.9285 89.1776V91.067C48.8183 94.0626 50.9798 96.878 53.3855 99.4775L55.7677 100.227L56.5168 102.602C59.1161 105.01 61.9315 107.174 64.9273 109.066L69.0265 106.856L68.7525 111.276C71.8834 112.934 75.1622 114.297 78.5463 115.346L82.2853 113.485L82.8201 116.473C86.275 117.255 89.7947 117.715 93.3343 117.85L95.5441 115.695L97.7539 117.85C101.294 117.715 104.813 117.255 108.268 116.473L108.803 113.485L112.542 115.346C115.926 114.297 119.205 112.934 122.336 111.276L124.272 109.066H126.161C127.752 108.06 129.283 106.971 130.766 105.82C134.586 96.4271 136.038 86.2394 134.995 76.1536C133.951 66.0678 130.443 56.3933 124.781 47.9821C119.119 39.5708 111.475 32.6808 102.523 27.9187C93.5712 23.1567 83.5858 20.6687 73.4461 20.6738Z" fill="#FCB446"/>
<path d="M95.5593 104.657C119.968 104.657 139.755 84.8694 139.755 60.4606C139.755 36.0519 119.968 16.2646 95.5593 16.2646C71.1505 16.2646 51.3633 36.0519 51.3633 60.4606C51.3633 84.8694 71.1505 104.657 95.5593 104.657Z" fill="#FFAA32"/>
<path d="M55.7828 64.8802C55.7707 56.4049 58.1993 48.1053 62.7783 40.9735C67.3573 33.8416 73.8931 28.1791 81.6045 24.6627C89.316 21.1463 97.8768 19.9248 106.264 21.1442C114.651 22.3635 122.51 25.9721 128.901 31.5387C124.933 26.9494 120.062 23.227 114.592 20.604C109.122 17.981 103.17 16.5137 97.1073 16.2937C91.0448 16.0737 85.0019 17.1056 79.356 19.3251C73.71 21.5447 68.5822 24.9041 64.2925 29.1938C60.0028 33.4835 56.6433 38.6114 54.4238 44.2573C52.2042 49.9033 51.1723 55.9461 51.3923 62.0087C51.6124 68.0713 53.0797 74.0234 55.7026 79.4936C58.3256 84.9638 62.048 89.8346 66.6374 93.802C59.6407 85.7913 55.7844 75.5163 55.7828 64.8802Z" fill="#FF9C28"/>
<path d="M95.5536 9.6294C96.1396 9.6294 96.7017 9.39658 97.1161 8.98216C97.5305 8.56775 97.7634 8.00567 97.7634 7.4196V3.05524C97.0297 3.02873 96.2938 3 95.5536 3C94.8133 3 94.0774 3.02873 93.3438 3.05524V7.4196C93.3438 8.00567 93.5766 8.56775 93.991 8.98216C94.4054 9.39658 94.9675 9.6294 95.5536 9.6294Z" fill="#FFAA32"/>
<path d="M95.5536 111.279C94.9675 111.279 94.4054 111.512 93.991 111.927C93.5766 112.341 93.3438 112.903 93.3438 113.489V117.853C94.0774 117.88 94.8133 117.909 95.5536 117.909C96.2938 117.909 97.0297 117.88 97.7634 117.853V113.489C97.7634 112.903 97.5305 112.341 97.1161 111.927C96.7017 111.512 96.1396 111.279 95.5536 111.279Z" fill="#FFAA32"/>
<path d="M82.3958 11.3713C82.6762 11.2962 82.939 11.1666 83.1692 10.9899C83.3995 10.8132 83.5926 10.5928 83.7377 10.3415C83.8828 10.0901 83.9769 9.81259 84.0148 9.52482C84.0526 9.23706 84.0334 8.94466 83.9582 8.66433L82.8245 4.44141C81.3815 4.76846 79.9518 5.13528 78.5508 5.5684L79.6888 9.80901C79.764 10.0894 79.8936 10.3522 80.0703 10.5824C80.247 10.8126 80.4673 11.0058 80.7187 11.1509C80.9701 11.296 81.2476 11.3901 81.5353 11.4279C81.8231 11.4658 82.1155 11.4465 82.3958 11.3713Z" fill="#FFAA32"/>
<path d="M108.716 109.554C108.436 109.629 108.173 109.759 107.943 109.935C107.712 110.112 107.519 110.332 107.374 110.584C107.229 110.835 107.135 111.113 107.097 111.4C107.059 111.688 107.078 111.981 107.154 112.261L108.287 116.484C109.73 116.157 111.16 115.79 112.561 115.357L111.423 111.116C111.348 110.836 111.218 110.573 111.041 110.343C110.865 110.113 110.644 109.919 110.393 109.774C110.142 109.629 109.864 109.535 109.576 109.497C109.289 109.46 108.996 109.479 108.716 109.554Z" fill="#FFAA32"/>
<path d="M70.1494 16.4356C70.401 16.2905 70.6215 16.0972 70.7984 15.8668C70.9752 15.6364 71.1049 15.3734 71.18 15.0929C71.2551 14.8123 71.2742 14.5197 71.2361 14.2318C71.1981 13.9438 71.1036 13.6662 70.9582 13.4148L68.7705 9.625C67.4637 10.3174 66.1887 11.054 64.9453 11.8348L67.1308 15.618C67.2752 15.87 67.4678 16.0911 67.6977 16.2687C67.9276 16.4462 68.1902 16.5767 68.4706 16.6526C68.7509 16.7285 69.0435 16.7485 69.3316 16.7112C69.6197 16.674 69.8976 16.5803 70.1494 16.4356Z" fill="#FFAA32"/>
<path d="M120.961 104.47C120.71 104.615 120.489 104.808 120.312 105.038C120.135 105.269 120.006 105.532 119.931 105.812C119.856 106.093 119.836 106.386 119.875 106.673C119.913 106.961 120.007 107.239 120.152 107.49L122.34 111.28C123.646 110.591 124.921 109.848 126.165 109.07L123.98 105.287C123.835 105.035 123.643 104.814 123.413 104.637C123.183 104.459 122.92 104.329 122.64 104.253C122.36 104.177 122.067 104.157 121.779 104.194C121.491 104.231 121.213 104.325 120.961 104.47Z" fill="#FFAA32"/>
<path d="M59.6207 24.5133C60.035 24.0989 60.2677 23.5369 60.2677 22.951C60.2677 22.365 60.035 21.803 59.6207 21.3886L56.527 18.2949C55.4471 19.2967 54.4056 20.3383 53.4023 21.4196L56.4961 24.5133C56.9105 24.9276 57.4724 25.1603 58.0584 25.1603C58.6443 25.1603 59.2063 24.9276 59.6207 24.5133Z" fill="#FFAA32"/>
<path d="M131.502 96.3911C131.088 96.8055 130.855 97.3675 130.855 97.9535C130.855 98.5394 131.088 99.1014 131.502 99.5158L134.596 102.61C135.676 101.608 136.718 100.566 137.721 99.4849L134.627 96.3911C134.213 95.9769 133.651 95.7441 133.065 95.7441C132.479 95.7441 131.917 95.9769 131.502 96.3911Z" fill="#FFAA32"/>
<path d="M59.6161 24.5144C59.918 24.211 60.1252 23.8264 60.2127 23.4075C60.3002 22.9885 60.2641 22.5531 60.1089 22.1543C58.5068 22.5101 56.9246 22.9189 55.3711 23.394L56.4915 24.5144C56.9059 24.9286 57.4678 25.1614 58.0538 25.1614C58.6397 25.1614 59.2017 24.9286 59.6161 24.5144Z" fill="#FF9C28"/>
<path d="M131.502 96.3913C131.088 96.8057 130.855 97.3677 130.855 97.9536C130.855 98.5396 131.088 99.1016 131.502 99.516L132.623 100.636C133.098 99.0895 133.507 97.5006 133.863 95.8985C133.464 95.7433 133.028 95.7072 132.609 95.7947C132.19 95.8822 131.806 96.0894 131.502 96.3913Z" fill="#FF9C28"/>
<path d="M51.5215 35.0429C51.6665 34.7915 51.7606 34.514 51.7983 34.2262C51.836 33.9384 51.8167 33.646 51.7414 33.3657C51.666 33.0853 51.5362 32.8226 51.3594 32.5925C51.1825 32.3623 50.962 32.1693 50.7105 32.0244L46.9207 29.8389C46.1355 31.0837 45.3989 32.3588 44.7109 33.664L48.5007 35.8517C48.7522 35.9972 49.0298 36.0916 49.3177 36.1297C49.6056 36.1677 49.8982 36.1487 50.1788 36.0736C50.4594 35.9984 50.7224 35.8687 50.9528 35.6919C51.1832 35.5151 51.3764 35.2945 51.5215 35.0429Z" fill="#FFAA32"/>
<path d="M139.577 85.8704C139.432 86.1219 139.338 86.3994 139.3 86.6872C139.262 86.975 139.282 87.2674 139.357 87.5477C139.432 87.828 139.562 88.0908 139.739 88.3209C139.916 88.5511 140.136 88.7441 140.388 88.889L144.178 91.0745C144.962 89.8304 145.705 88.5553 146.387 87.2494L142.598 85.0617C142.346 84.9162 142.069 84.8218 141.781 84.7837C141.493 84.7456 141.2 84.7647 140.919 84.8398C140.639 84.9149 140.376 85.0446 140.146 85.2215C139.915 85.3983 139.722 85.6188 139.577 85.8704Z" fill="#FFAA32"/>
<path d="M46.4768 47.2933C46.552 47.013 46.5712 46.7206 46.5334 46.4328C46.4956 46.145 46.4015 45.8675 46.2564 45.6162C46.1113 45.3648 45.9181 45.1445 45.6879 44.9677C45.4576 44.791 45.1948 44.6614 44.9145 44.5863L40.6739 43.4482C40.2319 44.8493 39.8739 46.279 39.5469 47.722L43.7698 48.8556C44.0501 48.9308 44.3425 48.9501 44.6303 48.9122C44.9181 48.8744 45.1955 48.7803 45.4469 48.6352C45.6983 48.4901 45.9186 48.2969 46.0953 48.0667C46.2721 47.8364 46.4017 47.5736 46.4768 47.2933Z" fill="#FFAA32"/>
<path d="M144.657 73.6114C144.582 73.8917 144.563 74.1841 144.601 74.4719C144.639 74.7597 144.733 75.0372 144.878 75.2885C145.023 75.5399 145.216 75.7603 145.446 75.937C145.677 76.1137 145.939 76.2433 146.22 76.3184L150.46 77.4565C150.902 76.0555 151.26 74.6257 151.587 73.1827L147.364 72.0491C147.084 71.9739 146.792 71.9547 146.504 71.9925C146.216 72.0303 145.939 72.1244 145.687 72.2695C145.436 72.4146 145.216 72.6078 145.039 72.838C144.862 73.0683 144.733 73.3311 144.657 73.6114Z" fill="#FFAA32"/>
<path d="M44.7271 60.4461C44.7271 59.8601 44.4942 59.298 44.0798 58.8836C43.6654 58.4691 43.1033 58.2363 42.5173 58.2363H38.1529C38.1264 58.97 38.0977 59.7058 38.0977 60.4461C38.0977 61.1864 38.1264 61.9223 38.1529 62.6559H42.5173C43.1033 62.6559 43.6654 62.4231 44.0798 62.0087C44.4942 61.5943 44.7271 61.0322 44.7271 60.4461Z" fill="#FFAA32"/>
<path d="M146.371 60.4461C146.371 61.0322 146.604 61.5943 147.018 62.0087C147.433 62.4231 147.995 62.6559 148.581 62.6559H152.945C152.972 61.9223 153 61.1864 153 60.4461C153 59.7058 152.972 58.97 152.945 58.2363H148.581C147.995 58.2363 147.433 58.4691 147.018 58.8836C146.604 59.298 146.371 59.8601 146.371 60.4461Z" fill="#FFAA32"/>
<path d="M46.4768 73.6095C46.4017 73.3291 46.2721 73.0663 46.0953 72.8361C45.9186 72.6058 45.6983 72.4126 45.4469 72.2676C45.1955 72.1225 44.9181 72.0283 44.6303 71.9905C44.3425 71.9527 44.0501 71.9719 43.7698 72.0471L39.5469 73.1808C39.8739 74.6238 40.2408 76.0535 40.6739 77.4545L44.9145 76.3165C45.1948 76.2413 45.4576 76.1117 45.6879 75.935C45.9181 75.7583 46.1113 75.538 46.2564 75.2866C46.4015 75.0352 46.4956 74.7577 46.5334 74.4699C46.5712 74.1822 46.552 73.8898 46.4768 73.6095Z" fill="#FFAA32"/>
<path d="M144.657 47.2943C144.733 47.5746 144.862 47.8374 145.039 48.0677C145.216 48.2979 145.436 48.4911 145.687 48.6362C145.939 48.7812 146.216 48.8754 146.504 48.9132C146.792 48.951 147.084 48.9318 147.364 48.8566L151.587 47.723C151.26 46.28 150.894 44.8502 150.46 43.4492L146.22 44.5873C145.939 44.6624 145.677 44.792 145.446 44.9687C145.216 45.1454 145.023 45.3658 144.878 45.6171C144.733 45.8685 144.639 46.146 144.601 46.4338C144.563 46.7215 144.582 47.0139 144.657 47.2943Z" fill="#FFAA32"/>
<path d="M51.5215 85.8704C51.3764 85.6188 51.1832 85.3983 50.9528 85.2215C50.7224 85.0446 50.4594 84.9149 50.1788 84.8398C49.8982 84.7647 49.6056 84.7456 49.3177 84.7837C49.0298 84.8218 48.7521 84.9162 48.5007 85.0617L44.7109 87.2494C45.4033 88.5561 46.1399 89.8311 46.9207 91.0745L50.7039 88.889C50.956 88.7447 51.1771 88.552 51.3546 88.3221C51.5321 88.0922 51.6626 87.8296 51.7385 87.5492C51.8145 87.2689 51.8344 86.9763 51.7972 86.6882C51.7599 86.4002 51.6663 86.1223 51.5215 85.8704Z" fill="#FFAA32"/>
<path d="M139.575 35.0429C139.72 35.2945 139.913 35.5151 140.144 35.6919C140.374 35.8687 140.637 35.9984 140.918 36.0736C141.198 36.1487 141.491 36.1677 141.779 36.1297C142.067 36.0916 142.344 35.9972 142.596 35.8517L146.386 33.664C145.696 32.358 144.954 31.083 144.176 29.8389L140.393 32.0244C140.141 32.1687 139.92 32.3614 139.742 32.5913C139.565 32.8211 139.434 33.0838 139.358 33.3641C139.282 33.6445 139.262 33.9371 139.299 34.2251C139.337 34.5132 139.43 34.7911 139.575 35.0429Z" fill="#FFAA32"/>
<path d="M59.6207 96.3911C59.2063 95.9769 58.6443 95.7441 58.0584 95.7441C57.4724 95.7441 56.9105 95.9769 56.4961 96.3911L53.4023 99.4849C54.4041 100.565 55.4457 101.606 56.527 102.61L59.6207 99.5158C60.035 99.1014 60.2677 98.5394 60.2677 97.9535C60.2677 97.3675 60.035 96.8055 59.6207 96.3911Z" fill="#FFAA32"/>
<path d="M131.502 24.5133C131.917 24.9276 132.479 25.1603 133.065 25.1603C133.651 25.1603 134.213 24.9276 134.627 24.5133L137.721 21.4196C136.719 20.3383 135.678 19.2967 134.596 18.2949L131.502 21.3886C131.088 21.803 130.855 22.365 130.855 22.951C130.855 23.5369 131.088 24.0989 131.502 24.5133Z" fill="#FFAA32"/>
<path d="M70.1494 104.47C69.8979 104.325 69.6204 104.231 69.3326 104.194C69.0448 104.156 68.7524 104.175 68.4721 104.25C68.1918 104.326 67.9291 104.456 67.6989 104.632C67.4688 104.809 67.2757 105.03 67.1308 105.281L64.9453 109.071C66.1894 109.856 67.4645 110.598 68.7705 111.281L70.9582 107.491C71.1036 107.24 71.1981 106.962 71.2361 106.674C71.2742 106.386 71.2551 106.094 71.18 105.813C71.1049 105.532 70.9752 105.269 70.7984 105.039C70.6215 104.809 70.401 104.615 70.1494 104.47Z" fill="#FFAA32"/>
<path d="M120.961 16.4356C121.213 16.5806 121.49 16.6746 121.778 16.7124C122.066 16.7501 122.358 16.7307 122.639 16.6554C122.919 16.5801 123.182 16.4503 123.412 16.2734C123.642 16.0966 123.835 15.8761 123.98 15.6246L126.165 11.8348C124.922 11.0496 123.647 10.313 122.34 9.625L120.152 13.4148C120.007 13.6662 119.913 13.9438 119.875 14.2318C119.836 14.5197 119.856 14.8123 119.931 15.0929C120.006 15.3734 120.135 15.6364 120.312 15.8668C120.489 16.0972 120.71 16.2905 120.961 16.4356Z" fill="#FFAA32"/>
<path d="M82.3958 109.554C82.1155 109.479 81.8231 109.46 81.5353 109.497C81.2476 109.535 80.9701 109.629 80.7187 109.774C80.4673 109.919 80.247 110.113 80.0703 110.343C79.8936 110.573 79.764 110.836 79.6888 111.116L78.5508 115.357C79.9518 115.799 81.3815 116.157 82.8245 116.484L83.9582 112.261C84.0334 111.981 84.0526 111.688 84.0148 111.4C83.9769 111.113 83.8828 110.835 83.7377 110.584C83.5926 110.332 83.3995 110.112 83.1692 109.935C82.939 109.759 82.6762 109.629 82.3958 109.554Z" fill="#FFAA32"/>
<path d="M108.716 11.3713C108.996 11.4465 109.289 11.4658 109.576 11.4279C109.864 11.3901 110.142 11.296 110.393 11.1509C110.644 11.0058 110.865 10.8126 111.041 10.5824C111.218 10.3522 111.348 10.0894 111.423 9.80901L112.561 5.5684C111.16 5.12644 109.73 4.76846 108.287 4.44141L107.154 8.66433C107.078 8.94466 107.059 9.23706 107.097 9.52482C107.135 9.81259 107.229 10.0901 107.374 10.3415C107.519 10.5928 107.712 10.8132 107.943 10.9899C108.173 11.1666 108.436 11.2962 108.716 11.3713Z" fill="#FFAA32"/>
<path d="M135.261 79.7426C134.54 64.3277 128.092 49.7368 117.179 38.826C106.267 27.9152 91.6744 21.4699 76.2594 20.752C69.9217 23.8242 64.4108 28.3679 60.1867 34.0037C55.9626 39.6395 53.1478 46.204 51.9773 53.1492C50.8069 60.0943 51.3146 67.2187 53.4583 73.9277C55.6019 80.6367 59.3192 86.7356 64.2999 91.7154C69.2806 96.6951 75.3802 100.411 82.0896 102.554C88.799 104.696 95.9235 105.203 102.868 104.031C109.813 102.859 116.377 100.043 122.012 95.8178C127.647 91.5926 132.19 86.0809 135.261 79.7426Z" fill="#FF9C28"/>
<path d="M130.83 80.3382C130.696 76.7986 130.235 73.2789 129.454 69.824L126.466 69.3953L128.327 65.5502C127.277 62.1661 125.915 58.8873 124.256 55.7564L122.046 53.8206V51.9312C120.157 48.9356 117.995 46.1203 115.589 43.5207L113.207 42.7716L112.458 40.3961C109.859 37.988 107.043 35.8244 104.048 33.9324H102.158L100.222 31.7226C97.0915 30.0641 93.8127 28.7013 90.4286 27.6521L86.6896 29.5128L86.1548 26.5251C82.6999 25.7437 79.1802 25.2829 75.6406 25.1484L73.4308 27.303L71.221 25.1484C67.6814 25.2829 64.1617 25.7437 60.7068 26.5251L60.172 29.5128L56.433 27.6521C53.0489 28.7013 49.7701 30.0641 46.6392 31.7226L44.7034 33.9324H42.814C39.8184 35.8223 37.0031 37.9837 34.4035 40.3894L33.6544 42.7716L31.2789 43.5207C28.8708 46.12 26.7072 48.9353 24.8152 51.9312V53.8206L22.6054 55.7564C20.9469 58.8873 19.5842 62.1661 18.535 65.5502L20.3956 69.3953L17.408 69.824C16.6265 73.2789 16.1657 76.7986 16.0312 80.3382L18.1858 82.548L16.0312 84.7578C16.1657 88.2974 16.6265 91.8171 17.408 95.272L20.3956 95.7007L18.535 99.5458C19.5842 102.93 20.9469 106.209 22.6054 109.34L24.8152 111.275V113.165C26.7051 116.16 28.8665 118.976 31.2722 121.575L33.6544 122.324L34.4035 124.7C37.0028 127.108 39.8182 129.272 42.814 131.164L46.9132 128.954L46.6392 133.373C49.7701 135.032 53.0489 136.395 56.433 137.444L60.172 135.583L60.7068 138.571C64.1617 139.352 67.6814 139.813 71.221 139.948L73.4308 137.793L75.6406 139.948C79.1802 139.813 82.6999 139.352 86.1548 138.571L86.6896 135.583L90.4286 137.444C93.8127 136.395 97.0915 135.032 100.222 133.373L102.158 131.164H104.048C107.043 129.274 109.859 127.112 112.458 124.707L113.207 122.324L115.583 121.575C117.991 118.976 120.154 116.161 122.046 113.165V111.275L124.256 109.34C125.915 106.209 127.277 102.93 128.327 99.5458L126.466 95.8068L129.454 95.272C130.235 91.8171 130.696 88.2974 130.83 84.7578L128.676 82.548L130.83 80.3382Z" fill="#FFC864"/>
<path d="M73.4538 126.74C97.8625 126.74 117.65 106.952 117.65 82.5436C117.65 58.1349 97.8625 38.3477 73.4538 38.3477C49.045 38.3477 29.2578 58.1349 29.2578 82.5436C29.2578 106.952 49.045 126.74 73.4538 126.74Z" fill="#FFAA32"/>
<path d="M33.6774 86.9632C33.6652 78.4879 36.0938 70.1883 40.6728 63.0565C45.2518 55.9246 51.7876 50.2621 59.4991 46.7457C67.2105 43.2293 75.7714 42.0078 84.1585 43.2272C92.5456 44.4465 100.404 48.0551 106.795 53.6218C102.828 49.0324 97.9569 45.31 92.4867 42.687C87.0166 40.064 81.0644 38.5967 75.0019 38.3767C68.9393 38.1567 62.8965 39.1886 57.2505 41.4081C51.6045 43.6277 46.4767 46.9871 42.187 51.2768C37.8973 55.5665 34.5378 60.6944 32.3183 66.3403C30.0988 71.9863 29.0668 78.0291 29.2869 84.0917C29.5069 90.1543 30.9742 96.1064 33.5972 101.577C36.2202 107.047 39.9425 111.918 44.5319 115.885C37.5352 107.874 33.6789 97.5993 33.6774 86.9632Z" fill="#FF9C28"/>
<path d="M73.5301 31.731C74.1162 31.731 74.6783 31.4981 75.0927 31.0837C75.5071 30.6693 75.7399 30.1072 75.7399 29.5212V25.1568C75.0063 25.1303 74.2704 25.1016 73.5301 25.1016C72.7898 25.1016 72.054 25.1303 71.3203 25.1568V29.5212C71.3203 30.1072 71.5531 30.6693 71.9675 31.0837C72.382 31.4981 72.944 31.731 73.5301 31.731Z" fill="#FFAA32"/>
<path d="M73.5301 133.379C72.944 133.379 72.382 133.612 71.9675 134.026C71.5531 134.441 71.3203 135.003 71.3203 135.589V139.953C72.054 139.98 72.7898 140.008 73.5301 140.008C74.2704 140.008 75.0063 139.98 75.7399 139.953V135.589C75.7399 135.003 75.5071 134.441 75.0927 134.026C74.6783 133.612 74.1162 133.379 73.5301 133.379Z" fill="#FFAA32"/>
<path d="M60.3646 33.4729C60.6449 33.3978 60.9077 33.2681 61.138 33.0914C61.3682 32.9147 61.5614 32.6944 61.7065 32.443C61.8516 32.1916 61.9457 31.9141 61.9835 31.6264C62.0213 31.3386 62.0021 31.0462 61.9269 30.7659L60.7933 26.543C59.3503 26.87 57.9205 27.2368 56.5195 27.67L57.6576 31.9106C57.7327 32.1909 57.8623 32.4537 58.039 32.684C58.2157 32.9142 58.4361 33.1074 58.6875 33.2525C58.9388 33.3975 59.2163 33.4917 59.5041 33.5295C59.7919 33.5673 60.0843 33.5481 60.3646 33.4729Z" fill="#FFAA32"/>
<path d="M86.5479 131.654C86.2676 131.729 86.0048 131.858 85.7745 132.035C85.5443 132.212 85.3511 132.432 85.206 132.683C85.061 132.935 84.9668 133.212 84.929 133.5C84.8912 133.788 84.9104 134.08 84.9856 134.361L86.1192 138.584C87.5622 138.256 88.992 137.89 90.393 137.457L89.2549 133.216C89.1798 132.936 89.0502 132.673 88.8735 132.443C88.6968 132.212 88.4764 132.019 88.2251 131.874C87.9737 131.729 87.6962 131.635 87.4084 131.597C87.1207 131.559 86.8283 131.578 86.5479 131.654Z" fill="#FFAA32"/>
<path d="M48.0517 38.5391C48.3033 38.394 48.5239 38.2007 48.7007 37.9703C48.8775 37.7399 49.0072 37.4769 49.0823 37.1964C49.1575 36.9158 49.1765 36.6232 49.1385 36.3353C49.1004 36.0473 49.006 35.7697 48.8605 35.5183L46.6728 31.7285C45.3676 32.4209 44.0925 33.1575 42.8477 33.9383L45.0331 37.7215C45.1775 37.9735 45.3702 38.1946 45.6 38.3722C45.8299 38.5497 46.0926 38.6802 46.3729 38.7561C46.6533 38.832 46.9459 38.852 47.2339 38.8147C47.522 38.7775 47.7999 38.6838 48.0517 38.5391Z" fill="#FFAA32"/>
<path d="M98.8363 126.571C98.5847 126.716 98.3641 126.91 98.1873 127.14C98.0105 127.37 97.8808 127.633 97.8057 127.914C97.7305 128.194 97.7115 128.487 97.7495 128.775C97.7876 129.063 97.882 129.341 98.0275 129.592L100.215 133.382C101.521 132.692 102.796 131.95 104.04 131.172L101.855 127.389C101.71 127.137 101.518 126.916 101.288 126.738C101.058 126.561 100.795 126.43 100.515 126.354C100.235 126.278 99.9421 126.258 99.6541 126.296C99.366 126.333 99.0881 126.426 98.8363 126.571Z" fill="#FFAA32"/>
<path d="M37.4567 46.6149C37.8709 46.2005 38.1037 45.6385 38.1037 45.0525C38.1037 44.4666 37.8709 43.9046 37.4567 43.4902L34.3629 40.3965C33.2816 41.3983 32.2401 42.4398 31.2383 43.5211L34.332 46.6149C34.7464 47.0291 35.3084 47.2619 35.8943 47.2619C36.4803 47.2619 37.0423 47.0291 37.4567 46.6149Z" fill="#FFAA32"/>
<path d="M109.342 118.496C108.928 118.91 108.695 119.472 108.695 120.058C108.695 120.644 108.928 121.206 109.342 121.62L112.436 124.714C113.516 123.712 114.557 122.671 115.561 121.589L112.467 118.496C112.053 118.081 111.491 117.849 110.905 117.849C110.319 117.849 109.757 118.081 109.342 118.496Z" fill="#FFAA32"/>
<path d="M29.4981 57.1455C29.6431 56.894 29.7371 56.6165 29.7749 56.3287C29.8126 56.0409 29.7932 55.7485 29.7179 55.4682C29.6426 55.1879 29.5128 54.9251 29.3359 54.695C29.1591 54.4649 28.9386 54.2718 28.6871 54.1269L24.8973 51.9414C24.1121 53.1863 23.3755 54.4613 22.6875 55.7666L26.4773 57.9543C26.7287 58.0997 27.0063 58.1942 27.2943 58.2322C27.5822 58.2703 27.8748 58.2512 28.1554 58.1761C28.4359 58.101 28.6989 57.9713 28.9293 57.7944C29.1597 57.6176 29.353 57.3971 29.4981 57.1455Z" fill="#FFAA32"/>
<path d="M117.522 107.973C117.377 108.224 117.283 108.502 117.245 108.79C117.208 109.078 117.227 109.37 117.302 109.65C117.378 109.931 117.507 110.193 117.684 110.423C117.861 110.654 118.082 110.847 118.333 110.992L122.123 113.177C122.907 111.933 123.65 110.658 124.333 109.352L120.543 107.164C120.291 107.019 120.014 106.924 119.726 106.886C119.438 106.848 119.145 106.867 118.865 106.942C118.584 107.017 118.321 107.147 118.091 107.324C117.86 107.501 117.667 107.721 117.522 107.973Z" fill="#FFAA32"/>
<path d="M24.2815 69.3929C24.3567 69.1126 24.3759 68.8202 24.3381 68.5324C24.3003 68.2446 24.2061 67.9672 24.0611 67.7158C23.916 67.4644 23.7228 67.2441 23.4926 67.0674C23.2623 66.8906 22.9995 66.761 22.7192 66.6859L18.4786 65.5479C18.0366 66.9489 17.6786 68.3786 17.3516 69.8216L21.5745 70.9552C21.8548 71.0304 22.1472 71.0497 22.435 71.0118C22.7227 70.974 23.0002 70.8799 23.2516 70.7348C23.503 70.5897 23.7233 70.3965 23.9 70.1663C24.0767 69.936 24.2064 69.6732 24.2815 69.3929Z" fill="#FFAA32"/>
<path d="M122.552 95.711C122.477 95.9914 122.458 96.2837 122.495 96.5715C122.533 96.8593 122.627 97.1368 122.772 97.3882C122.918 97.6395 123.111 97.8599 123.341 98.0366C123.571 98.2133 123.834 98.3429 124.114 98.418L128.355 99.5561C128.797 98.1551 129.155 96.7253 129.482 95.2823L125.259 94.1487C124.979 94.0735 124.686 94.0543 124.399 94.0921C124.111 94.1299 123.833 94.224 123.582 94.3691C123.331 94.5142 123.11 94.7074 122.933 94.9376C122.757 95.1679 122.627 95.4307 122.552 95.711Z" fill="#FFAA32"/>
<path d="M22.6294 82.5526C22.6294 81.9665 22.3966 81.4044 21.9822 80.99C21.5677 80.5756 21.0057 80.3428 20.4196 80.3428H16.0552C16.0287 81.0764 16 81.8123 16 82.5526C16 83.2929 16.0287 84.0287 16.0552 84.7624H20.4196C21.0057 84.7624 21.5677 84.5296 21.9822 84.1151C22.3966 83.7007 22.6294 83.1387 22.6294 82.5526Z" fill="#FFAA32"/>
<path d="M124.297 82.5496C124.297 83.1357 124.53 83.6978 124.944 84.1122C125.359 84.5266 125.921 84.7594 126.507 84.7594H130.871C130.898 84.0258 130.926 83.2899 130.926 82.5496C130.926 81.8094 130.898 81.0735 130.871 80.3398H126.507C125.921 80.3398 125.359 80.5727 124.944 80.9871C124.53 81.4015 124.297 81.9636 124.297 82.5496Z" fill="#FFAA32"/>
<path d="M24.2815 95.711C24.2064 95.4307 24.0767 95.1679 23.9 94.9376C23.7233 94.7074 23.503 94.5142 23.2516 94.3691C23.0002 94.224 22.7227 94.1299 22.435 94.0921C22.1472 94.0543 21.8548 94.0735 21.5745 94.1487L17.3516 95.2823C17.6786 96.7253 18.0454 98.1551 18.4786 99.5561L22.7192 98.418C22.9995 98.3429 23.2623 98.2133 23.4926 98.0366C23.7228 97.8599 23.916 97.6395 24.0611 97.3882C24.2061 97.1368 24.3003 96.8593 24.3381 96.5715C24.3759 96.2837 24.3567 95.9914 24.2815 95.711Z" fill="#FFAA32"/>
<path d="M122.552 69.3939C122.627 69.6742 122.757 69.937 122.933 70.1673C123.11 70.3975 123.331 70.5907 123.582 70.7358C123.833 70.8809 124.111 70.975 124.399 71.0128C124.686 71.0506 124.979 71.0314 125.259 70.9562L129.482 69.8226C129.155 68.3796 128.788 66.9498 128.355 65.5488L124.114 66.6869C123.834 66.762 123.571 66.8916 123.341 67.0683C123.111 67.245 122.918 67.4654 122.772 67.7168C122.627 67.9681 122.533 68.2456 122.495 68.5334C122.458 68.8212 122.477 69.1135 122.552 69.3939Z" fill="#FFAA32"/>
<path d="M29.4981 107.971C29.353 107.719 29.1597 107.499 28.9293 107.322C28.6989 107.145 28.4359 107.016 28.1554 106.94C27.8748 106.865 27.5822 106.846 27.2943 106.884C27.0063 106.922 26.7287 107.017 26.4773 107.162L22.6875 109.35C23.3799 110.657 24.1165 111.932 24.8973 113.175L28.6805 110.99C28.9325 110.845 29.1536 110.653 29.3312 110.423C29.5087 110.193 29.6392 109.93 29.7151 109.65C29.791 109.369 29.811 109.077 29.7737 108.789C29.7365 108.501 29.6428 108.223 29.4981 107.971Z" fill="#FFAA32"/>
<path d="M117.52 57.1455C117.666 57.3971 117.859 57.6176 118.089 57.7944C118.32 57.9713 118.583 58.101 118.863 58.1761C119.144 58.2512 119.436 58.2703 119.724 58.2322C120.012 58.1942 120.29 58.0997 120.541 57.9543L124.331 55.7666C123.642 54.4606 122.899 53.1855 122.121 51.9414L118.338 54.1269C118.086 54.2713 117.865 54.4639 117.687 54.6938C117.51 54.9237 117.379 55.1863 117.303 55.4667C117.227 55.747 117.208 56.0396 117.245 56.3277C117.282 56.6157 117.376 56.8936 117.52 57.1455Z" fill="#FFAA32"/>
<path d="M37.4567 118.496C37.0423 118.081 36.4803 117.849 35.8943 117.849C35.3084 117.849 34.7464 118.081 34.332 118.496L31.2383 121.589C32.2401 122.669 33.2816 123.711 34.3629 124.714L37.4567 121.62C37.8709 121.206 38.1037 120.644 38.1037 120.058C38.1037 119.472 37.8709 118.91 37.4567 118.496Z" fill="#FFAA32"/>
<path d="M109.342 46.6149C109.757 47.0291 110.319 47.2619 110.905 47.2619C111.491 47.2619 112.053 47.0291 112.467 46.6149L115.561 43.5211C114.559 42.4413 113.517 41.3997 112.436 40.3965L109.342 43.4902C108.928 43.9046 108.695 44.4666 108.695 45.0525C108.695 45.6385 108.928 46.2005 109.342 46.6149Z" fill="#FFAA32"/>
<path d="M48.0517 126.571C47.8003 126.426 47.5227 126.332 47.235 126.294C46.9472 126.256 46.6548 126.276 46.3744 126.351C46.0941 126.426 45.8314 126.556 45.6013 126.733C45.3711 126.91 45.1781 127.13 45.0331 127.382L42.8477 131.172C44.0918 131.956 45.3668 132.699 46.6728 133.381L48.8605 129.592C49.006 129.34 49.1004 129.063 49.1385 128.775C49.1765 128.487 49.1575 128.194 49.0823 127.914C49.0072 127.633 48.8775 127.37 48.7007 127.14C48.5239 126.909 48.3033 126.716 48.0517 126.571Z" fill="#FFAA32"/>
<path d="M98.8363 38.5352C99.0877 38.6802 99.3652 38.7743 99.653 38.812C99.9408 38.8497 100.233 38.8303 100.514 38.755C100.794 38.6797 101.057 38.5499 101.287 38.373C101.517 38.1962 101.71 37.9757 101.855 37.7242L104.04 33.9344C102.797 33.1492 101.522 32.4126 100.215 31.7246L98.0275 35.5144C97.882 35.7658 97.7876 36.0434 97.7495 36.3314C97.7115 36.6193 97.7305 36.9119 97.8057 37.1925C97.8808 37.473 98.0105 37.736 98.1873 37.9664C98.3641 38.1968 98.5847 38.3901 98.8363 38.5352Z" fill="#FFAA32"/>
<path d="M60.3646 131.654C60.0843 131.578 59.7919 131.559 59.5041 131.597C59.2163 131.635 58.9388 131.729 58.6875 131.874C58.4361 132.019 58.2157 132.212 58.039 132.443C57.8623 132.673 57.7327 132.936 57.6576 133.216L56.5195 137.457C57.9205 137.898 59.3503 138.256 60.7933 138.584L61.9269 134.361C62.0021 134.08 62.0213 133.788 61.9835 133.5C61.9457 133.212 61.8516 132.935 61.7065 132.683C61.5614 132.432 61.3682 132.212 61.138 132.035C60.9077 131.858 60.6449 131.729 60.3646 131.654Z" fill="#FFAA32"/>
<path d="M86.5479 33.4729C86.8283 33.5481 87.1207 33.5673 87.4084 33.5295C87.6962 33.4917 87.9737 33.3975 88.2251 33.2525C88.4764 33.1074 88.6968 32.9142 88.8735 32.684C89.0502 32.4537 89.1798 32.1909 89.2549 31.9106L90.393 27.67C88.992 27.228 87.5622 26.87 86.1192 26.543L84.9856 30.7659C84.9104 31.0462 84.8912 31.3386 84.929 31.6264C84.9668 31.9141 85.061 32.1916 85.206 32.443C85.3511 32.6944 85.5443 32.9147 85.7745 33.0914C86.0048 33.2681 86.2676 33.3978 86.5479 33.4729Z" fill="#FFAA32"/>
</g>
<defs>
<filter id="filter0_dddd_2476_25821" x="0" y="0" width="169" height="195.009" filterUnits="userSpaceOnUse" color-interpolation-filters="sRGB">
<feFlood flood-opacity="0" result="BackgroundImageFix"/>
<feColorMatrix in="SourceAlpha" type="matrix" values="0 0 0 0 0 0 0 0 0 0 0 0 0 0 0 0 0 0 127 0" result="hardAlpha"/>
<feOffset dy="2"/>
<feGaussianBlur stdDeviation="2.5"/>
<feColorMatrix type="matrix" values="0 0 0 0 0 0 0 0 0 0 0 0 0 0 0 0 0 0 0.16 0"/>
<feBlend mode="normal" in2="BackgroundImageFix" result="effect1_dropShadow_2476_25821"/>
<feColorMatrix in="SourceAlpha" type="matrix" values="0 0 0 0 0 0 0 0 0 0 0 0 0 0 0 0 0 0 127 0" result="hardAlpha"/>
<feOffset dy="10"/>
<feGaussianBlur stdDeviation="5"/>
<feColorMatrix type="matrix" values="0 0 0 0 0 0 0 0 0 0 0 0 0 0 0 0 0 0 0.14 0"/>
<feBlend mode="normal" in2="effect1_dropShadow_2476_25821" result="effect2_dropShadow_2476_25821"/>
<feColorMatrix in="SourceAlpha" type="matrix" values="0 0 0 0 0 0 0 0 0 0 0 0 0 0 0 0 0 0 127 0" result="hardAlpha"/>
<feOffset dy="22"/>
<feGaussianBlur stdDeviation="6.5"/>
<feColorMatrix type="matrix" values="0 0 0 0 0 0 0 0 0 0 0 0 0 0 0 0 0 0 0.08 0"/>
<feBlend mode="normal" in2="effect2_dropShadow_2476_25821" result="effect3_dropShadow_2476_25821"/>
<feColorMatrix in="SourceAlpha" type="matrix" values="0 0 0 0 0 0 0 0 0 0 0 0 0 0 0 0 0 0 127 0" result="hardAlpha"/>
<feOffset dy="39"/>
<feGaussianBlur stdDeviation="8"/>
<feColorMatrix type="matrix" values="0 0 0 0 0 0 0 0 0 0 0 0 0 0 0 0 0 0 0.02 0"/>
<feBlend mode="normal" in2="effect3_dropShadow_2476_25821" result="effect4_dropShadow_2476_25821"/>
<feBlend mode="normal" in="SourceGraphic" in2="effect4_dropShadow_2476_25821" result="shape"/>
</filter>
</defs>
</svg>
