<svg width="103" height="97" viewBox="0 0 103 97" fill="none" xmlns="http://www.w3.org/2000/svg">
<g clip-path="url(#clip0_9816_52399)">
<path d="M0.238281 64.8051L43.1666 0.899399C43.6243 0.217073 45.355 0.391815 48.1426 1.5734L5.21427 65.4791C2.42672 64.2975 0.695939 64.1228 0.238281 64.8051Z" fill="#A4542B"/>
<path d="M56.6406 93.5629L99.5689 29.6572L102.123 32.5946L59.2035 96.5002L56.6406 93.5629Z" fill="#CC8237"/>
<path d="M56.8068 11.5091C54.0692 10.3442 50.4745 7.83123 48.7936 5.90906C48.0447 5.05199 47.7951 4.44456 47.9948 4.15332C33.6909 25.4469 19.3787 46.7488 5.07479 68.0507C4.87509 68.3503 5.1164 68.9494 5.87361 69.8064C7.55447 71.7286 11.1492 74.2499 13.8868 75.4065L56.6487 93.5547L99.5687 29.6574L56.8068 11.5091Z" fill="#E8943E"/>
<path d="M47.8359 83.5854L88.6757 22.667L94.775 29.6567L53.9353 90.5751L47.8359 83.5854Z" fill="white"/>
<path d="M47.8388 83.5867L53.9381 90.5847L14.8541 73.9925C12.1165 72.8275 8.52179 70.3146 6.84094 68.3924C5.16008 66.4619 6.01715 65.8379 8.75478 67.0028L47.8388 83.595V83.5867Z" fill="#E8DDD1"/>
<path d="M47.9787 83.6274L50.5416 86.5647L46.8637 85.0087L7.77966 68.4165C5.04204 67.2515 4.18497 67.8756 5.86582 69.8061C7.54667 71.7283 11.1414 74.2495 13.879 75.4062L56.6409 93.5544L59.2038 96.4917L16.4419 78.3435C11.4076 76.205 4.80073 71.5868 1.70529 68.0337C-1.39014 64.4806 0.190862 63.3406 5.2251 65.4708L47.987 83.619L47.9787 83.6274Z" fill="#8A4624"/>
<path d="M5.21484 65.4799L48.1432 1.57422L90.9051 19.7308L47.9767 83.6281L5.21484 65.4799Z" fill="#E8943E"/>
<path d="M45.1552 78.6846C44.606 78.6846 44.0818 78.5848 43.5992 78.3768L13.2024 65.4708C12.3286 65.0964 11.7129 64.439 11.4633 63.6069C11.2136 62.7748 11.3717 61.8844 11.9043 61.0939L47.3436 8.35509C48.0925 7.23174 49.5154 6.50781 50.9633 6.50781C51.5125 6.50781 52.0367 6.60767 52.5193 6.81569L82.9161 19.7216C83.7899 20.0961 84.4056 20.7535 84.6552 21.5856C84.9049 22.4177 84.7468 23.308 84.2142 24.0985L48.7832 76.8457C48.0343 77.969 46.6114 78.6846 45.1635 78.6846H45.1552ZM50.9633 6.93219C49.6486 6.93219 48.3671 7.58123 47.6848 8.5964L12.2538 61.3436C11.7961 62.0259 11.663 62.7914 11.871 63.4987C12.079 64.206 12.6116 64.7718 13.3688 65.0964L43.7656 78.0023C44.19 78.1854 44.6559 78.2769 45.1552 78.2769C46.4699 78.2769 47.7514 77.6279 48.4337 76.621L83.8647 23.8655C84.3224 23.1832 84.4555 22.4177 84.2475 21.7104C84.0395 21.0031 83.5069 20.4373 82.7497 20.1127L52.3529 7.20678C51.9285 7.02372 51.4626 6.93219 50.9633 6.93219Z" fill="#A4542B"/>
<path d="M47.9766 83.6278L90.9049 19.7305L93.4678 22.6678L50.5394 86.5652L47.9766 83.6278Z" fill="#CC8237"/>
<path d="M12.1567 71.3379C12.1567 71.3379 6.73966 73.8675 3.96875 81.1484C6.15719 80.5659 9.95991 79.6506 9.95991 79.6506C9.95991 79.6506 10.7171 82.8293 12.3564 84.8097C15.094 79.1347 20.5443 74.9992 20.5443 74.9992L12.1567 71.3379Z" fill="#F03A3A"/>
</g>
<defs>
<clipPath id="clip0_9816_52399">
<rect width="102.008" height="96" fill="white" transform="translate(0.117188 0.5)"/>
</clipPath>
</defs>
</svg>
