<svg width="45" height="44" viewBox="0 0 45 44" fill="none" xmlns="http://www.w3.org/2000/svg">
<g clip-path="url(#clip0_9816_58078)">
<path style="mix-blend-mode:screen" d="M17.6934 13.9374L16.6134 14.0129C18.0074 16.265 17.3188 19.6899 13.827 21.0357C10.3349 22.3807 8.12366 24.9338 8.40742 28.9642C8.78437 34.3107 13.1803 39.1784 22.368 38.5303C31.5557 37.8821 35.2248 32.4457 34.847 27.0994C34.5521 22.9232 32.015 20.8518 28.3687 20.0105C24.7224 19.1692 23.5597 15.8748 24.6237 13.4486L23.627 13.5194L17.6945 13.938L17.6934 13.9374Z" fill="url(#paint0_radial_9816_58078)"/>
<path opacity="0.65" d="M17.6934 13.9374L16.6134 14.0129C18.0074 16.265 17.3188 19.6899 13.827 21.0357C10.3349 22.3807 8.12366 24.9338 8.40742 28.9642C8.78437 34.3107 13.1803 39.1784 22.368 38.5303C31.5557 37.8821 35.2248 32.4457 34.847 27.0994C34.5521 22.9232 32.015 20.8518 28.3687 20.0105C24.7224 19.1692 23.5597 15.8748 24.6237 13.4486L23.627 13.5194L17.6945 13.938L17.6934 13.9374Z" fill="url(#paint1_radial_9816_58078)"/>
<path d="M9.08327 30.2661C10.1216 35.1443 15.1499 38.3284 22.3732 37.8187C30.209 37.2659 34.7854 32.8587 34.3907 27.2584C34.2498 25.2574 33.3181 23.7659 32.2177 22.7762L30.5698 23.1276L9.08304 30.2652L9.08327 30.2661Z" fill="url(#paint2_radial_9816_58078)"/>
<mask id="mask0_9816_58078" style="mask-type:luminance" maskUnits="userSpaceOnUse" x="9" y="22" width="26" height="16">
<path d="M9.08327 30.2661C10.1216 35.1443 15.1499 38.3284 22.3732 37.8187C30.209 37.2659 34.7854 32.8587 34.3907 27.2584C34.2498 25.2574 33.3181 23.7659 32.2177 22.7762L30.5698 23.1276L9.08304 30.2652L9.08327 30.2661Z" fill="white"/>
</mask>
<g mask="url(#mask0_9816_58078)">
<path opacity="0.14" d="M44.2322 32.8333C48.7938 27.7288 42.0219 25.8062 40.6517 25.6665C39.2823 25.5265 38.6368 32.8472 33.9319 32.7342C29.2269 32.6211 22.3655 28.813 25.3045 32.8425C26.4058 34.3527 24.5522 36.1199 22.282 35.1451C20.0119 34.1704 14.5067 31.4006 10.035 35.0217C5.56324 38.6427 29.738 40.7834 29.738 40.7834L42.2216 36.9092L45.7212 33.9401L44.2322 32.8333Z" fill="url(#paint3_radial_9816_58078)"/>
</g>
<path d="M9.09246 30.3021C9.42686 31.3835 17.1047 32.3099 23.516 30.273C29.9264 28.2363 32.6421 24.0078 32.3077 22.9264C31.9733 21.845 26.5056 22.6199 20.0951 24.6566C13.6847 26.6933 8.75916 29.2213 9.09269 30.3029L9.09246 30.3021Z" fill="url(#paint4_radial_9816_58078)"/>
<path d="M28.5248 20.067C24.8026 19.22 23.6182 15.8932 24.7062 13.442L23.6884 13.5138C23.0657 15.9315 23.3932 19.087 26.374 20.1903C28.8105 21.0916 33.9668 21.865 34.3496 27.303C34.7333 32.7408 30.0029 37.2813 22.316 37.824C14.63 38.3665 9.30811 34.5347 8.9244 29.0969C8.54068 23.6592 13.3173 22.2835 15.5488 20.9545C18.2109 19.3688 18.5855 16.2474 17.6299 13.9411L16.5272 14.0189C17.9484 16.2926 17.2432 19.7527 13.6764 21.1139C10.1097 22.4751 7.84981 25.0553 8.13686 29.1256C8.51775 34.5251 13.0021 39.4379 22.3833 38.7761C31.7645 38.1142 35.5139 32.62 35.1332 27.2214C34.8356 23.0041 32.2462 20.9142 28.5237 20.0663L28.5248 20.067Z" fill="url(#paint5_radial_9816_58078)"/>
<mask id="mask1_9816_58078" style="mask-type:luminance" maskUnits="userSpaceOnUse" x="8" y="13" width="28" height="26">
<path d="M28.5248 20.067C24.8026 19.22 23.6182 15.8932 24.7062 13.442L23.6884 13.5138C23.0657 15.9315 23.3932 19.087 26.374 20.1903C28.8105 21.0916 33.9668 21.865 34.3496 27.303C34.7333 32.7408 30.0029 37.2813 22.316 37.824C14.63 38.3665 9.30811 34.5347 8.9244 29.0969C8.54068 23.6592 13.3173 22.2835 15.5488 20.9545C18.2109 19.3688 18.5855 16.2474 17.6299 13.9411L16.5272 14.0189C17.9484 16.2926 17.2432 19.7527 13.6764 21.1139C10.1097 22.4751 7.84981 25.0553 8.13686 29.1256C8.51775 34.5251 13.0021 39.4379 22.3833 38.7761C31.7645 38.1142 35.5139 32.62 35.1332 27.2214C34.8356 23.0041 32.2462 20.9142 28.5237 20.0663L28.5248 20.067Z" fill="white"/>
</mask>
<g mask="url(#mask1_9816_58078)">
<path style="mix-blend-mode:screen" d="M30.4015 36.3354C33.2791 34.3915 35.1486 32.1297 34.577 31.2835C34.0054 30.4374 31.2092 31.3273 28.3316 33.2712C25.4539 35.2151 23.5845 37.477 24.1561 38.3231C24.7277 39.1693 27.5238 38.2793 30.4015 36.3354Z" fill="url(#paint6_radial_9816_58078)"/>
<path style="mix-blend-mode:screen" d="M10.8195 25.894C13.6971 23.9501 15.5665 21.6883 14.9949 20.8421C14.4234 19.996 11.6272 20.8859 8.74952 22.8298C5.87186 24.7737 4.00243 27.0356 4.57403 27.8817C5.14563 28.7279 7.9418 27.8379 10.8195 25.894Z" fill="url(#paint7_radial_9816_58078)"/>
</g>
<path d="M14.4414 11.8984L15.4377 14.2943C15.6315 15.073 18.9991 15.2142 21.9099 15.0081C24.821 14.8029 25.8978 14.2986 25.9791 13.5504L26.4753 11.0494L14.4414 11.8984Z" fill="url(#paint8_radial_9816_58078)"/>
<path d="M14.4424 11.8989C14.4855 12.5077 18.49 12.6968 21.8127 12.4622C25.1354 12.2276 26.5186 11.6589 26.4763 11.0499C26.4332 10.4411 23.7046 10.137 20.382 10.3716C17.0593 10.6062 14.4001 11.2898 14.4424 11.8989Z" fill="url(#paint9_radial_9816_58078)"/>
<path d="M14.4375 5.38086C16.1005 9.00814 16.3115 11.4201 16.3115 11.4201C17.0764 13.053 23.9409 12.1902 24.1823 11.189C24.5682 8.60593 23.9993 7.56597 24.9711 3.63264L14.4375 5.38086Z" fill="url(#paint10_radial_9816_58078)"/>
<path d="M14.4396 5.38154C14.5696 5.89453 15.3337 7.70157 18.2318 7.17338C21.1591 6.64012 25.0958 4.15667 24.973 3.63245C24.8491 3.10759 22.1925 3.04746 19.2576 3.59108C16.3522 4.12964 14.3091 4.86682 14.4393 5.38067L14.4396 5.38154Z" fill="url(#paint11_radial_9816_58078)"/>
<mask id="mask2_9816_58078" style="mask-type:luminance" maskUnits="userSpaceOnUse" x="14" y="3" width="11" height="5">
<path d="M14.4396 5.38154C14.5696 5.89453 15.3337 7.70157 18.2318 7.17338C21.1591 6.64012 25.0958 4.15667 24.973 3.63245C24.8491 3.10759 22.1925 3.04746 19.2576 3.59108C16.3522 4.12964 14.3091 4.86682 14.4393 5.38067L14.4396 5.38154Z" fill="white"/>
</mask>
<g mask="url(#mask2_9816_58078)">
<path d="M20.6073 3.51777C20.8698 3.55345 19.0591 3.74844 17.9916 4.39163C16.7671 5.12898 19.4166 5.56864 21.1219 4.98708C22.5442 4.50181 23.6409 3.97821 23.7239 3.6667C23.8043 3.36614 20.493 4.03203 20.2483 4.22596C19.9943 4.42702 22.6413 4.0312 22.6413 4.0312C22.6413 4.0312 22.2836 4.55675 19.821 4.4781C16.6886 4.37803 22.8214 3.30117 24.0057 3.34009C24.9932 3.33219 23.2735 5.56107 19.8215 6.12887C14.6776 6.96681 13.9798 5.18197 16.5739 4.41155C18.6528 3.79407 20.3439 3.48232 20.6062 3.51713L20.6073 3.51777Z" fill="url(#paint12_radial_9816_58078)"/>
</g>
<path d="M20.1595 6.61579L20.1166 9.22224L19.0321 6.9867L18.4805 6.50391L20.1595 6.61579Z" fill="url(#paint13_radial_9816_58078)"/>
<path d="M21.5649 7.64981C21.2065 8.45366 21.2016 9.17486 21.5537 9.26003C21.9057 9.3452 22.4817 8.76302 22.84 7.9583C23.1985 7.15444 23.2033 6.43324 22.8512 6.34807C22.4992 6.2629 21.9232 6.84508 21.5649 7.64981Z" fill="url(#paint14_radial_9816_58078)"/>
<path d="M17.4903 9.81092C17.8705 10.428 18.4524 10.8329 18.7895 10.7166C19.1266 10.6002 19.0918 10.005 18.7118 9.38874C18.3316 8.77165 17.7497 8.36673 17.4126 8.4831C17.0754 8.59948 17.1103 9.1947 17.4903 9.81092Z" fill="url(#paint15_radial_9816_58078)"/>
<path opacity="0.35" d="M21.419 11.1047C21.7174 10.8925 21.7137 10.375 21.4107 9.94873C21.1077 9.5225 20.6201 9.34897 20.3216 9.56114C20.0232 9.77331 20.0269 10.2908 20.3299 10.7171C20.6329 11.1433 21.1205 11.3168 21.419 11.1047Z" fill="url(#paint16_radial_9816_58078)"/>
<path style="mix-blend-mode:screen" d="M16.0786 21.7158C16.0786 21.7158 10.2242 23.8908 10.6777 29.1862L19.0706 28.5501C19.0706 28.5501 15.6139 24.2855 18.9582 21.7264L16.078 21.7169L16.0786 21.7158Z" fill="url(#paint17_radial_9816_58078)"/>
<path style="mix-blend-mode:screen" d="M25.5635 20.7306C25.5136 20.9328 27.6646 21.8585 28.2787 22.0121C28.8925 22.1648 29.4314 22.1245 29.4814 21.9223C29.5314 21.7201 29.0748 21.4323 28.4607 21.2788C27.8469 21.1261 25.6135 20.5284 25.5635 20.7306Z" fill="url(#paint18_radial_9816_58078)"/>
<path d="M24.6528 26.7094C24.6988 27.3602 28.7446 27.0751 28.6985 26.4243C28.6525 25.7734 27.7098 25.3099 26.5925 25.3888C25.4753 25.4677 24.607 26.0594 24.6528 26.7094Z" fill="url(#paint19_radial_9816_58078)"/>
<mask id="mask3_9816_58078" style="mask-type:luminance" maskUnits="userSpaceOnUse" x="24" y="25" width="5" height="3">
<path d="M24.6528 26.7094C24.6988 27.3602 28.7446 27.0751 28.6985 26.4243C28.6525 25.7734 27.7098 25.3099 26.5925 25.3888C25.4753 25.4677 24.607 26.0594 24.6528 26.7094Z" fill="white"/>
</mask>
<g mask="url(#mask3_9816_58078)">
<path d="M29.0581 26.0601C28.609 25.5852 27.625 25.3318 27.9529 25.5908C28.7834 26.2463 26.3808 27.6899 23.1115 27.2247C19.8425 26.7604 22.6228 27.657 22.6228 27.657L28.4668 27.7653L29.9589 26.6866L29.0587 26.059L29.0581 26.0601Z" fill="url(#paint20_radial_9816_58078)"/>
</g>
<path d="M25.0837 26.1709C25.1606 26.26 25.5529 26.1968 25.9593 26.0302C26.3658 25.8636 26.6338 25.656 26.5569 25.5668C26.48 25.4777 26.0877 25.541 25.6813 25.7075C25.2748 25.8741 25.0068 26.0817 25.0837 26.1709Z" fill="#9CDE3E"/>
<path d="M26.4793 27.2054C25.3209 27.287 24.3655 27.1059 24.3436 26.802C24.3374 26.7163 24.4089 26.6292 24.5385 26.547C24.203 26.6695 24.0019 26.8145 24.0117 26.9588C24.033 27.2638 24.9892 27.4447 26.1474 27.3623C26.9772 27.3036 27.684 27.1263 28.0104 26.9179C27.635 27.0548 27.0912 27.1633 26.4795 27.2063L26.4793 27.2054Z" fill="#9CDE3E"/>
<path d="M20.71 29.098C20.7468 29.6238 22.923 29.4704 22.8863 28.9445C22.8495 28.4186 22.3323 28.0261 21.7307 28.0683C21.1291 28.1105 20.6731 28.5712 20.71 29.098Z" fill="url(#paint21_radial_9816_58078)"/>
<mask id="mask4_9816_58078" style="mask-type:luminance" maskUnits="userSpaceOnUse" x="20" y="28" width="3" height="2">
<path d="M20.71 29.098C20.7468 29.6238 22.923 29.4704 22.8863 28.9445C22.8495 28.4186 22.3323 28.0261 21.7307 28.0683C21.1291 28.1105 20.6731 28.5712 20.71 29.098Z" fill="white"/>
</mask>
<g mask="url(#mask4_9816_58078)">
<path d="M23.0744 28.6576C22.8232 28.2654 22.2873 28.0425 22.4696 28.2578C22.9299 28.8023 21.6619 29.9224 19.8902 29.4856C18.1194 29.0486 19.6353 29.8255 19.6353 29.8255L22.7877 30.0244L23.5711 29.182L23.0735 28.6578L23.0744 28.6576Z" fill="url(#paint22_radial_9816_58078)"/>
</g>
<path d="M20.9344 28.6724C20.9773 28.7456 21.1879 28.7021 21.4042 28.5754C21.6204 28.4486 21.7611 28.2863 21.7171 28.2125C21.6732 28.1387 21.4636 28.1828 21.2474 28.3095C21.0311 28.4363 20.8905 28.5986 20.9344 28.6724Z" fill="#9CDE3E"/>
<path d="M21.7056 29.5322C21.0831 29.5762 20.5638 29.4122 20.5462 29.1658C20.5415 29.0963 20.5778 29.0271 20.6463 28.9632C20.4674 29.0557 20.3619 29.1686 20.3699 29.2855C20.3876 29.5319 20.906 29.6962 21.5294 29.652C21.9758 29.6207 22.353 29.4908 22.5253 29.3284C22.3252 29.4322 22.0341 29.5084 21.7056 29.5322Z" fill="#9CDE3E"/>
<path d="M22.3233 24.9515C22.3601 25.4774 24.5363 25.3239 24.4996 24.7981C24.4626 24.2713 23.9456 23.8797 23.344 23.9218C22.7423 23.964 22.2863 24.4247 22.3233 24.9515Z" fill="url(#paint23_radial_9816_58078)"/>
<mask id="mask5_9816_58078" style="mask-type:luminance" maskUnits="userSpaceOnUse" x="22" y="23" width="3" height="3">
<path d="M22.3233 24.9515C22.3601 25.4774 24.5363 25.3239 24.4996 24.7981C24.4626 24.2713 23.9456 23.8797 23.344 23.9218C22.7423 23.964 22.2863 24.4247 22.3233 24.9515Z" fill="white"/>
</mask>
<g mask="url(#mask5_9816_58078)">
<path d="M24.6876 24.5111C24.4365 24.1189 23.9006 23.896 24.0829 24.1113C24.5432 24.6558 23.2752 25.7759 21.5035 25.3391C19.7327 24.9021 21.2486 25.679 21.2486 25.679L24.401 25.8779L25.1844 25.0355L24.6868 24.5113L24.6876 24.5111Z" fill="url(#paint24_radial_9816_58078)"/>
</g>
<path d="M22.5438 24.5259C22.5867 24.5991 22.7973 24.5557 23.0135 24.4289C23.2298 24.3021 23.3704 24.1398 23.3265 24.066C23.2825 23.9922 23.073 24.0363 22.8567 24.163C22.6405 24.2898 22.4999 24.4521 22.5438 24.5259Z" fill="#9CDE3E"/>
<path d="M23.5741 25.368C24.1967 25.3239 24.6878 25.0882 24.6704 24.8426C24.6658 24.7732 24.6191 24.7104 24.5433 24.6563C24.7331 24.7226 24.8542 24.8204 24.862 24.9364C24.8797 25.1828 24.3885 25.4186 23.7658 25.4617C23.3193 25.493 22.9271 25.4177 22.7343 25.2814C22.9467 25.3557 23.2455 25.3909 23.575 25.3677L23.5741 25.368Z" fill="#9CDE3E"/>
<path d="M21.1396 32.8443C21.1802 33.4194 21.6793 33.8521 22.2535 33.8117C22.8286 33.771 23.2613 33.2719 23.2209 32.6977C23.1803 32.1226 22.6812 31.6899 22.107 31.7303C21.5319 31.771 21.0992 32.2701 21.1396 32.8443Z" fill="#27520A"/>
<path opacity="0.4" d="M28.9566 30.3723C28.9798 30.7018 29.266 30.9507 29.5964 30.9272C29.926 30.904 30.1748 30.6178 30.1514 30.2874C30.1279 29.957 29.842 29.709 29.5116 29.7325C29.182 29.7557 28.9332 30.0418 28.9566 30.3723Z" fill="#27520A"/>
<path opacity="0.4" d="M30.7334 27.9446C30.7686 28.4439 31.2014 28.8199 31.7007 28.7847C32.2001 28.7495 32.5761 28.3167 32.5409 27.8174C32.5057 27.3181 32.0729 26.942 31.5736 26.9772C31.0742 27.0124 30.6982 27.4452 30.7334 27.9446Z" fill="#27520A"/>
<path opacity="0.15" d="M28.5776 33.0583C28.5749 32.5577 28.1668 32.154 27.6662 32.1568C27.1656 32.1595 26.7619 32.5675 26.7646 33.0681C26.7673 33.5688 27.1754 33.9724 27.676 33.9697C28.1766 33.967 28.5803 33.559 28.5776 33.0583Z" fill="#27520A"/>
<path opacity="0.15" d="M15.8545 35.4641C15.8897 35.9634 16.3225 36.3395 16.8218 36.3043C17.3212 36.2691 17.6972 35.8363 17.662 35.3369C17.6268 34.8376 17.194 34.4616 16.6947 34.4968C16.1953 34.532 15.8193 34.9648 15.8545 35.4641Z" fill="#27520A"/>
<path d="M8.1731 33.1206C8.1731 33.1206 9.5161 40.6564 23.2578 39.6864C36.9996 38.7165 35.4184 31.1981 35.4184 31.1981C26.5679 34.4894 17.4808 35.0725 8.17286 33.1198L8.1731 33.1206Z" fill="url(#paint25_radial_9816_58078)"/>
<mask id="mask6_9816_58078" style="mask-type:luminance" maskUnits="userSpaceOnUse" x="8" y="31" width="28" height="9">
<path d="M8.1731 33.1206C8.1731 33.1206 9.5161 40.6564 23.2578 39.6864C36.9996 38.7165 35.4184 31.1981 35.4184 31.1981C26.5679 34.4894 17.4808 35.0725 8.17286 33.1198L8.1731 33.1206Z" fill="white"/>
</mask>
<g mask="url(#mask6_9816_58078)">
<path d="M34.2015 30.1158C34.2015 30.1158 36.0528 37.8129 24.4036 41.337C28.6323 37.9615 30.3125 34.6168 27.9457 31.3204L34.2015 30.1158Z" fill="#B75623"/>
</g>
<path d="M34.8237 30.6119C34.7447 31.8236 29.0179 33.1972 21.8941 33.6997C14.7877 34.2013 9.21628 33.6209 8.94032 32.4383C8.60777 32.6586 8.15713 32.9068 8.17249 33.1203C8.25868 34.3444 14.428 34.9069 21.9517 34.3763C29.4753 33.8457 35.5043 32.4227 35.4181 31.1986C35.4027 30.9814 35.1958 30.7856 34.8248 30.6125L34.8237 30.6119Z" fill="url(#paint26_radial_9816_58078)"/>
<path d="M21.3781 37.0275C21.458 38.1622 22.6024 39.0973 23.2443 39.0527C23.886 39.0072 24.3421 38.0507 24.2614 36.9163C24.1815 35.7816 23.5959 34.8977 22.9542 34.9431C22.3125 34.9886 21.2974 35.8931 21.3784 37.0284L21.3781 37.0275Z" fill="url(#paint27_radial_9816_58078)"/>
<path d="M23.8959 35.6158C24.0068 35.9014 24.0817 36.2329 24.1064 36.589C24.1863 37.7237 23.7313 38.6809 23.0894 38.7254C22.7315 38.7506 21.9925 38.492 21.7479 38.0581C21.9905 38.6823 22.8021 39.0833 23.2431 39.0526C23.8847 39.0071 24.3409 38.0506 24.2601 36.9161C24.2251 36.414 24.09 35.9619 23.8961 35.6167L23.8959 35.6158Z" fill="url(#paint28_radial_9816_58078)"/>
<path d="M17.8298 35.877C17.7523 36.4205 18.2971 36.9925 18.6654 37.0445C19.0331 37.0976 19.3942 36.6995 19.4718 36.156C19.5494 35.6125 19.3149 35.1293 18.9466 35.0774C18.5789 35.0243 17.9074 35.3335 17.8298 35.877Z" fill="url(#paint29_radial_9816_58078)"/>
<path d="M19.4059 35.5035C19.4378 35.6503 19.4438 35.8152 19.4199 35.9862C19.3423 36.5297 18.9809 36.927 18.6135 36.8747C18.4083 36.8451 18.0191 36.6387 17.9278 36.4055C17.9973 36.7273 18.4124 37.0095 18.6649 37.046C19.0326 37.0991 19.3938 36.701 19.4714 36.1575C19.5054 35.9168 19.4787 35.6886 19.4061 35.5044L19.4059 35.5035Z" fill="url(#paint30_radial_9816_58078)"/>
<path d="M15.5825 34.1468L15.095 34.5593L15.7965 37.1876L14.4311 34.539L15.5825 34.1468Z" fill="url(#paint31_radial_9816_58078)"/>
</g>
<defs>
<radialGradient id="paint0_radial_9816_58078" cx="0" cy="0" r="1" gradientUnits="userSpaceOnUse" gradientTransform="translate(19.3095 25.1915) rotate(83.55) scale(18.4172 39.9969)">
<stop offset="0.02" stop-color="#BBC8D0"/>
<stop offset="0.04" stop-color="#B7C3CB" stop-opacity="0.95"/>
<stop offset="0.18" stop-color="#A7B0B5" stop-opacity="0.72"/>
<stop offset="0.31" stop-color="#9BA0A3" stop-opacity="0.54"/>
<stop offset="0.44" stop-color="#909495" stop-opacity="0.39"/>
<stop offset="0.56" stop-color="#898B8C" stop-opacity="0.28"/>
<stop offset="0.68" stop-color="#858586" stop-opacity="0.22"/>
<stop offset="0.78" stop-color="#848484" stop-opacity="0.2"/>
</radialGradient>
<radialGradient id="paint1_radial_9816_58078" cx="0" cy="0" r="1" gradientUnits="userSpaceOnUse" gradientTransform="translate(19.3095 25.1915) rotate(83.55) scale(18.4172 39.9969)">
<stop offset="0.03" stop-color="white"/>
<stop offset="0.28" stop-color="#BBC8D0"/>
<stop offset="0.46" stop-color="#A9B6BF"/>
<stop offset="0.84" stop-color="#7A8893"/>
<stop offset="0.88" stop-color="#74828D"/>
</radialGradient>
<radialGradient id="paint2_radial_9816_58078" cx="0" cy="0" r="1" gradientUnits="userSpaceOnUse" gradientTransform="translate(21.817 27.6248) rotate(67.83) scale(18.9437 38.0695)">
<stop offset="0.24" stop-color="#27520A"/>
<stop offset="0.6" stop-color="#469611"/>
<stop offset="0.93" stop-color="#9CDE3E"/>
</radialGradient>
<radialGradient id="paint3_radial_9816_58078" cx="0" cy="0" r="1" gradientUnits="userSpaceOnUse" gradientTransform="translate(8.86406 21.8384) rotate(61.44) scale(20.0565 51.684)">
<stop offset="0.24" stop-color="#27520A"/>
<stop offset="0.6" stop-color="#469611"/>
<stop offset="0.93" stop-color="#9CDE3E"/>
</radialGradient>
<radialGradient id="paint4_radial_9816_58078" cx="0" cy="0" r="1" gradientUnits="userSpaceOnUse" gradientTransform="translate(18.4958 26.4752) rotate(59.54) scale(9.99022 34.4663)">
<stop stop-color="#9CDE3E"/>
<stop offset="0.6" stop-color="#469611"/>
<stop offset="0.94" stop-color="#27520A"/>
</radialGradient>
<radialGradient id="paint5_radial_9816_58078" cx="0" cy="0" r="1" gradientUnits="userSpaceOnUse" gradientTransform="translate(9.70964 31.726) rotate(-4.04) scale(37.3807 37.3807)">
<stop offset="0.03" stop-color="white"/>
<stop offset="0.28" stop-color="#BBC8D0"/>
<stop offset="0.46" stop-color="#A9B6BF"/>
<stop offset="0.84" stop-color="#7A8893"/>
<stop offset="0.88" stop-color="#74828D"/>
</radialGradient>
<radialGradient id="paint6_radial_9816_58078" cx="0" cy="0" r="1" gradientUnits="userSpaceOnUse" gradientTransform="translate(30.0812 35.7338) rotate(-4.04) scale(5.0023)">
<stop offset="0.03" stop-color="white"/>
<stop offset="0.28" stop-color="#BBC8D0"/>
<stop offset="0.35" stop-color="#B4C1CA" stop-opacity="0.91"/>
<stop offset="0.5" stop-color="#A4B2BB" stop-opacity="0.69"/>
<stop offset="0.71" stop-color="#8B98A2" stop-opacity="0.33"/>
<stop offset="0.88" stop-color="#74828D" stop-opacity="0"/>
</radialGradient>
<radialGradient id="paint7_radial_9816_58078" cx="0" cy="0" r="1" gradientUnits="userSpaceOnUse" gradientTransform="translate(10.498 25.2919) rotate(-4.04) scale(5.0023)">
<stop offset="0.03" stop-color="white"/>
<stop offset="0.28" stop-color="#BBC8D0"/>
<stop offset="0.35" stop-color="#B4C1CA" stop-opacity="0.91"/>
<stop offset="0.5" stop-color="#A4B2BB" stop-opacity="0.69"/>
<stop offset="0.71" stop-color="#8B98A2" stop-opacity="0.33"/>
<stop offset="0.88" stop-color="#74828D" stop-opacity="0"/>
</radialGradient>
<radialGradient id="paint8_radial_9816_58078" cx="0" cy="0" r="1" gradientUnits="userSpaceOnUse" gradientTransform="translate(10.6048 13.3037) rotate(-4.04) scale(15.9931 17.0139)">
<stop offset="0.03" stop-color="white"/>
<stop offset="0.28" stop-color="#BBC8D0"/>
<stop offset="0.46" stop-color="#A9B6BF"/>
<stop offset="0.84" stop-color="#7A8893"/>
<stop offset="0.88" stop-color="#74828D"/>
</radialGradient>
<radialGradient id="paint9_radial_9816_58078" cx="0" cy="0" r="1" gradientUnits="userSpaceOnUse" gradientTransform="translate(14.9853 12.2491) rotate(-4.04) scale(15.8841 16.898)">
<stop offset="0.03" stop-color="white"/>
<stop offset="0.28" stop-color="#BBC8D0"/>
<stop offset="0.46" stop-color="#A9B6BF"/>
<stop offset="0.84" stop-color="#7A8893"/>
<stop offset="0.88" stop-color="#74828D"/>
</radialGradient>
<radialGradient id="paint10_radial_9816_58078" cx="0" cy="0" r="1" gradientUnits="userSpaceOnUse" gradientTransform="translate(19.5614 8.28309) rotate(-0.969998) scale(10.0354 24.9938)">
<stop offset="0.03" stop-color="#E47550"/>
<stop offset="0.68" stop-color="#7F2C1E"/>
</radialGradient>
<radialGradient id="paint11_radial_9816_58078" cx="0" cy="0" r="1" gradientUnits="userSpaceOnUse" gradientTransform="translate(17.2265 -0.37344) rotate(-1.16) scale(17.392 12.9619)">
<stop offset="0.11" stop-color="#FFCA89"/>
<stop offset="0.22" stop-color="#F9B87C"/>
<stop offset="0.42" stop-color="#EA895D"/>
<stop offset="0.5" stop-color="#E47550"/>
<stop offset="0.89" stop-color="#7F2C1E"/>
</radialGradient>
<radialGradient id="paint12_radial_9816_58078" cx="0" cy="0" r="1" gradientUnits="userSpaceOnUse" gradientTransform="translate(12.6476 3.82541) rotate(-5.92) scale(18.4337 8.61387)">
<stop offset="0.11" stop-color="#FFCA89"/>
<stop offset="0.22" stop-color="#F9B87C"/>
<stop offset="0.42" stop-color="#EA895D"/>
<stop offset="0.5" stop-color="#E47550"/>
<stop offset="0.89" stop-color="#7F2C1E"/>
</radialGradient>
<radialGradient id="paint13_radial_9816_58078" cx="0" cy="0" r="1" gradientUnits="userSpaceOnUse" gradientTransform="translate(30.2246 4.76211) rotate(-1.16001) scale(13.7446 10.2436)">
<stop offset="0.03" stop-color="#E47550"/>
<stop offset="0.68" stop-color="#7F2C1E"/>
</radialGradient>
<radialGradient id="paint14_radial_9816_58078" cx="0" cy="0" r="1" gradientUnits="userSpaceOnUse" gradientTransform="translate(26.3111 7.59462) rotate(13.62) scale(11.9053 9.27242)">
<stop offset="0.03" stop-color="#E47550"/>
<stop offset="0.68" stop-color="#7F2C1E"/>
</radialGradient>
<radialGradient id="paint15_radial_9816_58078" cx="0" cy="0" r="1" gradientUnits="userSpaceOnUse" gradientTransform="translate(18.3166 7.74885) rotate(-19.09) scale(11.6764 7.55531)">
<stop offset="0.03" stop-color="#E47550"/>
<stop offset="0.68" stop-color="#7F2C1E"/>
</radialGradient>
<radialGradient id="paint16_radial_9816_58078" cx="0" cy="0" r="1" gradientUnits="userSpaceOnUse" gradientTransform="translate(26.7989 6.64035) rotate(-24.21) scale(12.1409 5.57825)">
<stop offset="0.03" stop-color="#E47550"/>
<stop offset="0.68" stop-color="#7F2C1E"/>
</radialGradient>
<radialGradient id="paint17_radial_9816_58078" cx="0" cy="0" r="1" gradientUnits="userSpaceOnUse" gradientTransform="translate(14.0741 25.0906) rotate(83.52) scale(5.70844 12.5015)">
<stop offset="0.03" stop-color="white"/>
<stop offset="0.79" stop-color="#BBC8D0" stop-opacity="0"/>
</radialGradient>
<radialGradient id="paint18_radial_9816_58078" cx="0" cy="0" r="1" gradientUnits="userSpaceOnUse" gradientTransform="translate(27.1272 21.2983) rotate(101.52) scale(2.15257 4.71413)">
<stop offset="0.03" stop-color="white"/>
<stop offset="0.28" stop-color="#BBC8D0"/>
<stop offset="0.46" stop-color="#A9B6BF"/>
<stop offset="0.84" stop-color="#7A8893"/>
<stop offset="0.88" stop-color="#74828D"/>
</radialGradient>
<radialGradient id="paint19_radial_9816_58078" cx="0" cy="0" r="1" gradientUnits="userSpaceOnUse" gradientTransform="translate(26.6435 28.1741) rotate(-4.03999) scale(3.71579 2.48958)">
<stop offset="0.24" stop-color="#27520A" stop-opacity="0"/>
<stop offset="0.6" stop-color="#469611" stop-opacity="0"/>
<stop offset="0.93" stop-color="#9CDE3E"/>
</radialGradient>
<radialGradient id="paint20_radial_9816_58078" cx="0" cy="0" r="1" gradientUnits="userSpaceOnUse" gradientTransform="translate(25.1824 25.3696) rotate(-4.04) scale(8.50876 5.70087)">
<stop offset="0.24" stop-color="#27520A"/>
<stop offset="0.6" stop-color="#469611" stop-opacity="0"/>
<stop offset="0.93" stop-color="#9CDE3E"/>
</radialGradient>
<radialGradient id="paint21_radial_9816_58078" cx="0" cy="0" r="1" gradientUnits="userSpaceOnUse" gradientTransform="translate(21.7798 29.9271) rotate(-4.04) scale(1.99804)">
<stop offset="0.24" stop-color="#27520A" stop-opacity="0"/>
<stop offset="0.6" stop-color="#469611" stop-opacity="0"/>
<stop offset="0.93" stop-color="#9CDE3E"/>
</radialGradient>
<radialGradient id="paint22_radial_9816_58078" cx="0" cy="0" r="1" gradientUnits="userSpaceOnUse" gradientTransform="translate(20.9412 27.653) rotate(-4.04) scale(4.57646)">
<stop offset="0.24" stop-color="#27520A"/>
<stop offset="0.6" stop-color="#469611" stop-opacity="0"/>
<stop offset="0.93" stop-color="#9CDE3E"/>
</radialGradient>
<radialGradient id="paint23_radial_9816_58078" cx="0" cy="0" r="1" gradientUnits="userSpaceOnUse" gradientTransform="translate(23.3932 25.7803) rotate(-4.04) scale(1.99804)">
<stop offset="0.24" stop-color="#27520A" stop-opacity="0"/>
<stop offset="0.6" stop-color="#469611" stop-opacity="0"/>
<stop offset="0.93" stop-color="#9CDE3E"/>
</radialGradient>
<radialGradient id="paint24_radial_9816_58078" cx="0" cy="0" r="1" gradientUnits="userSpaceOnUse" gradientTransform="translate(22.5545 23.5062) rotate(-4.04) scale(4.57646)">
<stop offset="0.24" stop-color="#27520A"/>
<stop offset="0.6" stop-color="#469611" stop-opacity="0"/>
<stop offset="0.93" stop-color="#9CDE3E"/>
</radialGradient>
<radialGradient id="paint25_radial_9816_58078" cx="0" cy="0" r="1" gradientUnits="userSpaceOnUse" gradientTransform="translate(8.76239 17.7239) rotate(-4.04) scale(30.5627 30.5627)">
<stop offset="0.11" stop-color="#FAFB08"/>
<stop offset="0.24" stop-color="#F8E906"/>
<stop offset="0.48" stop-color="#F5BA02"/>
<stop offset="0.6" stop-color="#F4A200"/>
<stop offset="0.94" stop-color="#B75623"/>
</radialGradient>
<radialGradient id="paint26_radial_9816_58078" cx="0" cy="0" r="1" gradientUnits="userSpaceOnUse" gradientTransform="translate(17.5141 29.8388) rotate(-4.04) scale(22.4951 22.4951)">
<stop offset="0.11" stop-color="#FAFB08"/>
<stop offset="0.24" stop-color="#F8E906"/>
<stop offset="0.48" stop-color="#F5BA02"/>
<stop offset="0.6" stop-color="#F4A200"/>
<stop offset="0.94" stop-color="#B75623"/>
</radialGradient>
<radialGradient id="paint27_radial_9816_58078" cx="0" cy="0" r="1" gradientUnits="userSpaceOnUse" gradientTransform="translate(25.1218 42.787) rotate(-4.03999) scale(9.30834 9.30834)">
<stop offset="0.19" stop-color="#F4A200"/>
<stop offset="0.76" stop-color="#B75623"/>
</radialGradient>
<radialGradient id="paint28_radial_9816_58078" cx="0" cy="0" r="1" gradientUnits="userSpaceOnUse" gradientTransform="translate(19.4229 32.4538) rotate(-4.04) scale(11.7403)">
<stop offset="0.11" stop-color="#FAFB08"/>
<stop offset="0.24" stop-color="#F8E906"/>
<stop offset="0.48" stop-color="#F5BA02"/>
<stop offset="0.6" stop-color="#F4A200"/>
<stop offset="0.94" stop-color="#B75623"/>
</radialGradient>
<radialGradient id="paint29_radial_9816_58078" cx="0" cy="0" r="1" gradientUnits="userSpaceOnUse" gradientTransform="translate(19.4604 39.0381) rotate(8.14999) scale(5.38825 4.49021)">
<stop offset="0.19" stop-color="#F4A200"/>
<stop offset="0.76" stop-color="#B75623"/>
</radialGradient>
<radialGradient id="paint30_radial_9816_58078" cx="0" cy="0" r="1" gradientUnits="userSpaceOnUse" gradientTransform="translate(17.3522 33.518) rotate(8.14997) scale(6.79515 5.66262)">
<stop offset="0.11" stop-color="#FAFB08"/>
<stop offset="0.24" stop-color="#F8E906"/>
<stop offset="0.48" stop-color="#F5BA02"/>
<stop offset="0.6" stop-color="#F4A200"/>
<stop offset="0.94" stop-color="#B75623"/>
</radialGradient>
<radialGradient id="paint31_radial_9816_58078" cx="0" cy="0" r="1" gradientUnits="userSpaceOnUse" gradientTransform="translate(14.3289 41.5966) rotate(-4.04) scale(10.2238 10.2238)">
<stop offset="0.19" stop-color="#F4A200"/>
<stop offset="0.76" stop-color="#B75623"/>
</radialGradient>
<clipPath id="clip0_9816_58078">
<rect width="44.3871" height="43.3548" fill="white" transform="translate(0 0.0644531)"/>
</clipPath>
</defs>
</svg>
