<svg width="48" height="48" viewBox="0 0 48 48" fill="none" xmlns="http://www.w3.org/2000/svg">
<g clip-path="url(#clip0_9103_187359)">
<path fill-rule="evenodd" clip-rule="evenodd" d="M14.3984 0C13.073 0 11.9984 1.07453 11.9984 2.4V4.8H9.59844C5.622 4.8 2.39844 8.02356 2.39844 12V16.8V40.8C2.39844 44.7766 5.622 48 9.59844 48H38.3984C42.375 48 45.5984 44.7766 45.5984 40.8V16.8V12C45.5984 8.02354 42.375 4.8 38.3984 4.8H35.9984V2.4C35.9984 1.07453 34.924 0 33.5984 0C32.2729 0 31.1984 1.07453 31.1984 2.4V4.8H16.7984V2.4C16.7984 1.07453 15.7239 0 14.3984 0ZM33.5984 9.6H14.3984H9.59844C8.27297 9.6 7.19844 10.6745 7.19844 12V14.4H40.7984V12C40.7984 10.6745 39.724 9.6 38.3984 9.6H33.5984ZM7.19844 40.8V19.2H40.7984V40.8C40.7984 42.1255 39.724 43.2 38.3984 43.2H9.59844C8.27297 43.2 7.19844 42.1255 7.19844 40.8ZM22.1807 23.5879C22.7708 21.8518 25.226 21.8518 25.8162 23.5879L27.1146 27.4073H31.0679C32.9488 27.4073 33.7079 29.8313 32.163 30.9041L29.0404 33.0727L30.2797 36.7186C30.8759 38.4725 28.888 39.9701 27.3666 38.9136L23.9984 36.5743L20.6303 38.9136C19.1088 39.9701 17.1211 38.4725 17.7172 36.7186L18.9565 33.0727L15.8338 30.9041C14.289 29.8313 15.0482 27.4073 16.929 27.4073H20.8823L22.1807 23.5879Z" fill="white"/>
</g>
<defs>
<clipPath id="clip0_9103_187359">
<rect width="48" height="48" fill="white"/>
</clipPath>
</defs>
</svg>
