<svg width="20" height="20" viewBox="0 0 20 20" fill="none" xmlns="http://www.w3.org/2000/svg">
<path fill-rule="evenodd" clip-rule="evenodd" d="M5.76491 3H5.6902C5.56103 3.0041 5.43356 3.03054 5.31341 3.07812L5.28029 3.09125C4.76235 3.29634 3.23495 3.86153 2.85841 4.23812C2.29645 4.8 2.03829 5.49781 2.00391 6.28731C1.96554 7.1695 2.21404 8.08781 2.54201 8.89922C3.37326 10.9558 4.93395 12.9503 6.49185 14.5083C8.04976 16.0662 10.0443 17.627 12.1009 18.4583C12.8612 18.7656 13.7069 19 14.5324 19C14.5926 19 14.6529 18.9987 14.713 18.9962C15.5024 18.9618 16.2005 18.7037 16.7622 18.1418C17.1473 17.7566 17.7028 16.2497 17.9078 15.7235L17.9208 15.6902C18.02 15.4415 18.026 15.1653 17.9378 14.9124C17.8496 14.6595 17.6731 14.447 17.4406 14.314L14.7044 12.7344C14.4479 12.5869 14.1434 12.5471 13.8576 12.6236C13.5718 12.7002 13.328 12.887 13.1796 13.1429C12.9089 13.6117 12.4991 13.9919 11.9546 14.1032C11.6987 14.1591 11.4337 14.1583 11.1781 14.1009C10.9226 14.0435 10.6827 13.9308 10.4752 13.7709C9.86751 13.3148 9.28792 12.7859 8.75092 12.249C8.21392 11.7122 7.68529 11.1326 7.22926 10.525C7.06929 10.3176 6.95665 10.0777 6.89923 9.8221C6.84182 9.56653 6.84102 9.30148 6.89688 9.04556C7.00817 8.50134 7.38863 8.09125 7.85729 7.82056C8.11305 7.67199 8.29959 7.42821 8.37614 7.14251C8.45268 6.8568 8.41301 6.55241 8.26579 6.29588L6.68613 3.55966C6.5931 3.39551 6.45961 3.25791 6.29836 3.15995C6.1371 3.06198 5.95346 3.00692 5.76491 3ZM10.1158 3.63813C10.1158 3.55432 10.1323 3.47134 10.1644 3.39392C10.1965 3.31649 10.2435 3.24614 10.3028 3.18689C10.362 3.12763 10.4324 3.08063 10.5098 3.04856C10.5872 3.0165 10.6702 3 10.754 3C11.7055 2.99999 12.6476 3.18739 13.5267 3.5515C14.4057 3.91561 15.2044 4.4493 15.8772 5.1221C16.5499 5.79489 17.0836 6.59361 17.4477 7.47266C17.8118 8.3517 17.9992 9.29385 17.9991 10.2453C17.9991 10.4146 17.9319 10.5769 17.8122 10.6965C17.6926 10.8162 17.5303 10.8834 17.361 10.8834C17.1918 10.8834 17.0295 10.8162 16.9098 10.6965C16.7901 10.5769 16.7229 10.4146 16.7229 10.2453C16.7229 9.46147 16.5685 8.6853 16.2686 7.96111C15.9686 7.23693 15.529 6.57892 14.9747 6.02465C14.4205 5.47038 13.7625 5.03071 13.0383 4.73074C12.3141 4.43077 11.538 4.27638 10.7541 4.27638C10.6703 4.2764 10.5873 4.2599 10.5099 4.22783C10.4324 4.19577 10.362 4.14876 10.3028 4.08949C10.2435 4.03022 10.1965 3.95985 10.1644 3.8824C10.1323 3.80496 10.1158 3.72195 10.1158 3.63813ZM10.1158 6.22353C10.1158 6.13972 10.1323 6.05673 10.1644 5.9793C10.1964 5.90187 10.2434 5.83151 10.3027 5.77225C10.362 5.71298 10.4323 5.66596 10.5097 5.63388C10.5872 5.6018 10.6701 5.58529 10.7539 5.58528C11.3659 5.58525 11.9719 5.70577 12.5372 5.93994C13.1026 6.17411 13.6163 6.51736 14.0491 6.95007C14.4818 7.38279 14.825 7.89651 15.0592 8.46189C15.2933 9.02727 15.4139 9.63323 15.4138 10.2452C15.4126 10.4137 15.3449 10.5748 15.2253 10.6935C15.1058 10.8123 14.9442 10.8789 14.7757 10.8789C14.6072 10.8789 14.4456 10.8123 14.326 10.6935C14.2065 10.5748 14.1387 10.4137 14.1375 10.2452C14.1376 9.80085 14.05 9.36087 13.88 8.95035C13.71 8.53984 13.4607 8.16683 13.1466 7.85264C12.8324 7.53845 12.4594 7.28922 12.0488 7.11919C11.6383 6.94915 11.1983 6.86164 10.754 6.86166C10.6702 6.86166 10.5872 6.84516 10.5098 6.81309C10.4324 6.78102 10.362 6.73402 10.3028 6.67477C10.2435 6.61551 10.1965 6.54516 10.1644 6.46774C10.1323 6.39032 10.1158 6.30734 10.1158 6.22353ZM10.1158 8.80878C10.1158 8.63954 10.1831 8.47723 10.3028 8.35757C10.4224 8.2379 10.5848 8.17068 10.754 8.17069C11.0264 8.17068 11.2962 8.22433 11.5479 8.32858C11.7996 8.43283 12.0283 8.58563 12.2209 8.77827C12.4135 8.97091 12.5663 9.19961 12.6706 9.4513C12.7748 9.703 12.8285 9.97276 12.8284 10.2452C12.8284 10.4144 12.7612 10.5768 12.6415 10.6964C12.5219 10.8161 12.3595 10.8833 12.1903 10.8833C12.021 10.8833 11.8587 10.8161 11.739 10.6964C11.6194 10.5768 11.5521 10.4144 11.5521 10.2452C11.5522 10.1404 11.5315 10.0366 11.4914 9.93971C11.4513 9.84286 11.3925 9.75486 11.3184 9.68073C11.2443 9.6066 11.1563 9.54779 11.0595 9.50767C10.9626 9.46756 10.8588 9.44691 10.754 9.44691C10.6702 9.44691 10.5872 9.43041 10.5098 9.39834C10.4324 9.36628 10.362 9.31927 10.3028 9.26002C10.2435 9.20076 10.1965 9.13041 10.1644 9.05299C10.1323 8.97557 10.1158 8.89258 10.1158 8.80878Z" fill="#FB5933"/>
</svg>
