<svg width="20" height="20" viewBox="0 0 20 20" fill="none" xmlns="http://www.w3.org/2000/svg">
<path d="M18.4906 17.2566H1.50938C0.678125 17.2566 0 16.5816 0 15.7473V5.51914C0 4.68789 0.678125 4.00977 1.50938 4.00977H6.20313V3.85039C6.20313 3.24102 6.7 2.74414 7.30938 2.74414H13.2438C13.8531 2.74414 14.35 3.24102 14.35 3.85039V4.00977H18.4875C19.3188 4.00977 19.9969 4.68789 19.9969 5.51914V15.7473C20 16.5816 19.3219 17.2566 18.4906 17.2566ZM1.50938 5.45977C1.475 5.45977 1.45 5.48789 1.45 5.51914V15.7473C1.45 15.7816 1.47813 15.8066 1.50938 15.8066H18.4906C18.525 15.8066 18.55 15.7785 18.55 15.7473V5.51914C18.55 5.48477 18.5219 5.45977 18.4906 5.45977H13.6281C13.2281 5.45977 12.9031 5.13477 12.9031 4.73477V4.19102H7.65313V4.73477C7.65313 5.13477 7.32813 5.45977 6.92813 5.45977H1.50938Z" fill="#262626"/>
<path d="M10 14.7256C7.74375 14.7256 5.90625 12.8881 5.90625 10.6318C5.90625 8.37559 7.74375 6.53809 10 6.53809C12.2562 6.53809 14.0938 8.37559 14.0938 10.6318C14.0938 12.8912 12.2562 14.7256 10 14.7256ZM10 7.99121C8.54375 7.99121 7.35625 9.17871 7.35625 10.635C7.35625 12.0912 8.54063 13.2787 10 13.2787C11.4563 13.2787 12.6437 12.0943 12.6437 10.635C12.6437 9.17559 11.4563 7.99121 10 7.99121Z" fill="#262626"/>
<path d="M17.2359 7.47832H15.4203C15.0203 7.47832 14.6953 7.15332 14.6953 6.75332C14.6953 6.35332 15.0203 6.02832 15.4203 6.02832H17.2359C17.6359 6.02832 17.9609 6.35332 17.9609 6.75332C17.9609 7.15332 17.6359 7.47832 17.2359 7.47832Z" fill="#262626"/>
</svg>
