<svg width="20" height="20" viewBox="0 0 20 20" fill="none" xmlns="http://www.w3.org/2000/svg">
<path d="M7.9674 6.65453C8.52973 6.65453 8.98558 6.19867 8.98558 5.63635C8.98558 5.07402 8.52973 4.61816 7.9674 4.61816C7.40507 4.61816 6.94922 5.07402 6.94922 5.63635C6.94922 6.19867 7.40507 6.65453 7.9674 6.65453Z" fill="#FB5933"/>
<path d="M13.4952 6.36364C13.2253 6.36331 12.9665 6.25593 12.7756 6.06506C12.5848 5.87418 12.4774 5.61539 12.4771 5.34545V2H4.18615C3.91621 2.00033 3.65742 2.10771 3.46655 2.29858C3.27567 2.48946 3.1683 2.74824 3.16797 3.01818V16.9818C3.1683 17.2518 3.27567 17.5105 3.46655 17.7014C3.65742 17.8923 3.91621 17.9997 4.18615 18H15.8225C16.0925 17.9997 16.3512 17.8923 16.5421 17.7014C16.733 17.5105 16.8404 17.2518 16.8407 16.9818V6.36364H13.4952ZM6.07706 5.63636C6.07516 5.31955 6.15288 5.00734 6.3031 4.7284C6.45332 4.44947 6.67122 4.21274 6.93678 4.03997C7.20234 3.8672 7.50705 3.76393 7.82294 3.73963C8.13882 3.71533 8.45574 3.77078 8.74461 3.9009C9.03347 4.03102 9.28501 4.23164 9.47612 4.48432C9.66723 4.737 9.7918 5.03365 9.83837 5.34702C9.88494 5.6604 9.85203 5.98045 9.74266 6.27779C9.63329 6.57513 9.45097 6.84022 9.21243 7.04872C9.50129 7.24898 9.7374 7.51615 9.90063 7.82744C10.0638 8.13872 10.1493 8.48488 10.1498 8.83636C10.1498 8.95209 10.1038 9.06308 10.022 9.14492C9.94015 9.22675 9.82915 9.27273 9.71342 9.27273C9.59769 9.27273 9.4867 9.22675 9.40487 9.14492C9.32303 9.06308 9.27706 8.95209 9.27706 8.83636C9.27706 8.48917 9.13914 8.1562 8.89364 7.9107C8.64813 7.66519 8.31516 7.52727 7.96797 7.52727C7.62078 7.52727 7.2878 7.66519 7.0423 7.9107C6.7968 8.1562 6.65888 8.48917 6.65888 8.83636C6.65888 8.95209 6.6129 9.06308 6.53107 9.14492C6.44924 9.22675 6.33825 9.27273 6.22251 9.27273C6.10678 9.27273 5.99579 9.22675 5.91396 9.14492C5.83212 9.06308 5.78615 8.95209 5.78615 8.83636C5.7866 8.48488 5.87209 8.13872 6.03531 7.82744C6.19854 7.51615 6.43465 7.24898 6.72351 7.04872C6.52131 6.87298 6.35903 6.65604 6.24754 6.41246C6.13604 6.16887 6.07792 5.90425 6.07706 5.63636ZM14.0771 15.6727H11.168C11.0522 15.6727 10.9412 15.6268 10.8594 15.5449C10.7776 15.4631 10.7316 15.3521 10.7316 15.2364C10.7316 15.1206 10.7776 15.0096 10.8594 14.9278C10.9412 14.846 11.0522 14.8 11.168 14.8H14.0771C14.1928 14.8 14.3038 14.846 14.3856 14.9278C14.4675 15.0096 14.5134 15.1206 14.5134 15.2364C14.5134 15.3521 14.4675 15.4631 14.3856 15.5449C14.3038 15.6268 14.1928 15.6727 14.0771 15.6727ZM14.0771 13.3455H5.93161C5.81587 13.3455 5.70488 13.2995 5.62305 13.2176C5.54122 13.1358 5.49524 13.0248 5.49524 12.9091C5.49524 12.7934 5.54122 12.6824 5.62305 12.6005C5.70488 12.5187 5.81587 12.4727 5.93161 12.4727H14.0771C14.1928 12.4727 14.3038 12.5187 14.3856 12.6005C14.4675 12.6824 14.5134 12.7934 14.5134 12.9091C14.5134 13.0248 14.4675 13.1358 14.3856 13.2176C14.3038 13.2995 14.1928 13.3455 14.0771 13.3455ZM14.0771 11.0182H5.93161C5.81587 11.0182 5.70488 10.9722 5.62305 10.8904C5.54122 10.8085 5.49524 10.6975 5.49524 10.5818C5.49524 10.4661 5.54122 10.3551 5.62305 10.2733C5.70488 10.1914 5.81587 10.1455 5.93161 10.1455H14.0771C14.1928 10.1455 14.3038 10.1914 14.3856 10.2733C14.4675 10.3551 14.5134 10.4661 14.5134 10.5818C14.5134 10.6975 14.4675 10.8085 14.3856 10.8904C14.3038 10.9722 14.1928 11.0182 14.0771 11.0182Z" fill="#FB5933"/>
<path d="M13.4931 5.49112H16.5754C16.563 5.47734 16.5535 5.46168 16.5403 5.44851L13.3903 2.29851C13.3772 2.28548 13.3613 2.27592 13.3477 2.26367V5.34567C13.3477 5.38422 13.3631 5.42118 13.3903 5.44844C13.4176 5.4757 13.4546 5.49105 13.4931 5.49112Z" fill="#FB5933"/>
</svg>
