<svg width="50" height="57" viewBox="0 0 50 57" fill="none" xmlns="http://www.w3.org/2000/svg">
<g filter="url(#filter0_dddd_9816_42886)">
<g clip-path="url(#clip0_9816_42886)">
<path d="M41.2489 36.4372L17.7521 37.3112C17.5534 37.2251 12.8263 35.0535 9.6417 29.6841L10.1581 29.3266C10.1581 29.3266 13.7267 29.3465 13.5016 29.1611C13.2765 28.9757 9.42984 28.0356 9.42984 28.0356C9.42984 28.0356 9.18487 28.1349 8.85384 28.2143C8.41025 27.3073 8.01963 26.3208 7.70184 25.2482C7.83425 25.1357 7.9799 25.0099 8.11894 24.8775C8.41025 24.5994 8.65522 24.2949 8.64197 24.1161C8.60887 23.6725 7.74156 22.5404 7.50984 22.4675C7.42377 22.4411 7.25825 22.4675 7.07287 22.5073C7.05963 22.4411 7.05301 22.3682 7.03977 22.302C5.08004 9.41815 13.9783 5.65759 13.9783 5.65759L14.9449 5.60463L40.322 4.28711C40.322 4.28711 34.4826 7.50477 32.2381 16.4957C32.013 17.3762 31.9535 18.3097 32.0197 19.2697C31.3311 19.7133 29.9606 20.6469 30.3314 20.7991C30.6293 20.9183 31.5496 20.9117 32.2315 20.8786C33.6815 28.254 41.2555 36.4372 41.2555 36.4372H41.2489Z" fill="url(#paint0_linear_9816_42886)"/>
<path d="M21.1603 34.037C21.1206 34.037 21.0808 34.037 21.0411 34.0172C20.7829 33.9245 20.5578 33.8384 20.3724 33.7589C20.1937 33.6861 20.1142 33.4809 20.1871 33.3021C20.2599 33.1234 20.4651 33.0439 20.6439 33.1167C20.8226 33.1896 21.0345 33.2756 21.2795 33.3617C21.4582 33.4279 21.5575 33.6265 21.4913 33.8053C21.4384 33.9509 21.306 34.037 21.1603 34.037Z" fill="#DB2734"/>
<path d="M19.6944 33.1894C19.6944 33.1894 19.6679 33.1894 19.6481 33.1894C19.4561 33.1629 19.3237 32.9907 19.3435 32.7987C19.3965 32.3618 19.9261 32.183 20.8795 32.0109C21.0715 31.9778 21.2503 32.1036 21.2834 32.2889C21.3165 32.4809 21.1907 32.6597 21.0053 32.6994C20.3035 32.8318 20.0784 32.9245 20.0122 32.9709C19.9592 33.1033 19.8334 33.196 19.6878 33.196L19.6944 33.1894ZM21.9852 32.5273C21.813 32.5273 21.6674 32.4015 21.6409 32.2294C21.6144 32.0374 21.7402 31.8586 21.9322 31.8321L22.2566 31.7858C22.5943 31.7328 22.9518 31.6798 23.3159 31.6203C23.5079 31.5871 23.6867 31.7196 23.7198 31.9116C23.7529 32.1036 23.6205 32.2823 23.4285 32.3154C23.0577 32.375 22.7002 32.428 22.3626 32.4809L22.0381 32.5273C22.0381 32.5273 22.005 32.5273 21.9852 32.5273ZM24.4083 32.13C24.2428 32.13 24.0972 32.0109 24.0641 31.8454C24.031 31.6534 24.1501 31.4746 24.3421 31.4349C24.8453 31.3422 25.2823 31.2429 25.6928 31.1369C25.8781 31.0906 26.0701 31.2031 26.1165 31.3885C26.1628 31.5739 26.0503 31.7659 25.8649 31.8123C25.4478 31.9182 24.991 32.0175 24.4746 32.1168C24.4547 32.1168 24.4282 32.1168 24.4083 32.1168V32.13ZM26.7852 31.5276C26.6395 31.5276 26.5071 31.4349 26.4541 31.2892C26.3879 31.1038 26.4872 30.9052 26.6726 30.8456C27.1493 30.6801 27.5532 30.5014 27.8908 30.3027C28.0564 30.2034 28.2682 30.263 28.3675 30.4285C28.4668 30.594 28.4073 30.8125 28.2417 30.9052C27.871 31.1237 27.4208 31.3223 26.8977 31.5011C26.858 31.5143 26.8183 31.5209 26.7852 31.5209V31.5276ZM28.8839 30.3094C28.7979 30.3094 28.7184 30.2829 28.6522 30.2167C28.5066 30.0909 28.4933 29.8658 28.6257 29.7201C28.7317 29.6009 28.8177 29.4751 28.8839 29.3494C29.0097 29.1044 29.0759 28.8925 29.0759 28.7138C29.0759 28.5218 29.2282 28.3562 29.4202 28.3562C29.6188 28.3562 29.7711 28.4953 29.7711 28.6873C29.7711 29.0117 29.685 29.3229 29.5063 29.6738C29.4136 29.8525 29.2944 30.0247 29.1488 30.1902C29.0826 30.2696 28.9833 30.3094 28.8906 30.3094H28.8839ZM28.9104 28.1974C28.8442 28.1974 28.7714 28.1775 28.7118 28.1311C28.4536 27.9524 28.0696 27.8001 27.5333 27.6611C27.3479 27.6147 27.2354 27.4227 27.2817 27.2374C27.3281 27.052 27.5201 26.9394 27.7055 26.9858C28.3212 27.1447 28.7846 27.3367 29.109 27.5618C29.2679 27.6743 29.3077 27.8928 29.1951 28.0517C29.1289 28.151 29.0164 28.204 28.9104 28.204V28.1974ZM26.5932 27.4558C26.5932 27.4558 26.5535 27.4558 26.5336 27.4558C26.1628 27.3896 25.7391 27.3234 25.1631 27.244C24.9711 27.2175 24.8387 27.0387 24.8652 26.8467C24.8917 26.6547 25.0704 26.5223 25.2624 26.5488C25.8517 26.6349 26.282 26.7011 26.6594 26.7673C26.8514 26.8004 26.9772 26.9858 26.9441 27.1711C26.911 27.3433 26.7653 27.4558 26.5998 27.4558H26.5932ZM24.17 27.0983C24.17 27.0983 24.1369 27.0983 24.1237 27.0983C23.6735 27.0387 23.2034 26.9725 22.7333 26.8997C22.5413 26.8732 22.4089 26.6945 22.442 26.5025C22.4685 26.3105 22.6539 26.178 22.8392 26.2111C23.3093 26.284 23.7728 26.3502 24.223 26.4098C24.415 26.4362 24.5474 26.615 24.5209 26.8004C24.4944 26.9725 24.3488 27.1049 24.1766 27.1049L24.17 27.0983ZM21.7468 26.7342C21.7468 26.7342 21.7071 26.7342 21.6872 26.7342C21.1907 26.6481 20.7339 26.5554 20.2969 26.4627C20.1115 26.423 19.9923 26.2376 20.0321 26.0456C20.0718 25.8602 20.2572 25.7345 20.4492 25.7808C20.8795 25.8735 21.3231 25.9596 21.8064 26.0456C21.9984 26.0787 22.1242 26.2575 22.0911 26.4495C22.0646 26.6216 21.9123 26.7408 21.7468 26.7408V26.7342ZM19.3501 26.2178C19.3501 26.2178 19.2906 26.2178 19.2574 26.2045C18.7808 26.0787 18.3173 25.9331 17.8936 25.7808C17.7148 25.7146 17.6155 25.516 17.6817 25.3372C17.7479 25.1585 17.9465 25.0591 18.1253 25.1253C18.5358 25.271 18.9728 25.4034 19.4362 25.5292C19.6216 25.5822 19.7341 25.7676 19.6812 25.9596C19.6414 26.1185 19.4958 26.2178 19.3435 26.2178H19.3501ZM26.9441 25.9794C26.6395 25.9794 26.3284 25.9463 26.0106 25.8801C25.8186 25.8404 25.6994 25.655 25.7391 25.4696C25.7788 25.2776 25.9642 25.1585 26.1496 25.1982C26.5866 25.2909 27.0169 25.3041 27.4208 25.2511C27.6128 25.2247 27.7915 25.3571 27.818 25.5491C27.8445 25.7411 27.7121 25.9198 27.5201 25.9463C27.3281 25.9728 27.1361 25.986 26.9441 25.986V25.9794ZM28.4602 25.6087C28.3543 25.6087 28.2417 25.5557 28.1755 25.463C28.063 25.3041 28.1027 25.0856 28.255 24.9731C28.4867 24.8076 28.5926 24.5692 28.5926 24.2249C28.5926 24.1653 28.5926 24.1058 28.586 24.0462C28.5661 23.8542 28.7052 23.682 28.8972 23.6622C29.0892 23.6423 29.2613 23.7813 29.2812 23.9733C29.2878 24.0594 29.2944 24.1389 29.2944 24.2183C29.2944 24.7877 29.0759 25.2445 28.6655 25.5358C28.6059 25.5822 28.533 25.602 28.4602 25.602V25.6087ZM25.0837 25.5689C25.0373 25.5689 24.991 25.5623 24.9512 25.5425C24.5209 25.3637 24.0906 25.1253 23.6668 24.8407C23.5079 24.7347 23.4616 24.5162 23.5675 24.3573C23.6735 24.1985 23.8919 24.1521 24.0508 24.258C24.4415 24.5162 24.8321 24.7347 25.2227 24.8936C25.4015 24.9665 25.4875 25.1717 25.4081 25.3505C25.3551 25.4829 25.2227 25.5623 25.0837 25.5623V25.5689ZM17.0395 25.4167C16.9932 25.4167 16.9468 25.41 16.9005 25.3902L16.8277 25.3571C16.3708 25.1518 15.9736 24.8804 15.6425 24.5427C15.5101 24.4037 15.5101 24.1852 15.6425 24.0462C15.7816 23.9138 16.0001 23.9138 16.1391 24.0462C16.4105 24.3242 16.7416 24.5493 17.119 24.7149L17.1852 24.748C17.3639 24.8274 17.4434 25.0327 17.3639 25.2114C17.3043 25.3438 17.1785 25.4233 17.0461 25.4233L17.0395 25.4167ZM15.2784 23.788C15.1526 23.788 15.0268 23.7151 14.9672 23.596C14.7421 23.1458 14.6097 22.6558 14.5634 22.1262C14.5501 21.9342 14.6892 21.762 14.8812 21.7488C15.0732 21.7289 15.2453 21.8746 15.2585 22.0666C15.2916 22.5036 15.4042 22.914 15.5896 23.2782C15.6756 23.4503 15.6028 23.6622 15.4307 23.7482C15.3777 23.7747 15.3248 23.788 15.2784 23.788ZM28.6655 23.351C28.5264 23.351 28.394 23.2649 28.341 23.1259C28.1954 22.7618 27.9968 22.3579 27.7386 21.9276C27.6393 21.762 27.6922 21.5502 27.8644 21.4509C28.0299 21.3515 28.2417 21.4045 28.341 21.5767C28.6191 22.0401 28.8376 22.4771 28.9899 22.8743C29.0627 23.0531 28.97 23.2583 28.7913 23.3245C28.7515 23.3378 28.7052 23.351 28.6655 23.351ZM14.9606 21.4045C14.9606 21.4045 14.9209 21.4045 14.901 21.4045C14.709 21.3714 14.5832 21.1927 14.6163 21.0007C14.6958 20.5107 14.8547 20.034 15.0798 19.5772C15.1659 19.4051 15.3777 19.3322 15.5499 19.4183C15.722 19.5044 15.7948 19.7162 15.7088 19.8884C15.5168 20.279 15.3777 20.6961 15.3115 21.1198C15.285 21.292 15.1328 21.4111 14.9672 21.4111L14.9606 21.4045ZM27.4737 21.2191C27.3612 21.2191 27.2552 21.1662 27.189 21.0669C26.9441 20.716 26.666 20.3386 26.3681 19.9612C26.2489 19.8089 26.2754 19.5904 26.4277 19.4713C26.5799 19.3521 26.7984 19.3786 26.9176 19.5309C27.2288 19.9215 27.5135 20.3055 27.765 20.6762C27.8776 20.8351 27.8379 21.0536 27.679 21.1595C27.6194 21.1993 27.5466 21.2191 27.4804 21.2191H27.4737ZM25.9708 19.2859C25.8715 19.2859 25.7722 19.2462 25.706 19.1667C25.4875 18.9151 25.2624 18.6569 25.0307 18.4053C25.0042 18.3789 24.9446 18.3193 24.8122 18.2398C24.6467 18.1405 24.6004 17.922 24.6997 17.7565C24.799 17.591 25.0175 17.5446 25.183 17.644C25.3352 17.7433 25.461 17.836 25.5471 17.9353C25.7855 18.1935 26.0106 18.4517 26.2357 18.7165C26.3615 18.8622 26.3416 19.0873 26.1959 19.2064C26.1297 19.266 26.0503 19.2925 25.9708 19.2925V19.2859ZM15.9537 19.1932C15.8743 19.1932 15.8014 19.1667 15.7352 19.1204C15.583 19.0012 15.5565 18.7827 15.6823 18.6304C15.9934 18.2398 16.3576 17.8955 16.7614 17.6042C16.9203 17.4917 17.1388 17.5314 17.2514 17.6837C17.3639 17.8426 17.3242 18.0611 17.1719 18.1736C16.8144 18.4252 16.5032 18.7298 16.2318 19.0674C16.1656 19.1535 16.0596 19.1998 15.9603 19.1998L15.9537 19.1932ZM24.0442 17.8492C24.0045 17.8492 23.9648 17.8426 23.925 17.8293C23.5344 17.6903 23.0842 17.5645 22.6208 17.4652C22.4288 17.4255 22.3096 17.2401 22.3493 17.0547C22.389 16.8627 22.5744 16.7435 22.7598 16.7833C23.2497 16.8826 23.733 17.0216 24.1568 17.1739C24.3355 17.2401 24.4348 17.4387 24.3686 17.6175C24.3157 17.7631 24.1832 17.8492 24.0376 17.8492H24.0442ZM17.8737 17.7168C17.7413 17.7168 17.6089 17.6373 17.5559 17.5049C17.4765 17.3262 17.5559 17.1209 17.7413 17.0481C18.165 16.8627 18.6483 16.7303 19.1648 16.6442C19.3501 16.6111 19.5355 16.7435 19.5686 16.9355C19.6017 17.1275 19.4693 17.3063 19.2773 17.3328C18.8139 17.4056 18.3901 17.5248 18.0194 17.6903C17.973 17.7102 17.9267 17.7168 17.8803 17.7168H17.8737ZM21.6608 17.3063C21.6608 17.3063 21.6343 17.3063 21.621 17.3063C21.2304 17.26 20.8332 17.2401 20.4823 17.2401C20.4094 17.2401 20.3432 17.2401 20.277 17.2401C20.085 17.2401 19.9261 17.0944 19.9195 16.9024C19.9195 16.7104 20.0652 16.5515 20.2572 16.5449C20.3366 16.5449 20.4161 16.5449 20.5021 16.5449C20.8928 16.5449 21.2966 16.5714 21.7071 16.6177C21.8991 16.6376 22.0381 16.8098 22.0117 17.0018C21.9918 17.1805 21.8395 17.3129 21.6674 17.3129L21.6608 17.3063Z" fill="#DB2734"/>
<path d="M22.9927 24.2429C22.9132 24.2429 22.8338 24.2164 22.7676 24.1568C22.4299 23.8655 22.2379 23.6603 22.2313 23.6536C22.0989 23.5146 22.1055 23.2895 22.2512 23.1571C22.3902 23.0247 22.6153 23.0313 22.7477 23.1769C22.7477 23.1769 22.9265 23.3689 23.231 23.6272C23.3767 23.7529 23.3965 23.9714 23.2707 24.1171C23.2045 24.1965 23.1052 24.2363 23.0059 24.2363L22.9927 24.2429Z" fill="#DB2734"/>
<path d="M19.2497 24.3172C19.1107 24.3172 18.9849 24.2378 18.9253 24.1054C18.8525 23.9266 18.932 23.7214 19.1107 23.6485L22.9706 22.0132C23.1493 21.9404 23.3546 22.0198 23.4274 22.1986C23.5002 22.3774 23.4208 22.5826 23.242 22.6554L19.3822 24.2907C19.3358 24.3106 19.2895 24.3172 19.2431 24.3172H19.2497Z" fill="#DB2734"/>
<path d="M21.9262 25.3812C21.7541 25.3812 21.6084 25.2554 21.5819 25.0832L21.0324 21.5941C20.9993 21.4021 21.1317 21.2234 21.3237 21.1969C21.5157 21.1704 21.6945 21.2962 21.721 21.4882L22.2705 24.9839C22.3036 25.1759 22.1712 25.3547 21.9792 25.3812C21.9593 25.3812 21.9395 25.3812 21.9262 25.3812Z" fill="#DB2734"/>
<g style="mix-blend-mode:multiply" opacity="0.5">
<path d="M18.643 35.1716C18.5702 35.0987 11.1087 27.4915 11.1881 20.3942C11.2676 13.31 16.9481 6.06697 17.0077 5.99414L17.2792 6.21262C17.2196 6.28545 11.6185 13.4358 11.539 20.4008C11.4596 27.3525 18.8152 34.8538 18.888 34.9266L18.643 35.1716Z" fill="#DC6A94"/>
<path d="M26.4705 35.0123C26.3977 34.9329 19.0223 27.0609 19.3798 19.8774C19.7373 12.7204 23.809 6.07988 23.8487 6.01367L24.1467 6.19905C24.107 6.26526 20.0816 12.833 19.7307 19.8973C19.3798 26.9285 26.6559 34.6945 26.7288 34.774L26.4772 35.0123H26.4705Z" fill="#DC6A94"/>
<path d="M34.8097 33.3565C34.4985 33.0916 27.2025 26.7689 26.8582 21.7173C26.5139 16.7054 29.6786 7.04581 29.7117 6.95312L30.0428 7.06568C30.0097 7.16499 26.8715 16.7518 27.2091 21.6974C27.5468 26.6034 34.9619 33.0254 35.0414 33.0916L34.8163 33.3565H34.8097Z" fill="#DC6A94"/>
<path d="M8.57064 17.6991L8.55078 17.3482C8.66333 17.3482 20.1701 16.7788 30.2137 16.4941V16.845C20.1833 17.1297 8.6832 17.6925 8.57064 17.6991Z" fill="#DC6A94"/>
<path d="M10.1917 25.3249L10.1719 24.974C10.3043 24.9674 23.3206 24.1796 31.6229 23.875L31.6362 24.2259C23.3404 24.5304 10.3242 25.3183 10.1917 25.3249Z" fill="#DC6A94"/>
<path d="M13.3447 31.9084L13.2852 31.5641C13.4043 31.5443 25.4805 29.4587 33.9682 30.0281L33.9417 30.379C25.4937 29.8096 13.4639 31.8952 13.3447 31.915V31.9084Z" fill="#DC6A94"/>
</g>
<g style="mix-blend-mode:multiply" opacity="0.2">
<path d="M32.1418 16.8803C32.1418 16.8803 27.5139 20.899 20.1848 23.4149C12.8557 25.9308 8.32712 21.0977 8.27415 16.2976C8.22119 11.4976 11.1277 8.33294 13.862 7.67087C16.5964 7.00881 32.7178 14.7815 32.7178 14.7815L32.1418 16.8736V16.8803Z" fill="#DC6A94"/>
</g>
<g style="mix-blend-mode:multiply" opacity="0.5">
<path d="M12.4596 8.23501C9.58617 9.74453 7.10341 14.9021 8.82479 18.0999C10.5462 21.2976 25.7208 19.4439 28.667 18.3845C31.6066 17.3252 32.56 15.3324 32.56 15.3324C32.56 15.3324 18.4248 5.04383 12.4662 8.23501H12.4596Z" fill="#C60055"/>
</g>
<path d="M44.6058 8.23325C43.381 11.5899 37.2635 15.6418 37.2635 15.6418C30.4111 14.5494 14.773 16.6746 14.773 16.6746C14.8392 16.5555 14.8988 16.4429 14.9583 16.3237C19.0566 8.48483 13.3164 5.16786 13.3164 5.16786C13.6077 5.16786 13.8924 5.15462 14.1771 5.14138C26.8822 4.77062 34.4431 2.89696 41.1101 4.25421C41.5934 4.35352 42.0171 4.46607 42.4011 4.59848C42.6593 4.68455 42.8911 4.77724 43.1029 4.88317H43.1162C44.8243 5.69752 45.0958 6.90911 44.6124 8.23325H44.6058Z" fill="url(#paint1_linear_9816_42886)"/>
<path d="M8.10778 24.8711C8.45867 25.99 8.90888 27.0427 9.4253 28.0292C9.4253 28.0292 9.18033 28.1285 8.8493 28.2079C8.67716 28.2543 8.47854 28.294 8.27329 28.3139C7.85619 27.4465 7.49205 26.5528 7.1875 25.6523C7.1875 25.6523 7.4126 25.4868 7.69067 25.2485C7.82309 25.1359 7.96874 25.0101 8.10778 24.8777V24.8711Z" fill="url(#paint2_linear_9816_42886)"/>
<path d="M15.1263 16.3043C14.921 16.5625 14.7754 16.6751 14.7754 16.6751L14.3251 16.2845L13.5439 15.6091C16.265 15.7349 17.1191 6.88968 13.2063 7.72389C9.59797 8.49189 5.91024 14.2453 7.49921 22.4616C7.41314 22.4351 7.24762 22.4616 7.06224 22.5013C6.77755 22.5609 6.46638 22.6734 6.42004 22.6867C5.96983 20.2238 5.99631 17.741 6.62528 15.4039C8.47907 8.56472 11.8887 4.44002 14.1795 5.14182C14.4509 5.22789 14.7092 5.38016 14.9409 5.60527C15.4772 6.11506 15.9075 7.00885 16.1789 8.31313C17.1588 13.08 15.8082 15.4502 15.1263 16.2977V16.3043Z" fill="url(#paint3_linear_9816_42886)"/>
<path d="M17.7538 37.3115L17.1447 38.1391C13.9999 36.4045 11.1662 33.4649 9.16016 30.0022L9.63023 29.6778L10.1466 29.3203C13.1922 34.3256 17.5684 37.1923 17.7472 37.3049L17.7538 37.3115Z" fill="url(#paint4_linear_9816_42886)"/>
<path d="M17.1445 38.139C17.1445 38.139 32.584 36.8347 40.8003 37.2717L41.2505 36.4375L17.7536 37.3114L17.1445 38.139Z" fill="#B52E4B"/>
<path d="M8.27225 28.3125C8.27225 28.3125 11.9004 29.4645 12.5558 29.3519C13.2113 29.2394 13.4894 29.1533 13.4894 29.1533C13.4894 29.1533 9.98701 28.0609 9.41763 28.0278C8.85487 27.9947 8.26562 28.3125 8.26562 28.3125H8.27225Z" fill="#B52E4B"/>
<path d="M32.0065 19.2715C32.0065 19.2715 31.4636 20.013 31.3775 20.2116C31.2914 20.4102 30.3182 20.8075 30.3182 20.8075C30.3182 20.8075 29.8018 20.6685 32.0065 19.2781V19.2715Z" fill="#B52E4B"/>
<g style="mix-blend-mode:multiply" opacity="0.2">
<path d="M14.7656 16.6746C14.7656 16.6746 25.425 12.477 33.9458 10.8285C42.4733 9.17993 41.2418 11.4707 40.8975 12.2917C40.5532 13.1126 37.9646 14.8605 36.3359 15.1253C34.7072 15.3902 29.2054 14.4633 14.7656 16.6746Z" fill="#DC6A94"/>
</g>
<g style="mix-blend-mode:screen" opacity="0.3">
<path d="M13.211 32.9887C13.211 32.9887 10.9666 30.347 11.5956 30.0027C12.2245 29.6585 24.5059 29.1685 30.6235 30.2014C36.741 31.2342 40.1506 35.6303 39.9057 36.0673C39.6607 36.5043 20.805 36.7161 18.0839 36.4447C15.3694 36.1732 13.211 32.9953 13.211 32.9953V32.9887Z" fill="#FFB64A"/>
</g>
<path d="M6.41678 22.688C6.41678 22.688 7.69457 23.6149 8.02561 24.1114C8.35664 24.608 8.09843 24.8728 8.09843 24.8728C8.09843 24.8728 8.79361 24.2174 8.80685 24.032C8.82671 23.8466 7.66147 22.39 7.44961 22.2709C7.23774 22.1451 6.41016 22.688 6.41016 22.688H6.41678Z" fill="#B52E4B"/>
<g style="mix-blend-mode:screen" opacity="0.3">
<path d="M16.2601 5.06899C14.936 5.61188 26.158 8.3992 31.1368 8.45216C36.1156 8.50513 43.2262 6.22761 43.5771 5.81712C43.928 5.40664 37.5192 3.9236 34.8841 3.77795C32.2491 3.63229 16.2601 5.06899 16.2601 5.06899Z" fill="#FFB64A"/>
</g>
<g style="mix-blend-mode:multiply" opacity="0.2">
<path d="M44.6073 8.23318C43.3825 11.5899 37.2649 15.6417 37.2649 15.6417C30.4125 14.5493 14.7744 16.6746 14.7744 16.6746L14.3242 16.284C14.4964 16.3369 14.7082 16.3568 14.9598 16.3237C15.0128 16.3237 15.0657 16.3104 15.1253 16.2972C16.3899 16.0522 26.6784 14.4633 31.1408 14.3441C35.5965 14.2249 36.3314 15.0922 37.8012 14.6288C39.271 14.1653 43.7731 9.78243 44.6073 8.22656V8.23318Z" fill="#C60055"/>
</g>
<g style="mix-blend-mode:multiply" opacity="0.2">
<path d="M15.9597 16.5232C15.9597 16.5232 25.8047 15.5301 27.9697 15.1263C30.1347 14.7158 34.2527 11.6173 34.3256 11.0148C34.3984 10.4123 24.0039 13.2328 20.8591 14.6496C17.7142 16.0664 15.9531 16.5232 15.9531 16.5232H15.9597Z" fill="#DC6A94"/>
</g>
<g style="mix-blend-mode:screen" opacity="0.3">
<path d="M9.89428 27.9437C9.22559 27.6458 8.64297 26.229 8.82173 25.6C9.00049 24.971 11.7481 25.3617 13.9064 26.8248C16.0648 28.2814 14.3037 29.2017 13.4628 28.9501C12.622 28.6985 9.9009 27.9437 9.9009 27.9437H9.89428Z" fill="#FFB64A"/>
</g>
<g style="mix-blend-mode:multiply" opacity="0.2">
<path d="M22.1851 9.63789C22.2381 8.5521 23.6085 8.64479 23.827 9.13472C24.0455 9.62465 23.5821 10.6707 22.8935 10.8362C22.205 11.0018 22.1586 10.1675 22.1851 9.63789Z" fill="#C60055"/>
</g>
<g style="mix-blend-mode:multiply" opacity="0.3">
<path d="M22.2524 9.30461C22.4113 10.7281 22.3517 9.28475 23.0337 8.97358C23.7156 8.66241 23.8811 9.5231 23.8745 9.56944C23.8679 9.61579 24.0797 8.72861 23.1197 8.78158C22.1597 8.83454 22.2524 9.30461 22.2524 9.30461Z" fill="#C60055"/>
</g>
<g style="mix-blend-mode:multiply" opacity="0.2">
<path d="M36.7559 34.5442C35.8753 33.9152 36.3586 33.3657 36.8287 33.5378C37.2988 33.71 38.0204 34.5111 37.9542 34.9083C37.888 35.3056 37.1796 34.8554 36.7559 34.5442Z" fill="#C60055"/>
</g>
<g style="mix-blend-mode:multiply" opacity="0.3">
<path d="M36.507 34.3336C37.7319 35.0619 36.5203 34.274 36.4673 33.804C36.4144 33.3339 37.1757 33.7444 37.2088 33.7709C37.2419 33.7974 36.5799 33.2081 36.3349 33.6583C36.0899 34.1085 36.507 34.3336 36.507 34.3336Z" fill="#C60055"/>
</g>
<g style="mix-blend-mode:multiply" opacity="0.2">
<path d="M21.1402 13.0328C21.8221 12.2052 20.9681 9.45758 19.0481 9.60324C17.1281 9.74889 18.0814 12.5163 19.0481 13.1718C20.0147 13.8272 20.7694 13.4763 21.1402 13.0328Z" fill="#C60055"/>
</g>
<g style="mix-blend-mode:multiply" opacity="0.3">
<path d="M17.9925 11.2321C18.0852 11.6889 18.0654 10.1463 18.9658 9.76892C19.8662 9.39154 20.2568 10.5833 20.9387 11.2321C21.6207 11.8809 20.7931 9.33858 19.0518 9.6034C17.5423 9.82851 17.9925 11.2321 17.9925 11.2321Z" fill="#C60055"/>
</g>
<g style="mix-blend-mode:multiply" opacity="0.4">
<path d="M43.0872 4.88306C42.9283 4.83009 40.3595 4.1283 36.8439 3.9363C33.1032 3.73105 30.7859 4.82347 25.9594 4.86319C21.1329 4.90292 14.168 5.14788 14.168 5.14788C26.8731 4.7705 34.4339 2.89685 41.101 4.25409C41.5843 4.3534 42.008 4.46595 42.392 4.59837L43.0938 4.88306H43.0872Z" fill="#C60055"/>
</g>
<g style="mix-blend-mode:multiply" opacity="0.5">
<path d="M14.7639 16.6749L13.5391 15.609C13.5391 15.609 14.744 15.5031 15.1744 14.3312C15.6047 13.1593 15.8828 10.3588 15.949 9.0214C16.0152 7.68402 17.0149 10.8884 16.333 13.4639C15.6511 16.0393 14.7639 16.6749 14.7639 16.6749Z" fill="#C60055"/>
</g>
<g style="mix-blend-mode:multiply" opacity="0.5">
<path d="M13.3174 5.16825C12.3508 5.36025 10.252 7.94895 10.4507 8.34619C10.6493 8.74343 12.1588 7.10812 13.867 7.6775C15.5751 8.24688 15.787 7.59805 15.6678 7.01543C15.5486 6.43281 14.8402 4.87032 13.3174 5.16825Z" fill="#C60055"/>
</g>
</g>
</g>
<defs>
<filter id="filter0_dddd_9816_42886" x="-3.16129" y="-0.323274" width="54.7093" height="62.9684" filterUnits="userSpaceOnUse" color-interpolation-filters="sRGB">
<feFlood flood-opacity="0" result="BackgroundImageFix"/>
<feColorMatrix in="SourceAlpha" type="matrix" values="0 0 0 0 0 0 0 0 0 0 0 0 0 0 0 0 0 0 127 0" result="hardAlpha"/>
<feOffset dy="1.03226"/>
<feGaussianBlur stdDeviation="1.03226"/>
<feColorMatrix type="matrix" values="0 0 0 0 0 0 0 0 0 0 0 0 0 0 0 0 0 0 0.24 0"/>
<feBlend mode="normal" in2="BackgroundImageFix" result="effect1_dropShadow_9816_42886"/>
<feColorMatrix in="SourceAlpha" type="matrix" values="0 0 0 0 0 0 0 0 0 0 0 0 0 0 0 0 0 0 127 0" result="hardAlpha"/>
<feOffset dy="3.09677"/>
<feGaussianBlur stdDeviation="1.54839"/>
<feColorMatrix type="matrix" values="0 0 0 0 0 0 0 0 0 0 0 0 0 0 0 0 0 0 0.2 0"/>
<feBlend mode="normal" in2="effect1_dropShadow_9816_42886" result="effect2_dropShadow_9816_42886"/>
<feColorMatrix in="SourceAlpha" type="matrix" values="0 0 0 0 0 0 0 0 0 0 0 0 0 0 0 0 0 0 127 0" result="hardAlpha"/>
<feOffset dy="7.22581"/>
<feGaussianBlur stdDeviation="2.06452"/>
<feColorMatrix type="matrix" values="0 0 0 0 0 0 0 0 0 0 0 0 0 0 0 0 0 0 0.12 0"/>
<feBlend mode="normal" in2="effect2_dropShadow_9816_42886" result="effect3_dropShadow_9816_42886"/>
<feColorMatrix in="SourceAlpha" type="matrix" values="0 0 0 0 0 0 0 0 0 0 0 0 0 0 0 0 0 0 127 0" result="hardAlpha"/>
<feOffset dy="13.4194"/>
<feGaussianBlur stdDeviation="2.58065"/>
<feColorMatrix type="matrix" values="0 0 0 0 0 0 0 0 0 0 0 0 0 0 0 0 0 0 0.04 0"/>
<feBlend mode="normal" in2="effect3_dropShadow_9816_42886" result="effect4_dropShadow_9816_42886"/>
<feBlend mode="normal" in="SourceGraphic" in2="effect4_dropShadow_9816_42886" result="shape"/>
</filter>
<linearGradient id="paint0_linear_9816_42886" x1="24.002" y1="37.3112" x2="24.002" y2="4.28711" gradientUnits="userSpaceOnUse">
<stop stop-color="#FFC7AB"/>
<stop offset="0.43" stop-color="#FFBA82"/>
<stop offset="1" stop-color="#EF7C79"/>
</linearGradient>
<linearGradient id="paint1_linear_9816_42886" x1="29.067" y1="16.6746" x2="29.067" y2="3.76427" gradientUnits="userSpaceOnUse">
<stop stop-color="#FFA274"/>
<stop offset="1" stop-color="#FFC488"/>
</linearGradient>
<linearGradient id="paint2_linear_9816_42886" x1="8.78971" y1="37.563" x2="7.2206" y2="2.93009" gradientUnits="userSpaceOnUse">
<stop stop-color="#EB7463"/>
<stop offset="1" stop-color="#E45445"/>
</linearGradient>
<linearGradient id="paint3_linear_9816_42886" x1="12.3125" y1="37.4045" x2="10.7434" y2="2.77161" gradientUnits="userSpaceOnUse">
<stop stop-color="#EB7463"/>
<stop offset="1" stop-color="#D13145"/>
</linearGradient>
<linearGradient id="paint4_linear_9816_42886" x1="13.6225" y1="37.3446" x2="12.0534" y2="2.71173" gradientUnits="userSpaceOnUse">
<stop stop-color="#EB7463"/>
<stop offset="1" stop-color="#E45445"/>
</linearGradient>
<clipPath id="clip0_9816_42886">
<rect width="38.698" height="34.3747" fill="white" transform="translate(6.12891 3.76562)"/>
</clipPath>
</defs>
</svg>
