<svg width="40" height="40" viewBox="0 0 40 40" fill="none" xmlns="http://www.w3.org/2000/svg">
<path d="M20.0002 38.8891C30.4323 38.8891 38.8891 30.4323 38.8891 20.0002C38.8891 9.56817 30.4323 1.11133 20.0002 1.11133C9.56817 1.11133 1.11133 9.56817 1.11133 20.0002C1.11133 30.4323 9.56817 38.8891 20.0002 38.8891Z" fill="white"/>
<path d="M20.0001 36.3133C29.0096 36.3133 36.3133 29.0096 36.3133 20.0001C36.3133 10.9906 29.0096 3.68701 20.0001 3.68701C10.9906 3.68701 3.68701 10.9906 3.68701 20.0001C3.68701 29.0096 10.9906 36.3133 20.0001 36.3133Z" fill="black"/>
<path d="M21.3655 25.5036C21.3655 26.2677 20.7731 26.8601 20.009 26.8601C19.2448 26.8601 18.6353 26.2677 18.6353 25.5036C18.6353 24.7394 19.2534 24.147 20.009 24.147C20.7645 24.147 21.3655 24.7394 21.3655 25.5036ZM18.9443 22.9536L18.7555 13.1313H21.2539L21.065 22.9536H18.9443Z" fill="white"/>
</svg>
