<svg width="34" height="35" viewBox="0 0 34 35" fill="none" xmlns="http://www.w3.org/2000/svg">
<path d="M33.5995 14.2864C33.567 13.4298 33.4555 12.578 33.2663 11.7418L32.5433 11.6381L32.9936 10.7075C32.7397 9.88852 32.4099 9.09499 32.0085 8.33727L31.4737 7.86878V7.41152C31.0163 6.68655 30.4932 6.00518 29.911 5.37606L29.3344 5.19476L29.1532 4.61984C28.5241 4.03706 27.8427 3.51342 27.1177 3.05554H26.6604L26.1919 2.52073C25.4342 2.11934 24.6407 1.78954 23.8217 1.53562L22.9168 1.98593L22.7874 1.26287C21.9512 1.07375 21.0994 0.96222 20.2428 0.929688L19.708 1.45112L19.1732 0.929688C18.3165 0.96222 17.4647 1.07375 16.6286 1.26287L16.4991 1.98593L15.5942 1.53562C14.7752 1.78954 13.9817 2.11934 13.224 2.52073L12.7555 3.05554H12.2982C11.5733 3.51291 10.8919 4.03602 10.2628 4.61824L10.0815 5.19476L9.50656 5.37606C8.92378 6.00512 8.40014 6.68648 7.94226 7.41152V7.86878L7.40745 8.33727C7.00606 9.09499 6.67626 9.88852 6.42234 10.7075L6.87265 11.6381L6.14959 11.7418C5.96047 12.578 5.84894 13.4298 5.81641 14.2864L6.33784 14.8212L5.81641 15.356C5.84894 16.2127 5.96047 17.0645 6.14959 17.9007L6.87265 18.0044L6.42234 18.935C6.67626 19.754 7.00606 20.5475 7.40745 21.3052L7.94226 21.7737V22.231C8.39963 22.9559 8.92274 23.6373 9.50496 24.2664L10.0815 24.4477L10.2628 25.0226C10.8918 25.6054 11.5732 26.1291 12.2982 26.587L13.2903 26.0521L13.224 27.1218C13.9817 27.5231 14.7752 27.8529 15.5942 28.1069L16.4991 27.6566L16.6286 28.3796C17.4647 28.5687 18.3165 28.6803 19.1732 28.7128L19.708 28.1914L20.2428 28.7128C21.0994 28.6803 21.9512 28.5687 22.7874 28.3796L22.9168 27.6566L23.8217 28.1069C24.6407 27.8529 25.4342 27.5231 26.1919 27.1218L26.6604 26.587H27.1177C27.8427 26.1296 28.524 25.6065 29.1532 25.0243L29.3344 24.4477L29.9094 24.2664C30.4921 23.6374 31.0158 22.956 31.4737 22.231V21.7737L32.0085 21.3052C32.4099 20.5475 32.7397 19.754 32.9936 18.935L32.5433 18.0301L33.2663 17.9007C33.4555 17.0645 33.567 16.2127 33.5995 15.356L33.0781 14.8212L33.5995 14.2864Z" fill="#FFC864"/>
<path d="M14.3599 5.19336C12.4294 5.19225 10.5171 5.56661 8.72949 6.29559C8.45086 6.65445 8.1872 7.02507 7.94386 7.41013L7.94226 7.86739L7.40745 8.33588C7.00606 9.0936 6.67626 9.88712 6.42234 10.7061L6.87265 11.6367L6.14959 11.7404C5.96047 12.5766 5.84894 13.4284 5.81641 14.285L6.33784 14.8198L5.81641 15.3547C5.84894 16.2113 5.96047 17.0631 6.14959 17.8993L6.87265 18.003L6.42234 18.9336C6.67626 19.7526 7.00606 20.5461 7.40745 21.3038L7.94226 21.7723V22.2296C8.39963 22.9545 8.92273 23.6359 9.50496 24.265L10.0815 24.4463L10.2628 25.0213C10.8918 25.604 11.5732 26.1277 12.2982 26.5856L13.2903 26.0508L13.224 27.1204C13.9817 27.5217 14.7752 27.8515 15.5942 28.1055L16.4991 27.6552L16.6286 28.3782C17.4647 28.5673 18.3165 28.6789 19.1732 28.7114L19.708 28.19L20.2428 28.7114C21.0994 28.6789 21.9512 28.5673 22.7874 28.3782L22.9168 27.6552L23.8217 28.1055C24.6407 27.8515 25.4342 27.5217 26.1919 27.1204L26.6604 26.5856H27.1177C27.5027 26.3422 27.8734 26.0786 28.2322 25.7999C29.1567 23.5268 29.5082 21.0612 29.2556 18.6203C29.003 16.1794 28.1541 13.838 26.7837 11.8024C25.4133 9.76671 23.5634 8.09922 21.397 6.94674C19.2305 5.79425 16.8139 5.19212 14.3599 5.19336Z" fill="#FCB446"/>
<path d="M19.7039 25.5172C25.6112 25.5172 30.4 20.7284 30.4 14.8211C30.4 8.91381 25.6112 4.125 19.7039 4.125C13.7966 4.125 9.00781 8.91381 9.00781 14.8211C9.00781 20.7284 13.7966 25.5172 19.7039 25.5172Z" fill="#FFAA32"/>
<path d="M10.0774 15.8907C10.0745 13.8395 10.6622 11.8309 11.7704 10.1049C12.8786 8.37888 14.4604 7.00847 16.3267 6.15746C18.1929 5.30644 20.2648 5.01081 22.2946 5.30591C24.3244 5.60101 26.2263 6.47436 27.773 7.82156C26.8129 6.71086 25.634 5.80999 24.3102 5.17519C22.9863 4.54039 21.5458 4.18528 20.0786 4.13203C18.6113 4.07878 17.1489 4.32853 15.7825 4.86568C14.4161 5.40284 13.175 6.21588 12.1369 7.25405C11.0987 8.29223 10.2857 9.53325 9.7485 10.8997C9.21134 12.2661 8.96159 13.7285 9.01484 15.1957C9.0681 16.663 9.4232 18.1035 10.058 19.4274C10.6928 20.7512 11.5937 21.93 12.7044 22.8902C11.0111 20.9515 10.0778 18.4648 10.0774 15.8907Z" fill="#FF9C28"/>
<path d="M19.7067 2.52043C19.8485 2.52043 19.9845 2.46408 20.0848 2.36379C20.1851 2.26349 20.2415 2.12746 20.2415 1.98563V0.929386C20.0639 0.922968 19.8858 0.916016 19.7067 0.916016C19.5275 0.916016 19.3494 0.922968 19.1719 0.929386V1.98563C19.1719 2.12746 19.2282 2.26349 19.3285 2.36379C19.4288 2.46408 19.5648 2.52043 19.7067 2.52043Z" fill="#FFAA32"/>
<path d="M19.7067 27.1221C19.5648 27.1221 19.4288 27.1784 19.3285 27.2787C19.2282 27.379 19.1719 27.515 19.1719 27.6569V28.7131C19.3494 28.7195 19.5275 28.7265 19.7067 28.7265C19.8858 28.7265 20.0639 28.7195 20.2415 28.7131V27.6569C20.2415 27.515 20.1851 27.379 20.0848 27.2787C19.9845 27.1784 19.8485 27.1221 19.7067 27.1221Z" fill="#FFAA32"/>
<path d="M16.5321 2.93984C16.6 2.92166 16.6636 2.89029 16.7193 2.84752C16.775 2.80476 16.8218 2.75143 16.8569 2.6906C16.892 2.62976 16.9148 2.5626 16.9239 2.49296C16.9331 2.42332 16.9284 2.35255 16.9102 2.28471L16.6359 1.2627C16.2866 1.34185 15.9406 1.43062 15.6016 1.53545L15.877 2.56174C15.8952 2.62958 15.9265 2.69319 15.9693 2.74891C16.0121 2.80463 16.0654 2.85138 16.1262 2.8865C16.1871 2.92161 16.2542 2.94439 16.3239 2.95354C16.3935 2.9627 16.4643 2.95804 16.5321 2.93984Z" fill="#FFAA32"/>
<path d="M22.8925 26.7009C22.8246 26.7191 22.761 26.7504 22.7053 26.7932C22.6496 26.836 22.6028 26.8893 22.5677 26.9501C22.5326 27.011 22.5098 27.0781 22.5007 27.1478C22.4915 27.2174 22.4962 27.2882 22.5144 27.356L22.7887 28.378C23.1379 28.2989 23.484 28.2101 23.823 28.1053L23.5476 27.079C23.5294 27.0111 23.498 26.9475 23.4553 26.8918C23.4125 26.8361 23.3592 26.7893 23.2984 26.7542C23.2375 26.7191 23.1704 26.6963 23.1007 26.6872C23.0311 26.678 22.9603 26.6827 22.8925 26.7009Z" fill="#FFAA32"/>
<path d="M13.5563 4.1678C13.6172 4.13268 13.6706 4.08591 13.7134 4.03015C13.7562 3.97439 13.7876 3.91074 13.8058 3.84284C13.8239 3.77494 13.8286 3.70412 13.8193 3.63444C13.8101 3.56475 13.7873 3.49757 13.7521 3.43672L13.2226 2.51953C12.9064 2.6871 12.5978 2.86537 12.2969 3.05434L12.8258 3.96992C12.8607 4.03092 12.9074 4.08443 12.963 4.1274C13.0186 4.17036 13.0822 4.20194 13.15 4.22031C13.2179 4.23869 13.2887 4.24351 13.3584 4.2345C13.4281 4.22549 13.4954 4.20283 13.5563 4.1678Z" fill="#FFAA32"/>
<path d="M25.8614 25.4725C25.8005 25.5076 25.7471 25.5544 25.7043 25.6101C25.6615 25.6659 25.6301 25.7295 25.6119 25.7974C25.5938 25.8653 25.5892 25.9362 25.5984 26.0058C25.6076 26.0755 25.6304 26.1427 25.6656 26.2036L26.1951 27.1208C26.5112 26.9539 26.8197 26.7742 27.1208 26.5859L26.5919 25.6704C26.557 25.6094 26.5104 25.5559 26.4547 25.5129C26.3991 25.4699 26.3355 25.4383 26.2677 25.42C26.1998 25.4016 26.129 25.3968 26.0593 25.4058C25.9896 25.4148 25.9223 25.4375 25.8614 25.4725Z" fill="#FFAA32"/>
<path d="M11.0128 6.12311C11.113 6.02281 11.1693 5.88681 11.1693 5.745C11.1693 5.60319 11.113 5.46718 11.0128 5.36689L10.264 4.61816C10.0027 4.86061 9.75061 5.11268 9.50781 5.37438L10.2565 6.12311C10.3568 6.22337 10.4928 6.27969 10.6346 6.27969C10.7765 6.27969 10.9125 6.22337 11.0128 6.12311Z" fill="#FFAA32"/>
<path d="M28.4066 23.5189C28.3063 23.6192 28.25 23.7552 28.25 23.897C28.25 24.0388 28.3063 24.1748 28.4066 24.2751L29.1553 25.0238C29.4167 24.7814 29.6687 24.5293 29.9115 24.2676L29.1628 23.5189C29.0625 23.4186 28.9265 23.3623 28.7847 23.3623C28.6429 23.3623 28.5069 23.4186 28.4066 23.5189Z" fill="#FFAA32"/>
<path d="M11.0156 6.12293C11.0887 6.0495 11.1389 5.95644 11.16 5.85504C11.1812 5.75365 11.1725 5.64829 11.1349 5.55176C10.7472 5.63786 10.3642 5.7368 9.98828 5.85178L10.2594 6.12293C10.3597 6.22319 10.4957 6.27951 10.6375 6.27951C10.7793 6.27951 10.9154 6.22319 11.0156 6.12293Z" fill="#FF9C28"/>
<path d="M28.4066 23.519C28.3063 23.6192 28.25 23.7553 28.25 23.8971C28.25 24.0389 28.3063 24.1749 28.4066 24.2752L28.6777 24.5463C28.7927 24.172 28.8917 23.7874 28.9778 23.3997C28.8812 23.3621 28.7759 23.3534 28.6745 23.3746C28.5731 23.3957 28.48 23.4459 28.4066 23.519Z" fill="#FF9C28"/>
<path d="M9.05843 8.6706C9.09352 8.60975 9.11628 8.54258 9.1254 8.47292C9.13453 8.40327 9.12985 8.33251 9.11162 8.26467C9.0934 8.19683 9.06198 8.13324 9.01918 8.07754C8.97637 8.02185 8.92302 7.97513 8.86215 7.94005L7.94496 7.41113C7.75493 7.71241 7.57666 8.02099 7.41016 8.33688L8.32735 8.86634C8.38819 8.90153 8.45538 8.92439 8.52506 8.9336C8.59475 8.94282 8.66556 8.9382 8.73346 8.92002C8.80136 8.90184 8.86501 8.87045 8.92077 8.82766C8.97653 8.78486 9.02331 8.73149 9.05843 8.6706Z" fill="#FFAA32"/>
<path d="M30.3567 20.9717C30.3216 21.0326 30.2988 21.0997 30.2897 21.1694C30.2806 21.239 30.2852 21.3098 30.3035 21.3777C30.3217 21.4455 30.3531 21.5091 30.3959 21.5648C30.4387 21.6205 30.4921 21.6672 30.5529 21.7023L31.4701 22.2312C31.66 21.9301 31.8397 21.6215 32.0049 21.3054L31.0877 20.776C31.0269 20.7408 30.9597 20.7179 30.89 20.7087C30.8203 20.6995 30.7495 20.7041 30.6816 20.7223C30.6137 20.7405 30.5501 20.7719 30.4943 20.8147C30.4386 20.8575 30.3918 20.9108 30.3567 20.9717Z" fill="#FFAA32"/>
<path d="M7.82949 11.6366C7.84769 11.5688 7.85235 11.498 7.84319 11.4284C7.83404 11.3587 7.81126 11.2916 7.77614 11.2307C7.74103 11.1699 7.69428 11.1166 7.63856 11.0738C7.58283 11.031 7.51923 10.9997 7.45138 10.9815L6.42509 10.7061C6.31813 11.0451 6.23149 11.3911 6.15234 11.7404L7.17436 12.0147C7.2422 12.0329 7.31296 12.0376 7.38261 12.0284C7.45225 12.0193 7.51941 11.9965 7.58025 11.9614C7.64108 11.9263 7.69441 11.8795 7.73717 11.8238C7.77994 11.7681 7.81131 11.7045 7.82949 11.6366Z" fill="#FFAA32"/>
<path d="M31.5925 18.0048C31.5743 18.0726 31.5696 18.1434 31.5788 18.213C31.5879 18.2827 31.6107 18.3498 31.6458 18.4107C31.6809 18.4715 31.7277 18.5248 31.7834 18.5676C31.8391 18.6103 31.9027 18.6417 31.9706 18.6599L32.9969 18.9353C33.1038 18.5963 33.1905 18.2502 33.2696 17.901L32.2476 17.6267C32.1798 17.6085 32.109 17.6038 32.0394 17.613C31.9697 17.6221 31.9026 17.6449 31.8417 17.68C31.7809 17.7151 31.7276 17.7619 31.6848 17.8176C31.642 17.8733 31.6107 17.9369 31.5925 18.0048Z" fill="#FFAA32"/>
<path d="M7.4091 14.8219C7.4091 14.6801 7.35276 14.544 7.25246 14.4437C7.15217 14.3435 7.01614 14.2871 6.8743 14.2871H5.81806C5.81164 14.4647 5.80469 14.6428 5.80469 14.8219C5.80469 15.0011 5.81164 15.1792 5.81806 15.3567H6.8743C7.01614 15.3567 7.15217 15.3004 7.25246 15.2001C7.35276 15.0998 7.4091 14.9638 7.4091 14.8219Z" fill="#FFAA32"/>
<path d="M32.0117 14.8219C32.0117 14.9638 32.0681 15.0998 32.1684 15.2001C32.2687 15.3004 32.4047 15.3567 32.5465 15.3567H33.6028C33.6092 15.1792 33.6161 15.0011 33.6161 14.8219C33.6161 14.6428 33.6092 14.4647 33.6028 14.2871H32.5465C32.4047 14.2871 32.2687 14.3435 32.1684 14.4437C32.0681 14.544 32.0117 14.6801 32.0117 14.8219Z" fill="#FFAA32"/>
<path d="M7.82949 18.0048C7.81131 17.9369 7.77994 17.8733 7.73717 17.8176C7.69441 17.7619 7.64108 17.7151 7.58025 17.68C7.51941 17.6449 7.45225 17.6221 7.38261 17.613C7.31296 17.6038 7.2422 17.6085 7.17436 17.6267L6.15234 17.901C6.23149 18.2502 6.32027 18.5963 6.42509 18.9353L7.45138 18.6599C7.51923 18.6417 7.58283 18.6103 7.63856 18.5676C7.69428 18.5248 7.74103 18.4715 7.77614 18.4107C7.81126 18.3498 7.83404 18.2827 7.84319 18.213C7.85235 18.1434 7.84769 18.0726 7.82949 18.0048Z" fill="#FFAA32"/>
<path d="M31.5925 11.6366C31.6107 11.7045 31.642 11.7681 31.6848 11.8238C31.7276 11.8795 31.7809 11.9263 31.8417 11.9614C31.9026 11.9965 31.9697 12.0193 32.0394 12.0284C32.109 12.0376 32.1798 12.0329 32.2476 12.0147L33.2696 11.7404C33.1905 11.3911 33.1017 11.0451 32.9969 10.7061L31.9706 10.9815C31.9027 10.9997 31.8391 11.031 31.7834 11.0738C31.7277 11.1166 31.6809 11.1699 31.6458 11.2307C31.6107 11.2916 31.5879 11.3587 31.5788 11.4284C31.5696 11.498 31.5743 11.5688 31.5925 11.6366Z" fill="#FFAA32"/>
<path d="M9.05843 20.9717C9.02331 20.9108 8.97653 20.8575 8.92077 20.8147C8.86501 20.7719 8.80136 20.7405 8.73346 20.7223C8.66556 20.7041 8.59475 20.6995 8.52506 20.7087C8.45538 20.7179 8.38819 20.7408 8.32735 20.776L7.41016 21.3054C7.57773 21.6217 7.756 21.9303 7.94496 22.2312L8.86055 21.7023C8.92155 21.6673 8.97506 21.6207 9.01802 21.5651C9.06099 21.5094 9.09256 21.4459 9.11094 21.378C9.12932 21.3102 9.13414 21.2394 9.12513 21.1696C9.11612 21.0999 9.09345 21.0327 9.05843 20.9717Z" fill="#FFAA32"/>
<path d="M30.3563 8.6706C30.3914 8.73149 30.4382 8.78486 30.4939 8.82766C30.5497 8.87045 30.6133 8.90184 30.6812 8.92002C30.7491 8.9382 30.82 8.94282 30.8896 8.9336C30.9593 8.92439 31.0265 8.90153 31.0874 8.86634L32.0045 8.33688C31.8377 8.02081 31.658 7.71223 31.4697 7.41113L30.5541 7.94005C30.4932 7.97499 30.4396 8.02161 30.3967 8.07725C30.3537 8.13289 30.3221 8.19645 30.3038 8.2643C30.2854 8.33215 30.2806 8.40296 30.2896 8.47268C30.2986 8.54239 30.3212 8.60965 30.3563 8.6706Z" fill="#FFAA32"/>
<path d="M11.0128 23.5189C10.9125 23.4186 10.7765 23.3623 10.6346 23.3623C10.4928 23.3623 10.3568 23.4186 10.2565 23.5189L9.50781 24.2676C9.75026 24.529 10.0023 24.781 10.264 25.0238L11.0128 24.2751C11.113 24.1748 11.1693 24.0388 11.1693 23.897C11.1693 23.7552 11.113 23.6192 11.0128 23.5189Z" fill="#FFAA32"/>
<path d="M28.4066 6.12311C28.5069 6.22337 28.6429 6.27969 28.7847 6.27969C28.9265 6.27969 29.0625 6.22337 29.1628 6.12311L29.9115 5.37438C29.6691 5.11268 29.417 4.86061 29.1553 4.61816L28.4066 5.36689C28.3063 5.46718 28.25 5.60319 28.25 5.745C28.25 5.88681 28.3063 6.02281 28.4066 6.12311Z" fill="#FFAA32"/>
<path d="M13.5563 25.4729C13.4955 25.4378 13.4283 25.415 13.3587 25.4059C13.289 25.3968 13.2182 25.4015 13.1504 25.4197C13.0826 25.4379 13.019 25.4693 12.9633 25.5121C12.9076 25.5549 12.8609 25.6083 12.8258 25.6692L12.2969 26.5863C12.598 26.7762 12.9066 26.9559 13.2226 27.1211L13.7521 26.204C13.7873 26.1431 13.8101 26.0759 13.8193 26.0062C13.8286 25.9366 13.8239 25.8657 13.8058 25.7978C13.7876 25.7299 13.7562 25.6663 13.7134 25.6105C13.6706 25.5548 13.6172 25.508 13.5563 25.4729Z" fill="#FFAA32"/>
<path d="M25.8614 4.1678C25.9222 4.20289 25.9894 4.22565 26.059 4.23478C26.1287 4.24391 26.1995 4.23922 26.2673 4.221C26.3351 4.20277 26.3987 4.17136 26.4544 4.12855C26.5101 4.08575 26.5568 4.03239 26.5919 3.97153L27.1208 3.05434C26.8199 2.8643 26.5113 2.68603 26.1951 2.51953L25.6656 3.43672C25.6304 3.49757 25.6076 3.56475 25.5984 3.63444C25.5892 3.70412 25.5938 3.77494 25.6119 3.84284C25.6301 3.91074 25.6615 3.97439 25.7043 4.03015C25.7471 4.08591 25.8005 4.13268 25.8614 4.1678Z" fill="#FFAA32"/>
<path d="M16.5321 26.7009C16.4643 26.6827 16.3935 26.678 16.3239 26.6872C16.2542 26.6963 16.1871 26.7191 16.1262 26.7542C16.0654 26.7893 16.0121 26.8361 15.9693 26.8918C15.9265 26.9475 15.8952 27.0111 15.877 27.079L15.6016 28.1053C15.9406 28.2122 16.2866 28.2989 16.6359 28.378L16.9102 27.356C16.9284 27.2882 16.9331 27.2174 16.9239 27.1478C16.9148 27.0781 16.892 27.011 16.8569 26.9501C16.8218 26.8893 16.775 26.836 16.7193 26.7932C16.6636 26.7504 16.6 26.7191 16.5321 26.7009Z" fill="#FFAA32"/>
<path d="M22.8925 2.93984C22.9603 2.95804 23.0311 2.9627 23.1007 2.95354C23.1704 2.94439 23.2375 2.92161 23.2984 2.8865C23.3592 2.85138 23.4125 2.80463 23.4553 2.74891C23.498 2.69319 23.5294 2.62958 23.5476 2.56174L23.823 1.53545C23.484 1.42848 23.1379 1.34185 22.7887 1.2627L22.5144 2.28471C22.4962 2.35255 22.4915 2.42332 22.5007 2.49296C22.5098 2.5626 22.5326 2.62976 22.5677 2.6906C22.6028 2.75143 22.6496 2.80476 22.7053 2.84752C22.761 2.89029 22.8246 2.92166 22.8925 2.93984Z" fill="#FFAA32"/>
<path d="M29.3123 19.4876C29.1379 15.7569 27.5774 12.2257 24.9363 9.58513C22.2952 6.94454 18.7637 5.3847 15.0331 5.21094C13.4992 5.95447 12.1655 7.05411 11.1432 8.41806C10.1209 9.78201 9.4397 11.3707 9.15643 13.0515C8.87315 14.7324 8.99604 16.4566 9.51483 18.0803C10.0336 19.7039 10.9333 21.18 12.1387 22.3852C13.3441 23.5903 14.8203 24.4897 16.444 25.0082C18.0678 25.5267 19.792 25.6492 21.4728 25.3657C23.1536 25.0821 24.7422 24.4006 26.106 23.378C27.4697 22.3554 28.5691 21.0215 29.3123 19.4876Z" fill="#FF9C28"/>
<path d="M28.248 19.6341C28.2154 18.7775 28.1039 17.9256 27.9148 17.0895L27.1917 16.9857L27.642 16.0552C27.3881 15.2362 27.0583 14.4426 26.6569 13.6849L26.1221 13.2164V12.7592C25.6647 12.0342 25.1416 11.3528 24.5594 10.7237L23.9829 10.5424L23.8016 9.9675C23.1725 9.38472 22.4912 8.86108 21.7661 8.40319H21.3089L20.8404 7.86839C20.0827 7.467 19.2891 7.1372 18.4701 6.88328L17.5652 7.33358L17.4358 6.61053C16.5997 6.42141 15.7479 6.30988 14.8912 6.27734L14.3564 6.79878L13.8216 6.27734C12.965 6.30988 12.1131 6.42141 11.277 6.61053L11.1476 7.33358L10.2427 6.88328C9.42367 7.1372 8.63015 7.467 7.87243 7.86839L7.40394 8.40319H6.94668C6.2217 8.86057 5.54034 9.38367 4.91121 9.96589L4.72991 10.5424L4.155 10.7237C3.57222 11.3528 3.04858 12.0341 2.59069 12.7592V13.2164L2.05589 13.6849C1.6545 14.4426 1.3247 15.2362 1.07078 16.0552L1.52108 16.9857L0.798027 17.0895C0.608911 17.9256 0.497376 18.7775 0.464844 19.6341L0.986279 20.1689L0.464844 20.7037C0.497376 21.5604 0.608911 22.4122 0.798027 23.2483L1.52108 23.3521L1.07078 24.2826C1.3247 25.1016 1.6545 25.8952 2.05589 26.6529L2.59069 27.1214V27.5786C3.04807 28.3036 3.57117 28.985 4.15339 29.6141L4.72991 29.7954L4.91121 30.3703C5.54027 30.9531 6.22163 31.4767 6.94668 31.9346L7.93874 31.3998L7.87243 32.4694C8.63015 32.8708 9.42367 33.2006 10.2427 33.4545L11.1476 33.0042L11.277 33.7273C12.1131 33.9164 12.965 34.0279 13.8216 34.0605L14.3564 33.539L14.8912 34.0605C15.7479 34.0279 16.5997 33.9164 17.4358 33.7273L17.5652 33.0042L18.4701 33.4545C19.2891 33.2006 20.0827 32.8708 20.8404 32.4694L21.3089 31.9346H21.7661C22.4911 31.4772 23.1725 30.9541 23.8016 30.3719L23.9829 29.7954L24.5578 29.6141C25.1406 28.985 25.6642 28.3037 26.1221 27.5786V27.1214L26.6569 26.6529C27.0583 25.8952 27.3881 25.1016 27.642 24.2826L27.1917 23.3777L27.9148 23.2483C28.1039 22.4122 28.2154 21.5604 28.248 20.7037L27.7265 20.1689L28.248 19.6341Z" fill="#FFC864"/>
<path d="M14.3641 30.8658C20.2714 30.8658 25.0602 26.077 25.0602 20.1697C25.0602 14.2624 20.2714 9.47363 14.3641 9.47363C8.45677 9.47363 3.66797 14.2624 3.66797 20.1697C3.66797 26.077 8.45677 30.8658 14.3641 30.8658Z" fill="#FFAA32"/>
<path d="M4.73757 21.2393C4.73463 19.1882 5.32238 17.1796 6.43057 15.4535C7.53876 13.7275 9.12052 12.3571 10.9868 11.5061C12.8531 10.6551 14.9249 10.3594 16.9548 10.6545C18.9846 10.9496 20.8865 11.823 22.4332 13.1702C21.473 12.0595 20.2942 11.1586 18.9703 10.5238C17.6465 9.88902 16.2059 9.53392 14.7387 9.48066C13.2715 9.42741 11.809 9.67716 10.4426 10.2143C9.07622 10.7515 7.8352 11.5645 6.79702 12.6027C5.75885 13.6409 4.94581 14.8819 4.40865 16.2483C3.87149 17.6147 3.62175 19.0772 3.675 20.5444C3.72825 22.0116 4.08336 23.4521 4.71816 24.776C5.35296 26.0999 6.25383 27.2787 7.36453 28.2389C5.67122 26.3001 4.73794 23.8134 4.73757 21.2393Z" fill="#FF9C28"/>
<path d="M14.3629 7.86809C14.5048 7.86809 14.6408 7.81174 14.7411 7.71145C14.8414 7.61115 14.8977 7.47512 14.8977 7.33328V6.27704C14.7202 6.27062 14.5421 6.26367 14.3629 6.26367C14.1838 6.26367 14.0057 6.27062 13.8281 6.27704V7.33328C13.8281 7.47512 13.8845 7.61115 13.9848 7.71145C14.0851 7.81174 14.2211 7.86809 14.3629 7.86809Z" fill="#FFAA32"/>
<path d="M14.3629 32.4697C14.2211 32.4697 14.0851 32.5261 13.9848 32.6264C13.8845 32.7267 13.8281 32.8627 13.8281 33.0045V34.0608C14.0057 34.0672 14.1838 34.0741 14.3629 34.0741C14.5421 34.0741 14.7202 34.0672 14.8977 34.0608V33.0045C14.8977 32.8627 14.8414 32.7267 14.7411 32.6264C14.6408 32.5261 14.5048 32.4697 14.3629 32.4697Z" fill="#FFAA32"/>
<path d="M11.1767 8.2875C11.2445 8.26932 11.3081 8.23795 11.3638 8.19518C11.4195 8.15241 11.4663 8.09909 11.5014 8.03825C11.5365 7.97742 11.5593 7.91026 11.5685 7.84061C11.5776 7.77097 11.573 7.70021 11.5548 7.63236L11.2804 6.61035C10.9312 6.6895 10.5852 6.77828 10.2461 6.8831L10.5215 7.90939C10.5397 7.97724 10.5711 8.04084 10.6138 8.09657C10.6566 8.15229 10.7099 8.19904 10.7708 8.23415C10.8316 8.26926 10.8988 8.29205 10.9684 8.3012C11.038 8.31035 11.1088 8.3057 11.1767 8.2875Z" fill="#FFAA32"/>
<path d="M17.537 32.0485C17.4691 32.0667 17.4055 32.0981 17.3498 32.1409C17.2941 32.1836 17.2473 32.2369 17.2122 32.2978C17.1771 32.3586 17.1543 32.4258 17.1452 32.4954C17.136 32.5651 17.1407 32.6358 17.1589 32.7037L17.4332 33.7257C17.7825 33.6465 18.1285 33.5578 18.4676 33.4529L18.1921 32.4266C18.1739 32.3588 18.1426 32.2952 18.0998 32.2395C18.057 32.1837 18.0037 32.137 17.9429 32.1019C17.882 32.0668 17.8149 32.044 17.7452 32.0348C17.6756 32.0257 17.6048 32.0303 17.537 32.0485Z" fill="#FFAA32"/>
<path d="M8.21259 9.51546C8.27348 9.48034 8.32685 9.43356 8.36965 9.3778C8.41245 9.32204 8.44383 9.25839 8.46201 9.19049C8.48019 9.12259 8.48481 9.05178 8.4756 8.98209C8.46638 8.91241 8.44353 8.84522 8.40833 8.78438L7.87887 7.86719C7.56298 8.03476 7.2544 8.21303 6.95312 8.40199L7.48205 9.31758C7.51699 9.37858 7.56361 9.43209 7.61924 9.47505C7.67488 9.51802 7.73844 9.54959 7.8063 9.56797C7.87415 9.58635 7.94495 9.59117 8.01467 9.58216C8.08439 9.57315 8.15164 9.55048 8.21259 9.51546Z" fill="#FFAA32"/>
<path d="M20.5098 30.8201C20.4489 30.8553 20.3955 30.902 20.3527 30.9578C20.3099 31.0136 20.2786 31.0772 20.2604 31.1451C20.2422 31.213 20.2376 31.2838 20.2468 31.3535C20.256 31.4232 20.2789 31.4904 20.3141 31.5512L20.8435 32.4684C21.1596 32.3015 21.4682 32.1219 21.7693 31.9336L21.2403 31.018C21.2054 30.957 21.1588 30.9035 21.1032 30.8605C21.0475 30.8176 20.984 30.786 20.9161 30.7676C20.8483 30.7492 20.7774 30.7444 20.7077 30.7534C20.638 30.7624 20.5708 30.7851 20.5098 30.8201Z" fill="#FFAA32"/>
<path d="M5.66119 11.4708C5.76145 11.3705 5.81777 11.2345 5.81777 11.0927C5.81777 10.9508 5.76145 10.8148 5.66119 10.7145L4.91246 9.96582C4.65077 10.2083 4.39869 10.4603 4.15625 10.722L4.90498 11.4708C5.00527 11.571 5.14127 11.6273 5.28308 11.6273C5.4249 11.6273 5.5609 11.571 5.66119 11.4708Z" fill="#FFAA32"/>
<path d="M23.055 28.8665C22.9548 28.9668 22.8984 29.1028 22.8984 29.2447C22.8984 29.3865 22.9548 29.5225 23.055 29.6228L23.8037 30.3715C24.0651 30.129 24.3172 29.877 24.56 29.6153L23.8112 28.8665C23.7109 28.7663 23.5749 28.71 23.4331 28.71C23.2913 28.71 23.1553 28.7663 23.055 28.8665Z" fill="#FFAA32"/>
<path d="M3.70686 14.0183C3.74195 13.9574 3.76471 13.8902 3.77384 13.8206C3.78297 13.7509 3.77829 13.6802 3.76006 13.6123C3.74183 13.5445 3.71042 13.4809 3.66762 13.4252C3.62481 13.3695 3.57145 13.3228 3.51059 13.2877L2.5934 12.7588C2.40336 13.0601 2.2251 13.3686 2.05859 13.6845L2.97578 14.214C3.03663 14.2492 3.10381 14.272 3.1735 14.2813C3.24318 14.2905 3.314 14.2859 3.3819 14.2677C3.4498 14.2495 3.51345 14.2181 3.56921 14.1753C3.62497 14.1325 3.67174 14.0791 3.70686 14.0183Z" fill="#FFAA32"/>
<path d="M25.0129 26.3194C24.9778 26.3802 24.9551 26.4474 24.9459 26.517C24.9368 26.5867 24.9415 26.6575 24.9597 26.7253C24.9779 26.7931 25.0094 26.8567 25.0522 26.9124C25.095 26.9681 25.1483 27.0148 25.2092 27.0499L26.1264 27.5788C26.3162 27.2777 26.4959 26.9692 26.6612 26.6531L25.744 26.1236C25.6832 26.0884 25.616 26.0656 25.5463 26.0564C25.4766 26.0472 25.4058 26.0518 25.3379 26.07C25.27 26.0881 25.2063 26.1195 25.1506 26.1623C25.0948 26.2051 25.048 26.2585 25.0129 26.3194Z" fill="#FFAA32"/>
<path d="M2.47402 16.9843C2.49222 16.9164 2.49688 16.8457 2.48772 16.776C2.47857 16.7064 2.45579 16.6392 2.42068 16.5784C2.38556 16.5175 2.33881 16.4642 2.28309 16.4215C2.22737 16.3787 2.16376 16.3473 2.09592 16.3291L1.06963 16.0537C0.962664 16.3928 0.876026 16.7388 0.796875 17.088L1.81889 17.3624C1.88673 17.3806 1.9575 17.3852 2.02714 17.3761C2.09678 17.3669 2.16394 17.3441 2.22478 17.309C2.28561 17.2739 2.33894 17.2272 2.3817 17.1714C2.42447 17.1157 2.45584 17.0521 2.47402 16.9843Z" fill="#FFAA32"/>
<path d="M26.2409 23.3524C26.2227 23.4203 26.2181 23.491 26.2272 23.5607C26.2364 23.6303 26.2592 23.6975 26.2943 23.7583C26.3294 23.8191 26.3761 23.8725 26.4319 23.9152C26.4876 23.958 26.5512 23.9894 26.619 24.0076L27.6453 24.283C27.7523 23.9439 27.8389 23.5979 27.9181 23.2487L26.8961 22.9743C26.8282 22.9561 26.7574 22.9515 26.6878 22.9606C26.6182 22.9698 26.551 22.9926 26.4902 23.0277C26.4293 23.0628 26.376 23.1095 26.3332 23.1652C26.2905 23.221 26.2591 23.2846 26.2409 23.3524Z" fill="#FFAA32"/>
<path d="M2.05754 20.1696C2.05754 20.0277 2.00119 19.8917 1.9009 19.7914C1.8006 19.6911 1.66457 19.6348 1.52273 19.6348H0.466495C0.460077 19.8123 0.453125 19.9904 0.453125 20.1696C0.453125 20.3487 0.460077 20.5268 0.466495 20.7044H1.52273C1.66457 20.7044 1.8006 20.648 1.9009 20.5477C2.00119 20.4474 2.05754 20.3114 2.05754 20.1696Z" fill="#FFAA32"/>
<path d="M26.6602 20.1696C26.6602 20.3114 26.7165 20.4474 26.8168 20.5477C26.9171 20.648 27.0531 20.7044 27.195 20.7044H28.2512C28.2576 20.5268 28.2646 20.3487 28.2646 20.1696C28.2646 19.9904 28.2576 19.8123 28.2512 19.6348H27.195C27.0531 19.6348 26.9171 19.6911 26.8168 19.7914C26.7165 19.8917 26.6602 20.0277 26.6602 20.1696Z" fill="#FFAA32"/>
<path d="M2.47402 23.3524C2.45584 23.2846 2.42447 23.221 2.3817 23.1652C2.33894 23.1095 2.28561 23.0628 2.22478 23.0277C2.16394 22.9926 2.09678 22.9698 2.02714 22.9606C1.9575 22.9515 1.88673 22.9561 1.81889 22.9743L0.796875 23.2487C0.876026 23.5979 0.964804 23.9439 1.06963 24.283L2.09592 24.0076C2.16376 23.9894 2.22737 23.958 2.28309 23.9152C2.33881 23.8725 2.38556 23.8191 2.42068 23.7583C2.45579 23.6975 2.47857 23.6303 2.48772 23.5607C2.49688 23.491 2.49222 23.4203 2.47402 23.3524Z" fill="#FFAA32"/>
<path d="M26.2409 16.9843C26.2591 17.0521 26.2905 17.1157 26.3332 17.1714C26.376 17.2272 26.4293 17.2739 26.4902 17.309C26.551 17.3441 26.6182 17.3669 26.6878 17.3761C26.7574 17.3852 26.8282 17.3806 26.8961 17.3624L27.9181 17.088C27.8389 16.7388 27.7501 16.3928 27.6453 16.0537L26.619 16.3291C26.5512 16.3473 26.4876 16.3787 26.4319 16.4215C26.3761 16.4642 26.3294 16.5175 26.2943 16.5784C26.2592 16.6392 26.2364 16.7064 26.2272 16.776C26.2181 16.8457 26.2227 16.9164 26.2409 16.9843Z" fill="#FFAA32"/>
<path d="M3.70686 26.3194C3.67174 26.2585 3.62497 26.2051 3.56921 26.1623C3.51345 26.1195 3.4498 26.0881 3.3819 26.07C3.314 26.0518 3.24318 26.0472 3.1735 26.0564C3.10381 26.0656 3.03663 26.0884 2.97578 26.1236L2.05859 26.6531C2.22617 26.9693 2.40443 27.2779 2.5934 27.5788L3.50898 27.0499C3.56998 27.015 3.62349 26.9684 3.66646 26.9127C3.70942 26.8571 3.741 26.7935 3.75938 26.7257C3.77775 26.6578 3.78258 26.587 3.77357 26.5173C3.76455 26.4476 3.74189 26.3803 3.70686 26.3194Z" fill="#FFAA32"/>
<path d="M25.0125 14.0183C25.0476 14.0791 25.0944 14.1325 25.1502 14.1753C25.2059 14.2181 25.2696 14.2495 25.3375 14.2677C25.4054 14.2859 25.4762 14.2905 25.5459 14.2813C25.6156 14.272 25.6828 14.2492 25.7436 14.214L26.6608 13.6845C26.4939 13.3685 26.3142 13.0599 26.126 12.7588L25.2104 13.2877C25.1494 13.3227 25.0959 13.3693 25.0529 13.4249C25.01 13.4805 24.9784 13.5441 24.96 13.612C24.9416 13.6798 24.9368 13.7506 24.9458 13.8203C24.9548 13.8901 24.9775 13.9573 25.0125 14.0183Z" fill="#FFAA32"/>
<path d="M5.66119 28.8665C5.5609 28.7663 5.4249 28.71 5.28308 28.71C5.14127 28.71 5.00527 28.7663 4.90498 28.8665L4.15625 29.6153C4.39869 29.8766 4.65077 30.1287 4.91246 30.3715L5.66119 29.6228C5.76145 29.5225 5.81777 29.3865 5.81777 29.2447C5.81777 29.1028 5.76145 28.9668 5.66119 28.8665Z" fill="#FFAA32"/>
<path d="M23.055 11.4708C23.1553 11.571 23.2913 11.6273 23.4331 11.6273C23.5749 11.6273 23.7109 11.571 23.8112 11.4708L24.56 10.722C24.3175 10.4607 24.0654 10.2086 23.8037 9.96582L23.055 10.7145C22.9548 10.8148 22.8984 10.9508 22.8984 11.0927C22.8984 11.2345 22.9548 11.3705 23.055 11.4708Z" fill="#FFAA32"/>
<path d="M8.21259 30.8205C8.15174 30.7854 8.08457 30.7627 8.01492 30.7536C7.94527 30.7444 7.8745 30.7491 7.80666 30.7673C7.73882 30.7856 7.67523 30.817 7.61954 30.8598C7.56384 30.9026 7.51712 30.9559 7.48205 31.0168L6.95312 31.934C7.25422 32.1239 7.5628 32.3036 7.87887 32.4688L8.40833 31.5516C8.44353 31.4908 8.46638 31.4236 8.4756 31.3539C8.48481 31.2842 8.48019 31.2134 8.46201 31.1455C8.44383 31.0776 8.41245 31.0139 8.36965 30.9582C8.32685 30.9024 8.27348 30.8557 8.21259 30.8205Z" fill="#FFAA32"/>
<path d="M20.5098 9.51546C20.5707 9.55055 20.6378 9.57331 20.7075 9.58244C20.7771 9.59156 20.8479 9.58688 20.9157 9.56865C20.9836 9.55043 21.0472 9.51901 21.1029 9.47621C21.1586 9.4334 21.2053 9.38005 21.2403 9.31918L21.7693 8.40199C21.4684 8.21196 21.1598 8.03369 20.8435 7.86719L20.3141 8.78438C20.2789 8.84522 20.256 8.91241 20.2468 8.98209C20.2376 9.05178 20.2422 9.12259 20.2604 9.19049C20.2786 9.25839 20.3099 9.32204 20.3527 9.3778C20.3955 9.43356 20.4489 9.48034 20.5098 9.51546Z" fill="#FFAA32"/>
<path d="M11.1767 32.0485C11.1088 32.0303 11.038 32.0257 10.9684 32.0348C10.8988 32.044 10.8316 32.0668 10.7708 32.1019C10.7099 32.137 10.6566 32.1837 10.6138 32.2395C10.5711 32.2952 10.5397 32.3588 10.5215 32.4266L10.2461 33.4529C10.5852 33.5599 10.9312 33.6465 11.2804 33.7257L11.5548 32.7037C11.573 32.6358 11.5776 32.5651 11.5685 32.4954C11.5593 32.4258 11.5365 32.3586 11.5014 32.2978C11.4663 32.2369 11.4195 32.1836 11.3638 32.1409C11.3081 32.0981 11.2445 32.0667 11.1767 32.0485Z" fill="#FFAA32"/>
<path d="M17.537 8.2875C17.6048 8.3057 17.6756 8.31035 17.7452 8.3012C17.8149 8.29205 17.882 8.26926 17.9429 8.23415C18.0037 8.19904 18.057 8.15229 18.0998 8.09657C18.1426 8.04084 18.1739 7.97724 18.1921 7.90939L18.4676 6.8831C18.1285 6.77614 17.7825 6.6895 17.4332 6.61035L17.1589 7.63236C17.1407 7.70021 17.136 7.77097 17.1452 7.84061C17.1543 7.91026 17.1771 7.97742 17.2122 8.03825C17.2473 8.09909 17.2941 8.15241 17.3498 8.19518C17.4055 8.23795 17.4691 8.26932 17.537 8.2875Z" fill="#FFAA32"/>
</svg>
