<svg width="24" height="24" viewBox="0 0 24 24" fill="none" xmlns="http://www.w3.org/2000/svg">
<circle cx="10" cy="13.9375" r="9" fill="#FB5933"/>
<circle cx="14" cy="9.9375" r="9" fill="#FB5933"/>
<path d="M14.1124 0.142044L14.1013 0.130859C10.5933 0.131279 7.34823 1.99644 5.5735 5.0323C3.82378 5.88321 2.36312 7.23299 1.37448 8.91285C-1.40073 13.6278 0.159278 19.7072 4.85888 22.4916C9.55841 25.2759 15.6179 23.7107 18.393 18.9957C21.8217 17.3451 24.0021 13.8669 24 10.0513C23.997 4.57557 19.5702 0.139038 14.1124 0.142044ZM18.602 14.0915C18.5433 18.7305 14.9003 22.5246 10.2819 22.7567C5.45046 22.9995 1.33763 19.2668 1.09559 14.4194C0.853552 9.57201 4.57399 5.4457 9.40541 5.20286H9.73426H9.8541C12.1771 5.19972 14.4056 6.12541 16.0465 7.77521C17.6857 9.42082 18.6052 11.653 18.602 13.9796V14.0915ZM10.8406 4.11241C12.6896 3.08459 14.9115 2.98428 16.845 3.84147C20.2575 5.35434 21.8015 9.35637 20.2936 12.7801C20.1379 13.1395 19.9515 13.4848 19.7363 13.8118C19.7441 11.2693 18.7281 8.83127 16.9188 7.05104C14.0873 4.21027 10.8406 4.11241 10.8406 4.11241ZM19.2068 17.2118C19.3703 16.7349 19.497 16.246 19.5858 15.7495C20.3251 15.0327 20.9177 14.1778 21.3303 13.2331C22.5594 10.4216 22.0548 7.15044 20.036 4.84329C17.1654 1.56264 12.1875 1.23795 8.91772 4.118C8.41309 4.16414 7.91278 4.24921 7.42118 4.37244C7.58045 4.18357 7.74759 4.00155 7.92225 3.82687C11.3433 0.404102 16.8821 0.411721 20.2936 3.84399L20.3048 3.84958C23.2139 6.76969 23.7055 11.3275 21.4864 14.8044C20.8849 15.7441 20.1113 16.561 19.2068 17.2118Z" fill="white"/>
<path d="M9.85393 6.08399C7.76296 6.08078 5.75706 6.914 4.28024 8.39911C2.80342 9.8808 1.97342 11.8902 1.97266 13.9855C1.97112 18.351 5.49711 21.8912 9.84822 21.8928C14.1993 21.8944 17.7279 18.3567 17.7295 13.9912C17.7311 9.62573 14.2051 6.08553 9.85393 6.08399ZM14.6307 18.7809C11.9926 21.4278 7.71545 21.4279 5.07728 18.7811C2.43911 16.1343 2.43904 11.843 5.07714 9.19612C7.71524 6.54925 11.9924 6.54918 14.6306 9.19598C15.8975 10.4636 16.6095 12.1849 16.6093 13.98C16.6116 15.7804 15.8997 17.5078 14.6307 18.7809Z" fill="white"/>
</svg>
