<svg width="25" height="24" viewBox="0 0 25 24" fill="none" xmlns="http://www.w3.org/2000/svg">
<path d="M14.6124 0.141067L14.6013 0.129883C11.0933 0.130302 7.84823 1.99547 6.0735 5.03133C4.32378 5.88223 2.86312 7.23202 1.87448 8.91187C-0.90073 13.6268 0.659278 19.7062 5.35888 22.4906C10.0584 25.2749 16.1179 23.7097 18.893 18.9947C22.3217 17.3441 24.5021 13.8659 24.5 10.0503C24.497 4.5746 20.0702 0.138061 14.6124 0.141067ZM19.102 14.0905C19.0433 18.7295 15.4003 22.5236 10.7819 22.7557C5.95046 22.9986 1.83763 19.2659 1.59559 14.4184C1.35355 9.57104 5.07399 5.44472 9.90541 5.20189H10.2343H10.3541C12.6771 5.19874 14.9056 6.12444 16.5465 7.77424C18.1857 9.41984 19.1052 11.6521 19.102 13.9786V14.0905ZM11.3406 4.11143C13.1896 3.08361 15.4115 2.9833 17.345 3.8405C20.7575 5.35336 22.3015 9.35539 20.7936 12.7791C20.6379 13.1386 20.4515 13.4838 20.2363 13.8109C20.2441 11.2683 19.2281 8.8303 17.4188 7.05006C14.5873 4.20929 11.3406 4.11143 11.3406 4.11143ZM19.7068 17.2108C19.8703 16.7339 19.997 16.245 20.0858 15.7485C20.8251 15.0317 21.4178 14.1769 21.8303 13.2321C23.0594 10.4206 22.5548 7.14946 20.536 4.84232C17.6654 1.56166 12.6875 1.23697 9.41772 4.11702C8.91309 4.16316 8.41278 4.24823 7.92118 4.37146C8.08045 4.18259 8.24759 4.00057 8.42225 3.82589C11.8433 0.403125 17.3821 0.410744 20.7936 3.84301L20.8048 3.84861C23.7139 6.76871 24.2055 11.3265 21.9864 14.8035C21.3849 15.7431 20.6113 16.56 19.7068 17.2108Z" fill="#A6A6A6"/>
<path d="M10.3539 6.08302C8.26296 6.0798 6.25706 6.91302 4.78024 8.39813C3.30342 9.87982 2.47342 11.8892 2.47266 13.9845C2.47112 18.35 5.99711 21.8902 10.3482 21.8918C14.6993 21.8934 18.2279 18.3557 18.2295 13.9903C18.2311 9.62475 14.7051 6.08455 10.3539 6.08302ZM15.1307 18.7799C12.4926 21.4268 8.21545 21.4269 5.57728 18.7801C2.93911 16.1333 2.93904 11.842 5.57714 9.19514C8.21524 6.54828 12.4924 6.54821 15.1306 9.195C16.3975 10.4626 17.1095 12.1839 17.1093 13.979C17.1116 15.7794 16.3997 17.5068 15.1307 18.7799Z" fill="#A6A6A6"/>
</svg>
