<svg width="327" height="31" viewBox="0 0 327 31" fill="none" xmlns="http://www.w3.org/2000/svg">
<g filter="url(#filter0_d_6992_94131)">
<path d="M0.092 13.4C0.092 3.53 4.544 0.505998 11.642 0.505998C13.364 0.505998 14.708 0.841998 16.43 1.22L15.506 7.814L11.642 7.562C10.088 7.478 8.828 8.402 8.828 13.4C8.828 18.398 9.92 19.364 11.642 19.28L15.506 18.986L16.388 25.622C14.666 25.958 13.28 26.084 11.558 26.084C4.502 26.084 0.092 23.9 0.092 13.4ZM19.2036 13.4C19.2036 5.168 22.8576 0.799999 28.7796 0.505998C36.7596 0.505998 40.5396 3.698 40.5396 13.4C40.5396 21.674 36.8016 25.958 30.8796 26.252C22.8576 26.252 19.2036 23.144 19.2036 13.4ZM27.9396 13.4C27.9396 18.398 28.7796 18.944 29.9136 18.944C31.0476 18.944 31.7616 18.398 31.7616 13.4C31.7616 8.402 30.9216 7.856 29.7876 7.856C28.6536 7.856 27.9396 8.402 27.9396 13.4ZM44.4053 13.4C44.4053 9.2 44.4473 5 44.5733 0.799999C45.8753 0.758 46.6313 0.715998 48.0173 0.715998C49.2353 0.715998 50.3273 0.758 51.6713 0.799999C51.8813 0.841998 52.0073 1.01 52.1333 1.22L56.4593 11.972L56.3333 0.799999C57.6353 0.758 58.6013 0.715998 59.9873 0.715998C61.4153 0.715998 62.6333 0.758 63.8933 0.799999C64.1033 0.841998 64.3133 1.01 64.3133 1.22C64.3973 5.168 64.4813 9.2 64.4813 13.4C64.4813 17.6 64.3973 21.8 64.3133 26C63.1373 26.084 62.4233 26.126 61.0373 26.126C59.7773 26.126 58.5593 26.084 57.2153 26C56.9633 26 56.8373 25.832 56.7533 25.58L52.3853 14.87L52.5533 26C51.2093 26.084 50.4533 26.126 49.0673 26.126C47.6393 26.126 46.3373 26.084 44.9933 26C44.7413 26 44.5733 25.832 44.5733 25.58C44.4893 21.632 44.4053 17.6 44.4053 13.4ZM68.3371 13.4C68.3371 3.53 72.7891 0.505998 79.8871 0.505998C82.2391 0.505998 84.7171 0.799999 87.4051 1.22L86.5231 7.856H79.0471C77.9131 7.856 77.0731 8.402 77.0731 13.4C77.0731 18.398 78.0811 18.944 79.2571 18.944H80.0971C80.0971 17.264 79.9711 14.744 79.9291 12.56C81.0631 12.518 82.1551 12.518 83.2471 12.518C84.3811 12.518 85.5571 12.518 86.9011 12.56C87.1111 12.602 87.2791 12.77 87.3211 12.98C87.4051 14.954 87.4891 16.802 87.4891 18.86C87.4891 20.834 87.4051 23.648 87.3211 25.286C84.4231 25.832 82.8271 26.084 79.8031 26.084C72.7471 26.084 68.3371 23.9 68.3371 13.4ZM92.0231 12.854C92.0231 8.654 92.1071 5.42 92.1071 1.22C94.8791 0.799999 98.3651 0.505998 100.717 0.505998C106.975 0.505998 111.259 1.01 111.259 7.814C111.259 10.922 109.537 13.274 106.765 14.576C107.731 14.912 108.529 15.584 109.117 16.55C110.755 19.826 111.721 22.85 112.435 26C111.049 26.168 109.537 26.252 108.067 26.252C106.933 26.252 105.799 26.21 104.665 26.126C104.455 26.126 104.119 25.958 104.035 25.706C102.859 22.136 101.683 18.566 100.843 15.668C100.675 15.668 100.465 15.668 100.297 15.668C100.339 19.112 100.465 22.724 100.507 26C99.2471 26.084 98.0291 26.084 96.8111 26.084C95.3831 26.084 93.9551 26.084 92.5271 26C92.2751 26 92.1071 25.832 92.1071 25.58C92.1071 21.632 92.0231 17.054 92.0231 12.854ZM100.297 10.502H101.011C102.313 10.502 103.237 9.788 103.237 8.696C103.237 7.394 102.817 6.68 101.305 6.68C100.969 6.68 100.591 6.68 100.297 6.722C100.297 7.94 100.297 9.158 100.297 10.502ZM114.173 25.664C114.173 25.58 114.299 24.782 114.383 24.362C115.643 16.676 117.407 8.57 118.961 0.799999C120.851 0.715998 122.783 0.715998 124.757 0.715998C126.773 0.715998 128.747 0.758 130.763 0.799999C130.973 0.799999 131.183 1.01 131.225 1.22C132.821 9.284 134.795 17.852 136.013 26C134.711 26.084 133.787 26.126 132.359 26.126C130.931 26.126 129.713 26.126 128.243 26C128.033 26 127.823 25.832 127.781 25.58C127.487 24.236 127.235 22.808 127.025 21.38H123.119C122.867 22.934 122.615 24.488 122.321 26C120.977 26.084 120.221 26.126 118.835 26.126C117.407 26.126 115.937 26.084 114.551 26C114.341 26 114.173 25.874 114.173 25.664ZM123.833 15.92H126.185C125.723 12.812 125.303 9.662 124.883 6.512C124.505 9.62 124.169 12.77 123.833 15.92ZM136.981 3.992C136.981 2.984 136.981 1.934 137.023 0.799999C138.325 0.758 145.339 0.715998 146.725 0.715998C148.153 0.715998 153.991 0.758 155.419 0.799999C155.629 0.799999 155.797 1.01 155.839 1.22C155.839 2.438 155.839 3.614 155.839 4.832C155.839 5.84 155.839 6.89 155.839 7.94C155.125 7.982 152.899 8.024 150.715 8.024C150.757 9.746 150.799 11.468 150.799 13.4C150.799 17.6 150.715 21.8 150.631 26C149.287 26.084 148.321 26.126 146.935 26.126C145.507 26.126 144.037 26.084 142.651 26C142.399 26 142.231 25.832 142.231 25.58C142.147 21.632 142.063 17.6 142.063 13.4C142.063 11.468 142.063 9.746 142.063 7.982C140.173 7.94 138.157 7.898 137.443 7.856C137.191 7.856 137.023 7.688 137.023 7.436C136.981 6.26 136.981 5.126 136.981 3.992ZM158.484 13.568C158.484 9.368 158.526 5 158.652 0.799999C159.954 0.758 160.92 0.715998 162.306 0.715998C163.734 0.715998 165.204 0.758 166.632 0.799999C166.842 0.799999 167.052 1.01 167.052 1.22C167.136 5.168 167.22 10.628 167.22 14.828C167.22 18.566 167.766 19.112 168.9 19.112C170.034 19.112 170.496 18.566 170.496 14.828C170.496 10.628 170.538 5 170.664 0.799999C171.966 0.758 172.932 0.715998 174.318 0.715998C175.746 0.715998 177.216 0.758 178.644 0.799999C178.854 0.799999 179.064 1.01 179.064 1.22C179.148 5.168 179.232 9.368 179.232 13.568C179.232 22.682 175.788 26.126 169.866 26.42C162.264 26.42 158.484 24.152 158.484 13.568ZM183.151 13.4C183.151 9.2 183.193 5 183.319 0.799999C184.621 0.758 185.587 0.715998 186.973 0.715998C188.401 0.715998 189.871 0.758 191.299 0.799999C191.509 0.799999 191.719 1.01 191.719 1.22C191.803 5.168 191.887 9.2 191.887 13.4C191.887 15.29 191.845 17.096 191.845 18.86H192.013C193.441 18.86 197.011 18.902 198.439 18.944C198.649 18.944 198.817 19.154 198.859 19.364C198.859 20.666 198.859 21.842 198.859 23.018C198.859 24.026 198.859 25.034 198.859 26.084C197.515 26.168 194.029 26.21 192.643 26.21C191.215 26.21 185.125 26.084 183.739 26C183.487 26 183.319 25.832 183.319 25.58C183.235 21.632 183.151 17.6 183.151 13.4ZM200.504 25.664C200.504 25.58 200.63 24.782 200.714 24.362C201.974 16.676 203.738 8.57 205.292 0.799999C207.182 0.715998 209.114 0.715998 211.088 0.715998C213.104 0.715998 215.078 0.758 217.094 0.799999C217.304 0.799999 217.514 1.01 217.556 1.22C219.152 9.284 221.126 17.852 222.344 26C221.042 26.084 220.118 26.126 218.69 26.126C217.262 26.126 216.044 26.126 214.574 26C214.364 26 214.154 25.832 214.112 25.58C213.818 24.236 213.566 22.808 213.356 21.38H209.45C209.198 22.934 208.946 24.488 208.652 26C207.308 26.084 206.552 26.126 205.166 26.126C203.738 26.126 202.268 26.084 200.882 26C200.672 26 200.504 25.874 200.504 25.664ZM210.164 15.92H212.516C212.054 12.812 211.634 9.662 211.214 6.512C210.836 9.62 210.5 12.77 210.164 15.92ZM223.313 3.992C223.313 2.984 223.313 1.934 223.355 0.799999C224.657 0.758 231.671 0.715998 233.057 0.715998C234.485 0.715998 240.323 0.758 241.751 0.799999C241.961 0.799999 242.129 1.01 242.171 1.22C242.171 2.438 242.171 3.614 242.171 4.832C242.171 5.84 242.171 6.89 242.171 7.94C241.457 7.982 239.231 8.024 237.047 8.024C237.089 9.746 237.131 11.468 237.131 13.4C237.131 17.6 237.047 21.8 236.963 26C235.619 26.084 234.653 26.126 233.267 26.126C231.839 26.126 230.369 26.084 228.983 26C228.731 26 228.563 25.832 228.563 25.58C228.479 21.632 228.395 17.6 228.395 13.4C228.395 11.468 228.395 9.746 228.395 7.982C226.505 7.94 224.489 7.898 223.775 7.856C223.523 7.856 223.355 7.688 223.355 7.436C223.313 6.26 223.313 5.126 223.313 3.992ZM245.613 13.4C245.613 9.2 245.655 5 245.781 0.799999C247.083 0.758 248.049 0.715998 249.435 0.715998C250.863 0.715998 252.333 0.758 253.761 0.799999C253.971 0.799999 254.181 1.01 254.181 1.22C254.265 5.168 254.349 9.2 254.349 13.4C254.349 17.6 254.265 21.8 254.181 26C252.837 26.084 251.871 26.126 250.485 26.126C249.057 26.126 247.587 26.084 246.201 26C245.949 26 245.781 25.832 245.781 25.58C245.697 21.632 245.613 17.6 245.613 13.4ZM258.225 13.4C258.225 5.168 261.879 0.799999 267.801 0.505998C275.781 0.505998 279.561 3.698 279.561 13.4C279.561 21.674 275.823 25.958 269.901 26.252C261.879 26.252 258.225 23.144 258.225 13.4ZM266.961 13.4C266.961 18.398 267.801 18.944 268.935 18.944C270.069 18.944 270.783 18.398 270.783 13.4C270.783 8.402 269.943 7.856 268.809 7.856C267.675 7.856 266.961 8.402 266.961 13.4ZM283.426 13.4C283.426 9.2 283.468 5 283.594 0.799999C284.896 0.758 285.652 0.715998 287.038 0.715998C288.256 0.715998 289.348 0.758 290.692 0.799999C290.902 0.841998 291.028 1.01 291.154 1.22L295.48 11.972L295.354 0.799999C296.656 0.758 297.622 0.715998 299.008 0.715998C300.436 0.715998 301.654 0.758 302.914 0.799999C303.124 0.841998 303.334 1.01 303.334 1.22C303.418 5.168 303.502 9.2 303.502 13.4C303.502 17.6 303.418 21.8 303.334 26C302.158 26.084 301.444 26.126 300.058 26.126C298.798 26.126 297.58 26.084 296.236 26C295.984 26 295.858 25.832 295.774 25.58L291.406 14.87L291.574 26C290.23 26.084 289.474 26.126 288.088 26.126C286.66 26.126 285.358 26.084 284.014 26C283.762 26 283.594 25.832 283.594 25.58C283.51 21.632 283.426 17.6 283.426 13.4ZM307.694 25.748L308.702 18.188C311.642 19.112 314.246 19.658 316.136 19.658C317.732 19.658 318.404 18.818 318.404 18.146C318.404 17.306 317.186 16.97 315.548 16.508C312.398 15.626 307.736 14.282 307.736 7.814C307.736 1.01 311.936 0.505998 317.69 0.505998C320.126 0.505998 322.982 0.883998 325.796 1.43L324.83 8.444C322.856 7.562 319.874 6.722 317.27 6.722C315.968 6.722 315.128 7.142 315.128 7.898C315.128 8.654 316.43 9.032 318.152 9.536C321.638 10.586 326.846 12.14 326.846 17.978C326.846 24.656 322.226 26.21 316.556 26.21C313.7 26.21 310.592 26.084 307.694 25.748Z" fill="url(#paint0_linear_6992_94131)"/>
</g>
<defs>
<filter id="filter0_d_6992_94131" x="0.0917969" y="0.505859" width="326.754" height="29.6261" filterUnits="userSpaceOnUse" color-interpolation-filters="sRGB">
<feFlood flood-opacity="0" result="BackgroundImageFix"/>
<feColorMatrix in="SourceAlpha" type="matrix" values="0 0 0 0 0 0 0 0 0 0 0 0 0 0 0 0 0 0 127 0" result="hardAlpha"/>
<feOffset dy="3.712"/>
<feComposite in2="hardAlpha" operator="out"/>
<feColorMatrix type="matrix" values="0 0 0 0 0.686275 0 0 0 0 0.337255 0 0 0 0 0.117647 0 0 0 1 0"/>
<feBlend mode="normal" in2="BackgroundImageFix" result="effect1_dropShadow_6992_94131"/>
<feBlend mode="normal" in="SourceGraphic" in2="effect1_dropShadow_6992_94131" result="shape"/>
</filter>
<linearGradient id="paint0_linear_6992_94131" x1="132.065" y1="97.7857" x2="132.065" y2="-167.714" gradientUnits="userSpaceOnUse">
<stop offset="0.174155" stop-color="#FFBF34"/>
<stop offset="0.36788" stop-color="white"/>
</linearGradient>
</defs>
</svg>
