<svg width="44" height="44" viewBox="0 0 44 44" fill="none" xmlns="http://www.w3.org/2000/svg">
<path fill-rule="evenodd" clip-rule="evenodd" d="M16.0769 16.074H15.2308C14.1088 16.074 13.0325 16.5199 12.2388 17.3128C11.4459 18.1065 11 19.1828 11 20.3048V28.7663C11 29.8883 11.4459 30.9646 12.2388 31.7583C13.0325 32.5511 14.1088 32.9971 15.2308 32.9971H23.6923C24.8143 32.9971 25.8906 32.5511 26.6843 31.7583C27.4772 30.9646 27.9231 29.8883 27.9231 28.7663V27.9201H28.7692C29.8912 27.9201 30.9675 27.4742 31.7612 26.6814C32.5541 25.8877 33 24.8114 33 23.6894C33 21.1704 33 17.7468 33 15.2278C33 14.1058 32.5541 13.0295 31.7612 12.2358C30.9675 11.443 29.8912 10.9971 28.7692 10.9971C26.2502 10.9971 22.8267 10.9971 20.3077 10.9971C19.1857 10.9971 18.1094 11.443 17.3157 12.2358C16.5228 13.0295 16.0769 14.1058 16.0769 15.2278V16.074ZM15.2308 17.7663H23.6923C24.3658 17.7663 25.0115 18.0337 25.487 18.5101C25.9634 18.9856 26.2308 19.6312 26.2308 20.3048V28.7663C26.2308 29.4398 25.9634 30.0855 25.487 30.561C25.0115 31.0374 24.3658 31.3048 23.6923 31.3048C21.1733 31.3048 17.7498 31.3048 15.2308 31.3048C14.5572 31.3048 13.9116 31.0374 13.4361 30.561C12.9597 30.0855 12.6923 29.4398 12.6923 28.7663C12.6923 26.2473 12.6923 22.8238 12.6923 20.3048C12.6923 19.6312 12.9597 18.9856 13.4361 18.5101C13.9116 18.0337 14.5572 17.7663 15.2308 17.7663ZM27.9231 26.2278H28.7692C29.4428 26.2278 30.0884 25.9605 30.5639 25.4841C31.0403 25.0085 31.3077 24.3629 31.3077 23.6894C31.3077 21.1704 31.3077 17.7468 31.3077 15.2278C31.3077 14.5543 31.0403 13.9087 30.5639 13.4331C30.0884 12.9568 29.4428 12.6894 28.7692 12.6894C26.2502 12.6894 22.8267 12.6894 20.3077 12.6894C19.6342 12.6894 18.9885 12.9568 18.513 13.4331C18.0366 13.9087 17.7692 14.5543 17.7692 15.2278V16.074H23.6923C24.8143 16.074 25.8906 16.5199 26.6843 17.3128C27.4772 18.1065 27.9231 19.1828 27.9231 20.3048V26.2278Z" fill="#FB5933"/>
</svg>
