<svg width="24" height="24" viewBox="0 0 24 24" fill="none" xmlns="http://www.w3.org/2000/svg">
<path d="M19.5153 5.17576H18.3032V2.72725C18.3032 2.31516 17.9881 2 17.5759 2H6.08508C5.47903 2 4.8972 2.2424 4.46084 2.67881C4.00021 3.11517 3.75781 3.69699 3.75781 4.30304V19.6727C3.75781 20.9576 4.80022 22 6.08508 22H19.5154C19.9275 22 20.2426 21.6848 20.2426 21.2728V5.90301C20.2426 5.49092 19.9275 5.17576 19.5153 5.17576ZM5.47898 3.69695C5.64867 3.52726 5.84263 3.45455 6.08503 3.45455H16.8487V5.17576H6.08508C5.57601 5.17576 5.21236 4.81211 5.21236 4.30304C5.21231 4.03637 5.35778 3.81819 5.47898 3.69695ZM8.89719 6.63031H11.2245V11.9394L10.4244 11.4545C10.182 11.3091 9.91538 11.3091 9.67293 11.4545L8.87292 11.9394V6.63031H8.89719ZM18.7881 20.5454H6.08508C5.60023 20.5454 5.21236 20.1575 5.21236 19.6727V6.46062C5.47903 6.5576 5.76992 6.63031 6.08508 6.63031H7.44264V13.2242C7.44264 13.4909 7.58811 13.7333 7.80629 13.8546C8.02447 13.9758 8.31536 13.9758 8.53354 13.8546L10.0608 12.9333L11.5881 13.8546C11.7093 13.9273 11.8305 13.9515 11.9517 13.9515C12.073 13.9515 12.1941 13.9273 12.3154 13.8546C12.5335 13.7333 12.679 13.4909 12.679 13.2242V6.63031H18.7881V20.5454Z" fill="#A6A6A6"/>
</svg>
