<svg width="24" height="24" viewBox="0 0 24 24" fill="none" xmlns="http://www.w3.org/2000/svg">
<path d="M17.2532 5.73469H15.0227V4.5C15.0227 4.36739 14.97 4.24021 14.8762 4.14645C14.7825 4.05268 14.6553 4 14.5227 4H10.2414C10.1088 4 9.98165 4.05268 9.88788 4.14645C9.79412 4.24021 9.74144 4.36739 9.74144 4.5V5.73469H7.51097C7.11037 5.73514 6.72631 5.89448 6.44304 6.17775C6.15978 6.46102 6.00045 6.84509 6 7.24569V8.25666C6 8.38926 6.05268 8.51644 6.14645 8.61021C6.24021 8.70398 6.36739 8.75666 6.5 8.75666H6.85778V17.815C6.85845 18.3943 7.08887 18.9497 7.49848 19.3593C7.9081 19.7689 8.46347 19.9993 9.04275 20H15.7214C16.3007 19.9993 16.856 19.7689 17.2656 19.3593C17.6753 18.9497 17.9057 18.3943 17.9063 17.815V8.75666H18.2641C18.3967 8.75666 18.5239 8.70398 18.6177 8.61021C18.7114 8.51644 18.7641 8.38926 18.7641 8.25666V7.24569C18.7637 6.84509 18.6043 6.46102 18.3211 6.17775C18.0378 5.89448 17.6538 5.73514 17.2532 5.73469ZM10.7414 5H14.0227V5.73469H10.7414V5ZM7 7.24569C7.00015 7.11021 7.05403 6.98033 7.14982 6.88453C7.24561 6.78873 7.37549 6.73484 7.51097 6.73469H17.2532C17.3886 6.73484 17.5185 6.78873 17.6143 6.88453C17.7101 6.98033 17.764 7.11021 17.7641 7.24569V7.75666H7V7.24569ZM16.9062 17.815C16.9059 18.1292 16.781 18.4304 16.5588 18.6525C16.3367 18.8747 16.0355 18.9996 15.7214 19H9.04275C8.72858 18.9997 8.42738 18.8747 8.20523 18.6525C7.98309 18.4304 7.85813 18.1292 7.85778 17.815V8.75666H16.9063L16.9062 17.815ZM11.8821 17.2176V10.539C11.8821 10.4064 11.9347 10.2792 12.0285 10.1855C12.1223 10.0917 12.2495 10.039 12.3821 10.039C12.5147 10.039 12.6418 10.0917 12.7356 10.1855C12.8294 10.2792 12.8821 10.4064 12.8821 10.539V17.2176C12.8821 17.3502 12.8294 17.4774 12.7356 17.5712C12.6418 17.6649 12.5147 17.7176 12.3821 17.7176C12.2495 17.7176 12.1223 17.6649 12.0285 17.5712C11.9347 17.4774 11.8821 17.3502 11.8821 17.2176ZM9.36994 17.2176V10.539C9.36994 10.4064 9.42262 10.2792 9.51638 10.1855C9.61015 10.0917 9.73733 10.039 9.86994 10.039C10.0025 10.039 10.1297 10.0917 10.2235 10.1855C10.3173 10.2792 10.3699 10.4064 10.3699 10.539V17.2176C10.3699 17.3502 10.3173 17.4774 10.2235 17.5712C10.1297 17.6649 10.0025 17.7176 9.86994 17.7176C9.73733 17.7176 9.61015 17.6649 9.51638 17.5712C9.42262 17.4774 9.36994 17.3502 9.36994 17.2176ZM14.3942 17.2176V10.539C14.3942 10.4064 14.4469 10.2792 14.5406 10.1855C14.6344 10.0917 14.7616 10.039 14.8942 10.039C15.0268 10.039 15.154 10.0917 15.2477 10.1855C15.3415 10.2792 15.3942 10.4064 15.3942 10.539V17.2176C15.3942 17.3502 15.3415 17.4774 15.2477 17.5712C15.154 17.6649 15.0268 17.7176 14.8942 17.7176C14.7616 17.7176 14.6344 17.6649 14.5406 17.5712C14.4469 17.4774 14.3942 17.3502 14.3942 17.2176Z" fill="#DE1135"/>
</svg>
