<svg width="20" height="20" viewBox="0 0 20 20" fill="none" xmlns="http://www.w3.org/2000/svg">
<path fill-rule="evenodd" clip-rule="evenodd" d="M9.375 1.8757V1.25195C9.375 0.906953 9.655 0.626953 10 0.626953C10.345 0.626953 10.625 0.906953 10.625 1.25195V1.8757H11.875C12.5656 1.8757 13.125 2.43508 13.125 3.1257H14.375C15.7556 3.1257 16.875 4.24508 16.875 5.6257V16.8757C16.875 18.2563 15.7556 19.3757 14.375 19.3757C12.015 19.3757 7.985 19.3757 5.625 19.3757C4.24437 19.3757 3.125 18.2563 3.125 16.8757C3.125 13.9938 3.125 8.50758 3.125 5.6257C3.125 4.24508 4.24437 3.1257 5.625 3.1257H6.875C6.875 2.43508 7.43437 1.8757 8.125 1.8757H9.375ZM6.875 15.6263L10.625 15.6251C10.97 15.6251 11.25 15.3451 11.25 15.0001C11.25 14.6551 10.97 14.3751 10.625 14.3751L6.875 14.3763C6.53 14.3763 6.25 14.6563 6.25 15.0013C6.25 15.3463 6.53 15.6263 6.875 15.6263ZM6.875 12.5013L13.125 12.5001C13.47 12.5001 13.75 12.2201 13.75 11.8751C13.75 11.5301 13.47 11.2501 13.125 11.2501L6.875 11.2513C6.53 11.2513 6.25 11.5313 6.25 11.8763C6.25 12.2213 6.53 12.5013 6.875 12.5013ZM6.875 9.37633L13.125 9.37508C13.47 9.37508 13.75 9.09508 13.75 8.75008C13.75 8.40508 13.47 8.12508 13.125 8.12508L6.875 8.12633C6.53 8.12633 6.25 8.40633 6.25 8.75133C6.25 9.09633 6.53 9.37633 6.875 9.37633ZM11.875 3.1257H8.125V4.3757H11.875V3.1257Z" fill="#FB5933"/>
</svg>
