<svg width="16" height="17" viewBox="0 0 16 17" fill="none" xmlns="http://www.w3.org/2000/svg">
<g clip-path="url(#clip0_8191_132284)">
<path d="M13.9619 2.90439L12.3262 0.800672C11.9571 0.325891 11.4227 0.0644531 10.8213 0.0644531H3.55078C2.49966 0.0644531 1.64453 0.919578 1.64453 1.9707V14.1582C1.64453 15.2093 2.49966 16.0645 3.55078 16.0645H12.457C13.5082 16.0645 14.3633 15.2093 14.3633 14.1582V4.07445C14.3633 3.63445 14.232 3.25173 13.9619 2.90439ZM13.3633 14.1582C13.3633 14.6579 12.9567 15.0645 12.457 15.0645H3.55078C3.05109 15.0645 2.64453 14.6579 2.64453 14.1582V1.9707C2.64453 1.47102 3.05109 1.06445 3.55078 1.06445H10.8213C11.1155 1.06445 11.3562 1.18223 11.5367 1.41445L13.1725 3.5182C13.3045 3.68792 13.3633 3.85945 13.3633 4.07445V14.1582ZM11.2227 4.99589C11.2227 5.27205 10.9988 5.49589 10.7227 5.49589H5.28516C5.009 5.49589 4.78516 5.27205 4.78516 4.99589C4.78516 4.71973 5.009 4.49589 5.28516 4.49589H10.7227C10.9988 4.49589 11.2227 4.71973 11.2227 4.99589ZM11.2227 8.06445C11.2227 8.34061 10.9988 8.56445 10.7227 8.56445H5.28516C5.009 8.56445 4.78516 8.34061 4.78516 8.06445C4.78516 7.7883 5.009 7.56445 5.28516 7.56445H10.7227C10.9988 7.56445 11.2227 7.7883 11.2227 8.06445ZM11.2227 11.133C11.2227 11.4092 10.9988 11.633 10.7227 11.633H5.28516C5.009 11.633 4.78516 11.4092 4.78516 11.133C4.78516 10.8569 5.009 10.633 5.28516 10.633H10.7227C10.9988 10.633 11.2227 10.8569 11.2227 11.133Z" fill="#FB5933"/>
</g>
<defs>
<clipPath id="clip0_8191_132284">
<rect width="16" height="16" fill="white" transform="translate(0 0.0644531)"/>
</clipPath>
</defs>
</svg>
