<svg width="27" height="26" viewBox="0 0 27 26" fill="none" xmlns="http://www.w3.org/2000/svg">
<path d="M14.8567 7.45497C15.3615 6.90805 15.6139 6.63459 15.8821 6.47507C16.5292 6.09018 17.3262 6.07821 17.9841 6.4435C18.2568 6.59489 18.5169 6.86065 19.0373 7.39218C19.5576 7.92371 19.8178 8.18948 19.9659 8.46804C20.3235 9.14017 20.3118 9.95421 19.935 10.6153C19.7789 10.8893 19.5112 11.1471 18.9758 11.6628L12.6056 17.7984C11.591 18.7756 11.0837 19.2643 10.4496 19.5119C9.81562 19.7595 9.11861 19.7413 7.72459 19.7049L7.53493 19.6999C7.11055 19.6888 6.89835 19.6832 6.77501 19.5432C6.65165 19.4033 6.6685 19.1871 6.70218 18.7548L6.72047 18.5201C6.81526 17.3033 6.86265 16.695 7.10025 16.1481C7.33784 15.6012 7.74768 15.1573 8.56735 14.2692L14.8567 7.45497Z" stroke="#FB5933" stroke-width="1.35484" stroke-linejoin="round"/>
<path d="M14.1289 7.53223L18.8708 12.2742" stroke="#FB5933" stroke-width="1.35484" stroke-linejoin="round"/>
<path d="M14.8066 19.7256H20.226" stroke="#FB5933" stroke-width="1.35484" stroke-linecap="round" stroke-linejoin="round"/>
</svg>
