<svg width="24" height="24" viewBox="0 0 24 24" fill="none" xmlns="http://www.w3.org/2000/svg">
<path d="M5.48902 7.18587L2.38573 7.18587C2.06746 7.18587 1.76223 7.3123 1.53718 7.53735C1.31213 7.7624 1.1857 8.06764 1.1857 8.3859C1.1857 8.70417 1.31213 9.00941 1.53718 9.23446C1.76223 9.45951 2.06746 9.58594 2.38573 9.58594L8.3859 9.58594C8.62316 9.58566 8.85501 9.51506 9.05216 9.38306C9.24931 9.25106 9.4029 9.06358 9.49353 8.84432C9.5538 8.69896 9.58519 8.54326 9.58594 8.3859L9.58594 2.38573C9.58594 2.06746 9.45951 1.76223 9.23445 1.53718C9.0094 1.31213 8.70417 1.1857 8.3859 1.1857C8.06763 1.1857 7.7624 1.31213 7.53735 1.53718C7.3123 1.76223 7.18587 2.06746 7.18587 2.38573L7.18587 5.48902L2.03412 0.337274C1.80779 0.118679 1.50466 -0.00227858 1.19002 0.000455637C0.875371 0.00318985 0.574387 0.129396 0.351891 0.351892C0.129395 0.574388 0.00318833 0.875373 0.000454169 1.19002C-0.00227999 1.50466 0.118677 1.80779 0.337273 2.03412L5.48902 7.18587Z" fill="#262626"/>
<path d="M14.4774 8.87361C14.568 9.09288 14.7216 9.28036 14.9188 9.41236C15.1159 9.54436 15.3478 9.61496 15.585 9.61523L21.5852 9.61523C21.9035 9.61523 22.2087 9.4888 22.4337 9.26375C22.6588 9.0387 22.7852 8.73347 22.7852 8.4152C22.7852 8.09693 22.6588 7.7917 22.4337 7.56665C22.2087 7.3416 21.9035 7.21517 21.5852 7.21517L18.4819 7.21517L23.6336 2.06342C23.7483 1.95272 23.8397 1.8203 23.9026 1.67389C23.9655 1.52748 23.9986 1.37002 24 1.21068C24.0013 1.05134 23.971 0.893317 23.9106 0.745837C23.8503 0.598357 23.7612 0.464372 23.6485 0.351697C23.5358 0.239023 23.4019 0.149917 23.2544 0.0895776C23.1069 0.0292386 22.9489 -0.00112543 22.7895 0.000259294C22.6302 0.00164401 22.4727 0.0347489 22.3263 0.0976408C22.1799 0.160534 22.0475 0.251956 21.9368 0.366571L16.785 5.51832L16.785 2.41503C16.785 2.09676 16.6586 1.79153 16.4336 1.56648C16.2085 1.34143 15.9033 1.21499 15.585 1.21499C15.2667 1.21499 14.9615 1.34143 14.7365 1.56648C14.5114 1.79153 14.385 2.09676 14.385 2.41503L14.385 8.4152C14.3857 8.57255 14.4171 8.72826 14.4774 8.87361Z" fill="#262626"/>
<path d="M2.03412 23.6631L7.18587 18.5114L7.18587 21.6147C7.18587 21.9329 7.3123 22.2382 7.53735 22.4632C7.7624 22.6883 8.06763 22.8147 8.3859 22.8147C8.70417 22.8147 9.00941 22.6883 9.23446 22.4632C9.45951 22.2382 9.58594 21.9329 9.58594 21.6147L9.58594 15.6145C9.58519 15.4572 9.5538 15.3015 9.49354 15.1561C9.37174 14.8622 9.13823 14.6287 8.84432 14.5069C8.69896 14.4466 8.54326 14.4152 8.3859 14.4145L2.38573 14.4145C2.06746 14.4145 1.76223 14.5409 1.53718 14.766C1.31213 14.991 1.1857 15.2962 1.1857 15.6145C1.1857 15.9328 1.31213 16.238 1.53718 16.4631C1.76223 16.6881 2.06746 16.8145 2.38573 16.8145L5.48902 16.8145L0.337274 21.9663C0.118678 22.1926 -0.00227915 22.4957 0.000455007 22.8104C0.00318916 23.125 0.129396 23.426 0.351892 23.6485C0.574388 23.871 0.875372 23.9972 1.19002 24C1.50466 24.0027 1.80779 23.8817 2.03412 23.6631Z" fill="#262626"/>
<path d="M15.6145 22.8147C15.9328 22.8147 16.238 22.6883 16.4631 22.4632C16.6881 22.2382 16.8145 21.9329 16.8145 21.6147L16.8145 18.5114L21.9663 23.6631C22.1926 23.8817 22.4957 24.0027 22.8104 24C23.125 23.9972 23.426 23.871 23.6485 23.6485C23.871 23.426 23.9972 23.125 24 22.8104C24.0027 22.4957 23.8817 22.1926 23.6631 21.9663L18.5114 16.8145L21.6147 16.8145C21.9329 16.8145 22.2382 16.6881 22.4632 16.4631C22.6883 16.238 22.8147 15.9328 22.8147 15.6145C22.8147 15.2962 22.6883 14.991 22.4632 14.766C22.2382 14.5409 21.9329 14.4145 21.6147 14.4145L15.6145 14.4145C15.4572 14.4152 15.3015 14.4466 15.1561 14.5069C14.8622 14.6287 14.6287 14.8622 14.5069 15.1561C14.4466 15.3015 14.4152 15.4572 14.4145 15.6145L14.4145 21.6147C14.4145 21.9329 14.5409 22.2382 14.766 22.4632C14.991 22.6883 15.2962 22.8147 15.6145 22.8147Z" fill="#262626"/>
</svg>
