<svg width="20" height="20" viewBox="0 0 20 20" fill="none" xmlns="http://www.w3.org/2000/svg">
<path d="M16.6979 5.4315H13.0957V3.97996C13.0957 3.28882 12.5334 2.72656 11.8422 2.72656H8.16441C7.47326 2.72656 6.91097 3.28882 6.91097 3.97996V5.4315H3.30872C2.39108 5.4315 1.64449 6.17809 1.64449 7.09573C1.64449 7.92928 1.55912 8.67785 2.19079 9.51969C2.54817 9.99598 3.03929 10.3358 3.61103 10.5022L9.16304 12.1187C9.71269 12.2787 10.2938 12.2788 10.8435 12.1187L16.3955 10.5022C16.9673 10.3357 17.4584 9.99598 17.8158 9.51969C18.4503 8.67407 18.3621 7.9178 18.3621 7.09573C18.3621 6.17809 17.6156 5.4315 16.6979 5.4315ZM7.97264 3.97996C7.97264 3.87423 8.05867 3.78823 8.16441 3.78823H11.8422C11.948 3.78823 12.034 3.87426 12.034 3.97996V5.4315H7.97264V3.97996Z" fill="#FB5933"/>
<path d="M16.6885 11.522C10.7 13.2656 10.7775 13.3008 9.99942 13.3008C9.22692 13.3008 9.41019 13.298 3.3104 11.522C2.66726 11.3347 2.09767 10.9895 1.64062 10.5137V15.6082C1.64062 16.5259 2.38718 17.2724 3.30486 17.2724H16.694C17.6117 17.2724 18.3582 16.5259 18.3582 15.6082V10.5137C17.9012 10.9895 17.3316 11.3347 16.6885 11.522Z" fill="#FB5933"/>
</svg>
