<svg width="20" height="20" viewBox="0 0 20 20" fill="none" xmlns="http://www.w3.org/2000/svg">
<path d="M10.7663 10.8916H9.22994C9.12684 10.8916 9.04297 10.9755 9.04297 11.0786V12.6219C9.04297 12.725 9.12684 12.8089 9.22994 12.8089H10.7663C10.8694 12.8089 10.9533 12.725 10.9533 12.6219V11.0786C10.9533 10.9755 10.8694 10.8916 10.7663 10.8916Z" fill="#FB5933"/>
<path d="M16.4411 4.5825H13.2723V3.25655C13.2723 2.56367 12.7032 2 12.0037 2H8.00818C7.30865 2 6.73956 2.56367 6.73956 3.25655V4.58254H3.57074C1.9874 4.5825 0.699219 5.87068 0.699219 7.45405V9.1751C0.80581 9.69413 1.18055 10.1213 1.69914 10.2873L7.95681 11.8166V11.0791C7.95681 10.3728 8.53143 9.79822 9.23772 9.79822H10.7741C11.4804 9.79822 12.055 10.3728 12.055 11.0791V11.8166L18.3127 10.2873C18.8313 10.1213 19.206 9.69413 19.3126 9.1751V7.45405C19.3126 5.87068 18.0244 4.5825 16.4411 4.5825ZM12.1783 4.58254H7.83353V3.25655C7.83353 3.16385 7.9086 3.09394 8.00818 3.09394H12.0037C12.1032 3.09394 12.1783 3.16385 12.1783 3.25655V4.58254Z" fill="#FB5933"/>
<path d="M18.6212 11.337C18.6107 11.3402 18.6002 11.3431 18.5896 11.3457L12.0114 12.9534C11.8652 13.4997 11.366 13.9033 10.7741 13.9033H9.23772C8.64587 13.9033 8.14669 13.4997 8.0004 12.9534L1.42227 11.3457C1.41165 11.3431 1.40111 11.3402 1.39064 11.337C1.13947 11.2594 0.907674 11.1463 0.699219 11.0049V15.6543C0.699219 16.9477 1.75142 17.9999 3.0448 17.9999H16.967C18.2604 17.9999 19.3126 16.9477 19.3126 15.6543V11.0049C19.1042 11.1463 18.8724 11.2594 18.6212 11.337Z" fill="#FB5933"/>
</svg>
