<svg width="16" height="20" viewBox="0 0 16 20" fill="none" xmlns="http://www.w3.org/2000/svg">
<path d="M15.4514 3.54992L13.4068 0.920273C12.9454 0.326797 12.2773 0 11.5257 0H2.4375C1.12359 0 0.0546875 1.06891 0.0546875 2.38281V17.6172C0.0546875 18.9311 1.12359 20 2.4375 20H13.5703C14.8842 20 15.9531 18.9311 15.9531 17.6172V5.0125C15.9531 4.4625 15.789 3.9841 15.4514 3.54992ZM14.7031 17.6172C14.7031 18.2418 14.1949 18.75 13.5703 18.75H2.4375C1.81289 18.75 1.30469 18.2418 1.30469 17.6172V2.38281C1.30469 1.7582 1.81289 1.25 2.4375 1.25H11.5257C11.8934 1.25 12.1942 1.39723 12.42 1.6875L14.4646 4.31719C14.6296 4.52934 14.7031 4.74375 14.7031 5.0125V17.6172ZM12.0273 6.1643C12.0273 6.50949 11.7475 6.7893 11.4023 6.7893H4.60547C4.26027 6.7893 3.98047 6.50949 3.98047 6.1643C3.98047 5.8191 4.26027 5.5393 4.60547 5.5393H11.4023C11.7475 5.5393 12.0273 5.8191 12.0273 6.1643ZM12.0273 10C12.0273 10.3452 11.7475 10.625 11.4023 10.625H4.60547C4.26027 10.625 3.98047 10.3452 3.98047 10C3.98047 9.6548 4.26027 9.375 4.60547 9.375H11.4023C11.7475 9.375 12.0273 9.6548 12.0273 10ZM12.0273 13.8357C12.0273 14.1809 11.7475 14.4607 11.4023 14.4607H4.60547C4.26027 14.4607 3.98047 14.1809 3.98047 13.8357C3.98047 13.4905 4.26027 13.2107 4.60547 13.2107H11.4023C11.7475 13.2107 12.0273 13.4905 12.0273 13.8357Z" fill="#262626"/>
</svg>
