<svg width="34" height="40" viewBox="0 0 34 40" fill="none" xmlns="http://www.w3.org/2000/svg">
<g filter="url(#filter0_dddd_9816_61981)">
<g filter="url(#filter1_d_9816_61981)">
<path d="M27.182 25.0685C27.2628 26.7587 25.8128 27.9684 25.8128 27.9684C27.5859 20.9609 23.7187 17.4168 23.7187 17.4168C24.5244 19.511 22.7513 21.2033 22.7513 21.2033C22.7513 7.67096 12.0382 3 12.0382 3C12.0382 3 13.0842 3.40185 13.0842 9.04015C13.0842 11.7392 11.22 13.736 9.277 16.0746C8.8938 14.5397 8.12117 12.5843 6.64013 12.2549C6.64013 12.2549 7.60747 16.1305 5.35173 18.3841C3.096 20.6399 -0.769196 26.0358 4.94989 32.2375C4.94989 32.2375 1.80967 31.1915 1.00391 29.0165C1.00391 29.0165 1.62118 38.9136 16.3073 38.1182C28.5491 38.1182 27.1799 25.0706 27.1799 25.0706L27.182 25.0685Z" fill="#F4911C"/>
</g>
<g filter="url(#filter2_d_9816_61981)">
<path d="M14.6692 37.6671C9.53014 37.6671 5.63801 36.1426 3.41542 33.3255C2.9245 32.7041 2.56408 32.0599 2.29688 31.484C3.45478 32.3457 6.30707 33.1059 6.39199 33.1349L5.48473 31.9045C3.12957 29.3505 2.12288 26.6432 2.71944 23.9566C3.22071 21.6947 4.64789 19.8967 5.75815 18.7865C7.41526 17.1314 7.51054 14.7494 7.38419 13.3243C8.09674 14.0575 8.5193 15.3583 8.73266 16.2118L9.00401 17.2992L9.7207 16.4375C9.86984 16.2573 10.0211 16.0792 10.1681 15.901C11.9619 13.7592 13.6584 11.7355 13.6584 9.04064C13.6584 6.79733 13.4948 5.31008 13.269 4.32617C14.2695 4.95794 15.6718 5.98742 17.0658 7.49331C20.4691 11.1679 22.2028 15.7809 22.2028 21.2017V22.5295L23.1557 21.6139C23.2137 21.5601 24.152 20.6404 24.4317 19.2857C25.3368 20.8516 26.3166 23.6894 25.2685 27.8301L24.8397 29.5245L26.182 28.406C26.2027 28.3894 26.356 28.2589 26.5631 28.0311C26.3477 30.0217 25.7035 32.6482 23.9221 34.6222C22.1697 36.5651 19.6095 37.5511 16.3139 37.5511L16.2828 37.5884C15.736 37.6174 15.1933 37.6692 14.6734 37.6692L14.6692 37.6671Z" fill="#F9BE06"/>
</g>
<g style="mix-blend-mode:soft-light">
<path d="M27.1859 25.0685C27.2667 26.7587 25.8167 27.9684 25.8167 27.9684C27.5898 20.9609 23.7226 17.4168 23.7226 17.4168C24.5283 19.511 22.7552 21.2033 22.7552 21.2033C22.7552 7.67096 12.0421 3 12.0421 3C12.0421 3 13.0881 3.40185 13.0881 9.04015C13.0881 11.7392 11.2239 13.736 9.28091 16.0746C8.8977 14.5397 8.12508 12.5843 6.64404 12.2549C6.64404 12.2549 7.61137 16.1305 5.35564 18.3841C3.09991 20.6399 -0.76529 26.0358 4.95379 32.2375C4.95379 32.2375 1.81358 31.1915 1.00781 29.0165C1.00781 29.0165 1.62508 38.9136 16.3112 38.1182C28.553 38.1182 27.1839 25.0706 27.1839 25.0706L27.1859 25.0685Z" fill="url(#paint0_radial_9816_61981)"/>
</g>
<g style="mix-blend-mode:soft-light">
<path d="M14.677 37.6671C9.53795 37.6671 5.64582 36.1426 3.42323 33.3255C2.93232 32.7041 2.5719 32.0599 2.30469 31.484C3.46259 32.3457 6.31488 33.1059 6.39981 33.1349L5.49254 31.9045C3.13738 29.3505 2.13069 26.6432 2.72725 23.9566C3.22852 21.6947 4.6557 19.8967 5.76596 18.7865C7.42307 17.1314 7.51835 14.7494 7.392 13.3243C8.10455 14.0575 8.52712 15.3583 8.74047 16.2118L9.01182 17.2992L9.72852 16.4375C9.87766 16.2573 10.0289 16.0792 10.1759 15.901C11.9698 13.7592 13.6662 11.7355 13.6662 9.04064C13.6662 6.79733 13.5026 5.31008 13.2768 4.32617C14.2773 4.95794 15.6796 5.98742 17.0736 7.49331C20.4769 11.1679 22.2107 15.7809 22.2107 21.2017V22.5295L23.1635 21.6139C23.2215 21.5601 24.1598 20.6404 24.4395 19.2857C25.3447 20.8516 26.3244 23.6894 25.2763 27.8301L24.8475 29.5245L26.1898 28.406C26.2105 28.3894 26.3638 28.2589 26.5709 28.0311C26.3555 30.0217 25.7113 32.6482 23.9299 34.6222C22.1775 36.5651 19.6173 37.5511 16.3217 37.5511L16.2907 37.5884C15.7438 37.6174 15.2011 37.6692 14.6812 37.6692L14.677 37.6671Z" fill="url(#paint1_radial_9816_61981)"/>
</g>
</g>
<defs>
<filter id="filter0_dddd_9816_61981" x="1.00391" y="0.223892" width="39.1817" height="42.567" filterUnits="userSpaceOnUse" color-interpolation-filters="sRGB">
<feFlood flood-opacity="0" result="BackgroundImageFix"/>
<feColorMatrix in="SourceAlpha" type="matrix" values="0 0 0 0 0 0 0 0 0 0 0 0 0 0 0 0 0 0 127 0" result="hardAlpha"/>
<feOffset dx="0.925369"/>
<feGaussianBlur stdDeviation="0.462685"/>
<feColorMatrix type="matrix" values="0 0 0 0 0 0 0 0 0 0 0 0 0 0 0 0 0 0 0.1 0"/>
<feBlend mode="normal" in2="BackgroundImageFix" result="effect1_dropShadow_9816_61981"/>
<feColorMatrix in="SourceAlpha" type="matrix" values="0 0 0 0 0 0 0 0 0 0 0 0 0 0 0 0 0 0 127 0" result="hardAlpha"/>
<feOffset dx="2.77611"/>
<feGaussianBlur stdDeviation="1.38805"/>
<feColorMatrix type="matrix" values="0 0 0 0 0 0 0 0 0 0 0 0 0 0 0 0 0 0 0.09 0"/>
<feBlend mode="normal" in2="effect1_dropShadow_9816_61981" result="effect2_dropShadow_9816_61981"/>
<feColorMatrix in="SourceAlpha" type="matrix" values="0 0 0 0 0 0 0 0 0 0 0 0 0 0 0 0 0 0 127 0" result="hardAlpha"/>
<feOffset dx="5.55222"/>
<feGaussianBlur stdDeviation="1.38805"/>
<feColorMatrix type="matrix" values="0 0 0 0 0 0 0 0 0 0 0 0 0 0 0 0 0 0 0.05 0"/>
<feBlend mode="normal" in2="effect2_dropShadow_9816_61981" result="effect3_dropShadow_9816_61981"/>
<feColorMatrix in="SourceAlpha" type="matrix" values="0 0 0 0 0 0 0 0 0 0 0 0 0 0 0 0 0 0 127 0" result="hardAlpha"/>
<feOffset dx="9.25369" dy="0.925369"/>
<feGaussianBlur stdDeviation="1.85074"/>
<feColorMatrix type="matrix" values="0 0 0 0 0 0 0 0 0 0 0 0 0 0 0 0 0 0 0.01 0"/>
<feBlend mode="normal" in2="effect3_dropShadow_9816_61981" result="effect4_dropShadow_9816_61981"/>
<feBlend mode="normal" in="SourceGraphic" in2="effect4_dropShadow_9816_61981" result="shape"/>
</filter>
<filter id="filter1_d_9816_61981" x="0.175354" y="2.17145" width="27.8798" height="36.8212" filterUnits="userSpaceOnUse" color-interpolation-filters="sRGB">
<feFlood flood-opacity="0" result="BackgroundImageFix"/>
<feColorMatrix in="SourceAlpha" type="matrix" values="0 0 0 0 0 0 0 0 0 0 0 0 0 0 0 0 0 0 127 0" result="hardAlpha"/>
<feOffset/>
<feGaussianBlur stdDeviation="0.414276"/>
<feColorMatrix type="matrix" values="0 0 0 0 0.898039 0 0 0 0 0.501961 0 0 0 0 0.180392 0 0 0 0.5 0"/>
<feBlend mode="normal" in2="BackgroundImageFix" result="effect1_dropShadow_9816_61981"/>
<feBlend mode="normal" in="SourceGraphic" in2="effect1_dropShadow_9816_61981" result="shape"/>
</filter>
<filter id="filter2_d_9816_61981" x="1.46832" y="3.49762" width="25.9227" height="35.0009" filterUnits="userSpaceOnUse" color-interpolation-filters="sRGB">
<feFlood flood-opacity="0" result="BackgroundImageFix"/>
<feColorMatrix in="SourceAlpha" type="matrix" values="0 0 0 0 0 0 0 0 0 0 0 0 0 0 0 0 0 0 127 0" result="hardAlpha"/>
<feOffset/>
<feGaussianBlur stdDeviation="0.414276"/>
<feColorMatrix type="matrix" values="0 0 0 0 0.898039 0 0 0 0 0.501961 0 0 0 0 0.180392 0 0 0 0.5 0"/>
<feBlend mode="normal" in2="BackgroundImageFix" result="effect1_dropShadow_9816_61981"/>
<feBlend mode="normal" in="SourceGraphic" in2="effect1_dropShadow_9816_61981" result="shape"/>
</filter>
<radialGradient id="paint0_radial_9816_61981" cx="0" cy="0" r="1" gradientUnits="userSpaceOnUse" gradientTransform="translate(14.1197 20.5819) scale(15.5084 15.5084)">
<stop stop-color="white"/>
<stop offset="1"/>
</radialGradient>
<radialGradient id="paint1_radial_9816_61981" cx="0" cy="0" r="1" gradientUnits="userSpaceOnUse" gradientTransform="translate(14.4368 20.9966) scale(14.5784 14.5784)">
<stop stop-color="white"/>
<stop offset="1"/>
</radialGradient>
</defs>
</svg>
