<svg width="183" height="174" viewBox="0 0 183 174" fill="none" xmlns="http://www.w3.org/2000/svg">
<path fill-rule="evenodd" clip-rule="evenodd" d="M82.1462 0.938843C87.8043 2.3697 91.2492 8.06101 89.8183 13.7192C88.4315 19.3647 82.6962 22.8222 77.038 21.3913C71.3798 19.9605 67.935 14.2692 69.3658 8.61101C70.7526 2.96549 76.488 -0.492012 82.1462 0.938843Z" fill="url(#paint0_radial_9816_46525)"/>
<path style="mix-blend-mode:screen" fill-rule="evenodd" clip-rule="evenodd" d="M80.6753 1.98189C84.9976 3.08016 87.6286 7.43049 86.5303 11.7529C85.4321 16.0753 81.0818 18.7062 76.7594 17.608C72.4496 16.5538 69.806 12.1594 70.9043 7.83698C71.9585 3.52724 76.3529 0.883631 80.6753 1.98189Z" fill="url(#paint1_radial_9816_46525)"/>
<path style="mix-blend-mode:screen" fill-rule="evenodd" clip-rule="evenodd" d="M75.269 3.57039C78.1146 1.84796 81.5103 2.21009 82.8541 4.40097C84.1539 6.6045 82.916 9.77424 80.0703 11.4967C77.2246 13.2191 73.829 12.857 72.4851 10.6661C71.1854 8.46256 72.4233 5.29282 75.269 3.57039Z" fill="url(#paint2_radial_9816_46525)"/>
<path style="mix-blend-mode:screen" fill-rule="evenodd" clip-rule="evenodd" d="M86.2762 4.04506C88.5147 6.36108 89.5321 9.74285 88.6912 13.1327C87.4111 18.3183 82.1227 21.5045 76.9245 20.1803C75.532 19.8162 74.2526 19.1812 73.1998 18.3381C73.8805 18.7154 74.6241 18.9793 75.3991 19.1864C80.7863 20.5041 86.2069 17.28 87.5688 11.8802C88.2527 9.10784 87.7335 6.29884 86.2889 4.08915L86.2762 4.04506Z" fill="url(#paint3_radial_9816_46525)"/>
<path d="M76.2932 24.5831C78.5489 25.129 80.6973 25.4671 82.2911 25.5349C84.8991 25.6458 86.725 24.6928 87.246 22.6829C87.7228 20.6855 86.5621 18.9669 84.1862 17.8353C82.7493 17.15 80.7328 16.4401 78.4645 15.8502C76.1962 15.2602 74.0604 14.9661 72.4666 14.8984C69.8586 14.7875 68.0327 15.7404 67.5118 17.7504C67.0349 19.7477 68.1956 21.4663 70.5715 22.598C72.0084 23.2832 74.0249 23.9931 76.2932 24.5831Z" fill="url(#paint4_linear_9816_46525)"/>
<path style="mix-blend-mode:multiply" fill-rule="evenodd" clip-rule="evenodd" d="M82.3053 25.5358C80.7115 25.468 78.5757 25.174 76.3074 24.584C74.0517 24.0381 72.0226 23.2842 70.5857 22.5989C69.6908 22.1399 68.9722 21.6303 68.4299 21.0702C68.1524 20.7681 68.0574 20.2706 68.1955 19.7539C68.3336 19.2372 68.6545 18.8589 69.0386 18.7011C69.7754 18.4421 70.695 18.3215 71.6652 18.3773C73.259 18.4451 75.3947 18.7391 77.663 19.3291C79.9187 19.875 81.9478 20.629 83.3847 21.3142C84.2797 21.7732 84.9983 22.2828 85.5405 22.8429C85.818 23.145 85.913 23.6426 85.7749 24.1592C85.6368 24.6759 85.3159 25.0542 84.9318 25.212C84.195 25.471 83.2754 25.5916 82.3053 25.5358Z" fill="url(#paint5_radial_9816_46525)"/>
<path style="mix-blend-mode:screen" fill-rule="evenodd" clip-rule="evenodd" d="M69.0205 17.8436C69.0205 17.8436 68.7994 17.2391 68.9126 16.9681C70.3645 13.5462 82.1978 16.8798 83.1838 20.3183C79.6296 18.9044 74.4625 17.1896 70.5449 17.8358C69.9466 17.912 69.1719 18.0387 69.0205 17.8436Z" fill="url(#paint6_radial_9816_46525)"/>
<path fill-rule="evenodd" clip-rule="evenodd" d="M158.514 131.01C133.302 122.114 118.501 124.402 106.238 119.904C104.751 119.376 103.673 118.779 102.961 118.124C101.883 117.193 101.466 115.738 101.886 114.377C108.43 93.2743 114.077 70.0433 118.522 47.4433C118.316 49.22 119.508 50.8818 123.125 52.1824C135.344 56.6936 150.145 54.4055 175.357 63.3013C167.019 85.3002 160.468 112.368 158.47 131.023L158.514 131.01Z" fill="url(#paint7_linear_9816_46525)"/>
<path style="mix-blend-mode:screen" opacity="0.75" fill-rule="evenodd" clip-rule="evenodd" d="M168.482 61.0244C159.15 58.2615 151.338 56.9713 144.596 56.0895C143.12 66.5793 140.894 77.9518 137.983 89.7595C134.92 102.04 131.385 113.502 127.609 123.792C134.35 124.674 142.15 125.92 151.482 128.683C151.868 117.885 153.495 106.255 156.438 94.3908C159.481 82.2113 163.647 70.9504 168.539 61.0558L168.482 61.0244Z" fill="url(#paint8_linear_9816_46525)"/>
<path style="mix-blend-mode:multiply" fill-rule="evenodd" clip-rule="evenodd" d="M124.657 123.388C123.446 114.671 124.474 102.783 128.59 86.1934C132.004 72.4765 135.837 62.5514 139.969 55.4985C133.587 54.7046 128.131 53.979 123.172 52.157C119.542 50.8124 118.363 49.1946 118.569 47.418C114.124 70.0179 108.464 93.2048 101.933 114.352C101.512 115.713 101.93 117.167 103.008 118.099C103.764 118.74 104.798 119.351 106.285 119.878C111.673 121.864 117.595 122.551 124.67 123.432L124.657 123.388Z" fill="url(#paint9_linear_9816_46525)"/>
<path fill-rule="evenodd" clip-rule="evenodd" d="M160.067 120.161C137.464 112.378 123.651 113.953 112.176 110.04C109.606 109.393 107.671 108.803 106.127 107.91C105.251 107.35 104.746 106.589 104.519 105.795C104.06 107.358 103.615 108.965 103.112 110.54C103.233 111.459 103.718 112.322 104.588 113.027C105.761 113.788 107.273 114.404 109.252 114.981C121.092 119.172 135.384 117.268 159.228 125.554C159.491 123.809 159.741 122.02 160.067 120.161ZM141.522 60.9779C133.685 59.9334 127.366 59.3599 121.651 57.2299C118.922 56.1994 117.655 54.9407 117.351 53.5489C116.981 55.4201 116.554 57.2599 116.185 59.1312C116.614 60.2961 117.787 61.3911 120.087 62.2582C125.386 64.269 131.271 64.824 138.572 65.8312C147.33 67.4229 157.794 68.4775 171.859 73.2705C172.424 71.5817 172.99 69.893 173.612 68.2357C160.309 63.6057 150.103 62.2863 141.51 60.9338L141.522 60.9779Z" fill="url(#paint10_linear_9816_46525)"/>
<path style="mix-blend-mode:multiply" fill-rule="evenodd" clip-rule="evenodd" d="M120.073 62.3149C124.516 63.9989 129.379 64.6557 135.182 65.425C135.911 63.6416 136.634 62.0031 137.382 60.4527C131.39 59.6899 126.281 59.0082 121.624 57.2425C118.895 56.212 117.628 54.9534 117.324 53.5615C116.955 55.4328 116.528 57.2726 116.158 59.1438C116.588 60.3088 117.76 61.4037 120.06 62.2709L120.073 62.3149ZM124.291 112.63C119.862 111.992 115.899 111.315 112.194 110.04C109.623 109.393 107.689 108.803 106.145 107.91C105.268 107.35 104.764 106.589 104.536 105.795C104.078 107.358 103.632 108.965 103.13 110.54C103.25 111.459 103.736 112.322 104.606 113.027C105.778 113.788 107.291 114.404 109.269 114.981C113.788 116.596 118.664 117.297 124.265 118.029C124.206 116.328 124.224 114.558 124.304 112.674L124.291 112.63Z" fill="url(#paint11_linear_9816_46525)"/>
<path fill-rule="evenodd" clip-rule="evenodd" d="M112.625 104.997C117.696 91.902 128.085 54.0961 129.605 36.7715C129.368 38.9387 126.523 40.6611 124.067 42.0808C121.612 43.5005 118.766 45.2229 118.529 47.3901C114.103 69.8893 107.601 95.1306 101.376 113.852C102.231 112.175 105.172 110.951 107.168 109.758C109.415 108.446 112.022 106.887 112.568 104.965L112.625 104.997Z" fill="url(#paint12_linear_9816_46525)"/>
<path fill-rule="evenodd" clip-rule="evenodd" d="M113.219 105.121C118.291 92.0259 128.119 54.0946 129.596 36.7826C129.758 35.0186 128.61 33.3441 124.993 32.0436C115.975 28.7135 101.272 28.0157 84.0396 24.3219L67.1526 92.0431C84.3848 95.737 99.044 96.4475 108.106 99.7649C110.236 100.538 114.048 102.355 113.188 105.177L113.219 105.121Z" fill="url(#paint13_linear_9816_46525)"/>
<path style="mix-blend-mode:screen" fill-rule="evenodd" clip-rule="evenodd" d="M125.037 32.0482C123.392 31.4702 121.571 30.9428 119.574 30.4659C117.94 41.5732 115.514 53.9096 112.282 66.7633C109.452 78.0229 106.344 88.6466 103.077 98.2184C104.917 98.645 106.637 99.1536 108.137 99.7254C110.267 100.498 114.08 102.315 113.219 105.138C118.291 92.0431 128.119 54.1118 129.596 36.7998C129.758 35.0359 128.61 33.3613 124.993 32.0608L125.037 32.0482Z" fill="url(#paint14_linear_9816_46525)"/>
<path style="mix-blend-mode:screen" fill-rule="evenodd" clip-rule="evenodd" d="M142.889 66.6468C148.944 67.63 155.823 68.6629 164.015 70.9417C164.725 69.2591 165.435 67.5765 166.158 65.938C157.425 63.4329 150.142 62.3248 143.797 61.3293C143.534 63.0745 143.227 64.8323 142.92 66.5901L142.889 66.6468ZM152.198 117.744C144.05 115.453 137.114 114.389 131.097 113.538C130.544 115.27 129.935 116.972 129.37 118.661C135.72 119.511 143.016 120.663 151.705 123.181C151.811 121.386 152.004 119.565 152.198 117.744Z" fill="url(#paint15_linear_9816_46525)"/>
<path style="mix-blend-mode:multiply" fill-rule="evenodd" clip-rule="evenodd" d="M108.257 28.3949C101.131 27.3371 92.9345 26.2047 84.0317 24.273L67.1448 91.9943C76.35 93.9824 84.7796 95.0957 92.0626 96.2037C94.3353 88.1573 96.5195 79.8023 98.672 71.1702C102.4 56.2183 105.611 41.7961 108.213 28.4075L108.257 28.3949Z" fill="url(#paint16_linear_9816_46525)"/>
<path d="M67.327 91.4157C74.7491 93.0087 81.6857 94.073 87.904 94.9616C96.1699 96.1695 103.151 97.2211 108.337 99.1689C110.252 99.86 111.538 100.684 112.314 101.559C113.159 102.509 113.45 103.523 113.362 104.55C113.25 105.823 112.376 106.932 111.218 107.884C110.148 108.811 108.794 109.581 107.528 110.326C106.351 111.045 105.042 111.802 104.047 112.66C103.128 113.448 102.411 114.274 102.342 115.2C102.268 115.937 102.457 116.598 103.081 117.278C103.718 118.002 104.865 118.675 106.58 119.328C111.64 121.169 117.184 121.87 123.767 122.701C132.965 123.833 143.941 125.838 158.642 131.021C158.422 131.418 157.736 131.853 157.414 131.898C143.268 126.985 132.551 125.049 123.598 123.942C116.971 123.123 111.37 122.392 106.152 120.501C104.237 119.809 102.951 118.985 102.175 118.111C101.33 117.16 101.039 116.146 101.127 115.119C101.239 113.847 102.113 112.737 103.271 111.785C104.341 110.858 105.695 110.088 106.961 109.344C108.138 108.624 109.447 107.867 110.442 107.01C111.361 106.221 112.078 105.395 112.147 104.469C112.221 103.732 112.032 103.071 111.408 102.391C110.771 101.667 109.624 100.995 107.909 100.341C102.837 98.4561 95.9128 97.4359 87.7351 96.2027C81.4601 95.2827 74.4794 94.231 67.0573 92.6381L67.3396 91.4598L67.327 91.4157Z" fill="url(#paint17_linear_9816_46525)"/>
<path fill-rule="evenodd" clip-rule="evenodd" d="M111.628 89.543C102.567 86.2255 87.3026 85.4023 69.7553 81.6079L68.4752 86.7935C85.8776 90.5817 100.927 91.3233 109.989 94.6407C112.232 95.4763 115.844 97.2556 115.059 100.009C115.605 98.4212 116.145 96.6443 116.704 94.7666C117.338 92.1517 114.016 90.3848 111.672 89.5303L111.628 89.543ZM128.957 42.1618C129.15 40.3411 127.769 38.6857 124.297 37.3913C115.235 34.0739 100.173 33.2882 82.7264 29.5127L81.4022 34.7109C99.0062 38.5367 114.314 39.3473 123.389 42.7088C126.747 43.9403 128.317 45.5892 128.092 47.4666C128.418 45.608 128.713 43.8061 128.944 42.1177L128.957 42.1618Z" fill="url(#paint18_linear_9816_46525)"/>
<path style="mix-blend-mode:screen" fill-rule="evenodd" clip-rule="evenodd" d="M128.98 42.1438C129.174 40.3231 127.793 38.6677 124.321 37.3733C122.663 36.7513 120.798 36.2365 118.7 35.7409C118.437 37.486 118.13 39.2438 117.792 41.0584C119.89 41.554 121.755 42.0688 123.412 42.6908C126.771 43.9223 128.341 45.5712 128.116 47.4486C128.442 45.59 128.736 43.7881 128.968 42.0997L128.98 42.1438ZM116.684 94.7612C117.318 92.1464 113.996 90.3794 111.652 89.525C110.051 88.9343 108.287 88.4384 106.391 87.9803C105.838 89.7132 105.329 91.4334 104.764 93.1221C106.661 93.5802 108.425 94.0762 109.969 94.6353C112.212 95.471 115.823 97.2503 115.039 100.004C115.585 98.4159 116.125 96.6389 116.684 94.7612Z" fill="url(#paint19_linear_9816_46525)"/>
<path style="mix-blend-mode:multiply" fill-rule="evenodd" clip-rule="evenodd" d="M81.4402 34.6983C90.4438 36.6488 98.8419 37.8188 106.125 38.9268C106.476 37.1564 106.884 35.4174 107.191 33.6596C100.009 32.5704 91.6546 31.3877 82.7077 29.4687L81.3835 34.6669L81.4402 34.6983ZM94.9255 85.8864C87.5416 84.7596 78.9986 83.5834 69.7807 81.5512L68.5006 86.7368C77.7058 88.7249 86.2362 89.857 93.5319 91.0091C93.9964 89.3015 94.461 87.594 94.9128 85.8423L94.9255 85.8864Z" fill="url(#paint20_linear_9816_46525)"/>
<path fill-rule="evenodd" clip-rule="evenodd" d="M77.509 19.7944C79.8781 20.4031 81.9325 21.2453 83.3632 22.0754C84.8066 22.9497 85.5822 23.8245 85.4192 24.5869C82.6204 35.7898 79.4701 48.4293 76.7028 59.5754C73.9039 70.7783 71.1366 81.9244 68.3377 93.1273C65.4646 92.4245 62.6355 91.7091 59.7623 91.0063C56.8892 90.3035 54.0601 89.5881 51.1869 88.8853C54.2441 77.7515 57.2131 66.6429 59.9678 55.4527C62.7225 44.2625 65.7152 31.5728 68.3251 20.3764C68.5008 19.6581 69.609 19.1972 71.2531 19.1074C72.8971 19.0176 75.1084 19.2423 77.5216 19.8385L77.509 19.7944Z" fill="url(#paint21_linear_9816_46525)"/>
<path style="mix-blend-mode:multiply" fill-rule="evenodd" clip-rule="evenodd" d="M62.8506 54.7128C65.643 43.3209 68.6859 30.4737 71.4089 19.0063L71.2766 19.0442C69.62 19.0899 68.5432 19.4941 68.3234 20.225C65.7887 31.0182 62.9153 43.292 60.2799 54.0664C59.8909 55.7046 59.4578 57.3554 59.0688 58.9936C56.5838 68.9615 53.9412 78.8792 51.1978 88.778C51.4176 88.0471 52.6267 87.605 54.3715 87.5341C57.3029 76.6271 60.1649 65.6447 62.8821 54.656L62.8506 54.7128Z" fill="url(#paint22_linear_9816_46525)"/>
<path style="mix-blend-mode:screen" fill-rule="evenodd" clip-rule="evenodd" d="M73.4263 19.0929C70.6846 30.6611 67.5914 43.6659 64.7361 55.1712C62.0693 66.0023 59.2575 76.8272 56.389 87.6207C57.6175 87.7455 59.0161 87.9646 60.4086 88.3287C60.711 88.3851 60.982 88.4982 61.2404 88.5673C64.0333 77.8431 66.7822 67.1317 69.4177 56.3573C72.2917 44.7512 75.4919 31.6203 78.3092 19.9828C78.0508 19.9137 78.3092 19.9828 77.4774 19.7442C76.6016 19.5183 74.6422 19.1737 73.4137 19.0489L73.4263 19.0929Z" fill="url(#paint23_linear_9816_46525)"/>
<path style="mix-blend-mode:multiply" fill-rule="evenodd" clip-rule="evenodd" d="M81.6696 21.2209C78.8711 32.7577 75.6645 45.6995 72.8093 57.2048C70.0983 68.0486 67.3432 78.9049 64.5882 89.7613C67.0523 90.8676 68.5653 92.1513 68.3206 93.1279C71.1194 81.925 73.8868 70.7789 76.6856 59.576C76.7923 59.116 76.9116 58.7002 77.0182 58.2402C79.7104 47.4973 82.754 35.3178 85.3894 24.5434C85.5651 23.8251 84.7768 22.9062 83.3334 22.0319C82.8229 21.749 82.2557 21.4345 81.657 21.1768L81.6696 21.2209Z" fill="url(#paint24_linear_9816_46525)"/>
<path fill-rule="evenodd" clip-rule="evenodd" d="M60.3642 88.3461C65.0898 89.5196 68.6132 91.658 68.2744 93.1386C67.9357 94.6193 63.7909 94.8059 59.0653 93.6325C54.3396 92.459 50.8163 90.3206 51.155 88.8399C51.5064 87.4033 55.6386 87.1726 60.3642 88.3461Z" fill="#A71B00"/>
<path fill-rule="evenodd" clip-rule="evenodd" d="M67.1301 93.4252C64.1987 104.332 63.47 106.449 60.7528 117.438C58.0231 128.383 50.0354 161.254 47.5639 172.267C45.0499 171.652 42.4792 171.006 39.9651 170.391C37.4511 169.776 34.8804 169.13 32.3664 168.515C35.3418 157.595 43.7454 124.843 46.5193 113.886C49.2931 102.929 49.6627 100.724 52.1215 89.6662C52.2658 89.0046 53.2103 88.6383 54.7095 88.5424C56.1645 88.4591 58.1301 88.6588 60.2409 89.1986C62.3517 89.7383 64.1792 90.4547 65.4524 91.2346C66.7256 92.0145 67.3751 92.7824 67.2309 93.444L67.1301 93.4252Z" fill="url(#paint25_linear_9816_46525)"/>
<path style="mix-blend-mode:multiply" fill-rule="evenodd" clip-rule="evenodd" d="M65.3446 91.2106C64.5378 90.7264 63.4979 90.2612 62.3259 89.834C59.4642 101.15 58.8051 103.677 55.9434 114.993C53.0944 126.354 44.8613 159.534 42.113 170.913L47.5569 172.262C50.0283 161.249 58.0161 128.377 60.7458 117.433C63.4756 106.488 64.1917 104.327 67.1231 93.42C67.3241 92.7899 66.6178 91.9905 65.3446 91.2106Z" fill="url(#paint26_linear_9816_46525)"/>
<path style="mix-blend-mode:multiply" fill-rule="evenodd" clip-rule="evenodd" d="M34.5152 169.047C37.5218 157.737 45.9565 124.595 48.8056 113.234C51.6297 102.12 52.0495 99.7569 54.5712 88.5858C53.1161 88.6691 52.1842 89.0794 52.0273 89.6969C49.6126 100.742 49.199 102.96 46.4251 113.917C43.6953 124.861 35.2917 157.613 32.3036 168.489L34.4585 169.016L34.5026 169.003L34.5152 169.047Z" fill="url(#paint27_linear_9816_46525)"/>
<path fill-rule="evenodd" clip-rule="evenodd" d="M40.539 168.043C44.7479 169.078 47.8742 170.996 47.573 172.275C47.2278 173.567 43.5618 173.76 39.3969 172.712C35.188 171.676 32.0617 169.758 32.3628 168.479C32.7081 167.187 36.3741 166.995 40.539 168.043Z" fill="url(#paint28_radial_9816_46525)"/>
<path style="mix-blend-mode:screen" fill-rule="evenodd" clip-rule="evenodd" d="M59.8342 89.1217C58.2401 88.72 56.7092 88.5388 55.4745 88.5589C47.8817 119.313 39.0106 157.256 40.1447 157.551C41.2915 157.89 52.1408 120.191 59.8342 89.1217Z" fill="url(#paint29_radial_9816_46525)"/>
<path fill-rule="evenodd" clip-rule="evenodd" d="M71.1285 81.7764C71.5302 80.1823 67.4399 78.0633 63.2183 76.9838C59.5701 76.0739 55.6267 75.9643 54.3803 76.9418C53.897 78.7502 53.4137 80.5586 52.9177 82.3229C53.9939 81.2509 57.9121 81.2724 61.8627 82.2387C66.3299 83.3432 70.1431 85.4939 69.7729 87.0313L71.0845 81.789L71.1285 81.7764ZM74.8717 30.2758C76.869 30.7526 83.3216 32.9575 82.7819 35.0683C83.2211 33.2726 83.673 31.521 84.0808 29.782C84.6079 27.6271 77.9222 25.4413 76.1706 24.9894C74.5324 24.6004 68.3517 23.5102 67.1501 25.1429C66.7296 26.8378 66.3659 28.5642 65.9581 30.3032C67.3678 28.8971 73.0759 29.8365 74.8717 30.2758Z" fill="url(#paint30_linear_9816_46525)"/>
<path style="mix-blend-mode:screen" fill-rule="evenodd" clip-rule="evenodd" d="M70.9392 29.6487C72.5583 29.8046 74.1145 30.074 74.8895 30.2811C75.1478 30.3502 75.4502 30.4066 75.7779 30.5512C76.2172 28.7554 76.625 27.0164 77.0769 25.2648C76.7177 25.1769 76.4467 25.0638 76.2451 25.0262C75.5268 24.8505 73.9139 24.5497 72.2381 24.3623C71.8303 26.1013 71.3784 27.8529 70.9833 29.636L70.9392 29.6487ZM64.1813 77.2906C63.8663 77.1901 63.5638 77.1337 63.2488 77.0333C61.9571 76.688 60.6151 76.5003 59.3867 76.3755C58.9348 78.1271 58.4829 79.8788 57.9869 81.6431C59.2154 81.7679 60.57 81.9997 61.9058 82.3323C62.2082 82.3887 62.5233 82.4892 62.7816 82.5582C63.2335 80.8066 63.6854 79.0549 64.1372 77.3033L64.1813 77.2906Z" fill="url(#paint31_linear_9816_46525)"/>
<path style="mix-blend-mode:multiply" fill-rule="evenodd" clip-rule="evenodd" d="M65.9568 30.3083C66.4728 29.7787 67.6128 29.5949 68.8916 29.5622C69.2867 27.7791 69.7386 26.0274 70.1464 24.2884C68.7669 24.3024 67.5954 24.5428 67.1488 25.148C66.7724 26.8303 66.3646 28.5693 65.9568 30.3083ZM57.339 76.289C56.0162 76.3344 54.9329 76.5496 54.3916 76.9911C53.9083 78.7994 53.425 80.6078 52.929 82.3721C53.401 81.8551 54.5157 81.5831 55.9393 81.5566C56.3912 79.805 56.8872 78.0407 57.339 76.289Z" fill="url(#paint32_linear_9816_46525)"/>
<path style="mix-blend-mode:multiply" fill-rule="evenodd" clip-rule="evenodd" d="M67.4549 78.4437C67.0031 80.1953 66.5512 81.947 66.0993 83.6986C68.4626 84.7861 70.0197 86.0571 69.8191 87.0211C70.2709 85.2695 70.6787 83.5304 71.1306 81.7788C71.3627 80.7581 69.7615 79.4997 67.4549 78.4437ZM79.0516 31.7042C81.1312 32.6345 83.0537 33.8484 82.7713 35.0267C83.2232 33.275 83.6624 31.4793 84.0829 29.7844C84.3652 28.6061 82.4428 27.3922 80.3631 26.4619C79.9553 28.2009 79.5034 29.9525 79.0642 31.7483L79.0516 31.7042Z" fill="url(#paint33_linear_9816_46525)"/>
<defs>
<radialGradient id="paint0_radial_9816_46525" cx="0" cy="0" r="1" gradientUnits="userSpaceOnUse" gradientTransform="translate(77.0062 7.57119) rotate(14) scale(14.4)">
<stop stop-color="#FCCD10"/>
<stop offset="0.22" stop-color="#ECAB08"/>
<stop offset="0.45" stop-color="#DF8D02"/>
<stop offset="0.58" stop-color="#DB8300"/>
<stop offset="0.71" stop-color="#D57C00"/>
<stop offset="0.88" stop-color="#C76B00"/>
<stop offset="1" stop-color="#BA5B00"/>
</radialGradient>
<radialGradient id="paint1_radial_9816_46525" cx="0" cy="0" r="1" gradientUnits="userSpaceOnUse" gradientTransform="translate(74.9411 2.38049) rotate(14) scale(17.5184 17.5184)">
<stop stop-color="#FFE58A"/>
<stop offset="1"/>
</radialGradient>
<radialGradient id="paint2_radial_9816_46525" cx="0" cy="0" r="1" gradientUnits="userSpaceOnUse" gradientTransform="translate(72.2166 -2.04386) rotate(14) scale(17.2891 17.2891)">
<stop stop-color="#FFE58A"/>
<stop offset="1"/>
</radialGradient>
<radialGradient id="paint3_radial_9816_46525" cx="0" cy="0" r="1" gradientUnits="userSpaceOnUse" gradientTransform="translate(80.6171 9.55815) rotate(14) scale(16.6012 16.6012)">
<stop stop-color="#FFE58A"/>
<stop offset="1"/>
</radialGradient>
<linearGradient id="paint4_linear_9816_46525" x1="67.5118" y1="17.7504" x2="87.246" y2="22.6829" gradientUnits="userSpaceOnUse">
<stop offset="0.05" stop-color="#ED9500"/>
<stop offset="0.4" stop-color="#FFCC00"/>
<stop offset="0.93" stop-color="#B36600"/>
</linearGradient>
<radialGradient id="paint5_radial_9816_46525" cx="0" cy="0" r="1" gradientUnits="userSpaceOnUse" gradientTransform="translate(84.1127 25.0175) rotate(-16) scale(39.256)">
<stop stop-color="#E38812"/>
<stop offset="0.11" stop-color="#E6952C"/>
<stop offset="0.73" stop-color="#F7E0C2"/>
<stop offset="1" stop-color="white"/>
</radialGradient>
<radialGradient id="paint6_radial_9816_46525" cx="0" cy="0" r="1" gradientUnits="userSpaceOnUse" gradientTransform="translate(70.8701 15.3095) rotate(-16) scale(13.9872)">
<stop stop-color="#FFF0B0"/>
<stop offset="1"/>
</radialGradient>
<linearGradient id="paint7_linear_9816_46525" x1="109.661" y1="83.0934" x2="166.898" y2="97.3572" gradientUnits="userSpaceOnUse">
<stop stop-color="#9C0E0E"/>
<stop offset="0.69" stop-color="#FC3F00"/>
<stop offset="1" stop-color="#C4020B"/>
</linearGradient>
<linearGradient id="paint8_linear_9816_46525" x1="128.04" y1="87.3626" x2="160.861" y2="95.5078" gradientUnits="userSpaceOnUse">
<stop/>
<stop offset="0.13" stop-color="#3E1010"/>
<stop offset="0.31" stop-color="#8F2626"/>
<stop offset="0.47" stop-color="#CB3737"/>
<stop offset="0.58" stop-color="#F04141"/>
<stop offset="0.64" stop-color="#FF4545"/>
<stop offset="0.68" stop-color="#F23F3F"/>
<stop offset="0.77" stop-color="#CF3232"/>
<stop offset="0.89" stop-color="#981D1D"/>
<stop offset="1" stop-color="#630808"/>
</linearGradient>
<linearGradient id="paint9_linear_9816_46525" x1="109.664" y1="83.0806" x2="133.236" y2="88.9166" gradientUnits="userSpaceOnUse">
<stop stop-color="#800C0C"/>
<stop offset="1" stop-color="#FFE4BF"/>
</linearGradient>
<linearGradient id="paint10_linear_9816_46525" x1="109.864" y1="83.5093" x2="166.282" y2="97.5786" gradientUnits="userSpaceOnUse">
<stop offset="0.07" stop-color="#B36600"/>
<stop offset="0.6" stop-color="#FFCC00"/>
<stop offset="0.95" stop-color="#ED9500"/>
</linearGradient>
<linearGradient id="paint11_linear_9816_46525" x1="109.838" y1="83.5219" x2="130.334" y2="88.6175" gradientUnits="userSpaceOnUse">
<stop offset="0.57" stop-color="#FFA163"/>
<stop offset="1" stop-color="#FFE4BF"/>
</linearGradient>
<linearGradient id="paint12_linear_9816_46525" x1="111.304" y1="74.27" x2="121.385" y2="76.8179" gradientUnits="userSpaceOnUse">
<stop stop-color="#960007"/>
<stop offset="1" stop-color="#610000"/>
</linearGradient>
<linearGradient id="paint13_linear_9816_46525" x1="75.7121" y1="57.6721" x2="123.485" y2="69.5449" gradientUnits="userSpaceOnUse">
<stop stop-color="#9C0E0E"/>
<stop offset="0.75" stop-color="#FC3F00"/>
<stop offset="1" stop-color="#C4020B"/>
</linearGradient>
<linearGradient id="paint14_linear_9816_46525" x1="110.631" y1="66.3303" x2="123.529" y2="69.5495" gradientUnits="userSpaceOnUse">
<stop/>
<stop offset="0.68" stop-color="#FF7373"/>
<stop offset="0.74" stop-color="#F26D6D"/>
<stop offset="0.84" stop-color="#CF5D5D"/>
<stop offset="0.97" stop-color="#984444"/>
<stop offset="1" stop-color="#8C3F3F"/>
</linearGradient>
<linearGradient id="paint15_linear_9816_46525" x1="136.662" y1="89.5193" x2="158.91" y2="95.0667" gradientUnits="userSpaceOnUse">
<stop/>
<stop offset="0.02" stop-color="#0F0E0A"/>
<stop offset="0.1" stop-color="#4D4935"/>
<stop offset="0.18" stop-color="#837C5B"/>
<stop offset="0.25" stop-color="#B0A579"/>
<stop offset="0.33" stop-color="#D2C691"/>
<stop offset="0.4" stop-color="#EADDA2"/>
<stop offset="0.46" stop-color="#F9EBAC"/>
<stop offset="0.51" stop-color="#FFF0B0"/>
<stop offset="0.56" stop-color="#F8EAAB"/>
<stop offset="0.62" stop-color="#E7DAA0"/>
<stop offset="0.69" stop-color="#CBBF8C"/>
<stop offset="0.77" stop-color="#A49B71"/>
<stop offset="0.85" stop-color="#726C4F"/>
<stop offset="0.93" stop-color="#363325"/>
<stop offset="1"/>
</linearGradient>
<linearGradient id="paint16_linear_9816_46525" x1="75.8362" y1="57.2515" x2="113.9" y2="66.7083" gradientUnits="userSpaceOnUse">
<stop stop-color="#FF3030"/>
<stop offset="1" stop-color="#FFE4BF"/>
</linearGradient>
<linearGradient id="paint17_linear_9816_46525" x1="65.3502" y1="99.3296" x2="160.518" y2="123.088" gradientUnits="userSpaceOnUse">
<stop stop-color="#C4020B"/>
<stop offset="1" stop-color="#FC3F00"/>
</linearGradient>
<linearGradient id="paint18_linear_9816_46525" x1="75.7546" y1="57.608" x2="123.023" y2="69.3868" gradientUnits="userSpaceOnUse">
<stop offset="0.07" stop-color="#B36600"/>
<stop offset="0.6" stop-color="#FFCC00"/>
<stop offset="0.95" stop-color="#ED9500"/>
</linearGradient>
<linearGradient id="paint19_linear_9816_46525" x1="111.038" y1="66.4196" x2="123.003" y2="69.3815" gradientUnits="userSpaceOnUse">
<stop/>
<stop offset="1" stop-color="#FFF0B0"/>
</linearGradient>
<linearGradient id="paint20_linear_9816_46525" x1="75.8364" y1="57.249" x2="100.498" y2="63.3925" gradientUnits="userSpaceOnUse">
<stop stop-color="#FFA163"/>
<stop offset="1" stop-color="#FFE4BF"/>
</linearGradient>
<linearGradient id="paint21_linear_9816_46525" x1="60.0476" y1="53.2353" x2="77.167" y2="57.534" gradientUnits="userSpaceOnUse">
<stop stop-color="#9C0E0E"/>
<stop offset="0.3" stop-color="#FC3F00"/>
<stop offset="1" stop-color="#C4020B"/>
</linearGradient>
<linearGradient id="paint22_linear_9816_46525" x1="59.9519" y1="53.5879" x2="62.9385" y2="54.3536" gradientUnits="userSpaceOnUse">
<stop stop-color="#800C0C"/>
<stop offset="1" stop-color="#FFE4BF"/>
</linearGradient>
<linearGradient id="paint23_linear_9816_46525" x1="63.4552" y1="52.8668" x2="72.0306" y2="54.9878" gradientUnits="userSpaceOnUse">
<stop/>
<stop offset="0.09" stop-color="#3E1010"/>
<stop offset="0.21" stop-color="#8F2626"/>
<stop offset="0.31" stop-color="#CB3737"/>
<stop offset="0.38" stop-color="#F04141"/>
<stop offset="0.42" stop-color="#FF4545"/>
<stop offset="0.5" stop-color="#F23F3F"/>
<stop offset="0.64" stop-color="#CF3232"/>
<stop offset="0.83" stop-color="#981D1D"/>
<stop offset="1" stop-color="#630808"/>
</linearGradient>
<linearGradient id="paint24_linear_9816_46525" x1="72.8339" y1="56.6253" x2="77.0996" y2="57.6921" gradientUnits="userSpaceOnUse">
<stop stop-color="#FFE4BF"/>
<stop offset="1" stop-color="#800C0C"/>
</linearGradient>
<linearGradient id="paint25_linear_9816_46525" x1="42.4695" y1="127.881" x2="57.6797" y2="131.677" gradientUnits="userSpaceOnUse">
<stop stop-color="#546578"/>
<stop offset="0.32" stop-color="#8DA0B8"/>
<stop offset="1" stop-color="#546578"/>
</linearGradient>
<linearGradient id="paint26_linear_9816_46525" x1="51.164" y1="130.104" x2="56.7214" y2="131.516" gradientUnits="userSpaceOnUse">
<stop stop-color="white"/>
<stop offset="0.52" stop-color="#C3CEDF"/>
<stop offset="1" stop-color="#8A9FC2"/>
</linearGradient>
<linearGradient id="paint27_linear_9816_46525" x1="42.3757" y1="128.245" x2="50.8062" y2="130.36" gradientUnits="userSpaceOnUse">
<stop stop-color="#8A9FC2"/>
<stop offset="0.48" stop-color="#C3CEDF"/>
<stop offset="1" stop-color="white"/>
</linearGradient>
<radialGradient id="paint28_radial_9816_46525" cx="0" cy="0" r="1" gradientUnits="userSpaceOnUse" gradientTransform="translate(33.2486 159.256) rotate(-16) scale(18.5732 18.5732)">
<stop stop-color="#ADBDC9"/>
<stop offset="1" stop-color="#263754"/>
</radialGradient>
<radialGradient id="paint29_radial_9816_46525" cx="0" cy="0" r="1" gradientUnits="userSpaceOnUse" gradientTransform="translate(-1.81649 103.222) rotate(-16) scale(71.6789 71.6789)">
<stop stop-color="white"/>
<stop offset="0.11" stop-color="#FAFAFA"/>
<stop offset="0.23" stop-color="#ECECEC"/>
<stop offset="0.36" stop-color="#D6D6D6"/>
<stop offset="0.5" stop-color="#B6B6B6"/>
<stop offset="0.64" stop-color="#8E8E8E"/>
<stop offset="0.78" stop-color="#5C5C5C"/>
<stop offset="0.92" stop-color="#222222"/>
<stop offset="1"/>
</radialGradient>
<linearGradient id="paint30_linear_9816_46525" x1="60.2535" y1="52.835" x2="67.0458" y2="54.5609" gradientUnits="userSpaceOnUse">
<stop offset="0.07" stop-color="#B36600"/>
<stop offset="0.6" stop-color="#FFCC00"/>
<stop offset="0.95" stop-color="#ED9500"/>
</linearGradient>
<linearGradient id="paint31_linear_9816_46525" x1="65.0777" y1="52.798" x2="69.9608" y2="54.0217" gradientUnits="userSpaceOnUse">
<stop stop-color="#FFF0B0"/>
<stop offset="1"/>
</linearGradient>
<linearGradient id="paint32_linear_9816_46525" x1="60.2019" y1="52.9977" x2="62.9743" y2="53.6817" gradientUnits="userSpaceOnUse">
<stop stop-color="#FFA163"/>
<stop offset="1" stop-color="#FFE4BF"/>
</linearGradient>
<linearGradient id="paint33_linear_9816_46525" x1="72.9583" y1="56.2081" x2="77.2239" y2="57.2749" gradientUnits="userSpaceOnUse">
<stop stop-color="#FFE4BF"/>
<stop offset="1" stop-color="#FFA163"/>
</linearGradient>
</defs>
</svg>
