<svg width="48" height="48" viewBox="0 0 48 48" fill="none" xmlns="http://www.w3.org/2000/svg">
<g clip-path="url(#clip0_9103_187369)">
<path d="M47.756 35.042L42.278 25L47.756 14.958C48.094 14.338 48.08 13.586 47.72 12.979C47.359 12.372 46.706 12 46 12H34V6C34 4.896 33.104 4 32 4H12V2C12 0.896 11.104 0 10 0C8.896 0 8 0.896 8 2V6V28V46C8 47.104 8.896 48 10 48C11.104 48 12 47.104 12 46V30H22V36C22 37.104 22.896 38 24 38H46C46.706 38 47.359 37.628 47.72 37.021C48.081 36.414 48.094 35.662 47.756 35.042ZM12 26V8H30V14V26H24H12ZM26 34V30H32C33.104 30 34 29.104 34 28V16H42.631L38.244 24.042C37.919 24.639 37.919 25.36 38.244 25.957L42.631 34H26Z" fill="white"/>
</g>
<defs>
<clipPath id="clip0_9103_187369">
<rect width="48" height="48" fill="white"/>
</clipPath>
</defs>
</svg>
