<svg width="24" height="24" viewBox="0 0 24 24" fill="none" xmlns="http://www.w3.org/2000/svg">
<path d="M4.09692 2.40007H7.20021C7.51847 2.40007 7.82371 2.27364 8.04876 2.04859C8.27381 1.82354 8.40024 1.5183 8.40024 1.20003C8.40024 0.881765 8.27381 0.576532 8.04876 0.351482C7.82371 0.126432 7.51847 0 7.20021 0H1.20003C0.962776 0.000275837 0.730924 0.0708752 0.533777 0.202876C0.33663 0.334877 0.183035 0.522356 0.0924025 0.741621C0.0321363 0.886979 0.000751505 1.04268 0 1.20003V7.20021C0 7.51847 0.126432 7.82371 0.351482 8.04876C0.576532 8.27381 0.881765 8.40024 1.20003 8.40024C1.5183 8.40024 1.82354 8.27381 2.04859 8.04876C2.27364 7.82371 2.40007 7.51847 2.40007 7.20021V4.09692L7.55182 9.24866C7.77814 9.46726 8.08128 9.58822 8.39592 9.58548C8.71057 9.58275 9.01155 9.45654 9.23405 9.23405C9.45654 9.01155 9.58275 8.71057 9.58548 8.39592C9.58822 8.08128 9.46726 7.77814 9.24866 7.55182L4.09692 2.40007Z" fill="#262626"/>
<path d="M23.9054 0.741621C23.8148 0.522356 23.6612 0.334877 23.4641 0.202876C23.2669 0.0708752 23.0351 0.000275837 22.7978 0H16.7976C16.4794 0 16.1741 0.126432 15.9491 0.351482C15.724 0.576532 15.5976 0.881765 15.5976 1.20003C15.5976 1.5183 15.724 1.82354 15.9491 2.04859C16.1741 2.27364 16.4794 2.40007 16.7976 2.40007H19.9009L14.7492 7.55182C14.6346 7.66251 14.5431 7.79493 14.4802 7.94134C14.4173 8.08775 14.3842 8.24522 14.3829 8.40456C14.3815 8.5639 14.4118 8.72192 14.4722 8.8694C14.5325 9.01688 14.6216 9.15086 14.7343 9.26354C14.847 9.37621 14.981 9.46532 15.1284 9.52566C15.2759 9.586 15.4339 9.61636 15.5933 9.61497C15.7526 9.61359 15.9101 9.58049 16.0565 9.51759C16.2029 9.4547 16.3353 9.36328 16.446 9.24866L21.5978 4.09692V7.2002C21.5978 7.51847 21.7242 7.82371 21.9492 8.04876C22.1743 8.27381 22.4795 8.40024 22.7978 8.40024C23.1161 8.40024 23.4213 8.27381 23.6464 8.04876C23.8714 7.82371 23.9978 7.51847 23.9978 7.2002V1.20003C23.9971 1.04268 23.9657 0.886979 23.9054 0.741621Z" fill="#262626"/>
<path d="M7.55182 14.7509L2.40007 19.9027V16.7994C2.40007 16.4811 2.27364 16.1759 2.04859 15.9508C1.82354 15.7258 1.5183 15.5994 1.20003 15.5994C0.881765 15.5994 0.576532 15.7258 0.351482 15.9508C0.126432 16.1759 0 16.4811 0 16.7994V22.7996C0.000751505 22.9569 0.0321363 23.1126 0.0924025 23.258C0.214195 23.5519 0.447713 23.7854 0.741621 23.9072C0.886979 23.9675 1.04268 23.9988 1.20003 23.9996H7.20021C7.51847 23.9996 7.82371 23.8732 8.04876 23.6481C8.27381 23.4231 8.40024 23.1178 8.40024 22.7996C8.40024 22.4813 8.27381 22.1761 8.04876 21.951C7.82371 21.726 7.51847 21.5995 7.20021 21.5995H4.09692L9.24866 16.4478C9.46726 16.2214 9.58822 15.9183 9.58548 15.6037C9.58275 15.289 9.45654 14.988 9.23405 14.7655C9.01155 14.543 8.71057 14.4168 8.39592 14.4141C8.08128 14.4114 7.77814 14.5323 7.55182 14.7509Z" fill="#262626"/>
<path d="M22.7996 15.5994C22.4813 15.5994 22.1761 15.7258 21.951 15.9508C21.726 16.1759 21.5995 16.4811 21.5995 16.7994V19.9027L16.4478 14.7509C16.2214 14.5323 15.9183 14.4114 15.6037 14.4141C15.289 14.4168 14.988 14.543 14.7655 14.7655C14.543 14.988 14.4168 15.289 14.4141 15.6037C14.4114 15.9183 14.5323 16.2214 14.7509 16.4478L19.9027 21.5995H16.7994C16.4811 21.5995 16.1759 21.726 15.9508 21.951C15.7258 22.1761 15.5994 22.4813 15.5994 22.7996C15.5994 23.1178 15.7258 23.4231 15.9508 23.6481C16.1759 23.8732 16.4811 23.9996 16.7994 23.9996H22.7996C22.9569 23.9988 23.1126 23.9675 23.258 23.9072C23.5519 23.7854 23.7854 23.5519 23.9072 23.258C23.9675 23.1126 23.9988 22.9569 23.9996 22.7996V16.7994C23.9996 16.4811 23.8732 16.1759 23.6481 15.9508C23.4231 15.7258 23.1178 15.5994 22.7996 15.5994Z" fill="#262626"/>
</svg>
