<svg width="21" height="20" viewBox="0 0 21 20" fill="none" xmlns="http://www.w3.org/2000/svg">
<path d="M18.9517 8.35547H11.5103C11.1821 8.35547 10.9165 8.62109 10.9165 8.94922V11.3281C10.9165 11.6563 11.1821 11.9219 11.5103 11.9219H15.7017C15.2446 13.1133 14.3853 14.1094 13.2954 14.7422L15.0806 17.8359C17.9438 16.1797 19.6392 13.2695 19.6392 10.0156C19.6392 9.55078 19.604 9.21875 19.5376 8.84766C19.4829 8.5625 19.2368 8.35547 18.9517 8.35547Z" fill="#167EE6"/>
<path d="M10.52 15.4922C8.46924 15.4922 6.68018 14.3711 5.71924 12.7148L2.62549 14.4961C4.19971 17.2266 7.14893 19.0625 10.52 19.0625C12.1763 19.0625 13.7349 18.6172 15.0825 17.8398V17.8359L13.2974 14.7422C12.4771 15.2187 11.5317 15.4922 10.52 15.4922Z" fill="#12B347"/>
<path d="M15.0781 17.8398V17.8359L13.293 14.7422C12.4766 15.2148 11.5312 15.4922 10.5195 15.4922V19.0625C12.1758 19.0625 13.7344 18.6172 15.0781 17.8398Z" fill="#0F993E"/>
<path d="M4.96875 9.94141C4.96875 8.92969 5.24609 7.98438 5.71875 7.16797L2.625 5.38672C1.84375 6.72656 1.39844 8.28125 1.39844 9.94141C1.39844 11.6016 1.84375 13.1563 2.625 14.4961L5.71875 12.7148C5.24219 11.8984 4.96875 10.9531 4.96875 9.94141Z" fill="#FFD500"/>
<path d="M10.52 4.39062C11.856 4.39062 13.0864 4.86719 14.0435 5.65625C14.2817 5.85156 14.6255 5.83594 14.8403 5.62109L16.5239 3.9375C16.77 3.69141 16.7505 3.28906 16.4888 3.0625C14.8833 1.66406 12.7935 0.820312 10.52 0.820312C7.14893 0.820312 4.19971 2.65625 2.62549 5.38672L5.71924 7.16797C6.68018 5.51172 8.46924 4.39062 10.52 4.39062Z" fill="#FF4B26"/>
<path d="M14.043 5.65625C14.2813 5.85156 14.625 5.83594 14.8398 5.62109L16.5234 3.9375C16.7695 3.69141 16.75 3.28906 16.4883 3.0625C14.8828 1.66406 12.793 0.820312 10.5195 0.820312V4.39062C11.8555 4.39062 13.0859 4.86328 14.043 5.65625Z" fill="#D93F21"/>
</svg>
