<svg width="23" height="24" viewBox="0 0 23 24" fill="none" xmlns="http://www.w3.org/2000/svg">
<g clip-path="url(#clip0_9816_56119)">
<rect width="22.8039" height="23.0297" rx="11.402" fill="white"/>
<path d="M11.402 0C5.11516 0 0 5.16581 0 11.5149C0 17.8639 5.11516 23.0297 11.402 23.0297C17.6888 23.0297 22.8039 17.8639 22.8039 11.5149C22.8039 5.16581 17.6888 0 11.402 0ZM17.7745 8.48463L10.4875 15.786C10.0589 16.2189 9.37304 16.2478 8.91582 15.8149L5.05801 12.2652C4.60079 11.8323 4.57221 11.1108 4.97228 10.6491C5.40093 10.1873 6.11534 10.1585 6.57256 10.5914L9.63023 13.4196L16.1456 6.83965C16.6029 6.3779 17.3173 6.3779 17.7745 6.83965C18.2317 7.3014 18.2317 8.02288 17.7745 8.48463Z" fill="#00B05B"/>
</g>
<rect x="0.5" y="0.5" width="21.8039" height="22.0297" rx="10.902" stroke="white"/>
<defs>
<clipPath id="clip0_9816_56119">
<rect width="22.8039" height="23.0297" rx="11.402" fill="white"/>
</clipPath>
</defs>
</svg>
