<svg width="75" height="90" viewBox="0 0 75 90" fill="none" xmlns="http://www.w3.org/2000/svg">
<g clip-path="url(#clip0_6992_90589)">
<path d="M57.4918 78.413C51.8729 80.6148 49.5302 79.4973 49.5444 76.958C49.5859 76.6286 49.6226 76.2869 49.6593 75.9451C49.6593 75.9451 49.6496 75.9204 49.6619 75.9156C49.7627 74.7943 49.8146 73.621 49.7759 72.3978C49.4258 60.9484 36.7944 68.6879 31.5927 69.4879C28.9278 69.9058 25.3562 67.6471 22.2741 64.969C22.2741 64.969 22.2521 64.9491 22.2398 64.9539C19.3165 62.427 16.843 59.5246 15.967 58.1597C15.3514 57.2053 15.6712 55.3007 16.3417 53.1306C17.4793 49.4679 19.6393 45.0772 20.006 43.5101C20.0492 43.2938 20.0699 43.1291 20.0436 43.0256C19.6925 41.8394 15.5705 37.3055 12.9837 37.0522C10.7556 36.8435 3.45337 28.4742 1.97659 23.1457C1.7459 22.3393 1.66479 21.5882 1.74512 20.9589C2.35907 16.1776 9.18699 14.413 10.7438 15.4115C12.3006 16.4099 15.0559 25.4365 22.0846 29.045C22.0846 29.045 27.3482 34.1707 28.9749 34.2592C30.6139 34.3429 35.696 31.17 39.3134 32.0584C41.1098 32.5075 42.991 30.8878 45.1334 29.9344C46.4647 29.3416 48.2035 29.5712 49.7241 29.7155C49.7241 29.7155 49.7241 29.7155 49.7364 29.7107C50.6675 29.8014 51.5176 29.8668 52.1455 29.6919C53.3275 29.3711 54.9291 31.7896 56.5553 35.323C56.5698 35.36 56.594 35.4217 56.623 35.4958C57.1101 36.5575 57.6016 37.7029 58.0803 38.9245L58.1383 39.0726C60.5414 45.2053 62.717 52.6798 63.3612 56.0286C63.4204 56.3613 63.5387 56.6993 63.6939 57.0228C64.3872 58.5019 65.9658 59.9188 67.9233 61.2869C68.7332 61.8663 69.6046 62.4215 70.5007 62.9672C76.0445 66.2323 63.8008 75.9408 57.4672 78.4227L57.4918 78.413Z" fill="url(#paint0_linear_6992_90589)"/>
<g style="mix-blend-mode:multiply" opacity="0.5">
<path d="M3.77848 19.7937C2.55841 21.7948 7.82264 28.6996 10.6444 28.7183C13.4491 28.7296 15.5194 26.3953 15.0095 23.9333C14.4996 21.4713 11.3943 16.3397 10.3757 16.0983C9.35719 15.8568 5.17994 17.4937 3.77848 19.7937Z" fill="#FF9274"/>
</g>
<path d="M6.48553 25.9482C6.48553 25.9482 8.13873 27.9907 10.3082 28.5213C12.4777 29.0519 15.6759 27.5282 16.0187 26.2267C16.6436 23.9036 13.9782 21.0194 13.9782 21.0194C13.9782 21.0194 15.6154 23.6375 14.8983 25.3988C14.1813 27.1602 10.6096 29.7981 6.4807 25.9359L6.48553 25.9482Z" fill="#FFD636"/>
<g style="mix-blend-mode:multiply" opacity="0.3">
<path d="M24.4852 52.1033C24.4852 52.1033 22.5887 52.3056 22.5347 51.9139C22.493 51.5175 19.5471 47.1917 16.3617 53.1372C17.6601 48.9417 20.2969 43.809 20.0636 43.0322C22.4597 46.8617 24.4804 52.091 24.4804 52.091L24.4852 52.1033Z" fill="#D60066"/>
</g>
<g style="mix-blend-mode:multiply" opacity="0.2">
<path d="M22.6873 29.635C18.1142 26.4166 14.4194 30.9532 16.8782 35.3418C19.3371 39.7303 23.1867 39.6879 26.6998 37.3719C30.2129 35.0558 24.4244 30.8759 22.6922 29.6474L22.6873 29.635Z" fill="#EA4C74"/>
</g>
<g style="mix-blend-mode:multiply" opacity="0.8">
<path d="M49.783 72.4093C49.4329 60.9599 36.8015 68.6994 31.5998 69.4994C28.9349 69.9173 25.3634 67.6587 22.2812 64.9805C26.2956 67.9339 30.0294 70.5702 43.522 64.9557C56.1863 59.6943 50.5609 73.7414 49.6642 75.9148C49.7649 74.7935 49.8169 73.6202 49.7782 72.397L49.783 72.4093Z" fill="#D42F55"/>
</g>
<path d="M57.4942 78.413C51.8752 80.6148 49.5326 79.4973 49.5468 76.958C49.539 76.6479 49.588 76.3013 49.6616 75.9451C49.6616 75.9451 49.6519 75.9204 49.6642 75.9156C52.7668 61.2343 64.9888 59.7047 70.5277 62.9575C76.0714 66.2226 63.8278 75.9311 57.4942 78.413Z" fill="#D84C04"/>
<g style="mix-blend-mode:multiply" opacity="0.2">
<path d="M57.438 39.2042L57.4961 39.3523C59.8992 45.485 62.0747 52.9595 62.7189 56.3083C62.7782 56.6409 62.8964 56.9789 63.0516 57.3024C61.5655 59.0235 63.5249 55.6082 52.9806 60.6937C42.4412 65.7915 26.4687 43.639 26.4687 43.639C26.547 40.3202 26.9407 37.2621 31.5506 36.3667C32.7 36.1441 36.3017 35.6864 40.8116 33.9192C45.3216 32.1519 47.2992 31.5763 50.1191 31.8805C52.939 32.1847 55.3631 34.3805 55.9056 35.6199C56.0388 35.9235 56.6296 37.2862 57.4257 39.209L57.438 39.2042Z" fill="#EF7A98"/>
</g>
<path d="M28.9805 34.2715C28.9805 34.2715 32.6959 34.4668 35.8918 34.0258C39.0755 33.5896 41.6577 31.9087 40.8384 32.0305C40.019 32.1523 37.3233 31.6571 35.2197 32.3106C33.1039 32.9689 28.9805 34.2715 28.9805 34.2715Z" fill="url(#paint1_linear_6992_90589)"/>
<path d="M42.3435 31.4126C41.6235 31.7517 47.0563 29.8364 48.3741 29.7897C49.7043 29.7382 47.1665 29.1384 45.7632 29.4748C44.3599 29.8111 42.3435 31.4126 42.3435 31.4126Z" fill="url(#paint2_linear_6992_90589)"/>
<path d="M51.4028 29.8263C50.6828 30.1654 52.6369 30.1825 53.5642 30.844C54.4915 31.5055 53.3006 29.8086 52.7282 29.7625C52.1557 29.7163 51.4028 29.8263 51.4028 29.8263Z" fill="url(#paint3_linear_6992_90589)"/>
<path d="M1.78547 22.2247C2.13377 23.8391 2.79762 19.693 5.06149 17.4536C7.32535 15.2143 10.2602 15.2315 10.2602 15.2315C10.2602 15.2315 8.7187 14.526 5.234 16.2615C1.73698 18.002 1.58255 21.3079 1.78547 22.2247Z" fill="url(#paint4_linear_6992_90589)"/>
<g style="mix-blend-mode:soft-light">
<path d="M10.3242 27.9032C8.39122 28.0486 12.108 22.4073 14.2961 23.8558C16.4841 25.3044 13.9272 27.6301 10.3242 27.9032Z" fill="white"/>
</g>
<path d="M3.81642 21.1299C3.81642 21.1299 5.3865 18.6072 7.33139 17.4039C9.27628 16.2005 11.268 16.8577 11.268 16.8577C11.268 16.8577 10.7606 15.8893 10.2427 15.7649C8.85857 15.4247 4.0493 18.6046 3.62613 19.4109C3.20296 20.2173 3.81642 21.1299 3.81642 21.1299Z" fill="#FFE7DB"/>
<g style="mix-blend-mode:multiply" opacity="0.5">
<path d="M3.51802 20.4772C3.51802 20.4772 5.04019 25.6313 9.22506 26.9522C13.2432 28.2102 15.2283 25.3684 14.9895 23.9247C14.7631 22.4761 12.8358 19.1177 12.8358 19.1177C12.8358 19.1177 15.3626 22.8817 15.2458 24.5787C15.129 26.2756 12.579 28.6555 10.0087 28.1539C7.43834 27.6523 4.12959 23.9242 3.51802 20.4772Z" fill="#D42774"/>
</g>
<g style="mix-blend-mode:screen" opacity="0.5">
<path d="M14.7961 30.1789C14.6203 31.8705 17.4208 29.1504 18.8748 28.5807C20.3411 28.0061 18.5435 26.248 16.3241 27.3312C14.1047 28.4144 14.7838 30.1837 14.7838 30.1837L14.7961 30.1789Z" fill="#FFB311"/>
</g>
<g style="mix-blend-mode:multiply" opacity="0.8">
<path d="M24.4853 52.1047C24.1016 52.1412 22.5152 52.6632 22.5348 51.9153C22.5593 51.1798 23.3713 50.6766 23.1781 49.7844C22.9848 48.8922 21.446 44.7836 19.32 45.4886C19.3632 45.2724 20.09 43.1371 20.0514 43.0384C19.7003 41.8522 15.5783 37.3183 12.9915 37.065C10.7585 36.844 3.45632 28.4746 1.97954 23.1461C2.12414 22.4632 7.50954 33.3772 11.8022 35.8799C16.0874 38.3999 18.5089 39.1021 20.4962 41.9246C22.4884 44.7595 24.8739 52.0806 24.4901 52.117L24.4853 52.1047Z" fill="#D42F55"/>
</g>
<g style="mix-blend-mode:multiply" opacity="0.3">
<path d="M31.6002 69.5004C28.636 69.082 32.5198 63.8307 39.7989 61.8752C47.0656 59.9244 51.1027 64.2781 49.61 65.8737C48.105 67.474 47.3449 65.6795 41.6218 66.5271C35.9109 67.37 31.6002 69.5004 31.6002 69.5004Z" fill="#D60066"/>
</g>
<g style="mix-blend-mode:multiply" opacity="0.8">
<path d="M59.5767 44.6306C57.1542 37.324 53.0049 30.5802 49.7461 29.7363C50.6771 29.827 51.5272 29.8924 52.1552 29.7175C53.3372 29.3967 54.9387 31.8152 56.565 35.3486C56.5795 35.3856 56.6036 35.4473 56.6326 35.5214C57.1198 36.5831 57.6112 37.7285 58.0899 38.9501L58.148 39.0982C60.5511 45.2309 62.7266 52.7054 63.3708 56.0543C63.4301 56.3869 63.5483 56.7249 63.7035 57.0484C64.3968 58.5275 65.9755 59.9444 67.933 61.3125C67.6831 61.1826 63.7221 59.0908 63.2975 57.8623C62.8756 56.6042 61.9793 51.9592 59.5569 44.6526L59.5767 44.6306Z" fill="#D42F55"/>
</g>
<g style="mix-blend-mode:screen" opacity="0.5">
<path d="M52.6532 67.697C51.6709 68.3097 51.7565 63.1233 55.188 60.1275C58.6196 57.1317 65.3573 59.7439 65.855 60.6876C66.3528 61.6313 61.3205 61.34 58.3818 63.0182C55.4432 64.6963 52.6409 67.7018 52.6409 67.7018L52.6532 67.697Z" fill="#FFB311"/>
</g>
<path d="M55.1369 65.4009C53.6132 66.4819 54.2683 63.293 56.45 61.9683C58.6268 60.6314 60.7401 61.853 60.2164 62.2575C59.6926 62.662 57.1299 63.9936 55.1369 65.4009Z" fill="white"/>
<path d="M31.4576 34.3117C30.1126 35.1234 34.5417 35.1814 36.104 34.5977C37.6663 34.0139 35.6013 31.7912 31.4576 34.3117Z" fill="white"/>
<path d="M42.3437 31.4124C41.342 31.9758 43.2824 32.2118 44.5051 31.3057C45.7278 30.3995 44.0535 30.4435 42.3437 31.4124Z" fill="white"/>
<g style="mix-blend-mode:screen" opacity="0.5">
<path d="M16.3083 57.5009C17.3418 58.8325 21.2305 52.4691 19.9565 50.705C18.6825 48.941 14.0755 54.6322 16.3083 57.5009Z" fill="#FFB311"/>
</g>
<g style="mix-blend-mode:multiply" opacity="0.2">
<path d="M34.3721 37.4387C33.6002 37.8266 41.5096 47.3103 43.4259 48.2105C45.3374 49.0984 38.7771 35.1859 34.3721 37.4387Z" fill="#EF7A98"/>
</g>
<g style="mix-blend-mode:multiply" opacity="0.2">
<path d="M43.6744 34.9893C42.4395 35.5017 47.1606 43.8861 48.0786 43.7257C48.9965 43.5653 45.2988 34.3101 43.6744 34.9893Z" fill="#EF7A98"/>
</g>
<g style="mix-blend-mode:multiply" opacity="0.2">
<path d="M51.1454 33.3022C50.4047 33.806 52.073 39.9135 53.7903 40.0519C55.5076 40.1903 52.222 32.5672 51.1454 33.3022Z" fill="#EF7A98"/>
</g>
<g style="mix-blend-mode:multiply" opacity="0.2">
<path d="M17.6731 59.5711C16.7194 57.6816 19.949 54.7507 21.7973 54.0264C23.6456 53.3021 32.1085 63.1098 31.839 64.8524C31.5694 66.5949 29.8872 68.9765 28.4171 68.9974C26.947 69.0183 20.3294 63.0852 17.6854 59.5663L17.6731 59.5711Z" fill="#EA4C74"/>
</g>
<g style="mix-blend-mode:multiply" opacity="0.3">
<path d="M49.9515 75.205C50.3307 79.9814 63.6049 74.6802 65.6453 70.1656C67.6856 65.6509 63.8531 63.4518 67.3805 62.6959C70.9005 61.9571 61.9541 59.9115 56.7976 64.3092C51.6411 68.7069 49.9515 75.205 49.9515 75.205Z" fill="#D60066"/>
</g>
</g>
<defs>
<linearGradient id="paint0_linear_6992_90589" x1="51.3677" y1="80.8128" x2="23.2989" y2="9.18215" gradientUnits="userSpaceOnUse">
<stop stop-color="#FFA200"/>
<stop offset="1" stop-color="#FFB82F"/>
</linearGradient>
<linearGradient id="paint1_linear_6992_90589" x1="29.464" y1="35.5054" x2="40.628" y2="31.1308" gradientUnits="userSpaceOnUse">
<stop stop-color="#FFDE00"/>
<stop offset="1" stop-color="#FFE834"/>
</linearGradient>
<linearGradient id="paint2_linear_6992_90589" x1="42.3158" y1="31.5231" x2="48.5139" y2="29.0944" gradientUnits="userSpaceOnUse">
<stop stop-color="#FFDE00"/>
<stop offset="1" stop-color="#FFE834"/>
</linearGradient>
<linearGradient id="paint3_linear_6992_90589" x1="51.5806" y1="30.8242" x2="53.5645" y2="30.0468" gradientUnits="userSpaceOnUse">
<stop stop-color="#FFDE00"/>
<stop offset="1" stop-color="#FFE834"/>
</linearGradient>
<linearGradient id="paint4_linear_6992_90589" x1="1.04037" y1="20.3958" x2="10.7873" y2="16.5765" gradientUnits="userSpaceOnUse">
<stop stop-color="#FFDE00"/>
<stop offset="1" stop-color="#FFE834"/>
</linearGradient>
<clipPath id="clip0_6992_90589">
<rect width="50" height="77" fill="white" transform="translate(0 18.2422) rotate(-21.3979)"/>
</clipPath>
</defs>
</svg>
