<svg width="75" height="90" viewBox="0 0 75 90" fill="none" xmlns="http://www.w3.org/2000/svg">
<g clip-path="url(#clip0_6992_90299)">
<path d="M17.1527 78.413C22.7717 80.6148 25.1143 79.4973 25.1001 76.958C25.0586 76.6286 25.0219 76.2869 24.9853 75.9451C24.9853 75.9451 24.995 75.9204 24.9826 75.9156C24.8819 74.7943 24.8299 73.621 24.8686 72.3978C25.2187 60.9484 37.8501 68.6879 43.0518 69.4879C45.7167 69.9058 49.2883 67.6471 52.3704 64.969C52.3704 64.969 52.3924 64.9491 52.4047 64.9539C55.328 62.427 57.8015 59.5246 58.6775 58.1597C59.2931 57.2053 58.9734 55.3007 58.3028 53.1306C57.1653 49.4679 55.0053 45.0772 54.6386 43.5101C54.5953 43.2938 54.5746 43.1291 54.601 43.0256C54.9521 41.8394 59.0741 37.3055 61.6608 37.0522C63.8889 36.8435 71.1912 28.4742 72.6679 23.1457C72.8986 22.3393 72.9797 21.5882 72.8994 20.9589C72.2855 16.1776 65.4575 14.413 63.9007 15.4115C62.3439 16.4099 59.5886 25.4365 52.5599 29.045C52.5599 29.045 47.2963 34.1707 45.6697 34.2592C44.0306 34.3429 38.9486 31.17 35.3311 32.0584C33.5347 32.5075 31.6535 30.8878 29.5111 29.9344C28.1799 29.3416 26.441 29.5712 24.9204 29.7155C24.9204 29.7155 24.9204 29.7155 24.9081 29.7107C23.9771 29.8014 23.127 29.8668 22.499 29.6919C21.317 29.3711 19.7154 31.7896 18.0892 35.323C18.0747 35.36 18.0505 35.4217 18.0215 35.4958C17.5344 36.5575 17.0429 37.7029 16.5642 38.9245L16.5062 39.0726C14.1031 45.2053 11.9275 52.6798 11.2834 56.0286C11.2241 56.3613 11.1059 56.6993 10.9507 57.0228C10.2573 58.5019 8.67871 59.9188 6.72119 61.2869C5.91135 61.8663 5.03991 62.4215 4.14382 62.9672C-1.39993 66.2323 10.8437 75.9408 17.1774 78.4227L17.1527 78.413Z" fill="url(#paint0_linear_6992_90299)"/>
<g style="mix-blend-mode:multiply" opacity="0.5">
<path d="M70.8661 19.7937C72.0861 21.7948 66.8219 28.6996 64.0001 28.7183C61.1955 28.7296 59.1252 26.3953 59.6351 23.9333C60.1449 21.4713 63.2503 16.3397 64.2688 16.0983C65.2873 15.8568 69.4646 17.4937 70.8661 19.7937Z" fill="#FF9274"/>
</g>
<path d="M68.159 25.9482C68.159 25.9482 66.5058 27.9907 64.3363 28.5213C62.1668 29.0519 58.9686 27.5282 58.6258 26.2267C58.001 23.9036 60.6663 21.0194 60.6663 21.0194C60.6663 21.0194 59.0292 23.6375 59.7462 25.3988C60.4632 27.1602 64.035 29.7981 68.1638 25.9359L68.159 25.9482Z" fill="#FFD636"/>
<g style="mix-blend-mode:multiply" opacity="0.3">
<path d="M50.1593 52.1033C50.1593 52.1033 52.0559 52.3056 52.1098 51.9139C52.1515 51.5175 55.0974 47.1917 58.2828 53.1372C56.9844 48.9417 54.3476 43.809 54.581 43.0322C52.1848 46.8617 50.1642 52.091 50.1642 52.091L50.1593 52.1033Z" fill="#D60066"/>
</g>
<g style="mix-blend-mode:multiply" opacity="0.2">
<path d="M51.9572 29.635C56.5303 26.4166 60.2251 30.9532 57.7663 35.3418C55.3075 39.7303 51.4578 39.6879 47.9447 37.3719C44.4316 35.0558 50.2201 30.8759 51.9524 29.6474L51.9572 29.635Z" fill="#EA4C74"/>
</g>
<g style="mix-blend-mode:multiply" opacity="0.8">
<path d="M24.8615 72.4093C25.2116 60.9599 37.843 68.6994 43.0447 69.4994C45.7096 69.9173 49.2812 67.6587 52.3633 64.9805C48.3489 67.9339 44.6151 70.5702 31.1226 64.9557C18.4583 59.6943 24.0836 73.7414 24.9804 75.9148C24.8796 74.7935 24.8276 73.6202 24.8663 72.397L24.8615 72.4093Z" fill="#D42F55"/>
</g>
<path d="M17.1504 78.413C22.7693 80.6148 25.1119 79.4973 25.0977 76.958C25.1055 76.6479 25.0566 76.3013 24.9829 75.9451C24.9829 75.9451 24.9926 75.9204 24.9803 75.9156C21.8777 61.2343 9.65574 59.7047 4.11683 62.9575C-1.42692 66.2226 10.8167 75.9311 17.1504 78.413Z" fill="#D84C04"/>
<g style="mix-blend-mode:multiply" opacity="0.2">
<path d="M17.2065 39.2042L17.1485 39.3523C14.7453 45.485 12.5698 52.9595 11.9256 56.3083C11.8663 56.6409 11.7481 56.9789 11.5929 57.3024C13.0791 59.0235 11.1197 55.6082 21.6639 60.6937C32.2034 65.7915 48.1759 43.639 48.1759 43.639C48.0976 40.3202 47.7039 37.2621 43.0939 36.3667C41.9445 36.1441 38.3429 35.6864 33.8329 33.9192C29.323 32.1519 27.3453 31.5763 24.5254 31.8805C21.7055 32.1847 19.2815 34.3805 18.739 35.6199C18.6058 35.9235 18.0149 37.2862 17.2188 39.209L17.2065 39.2042Z" fill="#EF7A98"/>
</g>
<path d="M45.6641 34.2715C45.6641 34.2715 41.9487 34.4668 38.7527 34.0258C35.569 33.5896 32.9868 31.9087 33.8062 32.0305C34.6255 32.1523 37.3213 31.6571 39.4248 32.3106C41.5406 32.9689 45.6641 34.2715 45.6641 34.2715Z" fill="url(#paint1_linear_6992_90299)"/>
<path d="M32.301 31.4126C33.021 31.7517 27.5883 29.8364 26.2704 29.7897C24.9402 29.7382 27.478 29.1384 28.8813 29.4748C30.2847 29.8111 32.301 31.4126 32.301 31.4126Z" fill="url(#paint2_linear_6992_90299)"/>
<path d="M23.2417 29.8263C23.9617 30.1654 22.0076 30.1825 21.0803 30.844C20.153 31.5055 21.3439 29.8086 21.9164 29.7625C22.4888 29.7163 23.2417 29.8263 23.2417 29.8263Z" fill="url(#paint3_linear_6992_90299)"/>
<path d="M72.8591 22.2247C72.5108 23.8391 71.8469 19.693 69.583 17.4536C67.3192 15.2143 64.3843 15.2315 64.3843 15.2315C64.3843 15.2315 65.9258 14.526 69.4105 16.2615C72.9076 18.002 73.062 21.3079 72.8591 22.2247Z" fill="url(#paint4_linear_6992_90299)"/>
<g style="mix-blend-mode:soft-light">
<path d="M64.3203 27.9032C66.2533 28.0486 62.5365 22.4073 60.3485 23.8558C58.1604 25.3044 60.7174 27.6301 64.3203 27.9032Z" fill="white"/>
</g>
<path d="M70.8281 21.1299C70.8281 21.1299 69.258 18.6072 67.3131 17.4039C65.3683 16.2005 63.3766 16.8577 63.3766 16.8577C63.3766 16.8577 63.884 15.8893 64.4018 15.7649C65.786 15.4247 70.5952 18.6046 71.0184 19.4109C71.4416 20.2173 70.8281 21.1299 70.8281 21.1299Z" fill="#FFE7DB"/>
<g style="mix-blend-mode:multiply" opacity="0.5">
<path d="M71.1265 20.4772C71.1265 20.4772 69.6043 25.6313 65.4195 26.9522C61.4013 28.2102 59.4162 25.3684 59.655 23.9247C59.8815 22.4761 61.8087 19.1177 61.8087 19.1177C61.8087 19.1177 59.2819 22.8817 59.3987 24.5787C59.5156 26.2756 62.0655 28.6555 64.6358 28.1539C67.2062 27.6523 70.5149 23.9242 71.1265 20.4772Z" fill="#D42774"/>
</g>
<g style="mix-blend-mode:screen" opacity="0.5">
<path d="M59.8484 30.1789C60.0242 31.8705 57.2238 29.1504 55.7698 28.5807C54.3034 28.0061 56.101 26.248 58.3205 27.3312C60.5399 28.4144 59.8607 30.1837 59.8607 30.1837L59.8484 30.1789Z" fill="#FFB311"/>
</g>
<g style="mix-blend-mode:multiply" opacity="0.8">
<path d="M50.1592 52.1047C50.5429 52.1412 52.1294 52.6632 52.1097 51.9153C52.0852 51.1798 51.2732 50.6766 51.4665 49.7844C51.6597 48.8922 53.1986 44.7836 55.3246 45.4886C55.2813 45.2724 54.5545 43.1371 54.5932 43.0384C54.9443 41.8522 59.0663 37.3183 61.653 37.065C63.886 36.844 71.1882 28.4746 72.665 23.1461C72.5204 22.4632 67.135 33.3772 62.8423 35.8799C58.5572 38.3999 56.1356 39.1021 54.1483 41.9246C52.1562 44.7595 49.7707 52.0806 50.1544 52.117L50.1592 52.1047Z" fill="#D42F55"/>
</g>
<g style="mix-blend-mode:multiply" opacity="0.3">
<path d="M43.0443 69.5004C46.0085 69.082 42.1247 63.8307 34.8457 61.8752C27.579 59.9244 23.5418 64.2781 25.0345 65.8737C26.5396 67.474 27.2996 65.6795 33.0228 66.5271C38.7336 67.37 43.0443 69.5004 43.0443 69.5004Z" fill="#D60066"/>
</g>
<g style="mix-blend-mode:multiply" opacity="0.8">
<path d="M15.0678 44.6306C17.4903 37.324 21.6396 30.5802 24.8984 29.7363C23.9674 29.827 23.1173 29.8924 22.4894 29.7175C21.3074 29.3967 19.7058 31.8152 18.0796 35.3486C18.0651 35.3856 18.0409 35.4473 18.0119 35.5214C17.5248 36.5831 17.0333 37.7285 16.5546 38.9501L16.4966 39.0982C14.0934 45.2309 11.9179 52.7054 11.2737 56.0543C11.2144 56.3869 11.0962 56.7249 10.941 57.0484C10.2477 58.5275 8.66906 59.9444 6.71155 61.3125C6.96142 61.1826 10.9225 59.0908 11.347 57.8623C11.7689 56.6042 12.6652 51.9592 15.0876 44.6526L15.0678 44.6306Z" fill="#D42F55"/>
</g>
<g style="mix-blend-mode:screen" opacity="0.5">
<path d="M21.9913 67.697C22.9737 68.3097 22.888 63.1233 19.4565 60.1275C16.025 57.1317 9.28721 59.7439 8.78949 60.6876C8.29176 61.6313 13.3241 61.34 16.2627 63.0182C19.2013 64.6963 22.0036 67.7018 22.0036 67.7018L21.9913 67.697Z" fill="#FFB311"/>
</g>
<path d="M19.5076 65.4009C21.0313 66.4819 20.3762 63.293 18.1946 61.9683C16.0177 60.6314 13.9044 61.853 14.4282 62.2575C14.9519 62.662 17.5147 63.9936 19.5076 65.4009Z" fill="white"/>
<path d="M43.1869 34.3117C44.5319 35.1234 40.1028 35.1814 38.5405 34.5977C36.9782 34.0139 39.0432 31.7912 43.1869 34.3117Z" fill="white"/>
<path d="M32.3008 31.4124C33.3025 31.9758 31.3622 32.2118 30.1395 31.3057C28.9168 30.3995 30.591 30.4435 32.3008 31.4124Z" fill="white"/>
<g style="mix-blend-mode:screen" opacity="0.5">
<path d="M58.3362 57.5009C57.3027 58.8325 53.414 52.4691 54.688 50.705C55.962 48.941 60.569 54.6322 58.3362 57.5009Z" fill="#FFB311"/>
</g>
<g style="mix-blend-mode:multiply" opacity="0.2">
<path d="M40.2724 37.4387C41.0444 37.8266 33.1349 47.3103 31.2186 48.2105C29.3071 49.0984 35.8675 35.1859 40.2724 37.4387Z" fill="#EF7A98"/>
</g>
<g style="mix-blend-mode:multiply" opacity="0.2">
<path d="M30.9701 34.9893C32.205 35.5017 27.4839 43.8861 26.566 43.7257C25.648 43.5653 29.3458 34.3101 30.9701 34.9893Z" fill="#EF7A98"/>
</g>
<g style="mix-blend-mode:multiply" opacity="0.2">
<path d="M23.4991 33.3022C24.2398 33.806 22.5715 39.9135 20.8542 40.0519C19.1369 40.1903 22.4225 32.5672 23.4991 33.3022Z" fill="#EF7A98"/>
</g>
<g style="mix-blend-mode:multiply" opacity="0.2">
<path d="M56.9715 59.5711C57.9251 57.6816 54.6956 54.7507 52.8472 54.0264C50.9989 53.3021 42.536 63.1098 42.8056 64.8524C43.0751 66.5949 44.7573 68.9765 46.2274 68.9974C47.6975 69.0183 54.3152 63.0852 56.9591 59.5663L56.9715 59.5711Z" fill="#EA4C74"/>
</g>
<g style="mix-blend-mode:multiply" opacity="0.3">
<path d="M24.693 75.205C24.3138 79.9814 11.0396 74.6802 8.99928 70.1656C6.95892 65.6509 10.7914 63.4518 7.264 62.6959C3.74405 61.9571 12.6905 59.9115 17.8469 64.3092C23.0034 68.7069 24.693 75.205 24.693 75.205Z" fill="#D60066"/>
</g>
</g>
<defs>
<linearGradient id="paint0_linear_6992_90299" x1="23.2769" y1="80.8128" x2="51.3456" y2="9.18215" gradientUnits="userSpaceOnUse">
<stop stop-color="#FFA200"/>
<stop offset="1" stop-color="#FFB82F"/>
</linearGradient>
<linearGradient id="paint1_linear_6992_90299" x1="45.1805" y1="35.5054" x2="34.0166" y2="31.1308" gradientUnits="userSpaceOnUse">
<stop stop-color="#FFDE00"/>
<stop offset="1" stop-color="#FFE834"/>
</linearGradient>
<linearGradient id="paint2_linear_6992_90299" x1="32.3288" y1="31.5231" x2="26.1307" y2="29.0944" gradientUnits="userSpaceOnUse">
<stop stop-color="#FFDE00"/>
<stop offset="1" stop-color="#FFE834"/>
</linearGradient>
<linearGradient id="paint3_linear_6992_90299" x1="23.0639" y1="30.8242" x2="21.08" y2="30.0468" gradientUnits="userSpaceOnUse">
<stop stop-color="#FFDE00"/>
<stop offset="1" stop-color="#FFE834"/>
</linearGradient>
<linearGradient id="paint4_linear_6992_90299" x1="73.6042" y1="20.3958" x2="63.8573" y2="16.5765" gradientUnits="userSpaceOnUse">
<stop stop-color="#FFDE00"/>
<stop offset="1" stop-color="#FFE834"/>
</linearGradient>
<clipPath id="clip0_6992_90299">
<rect width="50" height="77" fill="white" transform="matrix(-0.931069 -0.364843 -0.364843 0.931069 74.6445 18.2422)"/>
</clipPath>
</defs>
</svg>
