<svg width="20" height="20" viewBox="0 0 20 20" fill="none" xmlns="http://www.w3.org/2000/svg">
<g clip-path="url(#clip0_6992_86209)">
<path d="M14.752 19.9996C14.5945 19.9996 14.4337 19.9796 14.2745 19.9379L1.38784 16.4871C0.393676 16.2129 -0.198824 15.1846 0.0611761 14.1912L1.47784 8.75874C1.56451 8.42541 1.90534 8.22291 2.24034 8.31207C2.57368 8.39874 2.77451 8.74041 2.68701 9.07457L1.27034 14.5079C1.18284 14.8429 1.38201 15.1887 1.71534 15.2804L14.5945 18.7296C14.9253 18.8171 15.267 18.6204 15.3537 18.2912L15.7937 16.5162C15.877 16.1812 16.2153 15.9779 16.5503 16.0596C16.8853 16.1429 17.0895 16.4812 17.007 16.8162L16.5653 18.5996C16.3428 19.4437 15.5828 19.9996 14.752 19.9996Z" fill="#262626"/>
<path d="M18.1276 15.0003H5.21094C4.17677 15.0003 3.33594 14.1595 3.33594 13.1253V3.54199C3.33594 2.50783 4.17677 1.66699 5.21094 1.66699H18.1276C19.1618 1.66699 20.0026 2.50783 20.0026 3.54199V13.1253C20.0026 14.1595 19.1618 15.0003 18.1276 15.0003ZM5.21094 2.91699C4.86594 2.91699 4.58594 3.19699 4.58594 3.54199V13.1253C4.58594 13.4703 4.86594 13.7503 5.21094 13.7503H18.1276C18.4726 13.7503 18.7526 13.4703 18.7526 13.1253V3.54199C18.7526 3.19699 18.4726 2.91699 18.1276 2.91699H5.21094Z" fill="#262626"/>
<path d="M7.5026 7.50033C6.58344 7.50033 5.83594 6.75283 5.83594 5.83366C5.83594 4.91449 6.58344 4.16699 7.5026 4.16699C8.42177 4.16699 9.16927 4.91449 9.16927 5.83366C9.16927 6.75283 8.42177 7.50033 7.5026 7.50033ZM7.5026 5.41699C7.2726 5.41699 7.08594 5.60366 7.08594 5.83366C7.08594 6.06366 7.2726 6.25033 7.5026 6.25033C7.7326 6.25033 7.91927 6.06366 7.91927 5.83366C7.91927 5.60366 7.7326 5.41699 7.5026 5.41699Z" fill="#262626"/>
<path d="M3.97635 14.1497C3.81635 14.1497 3.65635 14.0889 3.53469 13.9664C3.29052 13.7222 3.29052 13.3264 3.53469 13.0822L7.30135 9.31555C7.87135 8.74555 8.79885 8.74555 9.36802 9.31555L10.3755 10.323L13.4705 6.60805C13.7472 6.27638 14.153 6.08471 14.5839 6.08221C15.0472 6.05638 15.4222 6.26721 15.7014 6.59471L19.8497 11.4347C20.0747 11.6964 20.0439 12.0914 19.7822 12.3164C19.5197 12.5414 19.1255 12.5105 18.9005 12.2489L14.7505 7.40721C14.6955 7.34138 14.628 7.34471 14.5905 7.33305C14.5547 7.33305 14.4855 7.34388 14.4305 7.40888L10.8972 11.6505C10.7847 11.7855 10.6205 11.8672 10.4455 11.8747C10.2672 11.8847 10.0989 11.8164 9.97552 11.6922L8.48385 10.2005C8.37802 10.0947 8.29052 10.0947 8.18469 10.2005L4.41802 13.9664C4.29635 14.0889 4.13635 14.1497 3.97635 14.1497Z" fill="#262626"/>
</g>
<defs>
<clipPath id="clip0_6992_86209">
<rect width="20" height="20" fill="white"/>
</clipPath>
</defs>
</svg>
