<svg width="38" height="48" viewBox="0 0 38 48" fill="none" xmlns="http://www.w3.org/2000/svg">
<path d="M37.432 39.6599C37.432 39.6599 37.6609 40.7257 35.5156 42.4899C33.4416 44.1969 32.3695 43.8245 32.3695 43.8245L21.0831 28.7861L24.8632 25.6758L37.4317 39.6587L37.432 39.6599Z" fill="url(#paint0_linear_9816_64807)"/>
<path style="mix-blend-mode:multiply" opacity="0.57" d="M37.4344 39.6573C37.4344 39.6573 37.6633 40.723 35.518 42.4873C33.4441 44.1943 32.3719 43.8219 32.3719 43.8219L22.715 30.9531L26.8717 27.8858C26.8717 27.8858 24.0689 31.5106 29.7443 38.8369C33.9526 44.2702 37.4341 39.6561 37.4341 39.6561L37.4344 39.6573Z" fill="url(#paint1_linear_9816_64807)"/>
<path d="M26.7932 24.8326C30.3992 18.8313 28.4573 11.043 22.456 7.43704C16.4547 3.83107 8.6664 5.7729 5.06043 11.7742C1.45447 17.7756 3.3963 25.5638 9.39764 29.1698C15.399 32.7758 23.1872 30.8339 26.7932 24.8326Z" fill="url(#paint2_linear_9816_64807)"/>
<path d="M26.2854 24.2135C29.8914 18.2121 27.9495 10.4239 21.9482 6.8179C15.9469 3.21193 8.15859 5.15376 4.55262 11.1551C0.946653 17.1564 2.88848 24.9447 8.88982 28.5507C14.8912 32.1566 22.6794 30.2148 26.2854 24.2135Z" fill="url(#paint3_linear_9816_64807)"/>
<path d="M23.5961 22.6078C26.3102 18.0908 24.8487 12.2288 20.3317 9.51473C15.8146 6.80062 9.95264 8.26218 7.23854 12.7792C4.52443 17.2962 5.98599 23.1582 10.503 25.8723C15.02 28.5864 20.882 27.1249 23.5961 22.6078Z" fill="#230067"/>
<path d="M23.3573 22.5579C25.9362 18.2658 24.5474 12.6957 20.2553 10.1167C15.9632 7.53778 10.3931 8.92657 7.81415 13.2187C5.23519 17.5108 6.62398 23.0809 10.9161 25.6599C15.2082 28.2388 20.7783 26.85 23.3573 22.5579Z" fill="url(#paint4_radial_9816_64807)"/>
<g style="mix-blend-mode:color-dodge" opacity="0.41">
<path d="M9.82562 10.8889C5.95939 14.0707 5.4041 19.7835 8.58626 23.651C11.7681 27.5172 17.4809 28.0725 21.3484 24.8903C25.2146 21.7085 25.7699 15.9957 22.5877 12.1282C19.4059 8.26198 13.6931 7.70669 9.82562 10.8889ZM18.1314 22.7256C15.2656 25.0841 11.1122 24.7705 8.85399 22.0271C6.59574 19.2837 7.0887 15.1475 9.95451 12.789C12.8203 10.4304 16.9737 10.7441 19.2319 13.4875C21.4902 16.2309 20.9972 20.367 18.1314 22.7256Z" fill="#3378D2"/>
</g>
<path style="mix-blend-mode:multiply" d="M9.82562 10.8889C5.95939 14.0707 5.4041 19.7835 8.58626 23.651C11.7681 27.5172 17.4809 28.0725 21.3484 24.8903C25.2146 21.7085 25.7699 15.9957 22.5877 12.1282C19.4059 8.26198 13.6931 7.70669 9.82562 10.8889ZM20.6943 24.1834C16.9428 27.2708 11.5046 26.8616 8.54871 23.2681C5.59312 19.6758 6.23712 14.2608 9.98868 11.1733C13.7402 8.08586 19.1784 8.49508 22.1343 12.0886C25.0899 15.6808 24.4459 21.0959 20.6943 24.1834Z" fill="url(#paint5_radial_9816_64807)"/>
<path opacity="0.4" d="M12.7796 8.52649L11.8351 5.52528C11.8351 5.52528 14.3687 4.47898 17.8728 5.25063C21.3769 6.02228 23.4108 7.84494 23.4108 7.84494L21.2052 10.1007C21.2052 10.1007 19.8081 8.73662 17.1126 8.30435C14.4155 7.87115 12.7796 8.52649 12.7796 8.52649Z" fill="white"/>
<path opacity="0.4" d="M22.1968 10.9136L24.6172 8.92274L25.8887 10.5485L23.1832 12.1142L22.1968 10.9136Z" fill="white"/>
<path opacity="0.4" d="M10.6223 25.9431C10.6223 25.9431 12.9056 27.3613 16.4725 27.1762C19.9252 26.9972 22.4196 24.1784 22.4196 24.1784C22.4196 24.1784 20.2161 27.3932 16.3625 27.7433C12.837 28.0629 10.6211 25.9434 10.6211 25.9434L10.6223 25.9431Z" fill="white"/>
<path opacity="0.5" d="M6.02854 9.16643C6.02854 9.16643 1.95753 13.38 2.81784 19.0847C4.00634 26.9663 10.3084 29.2885 10.3084 29.2885C10.3084 29.2885 4.48341 25.9233 3.3159 19.6094C2.21538 13.6592 6.02854 9.16643 6.02854 9.16643Z" fill="white"/>
<path d="M4.21746 19.9572C4.46583 21.0326 4.43736 21.9584 4.15358 22.0239C3.86981 22.0894 3.4379 21.2704 3.18954 20.1951C2.94118 19.1198 2.96964 18.1939 3.25342 18.1284C3.5372 18.063 3.9691 18.8819 4.21746 19.9572Z" fill="white"/>
<path opacity="0.2" d="M16.6826 10.388C16.7709 11.3493 19.1746 11.9096 20.4183 14.7177C20.955 15.9304 20.9231 17.8298 22.2437 17.1452C23.1271 16.6867 23.8752 15.2313 22.3354 12.7826C20.3921 9.69219 16.5715 9.17712 16.6838 10.3877L16.6826 10.388Z" fill="white"/>
<path opacity="0.2" d="M13.6226 26.6669C16.0715 27.2134 18.2634 26.6445 18.7288 26.3942C19.193 26.1442 19.4389 23.324 15.6673 22.3189C11.0301 21.0835 9.44398 25.7344 13.6239 26.6666L13.6226 26.6669Z" fill="url(#paint6_linear_9816_64807)"/>
<path d="M18.3414 25.8461C19.3411 25.3898 19.7817 24.2095 19.3255 23.2098C18.8692 22.21 17.6889 21.7694 16.6891 22.2256C15.6894 22.6819 15.2488 23.8622 15.705 24.862C16.1613 25.8617 17.3416 26.3023 18.3414 25.8461Z" fill="white"/>
<path d="M25.614 26.3415L21.6655 29.5709C21.3778 29.8063 21.3353 30.2303 21.5707 30.5181L21.983 31.0222C22.2184 31.31 22.6424 31.3525 22.9301 31.1171L26.8786 27.8876C27.1664 27.6523 27.2088 27.2283 26.9735 26.9405L26.5611 26.4363C26.3258 26.1486 25.9017 26.1061 25.614 26.3415Z" fill="url(#paint7_linear_9816_64807)"/>
<path style="mix-blend-mode:multiply" d="M23.8641 28.0626C22.1519 29.2463 21.3739 30.592 22.8678 31.162C22.6992 31.3567 22.2092 31.3078 21.9724 31.018L21.5657 30.5218C21.3289 30.2321 21.3437 29.8269 21.6019 29.6164L25.6612 26.2956C25.9181 26.0855 26.3198 26.1498 26.5566 26.4396L26.9633 26.9358C25.9772 26.2274 24.703 27.4836 23.8641 28.0626Z" fill="url(#paint8_linear_9816_64807)"/>
<path opacity="0.5" d="M23.9399 30.2846C23.9399 30.2846 26.8442 27.927 26.9291 27.84C27.014 27.753 27.266 27.4861 27.0362 27.0393C27.1814 27.5322 26.6741 27.9207 26.1036 28.3406C25.0564 29.1085 23.9402 30.2858 23.9402 30.2858L23.9399 30.2846Z" fill="white"/>
<path opacity="0.4" d="M26.3977 27.3239C26.6438 27.6245 26.2413 28.3593 25.4999 28.9654C24.7586 29.5714 23.9584 29.8196 23.7126 29.5203C23.4665 29.2196 23.8691 28.4848 24.6104 27.8788C25.3517 27.2728 26.152 27.0245 26.3977 27.3239Z" fill="white"/>
<path d="M26.4638 27.4583C26.6569 27.6944 26.4674 28.1695 26.0387 28.5198C25.6101 28.8702 25.1067 28.9628 24.9133 28.7254C24.7201 28.4893 24.9097 28.0142 25.3383 27.6638C25.7669 27.3135 26.2703 27.2209 26.4638 27.4583Z" fill="white"/>
<path opacity="0.2" d="M31.2587 37.6851C32.955 39.6261 34.8156 40.7747 35.4144 40.2516C36.0131 39.7284 35.1242 37.7309 33.4279 35.7898C31.7317 33.8487 29.8711 32.7002 29.2723 33.2233C28.6735 33.7464 29.5625 35.744 31.2587 37.6851Z" fill="white"/>
<path opacity="0.5" d="M33.2692 39.4727C33.9969 40.3061 34.9247 40.6856 35.3418 40.3209C35.759 39.9563 35.5065 38.986 34.7791 38.1538C34.0514 37.3204 33.1236 36.941 32.7065 37.3056C32.2893 37.6703 32.5417 38.6406 33.2692 39.4727Z" fill="white"/>
<defs>
<linearGradient id="paint0_linear_9816_64807" x1="26.7104" y1="36.9447" x2="31.7716" y2="32.78" gradientUnits="userSpaceOnUse">
<stop stop-color="#616672"/>
<stop offset="0.08" stop-color="#5A586A"/>
<stop offset="0.2" stop-color="#534961"/>
<stop offset="0.3" stop-color="#51445E"/>
<stop offset="0.52" stop-color="#64586C"/>
<stop offset="0.87" stop-color="#807581"/>
</linearGradient>
<linearGradient id="paint1_linear_9816_64807" x1="17.5837" y1="46.209" x2="17.6823" y2="46.1279" gradientUnits="userSpaceOnUse">
<stop stop-color="#616672"/>
<stop offset="0.08" stop-color="#5A586A"/>
<stop offset="0.2" stop-color="#534961"/>
<stop offset="0.3" stop-color="#51445E"/>
<stop offset="0.52" stop-color="#64586C"/>
<stop offset="0.87" stop-color="#807581"/>
</linearGradient>
<linearGradient id="paint2_linear_9816_64807" x1="27.2561" y1="23.5257" x2="7.69982" y2="14.5091" gradientUnits="userSpaceOnUse">
<stop stop-color="#8A79A1"/>
<stop offset="0.52" stop-color="#A497B2"/>
<stop offset="1" stop-color="#C1B7C4"/>
</linearGradient>
<linearGradient id="paint3_linear_9816_64807" x1="26.75" y1="22.9088" x2="7.19367" y2="13.8922" gradientUnits="userSpaceOnUse">
<stop stop-color="#B9C2D9"/>
<stop offset="0.25" stop-color="#AB8EC5"/>
<stop offset="0.4" stop-color="#C5ACD4"/>
<stop offset="0.56" stop-color="#E6D2E8"/>
<stop offset="1" stop-color="#A9A9D9"/>
</linearGradient>
<radialGradient id="paint4_radial_9816_64807" cx="0" cy="0" r="1" gradientUnits="userSpaceOnUse" gradientTransform="translate(9.53794 16.2064) rotate(-39.45) scale(15.6899 15.6899)">
<stop stop-color="#3E23BE"/>
<stop offset="0.39" stop-color="#3A41C5"/>
<stop offset="1" stop-color="#3378D2"/>
</radialGradient>
<radialGradient id="paint5_radial_9816_64807" cx="0" cy="0" r="1" gradientUnits="userSpaceOnUse" gradientTransform="translate(15.5856 17.8889) rotate(-39.45) scale(9.06656)">
<stop stop-color="#3E23BE"/>
<stop offset="0.39" stop-color="#3A41C5"/>
<stop offset="1" stop-color="#3378D2"/>
</radialGradient>
<linearGradient id="paint6_linear_9816_64807" x1="11.4078" y1="25.0247" x2="18.5523" y2="24.0385" gradientUnits="userSpaceOnUse">
<stop stop-color="#FF9EFF"/>
<stop offset="0.35" stop-color="#FFBCFF"/>
<stop offset="1" stop-color="white"/>
</linearGradient>
<linearGradient id="paint7_linear_9816_64807" x1="27.4874" y1="26.0964" x2="20.3697" y2="31.9222" gradientUnits="userSpaceOnUse">
<stop offset="0.13" stop-color="#F3CB46"/>
<stop offset="0.53" stop-color="#E6AE35"/>
<stop offset="0.7" stop-color="#E0A12D"/>
<stop offset="0.75" stop-color="#E09B2D"/>
<stop offset="0.82" stop-color="#E08C2E"/>
<stop offset="0.9" stop-color="#E07231"/>
<stop offset="0.99" stop-color="#E04F34"/>
<stop offset="1" stop-color="#E04935"/>
</linearGradient>
<linearGradient id="paint8_linear_9816_64807" x1="27.4814" y1="26.0972" x2="20.3637" y2="31.923" gradientUnits="userSpaceOnUse">
<stop stop-color="#E04935"/>
<stop offset="0.01" stop-color="#E04F34"/>
<stop offset="0.1" stop-color="#E07231"/>
<stop offset="0.18" stop-color="#E08C2E"/>
<stop offset="0.25" stop-color="#E09B2D"/>
<stop offset="0.3" stop-color="#E0A12D"/>
<stop offset="0.47" stop-color="#E6AE35"/>
<stop offset="0.87" stop-color="#F3CB46"/>
</linearGradient>
</defs>
</svg>
