<svg width="184" height="181" viewBox="0 0 184 181" fill="none" xmlns="http://www.w3.org/2000/svg">
<rect x="2.5957" y="1" width="178.32" height="178.319" rx="89.1596" fill="#F5BEB1" fill-opacity="0.08"/>
<rect x="13.5957" y="13" width="155.77" height="155.766" rx="77.883" fill="#ED8F78" fill-opacity="0.12"/>
<rect x="25.5957" y="24" width="132.09" height="132.085" rx="66.0426" fill="#FFAB97" fill-opacity="0.16"/>
<rect x="40.998" y="38" width="101" height="102" rx="50.5" fill="white"/>
<rect x="40" y="38" width="102" height="102" rx="51" fill="#FB5933"/>
<path d="M109.103 86.1344V76.8666C109.103 67.0014 101.113 59.0107 91.2474 59.0107C81.3821 59.0107 73.3915 67.0014 73.3915 76.8666V86.1344C70.2866 86.1695 67.8027 88.7003 67.791 91.8051V113.34C67.791 116.468 70.3335 119.011 73.4618 119.011H109.021C112.15 119.011 114.692 116.468 114.692 113.34V91.8051C114.692 88.7003 112.208 86.1695 109.103 86.1344ZM91.2474 65.818C97.3516 65.8297 102.296 70.7741 102.296 76.8666V86.1344H80.1987V76.8666C80.1987 70.7624 85.1431 65.818 91.2474 65.818ZM93.4735 102.783V107.154C93.4735 108.384 92.4776 109.38 91.2474 109.38C90.0171 109.38 89.0212 108.384 89.0212 107.154V102.783C86.9357 101.553 86.2444 98.8701 87.4747 96.7846C88.7049 94.6991 91.388 94.0078 93.4735 95.238C95.559 96.4683 96.2503 99.1513 95.0201 101.237C94.6451 101.87 94.1179 102.409 93.4735 102.783Z" fill="white"/>
</svg>
