<svg width="48" height="61" viewBox="0 0 48 61" fill="none" xmlns="http://www.w3.org/2000/svg">
<path d="M42.1033 27.1344V17.8666C42.1033 8.00137 34.1126 0.0107422 24.2474 0.0107422C14.3821 0.0107422 6.39148 8.00137 6.39148 17.8666V27.1344C3.28662 27.1695 0.802732 29.7003 0.791016 32.8051V54.34C0.791016 57.4683 3.33349 60.0107 6.46178 60.0107H42.0212C45.1495 60.0107 47.692 57.4683 47.692 54.34V32.8051C47.692 29.7003 45.2081 27.1695 42.1033 27.1344ZM24.2474 6.81801C30.3516 6.82972 35.296 11.7741 35.296 17.8666V27.1344H13.1987V17.8666C13.1987 11.7624 18.1431 6.81801 24.2474 6.81801ZM26.4735 43.7834V48.1537C26.4735 49.3839 25.4776 50.3798 24.2474 50.3798C23.0171 50.3798 22.0212 49.3839 22.0212 48.1537V43.7834C19.9357 42.5532 19.2444 39.8701 20.4747 37.7846C21.7049 35.6991 24.388 35.0078 26.4735 36.238C28.559 37.4683 29.2503 40.1513 28.0201 42.2369C27.6451 42.8696 27.1179 43.4085 26.4735 43.7834Z" fill="white"/>
</svg>
