<svg width="20" height="21" viewBox="0 0 20 21" fill="none" xmlns="http://www.w3.org/2000/svg">
<path fill-rule="evenodd" clip-rule="evenodd" d="M17.2559 9.55919C17.5813 9.8846 17.5813 10.4123 17.2559 10.7377L14.7559 13.2377C14.4305 13.5631 13.9028 13.5631 13.5774 13.2377C13.252 12.9123 13.252 12.3846 13.5774 12.0592L14.6548 10.9818H8.33333C7.87309 10.9818 7.5 10.6087 7.5 10.1484C7.5 9.68819 7.87309 9.3151 8.33333 9.3151H14.6548L13.5774 8.2377C13.252 7.91225 13.252 7.38462 13.5774 7.05918C13.9028 6.73375 14.4305 6.73375 14.7559 7.05918L17.2559 9.55919ZM10.8333 5.14844C10.8333 4.6882 10.4602 4.3151 10 4.3151H5C4.53976 4.3151 4.16667 4.6882 4.16667 5.14844V15.1484C4.16667 15.6087 4.53977 15.9818 5 15.9818H10C10.4602 15.9818 10.8333 15.6087 10.8333 15.1484V14.3151C10.8333 13.8549 11.2064 13.4818 11.6667 13.4818C12.1269 13.4818 12.5 13.8549 12.5 14.3151V15.1484C12.5 16.5292 11.3807 17.6484 10 17.6484H5C3.61929 17.6484 2.5 16.5292 2.5 15.1484V5.14844C2.5 3.76773 3.61929 2.64844 5 2.64844H10C11.3807 2.64844 12.5 3.76773 12.5 5.14844V5.98177C12.5 6.442 12.1269 6.8151 11.6667 6.8151C11.2064 6.8151 10.8333 6.442 10.8333 5.98177V5.14844Z" fill="#DE1135"/>
</svg>
