<svg width="185" height="185" viewBox="0 0 185 185" fill="none" xmlns="http://www.w3.org/2000/svg">
<g clip-path="url(#clip0_6992_95062)">
<rect x="3.5" y="4" width="178.32" height="178.319" rx="89.1596" fill="#F5BEB1" fill-opacity="0.08"/>
<rect x="14.5" y="15" width="155.77" height="155.766" rx="77.883" fill="#ED8F78" fill-opacity="0.12"/>
<rect x="26.5" y="27" width="132.09" height="132.085" rx="66.0426" fill="#FFAB97" fill-opacity="0.16"/>
</g>
<rect x="42.5" y="41" width="102" height="102" rx="51" fill="#FB5933"/>
<path fill-rule="evenodd" clip-rule="evenodd" d="M116.719 90.1144C117.76 91.1557 117.76 92.8443 116.719 93.8856L108.719 101.886C107.678 102.927 105.989 102.927 104.948 101.886C103.906 100.844 103.906 99.1557 104.948 98.1144L108.395 94.6667H88.1667C86.6939 94.6667 85.5 93.4728 85.5 92C85.5 90.5272 86.6939 89.3333 88.1667 89.3333H108.395L104.948 85.8856C103.906 84.8442 103.906 83.1558 104.948 82.1144C105.989 81.073 107.678 81.073 108.719 82.1144L116.719 90.1144ZM96.1667 76C96.1667 74.5273 94.9728 73.3333 93.5 73.3333H77.5C76.0272 73.3333 74.8333 74.5273 74.8333 76V108C74.8333 109.473 76.0273 110.667 77.5 110.667H93.5C94.9728 110.667 96.1667 109.473 96.1667 108V105.333C96.1667 103.861 97.3605 102.667 98.8333 102.667C100.306 102.667 101.5 103.861 101.5 105.333V108C101.5 112.418 97.9184 116 93.5 116H77.5C73.0817 116 69.5 112.418 69.5 108V76C69.5 71.5817 73.0817 68 77.5 68H93.5C97.9184 68 101.5 71.5817 101.5 76V78.6667C101.5 80.1394 100.306 81.3333 98.8333 81.3333C97.3605 81.3333 96.1667 80.1394 96.1667 78.6667V76Z" fill="white"/>
<defs>
<clipPath id="clip0_6992_95062">
<rect width="178.32" height="178.319" fill="white" transform="translate(3.5 4)"/>
</clipPath>
</defs>
</svg>
