<svg width="25" height="24" viewBox="0 0 25 24" fill="none" xmlns="http://www.w3.org/2000/svg">
<mask id="mask0_9052_50434" style="mask-type:luminance" maskUnits="userSpaceOnUse" x="0" y="0" width="25" height="24">
<path d="M24.4766 23.9766V0.0234394H0.523437V23.9766H24.4766Z" fill="white"/>
<path d="M24.4766 23.9766V0.0234394H0.523437V23.9766H24.4766Z" stroke="white" stroke-width="0.046875"/>
</mask>
<g mask="url(#mask0_9052_50434)">
<path d="M14.5586 20.0615C14.5586 20.0615 8.87333 20.0615 5.23047 20.0615C3.00409 20.0615 1.19922 18.2566 1.19922 16.0303C1.19922 13.8039 3.00409 11.999 5.23047 11.999H19.7617C21.9881 11.999 23.793 10.1941 23.793 7.96777C23.793 5.7414 21.9881 3.93652 19.7617 3.93652H11.1367" stroke="#A6A6A6" stroke-width="1.40625" stroke-miterlimit="10" stroke-linecap="round"/>
<path d="M20.4891 23.0381C20.4891 23.0381 17.1797 19.9769 17.1797 17.988C17.1797 15.9483 18.8895 14.7646 20.4891 14.7646C22.0886 14.7646 23.7985 15.9483 23.7985 17.988C23.7985 19.9769 20.4891 23.0381 20.4891 23.0381Z" stroke="#A6A6A6" stroke-width="1.40625" stroke-miterlimit="10"/>
<rect x="19.5117" y="17.0029" width="2" height="2" rx="1" fill="#A6A6A6"/>
<path d="M4.50859 8.99902C4.50859 8.99902 1.19922 5.93785 1.19922 3.94895C1.19922 1.90923 2.90908 0.725586 4.50859 0.725586C6.10816 0.725586 7.81801 1.90923 7.81801 3.94895C7.81801 5.93785 4.50859 8.99902 4.50859 8.99902Z" stroke="#A6A6A6" stroke-width="1.40625" stroke-miterlimit="10"/>
</g>
<rect x="3.51562" y="3.00391" width="2" height="2" rx="1" fill="#A6A6A6"/>
</svg>
