<svg width="24" height="24" viewBox="0 0 24 24" fill="none" xmlns="http://www.w3.org/2000/svg">
<path fill-rule="evenodd" clip-rule="evenodd" d="M15.1176 8.26326V8.4093C15.1176 8.87721 15.3985 9.30047 15.831 9.48186C16.2636 9.66233 16.7622 9.56651 17.0962 9.23721L18.0859 8.26326H20.3734C20.805 8.26326 21.2189 8.09209 21.5241 7.78698C21.8301 7.48186 22.0013 7.06698 22.0013 6.63535V3.62791C22.0013 2.7293 21.2729 2 20.3734 2H14.792C14.3603 2 13.9464 2.17116 13.6413 2.47721C13.3352 2.78233 13.1641 3.19628 13.1641 3.62791V6.63535C13.1641 7.06698 13.3352 7.48186 13.6413 7.78698C13.9464 8.09209 14.3603 8.26326 14.792 8.26326H15.1176Z" fill="#FB5933"/>
<path fill-rule="evenodd" clip-rule="evenodd" d="M6.88517 22.0008H17.1177C17.5028 22.0008 17.8154 21.6883 17.8154 21.3031C17.8154 20.918 17.5028 20.6055 17.1177 20.6055H6.88517C6.50006 20.6055 6.1875 20.918 6.1875 21.3031C6.1875 21.6883 6.50006 22.0008 6.88517 22.0008Z" fill="#FB5933"/>
<path fill-rule="evenodd" clip-rule="evenodd" d="M12.3293 2.92969H4.55814C3.88 2.92969 3.22884 3.19945 2.74884 3.67852C2.26977 4.15852 2 4.80969 2 5.48783V15.7204C2 16.3985 2.26977 17.0497 2.74884 17.5297C3.22884 18.0088 3.88 18.2785 4.55814 18.2785H19.4419C20.12 18.2785 20.7712 18.0088 21.2512 17.5297C21.7302 17.0497 22 16.3985 22 15.7204V8.60876C21.5442 8.98457 20.9684 9.19294 20.3721 9.19294H18.4651L17.747 9.89992C17.146 10.4915 16.2484 10.6646 15.4707 10.339C14.9312 10.1129 14.5219 9.67759 14.3219 9.15015C13.8177 9.0562 13.3498 8.81155 12.9814 8.44411C12.5023 7.96411 12.2326 7.31387 12.2326 6.6348C12.2326 5.77155 12.2326 4.49155 12.2326 3.62736C12.2326 3.38922 12.266 3.1548 12.3293 2.92969ZM11.3219 12.2032C10.6828 12.9018 9.76465 13.3408 8.74419 13.3408C7.72372 13.3408 6.80558 12.9018 6.16651 12.2032C5.85674 12.326 5.5814 12.4702 5.34884 12.6283C4.67349 13.0888 4.32558 13.6888 4.32558 14.3036V14.8711C4.32558 15.1548 4.43814 15.4274 4.63907 15.6274C4.84 15.8283 5.11163 15.9408 5.39535 15.9408H12.093C12.3767 15.9408 12.6484 15.8283 12.8493 15.6274C13.0502 15.4274 13.1628 15.1548 13.1628 14.8711V14.3036C13.1628 13.6888 12.8149 13.0888 12.1395 12.6283C11.907 12.4702 11.6316 12.326 11.3219 12.2032ZM8.74419 7.29434C7.33209 7.29434 6.18605 8.44132 6.18605 9.85248C6.18605 11.2646 7.33209 12.4106 8.74419 12.4106C10.1563 12.4106 11.3023 11.2646 11.3023 9.85248C11.3023 8.44132 10.1563 7.29434 8.74419 7.29434Z" fill="#FB5933"/>
<path fill-rule="evenodd" clip-rule="evenodd" d="M8.70655 19.209L8.08237 21.0815C8.01167 21.2946 8.04795 21.5281 8.17911 21.7104C8.31027 21.8918 8.5205 21.9997 8.74469 21.9997H15.2563C15.4805 21.9997 15.6907 21.8918 15.8219 21.7104C15.9531 21.5281 15.9893 21.2946 15.9186 21.0815L15.2945 19.209H8.70655Z" fill="#FB5933"/>
</svg>
