<svg width="24" height="24" viewBox="0 0 24 24" fill="none" xmlns="http://www.w3.org/2000/svg">
<g clip-path="url(#clip0_9103_187504)">
<path d="M8.28737 7.36633H15.7223C15.7719 7.10528 15.8869 6.86107 16.0565 6.65653C16.9523 5.64668 17.4362 4.33725 17.4125 2.98753C17.4094 2.91006 17.3764 2.8368 17.3205 2.78311C17.2645 2.72942 17.19 2.69947 17.1125 2.69953C16.7358 2.69415 16.3696 2.824 16.0805 3.06553C15.8886 3.22457 15.6472 3.31161 15.398 3.31161C15.1487 3.31161 14.9073 3.22457 14.7155 3.06553C14.4221 2.83213 14.0583 2.70506 13.6835 2.70506C13.3086 2.70506 12.9448 2.83213 12.6515 3.06553C12.4601 3.2245 12.2192 3.31153 11.9705 3.31153C11.7217 3.31153 11.4808 3.2245 11.2895 3.06553C10.9967 2.83211 10.6334 2.705 10.259 2.705C9.88455 2.705 9.52123 2.83211 9.22847 3.06553C9.03774 3.22455 8.79729 3.31164 8.54897 3.31164C8.30065 3.31164 8.0602 3.22455 7.86947 3.06553C7.59677 2.84011 7.25707 2.7114 6.90347 2.69953C6.86392 2.69772 6.82441 2.70387 6.78728 2.71762C6.75016 2.73138 6.71617 2.75245 6.68735 2.7796C6.65853 2.80674 6.63545 2.8394 6.6195 2.87563C6.60354 2.91187 6.59503 2.95094 6.59447 2.99053C6.57242 4.33959 7.05739 5.64782 7.95347 6.65653C8.12248 6.86142 8.23729 7.10549 8.28737 7.36633Z" fill="#FB5933"/>
<path d="M16.1839 8.80875C15.9434 8.58568 15.7811 8.29117 15.721 7.96875H8.29295C8.2342 8.28802 8.07345 8.57962 7.83485 8.79975C4.28585 12.0608 2.54585 15.4807 3.06185 18.1807C3.2298 19.0575 3.69772 19.8484 4.38529 20.4177C5.07285 20.9871 5.93717 21.2993 6.82985 21.3007H17.1859C18.0486 21.3072 18.8878 21.0195 19.5651 20.485C20.2424 19.9506 20.7174 19.2013 20.9119 18.3607C21.1939 17.0557 21.2929 13.5157 16.1839 8.80875ZM11.9917 14.0341C12.4444 14.0319 12.8813 14.2002 13.2156 14.5055C13.5499 14.8108 13.7569 15.2308 13.7957 15.6818C13.8344 16.1329 13.7019 16.582 13.4245 16.9398C13.1472 17.2976 12.7453 17.5379 12.2989 17.6129V18.1828C12.2989 18.2624 12.2672 18.3387 12.211 18.395C12.1547 18.4512 12.0784 18.4828 11.9989 18.4828C11.9193 18.4828 11.843 18.4512 11.7867 18.395C11.7305 18.3387 11.6989 18.2624 11.6989 18.1828V17.6165C11.2802 17.5466 10.8998 17.331 10.6247 17.0079C10.3495 16.6847 10.1975 16.2747 10.1953 15.8503C10.195 15.811 10.2025 15.7719 10.2173 15.7354C10.2321 15.6989 10.254 15.6657 10.2816 15.6376C10.3093 15.6095 10.3422 15.5872 10.3785 15.5719C10.4148 15.5566 10.4538 15.5485 10.4932 15.5482H10.4953C10.5745 15.5482 10.6504 15.5796 10.7066 15.6354C10.7628 15.6912 10.7947 15.7669 10.7953 15.8461C10.7969 16.0842 10.8691 16.3164 11.0028 16.5134C11.1364 16.7104 11.3255 16.8634 11.5461 16.9529C11.7667 17.0425 12.0088 17.0646 12.242 17.0165C12.4751 16.9684 12.6888 16.8523 12.8559 16.6827C13.0231 16.5132 13.1362 16.2979 13.1809 16.0641C13.2257 15.8303 13.2002 15.5885 13.1075 15.3692C13.0148 15.1499 12.8592 14.963 12.6603 14.8322C12.4614 14.7014 12.2282 14.6324 11.9902 14.6341C11.5386 14.6323 11.1042 14.4611 10.7728 14.1544C10.4414 13.8477 10.2372 13.4277 10.2006 12.9776C10.164 12.5276 10.2976 12.0801 10.575 11.7239C10.8525 11.3676 11.2535 11.1284 11.6989 11.0537V10.4858C11.6989 10.4062 11.7305 10.3299 11.7867 10.2736C11.843 10.2174 11.9193 10.1858 11.9989 10.1858C12.0784 10.1858 12.1547 10.2174 12.211 10.2736C12.2672 10.3299 12.2989 10.4062 12.2989 10.4858V11.0537C12.7188 11.1249 13.1001 11.3423 13.3752 11.6674C13.6504 11.9926 13.8017 12.4046 13.8025 12.8305C13.8025 12.9101 13.7708 12.9864 13.7146 13.0427C13.6583 13.0989 13.582 13.1305 13.5025 13.1305C13.4229 13.1305 13.3466 13.0989 13.2903 13.0427C13.2341 12.9864 13.2025 12.9101 13.2025 12.8305C13.2024 12.5928 13.132 12.3604 13.0001 12.1626C12.8682 11.9648 12.6806 11.8106 12.4611 11.7193C12.2416 11.628 12 11.6037 11.7667 11.6496C11.5334 11.6954 11.3189 11.8094 11.1503 11.977C10.9817 12.1446 10.8665 12.3584 10.8193 12.5914C10.772 12.8244 10.7948 13.0661 10.8848 13.2862C10.9748 13.5062 11.128 13.6947 11.3249 13.8278C11.5219 13.9609 11.7539 14.0327 11.9917 14.0341Z" fill="#FB5933"/>
</g>
<defs>
<clipPath id="clip0_9103_187504">
<rect width="19.2" height="19.2" fill="white" transform="translate(2.39844 2.40039)"/>
</clipPath>
</defs>
</svg>
