<svg width="44" height="44" viewBox="0 0 44 44" fill="none" xmlns="http://www.w3.org/2000/svg">
<rect width="44" height="44" rx="22" fill="#FED6CC"/>
<path d="M30.875 16.4922H30.1875V21.9922C30.1875 24.2664 28.3368 26.1172 26.0625 26.1172H16.4375V28.1797C16.4375 29.3168 17.3629 30.2422 18.5 30.2422H28.5705L31.8196 32.8423C31.9448 32.9413 32.0974 32.9922 32.25 32.9922C32.3504 32.9922 32.4521 32.9688 32.5484 32.9234C32.7862 32.8093 32.9375 32.5687 32.9375 32.3047V18.5547C32.9375 17.4176 32.0121 16.4922 30.875 16.4922Z" fill="#FB5933"/>
<path d="M26.0625 10.9922H13.6875C12.1709 10.9922 10.9375 12.2256 10.9375 13.7422V27.4922C10.9375 27.7589 11.0915 28.0009 11.3335 28.1151C11.4256 28.1577 11.526 28.1797 11.625 28.1797C11.7831 28.1797 11.9399 28.1261 12.065 28.0202L15.9989 24.7422H26.0625C27.5791 24.7422 28.8125 23.5088 28.8125 21.9922V13.7422C28.8125 12.2256 27.5791 10.9922 26.0625 10.9922ZM21.25 19.2422H15.75C15.3705 19.2422 15.0625 18.9342 15.0625 18.5547C15.0625 18.1752 15.3705 17.8672 15.75 17.8672H21.25C21.6295 17.8672 21.9375 18.1752 21.9375 18.5547C21.9375 18.9342 21.6295 19.2422 21.25 19.2422ZM24 16.4922H15.75C15.3705 16.4922 15.0625 16.1842 15.0625 15.8047C15.0625 15.4252 15.3705 15.1172 15.75 15.1172H24C24.3795 15.1172 24.6875 15.4252 24.6875 15.8047C24.6875 16.1842 24.3795 16.4922 24 16.4922Z" fill="#FB5933"/>
</svg>
