<svg width="20" height="21" viewBox="0 0 20 21" fill="none" xmlns="http://www.w3.org/2000/svg">
<path d="M11.4652 3.62705V3.90027C10.5095 3.63806 9.50261 3.63804 8.54687 3.89721V3.62393C8.54687 2.82003 9.19919 2.16455 10.0061 2.16455C10.8129 2.16455 11.4652 2.82001 11.4652 3.62705Z" fill="#FB5933" stroke="#FB5933" stroke-width="0.031248"/>
<path d="M12.2713 16.5239C11.9363 17.4874 11.0262 18.1333 10.006 18.1333C8.98566 18.1333 8.07556 17.4874 7.74062 16.5239H12.2713Z" fill="#FB5933" stroke="#FB5933" stroke-width="0.031248"/>
<path d="M15.3746 12.6566L15.3746 12.6567L16.4337 13.7627C16.4337 13.7628 16.4338 13.7628 16.4338 13.7628C16.5936 13.935 16.6857 14.1594 16.6857 14.3958V15.3615C16.6857 15.731 16.3865 16.0302 16.0171 16.0302H3.99679C3.62734 16.0302 3.32812 15.731 3.32812 15.3615V14.3958C3.32812 14.1591 3.41726 13.9318 3.57997 13.7629L3.58003 13.7629L4.63301 12.6566C4.82946 12.4506 4.94041 12.1781 4.94041 11.8927V9.2646C4.94041 6.46698 7.20812 4.19897 10.0054 4.19897C12.8026 4.19897 15.0703 6.46698 15.0703 9.2646V11.8927C15.0703 12.1779 15.1781 12.4506 15.3746 12.6566Z" fill="#FB5933" stroke="#FB5933" stroke-width="0.031248"/>
<path d="M17.4858 9.20212V9.50525C17.4858 9.9115 17.1577 10.2396 16.7515 10.2396C16.3453 10.2396 16.0172 9.9115 16.0172 9.50525V9.20212C16.0172 7.22087 15.0392 5.36775 13.4082 4.24587L17.4858 9.20212ZM17.4858 9.20212C17.4889 7.22087 16.7015 5.31775 15.2954 3.91775L17.4858 9.20212ZM15.2844 3.9288L15.2844 3.92882C16.6875 5.32588 17.4733 7.22501 17.4701 9.2021V9.20212V9.50525C17.4701 9.90287 17.1491 10.224 16.7515 10.224C16.3539 10.224 16.0328 9.90287 16.0328 9.50525V9.20212C16.0328 7.21571 15.0523 5.35778 13.417 4.233L13.4168 4.23287C13.3802 4.20844 13.3466 4.18098 13.3161 4.15048C13.0379 3.86913 13.041 3.41654 13.3223 3.13823L13.3223 3.13823L13.3224 3.1381C13.5639 2.8935 13.9492 2.85678 14.2336 3.05249L14.2336 3.05251C14.6108 3.31131 14.9601 3.60444 15.2844 3.9288Z" fill="#FB5933" stroke="#FB5933" stroke-width="0.031248"/>
<path d="M6.5938 4.24239L6.59376 4.24241C4.95846 5.36409 3.98419 7.22205 3.98419 9.2053V9.50842C3.98419 9.90613 3.66302 10.2303 3.26554 10.2303C2.86797 10.2303 2.54688 9.90917 2.54688 9.51155L2.54688 9.20842L2.54688 9.2084C2.54377 7.22818 3.32951 5.32905 4.73262 3.93199L4.7327 3.93192C5.05382 3.60763 5.40614 3.31451 5.78342 3.05568L5.78344 3.05567C6.06776 2.85999 6.44997 2.89662 6.69466 3.14134C6.72561 3.1723 6.75603 3.20583 6.7802 3.24209L6.78029 3.24223C7.00358 3.56955 6.92092 4.01918 6.5938 4.24239ZM6.6026 4.2553C6.93693 4.02717 7.0213 3.5678 6.7932 3.23342L2.53126 9.51155C2.53126 9.9178 2.85934 10.2459 3.26554 10.2459C3.67173 10.2459 3.99982 9.91467 3.99982 9.50842V9.2053C3.99982 7.22717 4.97157 5.37405 6.6026 4.2553Z" fill="#FB5933" stroke="#FB5933" stroke-width="0.031248"/>
</svg>
