<svg width="20" height="20" viewBox="0 0 20 20" fill="none" xmlns="http://www.w3.org/2000/svg">
<path d="M16.6971 5.7207H12.7902V17.4414C12.7902 17.6423 12.7381 17.8284 12.6562 17.9995H17.4413C17.7464 17.9995 17.9994 17.7465 17.9994 17.4414V7.02301C17.9994 6.3086 17.4115 5.7207 16.6971 5.7207ZM15.9529 15.0229H15.2088C14.9037 15.0229 14.6506 14.7698 14.6506 14.4647C14.6506 14.1596 14.9037 13.9066 15.2088 13.9066H15.9529C16.258 13.9066 16.5111 14.1596 16.5111 14.4647C16.5111 14.7698 16.258 15.0229 15.9529 15.0229ZM15.9529 12.0462H15.2088C14.9037 12.0462 14.6506 11.7932 14.6506 11.488C14.6506 11.1829 14.9037 10.9299 15.2088 10.9299H15.9529C16.258 10.9299 16.5111 11.1829 16.5111 11.488C16.5111 11.7932 16.258 12.0462 15.9529 12.0462ZM15.9529 9.06948H15.2088C14.9037 9.06948 14.6506 8.81646 14.6506 8.51135C14.6506 8.20624 14.9037 7.95322 15.2088 7.95322H15.9529C16.258 7.95322 16.5111 8.20624 16.5111 8.51135C16.5111 8.81646 16.258 9.06948 15.9529 9.06948Z" fill="#FB5933"/>
<path d="M10.7401 2H3.2984C2.58399 2 1.99609 2.5879 1.99609 3.3023V17.4416C1.99609 17.7467 2.24911 17.9997 2.55422 17.9997H11.4843C11.7894 17.9997 12.0424 17.7467 12.0424 17.4416V3.3023C12.0424 2.5879 11.4545 2 10.7401 2ZM5.903 15.023H4.78674C4.48163 15.023 4.22861 14.77 4.22861 14.4649C4.22861 14.1598 4.48163 13.9068 4.78674 13.9068H5.903C6.20811 13.9068 6.46113 14.1598 6.46113 14.4649C6.46113 14.77 6.20811 15.023 5.903 15.023ZM5.903 12.0463H4.78674C4.48163 12.0463 4.22861 11.7933 4.22861 11.4882C4.22861 11.1831 4.48163 10.9301 4.78674 10.9301H5.903C6.20811 10.9301 6.46113 11.1831 6.46113 11.4882C6.46113 11.7933 6.20811 12.0463 5.903 12.0463ZM5.903 9.06964H4.78674C4.48163 9.06964 4.22861 8.81662 4.22861 8.51151C4.22861 8.2064 4.48163 7.95338 4.78674 7.95338H5.903C6.20811 7.95338 6.46113 8.2064 6.46113 8.51151C6.46113 8.81662 6.20811 9.06964 5.903 9.06964ZM5.903 6.09295H4.78674C4.48163 6.09295 4.22861 5.83993 4.22861 5.53482C4.22861 5.22971 4.48163 4.97669 4.78674 4.97669H5.903C6.20811 4.97669 6.46113 5.22971 6.46113 5.53482C6.46113 5.83993 6.20811 6.09295 5.903 6.09295ZM9.25178 15.023H8.13552C7.83041 15.023 7.57739 14.77 7.57739 14.4649C7.57739 14.1598 7.83041 13.9068 8.13552 13.9068H9.25178C9.55689 13.9068 9.80991 14.1598 9.80991 14.4649C9.80991 14.77 9.55689 15.023 9.25178 15.023ZM9.25178 12.0463H8.13552C7.83041 12.0463 7.57739 11.7933 7.57739 11.4882C7.57739 11.1831 7.83041 10.9301 8.13552 10.9301H9.25178C9.55689 10.9301 9.80991 11.1831 9.80991 11.4882C9.80991 11.7933 9.55689 12.0463 9.25178 12.0463ZM9.25178 9.06964H8.13552C7.83041 9.06964 7.57739 8.81662 7.57739 8.51151C7.57739 8.2064 7.83041 7.95338 8.13552 7.95338H9.25178C9.55689 7.95338 9.80991 8.2064 9.80991 8.51151C9.80991 8.81662 9.55689 9.06964 9.25178 9.06964ZM9.25178 6.09295H8.13552C7.83041 6.09295 7.57739 5.83993 7.57739 5.53482C7.57739 5.22971 7.83041 4.97669 8.13552 4.97669H9.25178C9.55689 4.97669 9.80991 5.22971 9.80991 5.53482C9.80991 5.83993 9.55689 6.09295 9.25178 6.09295Z" fill="#FB5933"/>
</svg>
