<svg width="24" height="24" viewBox="0 0 24 24" fill="none" xmlns="http://www.w3.org/2000/svg">
<path d="M20.7989 14.9981C19.8617 14.0608 18.5605 13.6379 17.269 13.8445L10.1546 6.7312C10.3566 5.43686 9.9366 4.13569 9.00108 3.2013C7.77424 1.97392 5.898 1.65117 4.33298 2.39961C3.96784 2.57364 3.88624 3.05774 4.17102 3.3426L5.94527 5.10098V5.94498H5.10092L3.34194 4.17116C3.05775 3.88579 2.57295 3.96803 2.39896 4.33313C1.65169 5.89806 1.97381 7.77431 3.20061 9.00169C4.17965 9.98015 5.57696 10.395 6.91364 10.1198L13.8792 17.0844C13.6074 18.4239 14.0206 19.82 14.9984 20.7985C16.2152 22.0153 18.087 22.3541 19.667 21.6002C20.0322 21.4261 20.1138 20.942 19.829 20.6572L18.0546 18.8983V18.0543H18.8992L20.6576 19.8281C20.9486 20.119 21.4298 20.0239 21.6005 19.6667C22.3484 18.1011 22.0263 16.2249 20.7989 14.9981Z" fill="#FB5933"/>
<path d="M11.0627 16.2518L7.74809 12.9375L6.82265 13.8627C5.51171 13.6326 4.14928 14.0498 3.19946 15.0002C1.60018 16.5995 1.60018 19.2013 3.19946 20.8006C4.80045 22.4004 7.40151 22.399 8.99985 20.8006C9.95026 19.8502 10.3709 18.4883 10.1374 17.1774L11.0627 16.2518ZM7.34334 19.1435C7.34276 19.1435 7.34276 19.1435 7.34276 19.1435C6.65724 19.829 5.54261 19.829 4.8571 19.1435C4.17159 18.458 4.17159 17.3428 4.8571 16.6573C5.54261 15.9718 6.65724 15.9718 7.34276 16.6573C8.02768 17.3428 8.02768 18.458 7.34334 19.1435Z" fill="#FB5933"/>
<path d="M20.8013 3.19903C19.2032 1.60089 16.6003 1.59976 15.001 3.19903C14.0511 4.14886 13.6305 5.51073 13.8634 6.82222L12.8203 7.78021L16.1352 11.0945L17.1782 10.137C18.4868 10.3682 19.851 9.94987 20.8014 8.99946C22.4001 7.40069 22.4001 4.79831 20.8013 3.19903ZM19.1443 7.34233V7.34292C18.4588 8.02729 17.3436 8.02729 16.6581 7.34292C15.9726 6.65686 15.9726 5.54218 16.6581 4.85671C17.343 4.17179 18.4582 4.17065 19.1443 4.85671C19.8298 5.54218 19.8298 6.65686 19.1443 7.34233Z" fill="#FB5933"/>
</svg>
