<svg width="25" height="24" viewBox="0 0 25 24" fill="none" xmlns="http://www.w3.org/2000/svg">
<path d="M12.4086 10.87C12.3086 10.86 12.1886 10.86 12.0786 10.87C9.69859 10.79 7.80859 8.84 7.80859 6.44C7.80859 3.99 9.78859 2 12.2486 2C14.6986 2 16.6886 3.99 16.6886 6.44C16.6786 8.84 14.7886 10.79 12.4086 10.87Z" stroke="#A6A6A6" stroke-width="1.5" stroke-linecap="round" stroke-linejoin="round"/>
<path d="M7.40875 14.56C4.98875 16.18 4.98875 18.82 7.40875 20.43C10.1588 22.27 14.6688 22.27 17.4188 20.43C19.8388 18.81 19.8388 16.17 17.4188 14.56C14.6788 12.73 10.1688 12.73 7.40875 14.56Z" stroke="#A6A6A6" stroke-width="1.5" stroke-linecap="round" stroke-linejoin="round"/>
</svg>
