<svg width="20" height="20" viewBox="0 0 20 20" fill="none" xmlns="http://www.w3.org/2000/svg">
<g clip-path="url(#clip0_9816_41656)">
<path d="M9.87884 7.79921C10.5118 7.79921 11.0116 7.29948 11.0116 6.7331C11.0116 6.13342 10.5118 5.66699 9.87884 5.66699C9.24583 5.66699 8.74609 6.16673 8.74609 6.7331C8.74609 7.29948 9.24583 7.79921 9.87884 7.79921Z" fill="#FB5933"/>
<path d="M9.87835 11.3311C9.44524 11.3311 9.04545 11.4976 8.74561 11.7975C8.5124 11.9974 8.37913 12.2639 8.3125 12.5637H11.4442C11.2776 11.8308 10.6446 11.3311 9.87835 11.3311Z" fill="#FB5933"/>
<path d="M5.317 5.6006C5.38363 5.6006 5.45027 5.56728 5.5169 5.53396L9.41487 2.80205C9.6814 2.60216 10.0812 2.60216 10.3477 2.80205L14.5455 5.76718C14.7121 5.86712 14.912 5.83381 15.012 5.66723C15.1119 5.50065 15.0786 5.30075 14.912 5.2008L10.7475 2.269C10.2478 1.90252 9.54813 1.90252 9.04839 2.269L5.11711 5.00091C4.95053 5.10086 4.91721 5.33407 5.01716 5.46733C5.11711 5.53396 5.21705 5.6006 5.317 5.6006Z" fill="#FB5933"/>
<path d="M17.3072 17.3276H16.6409V8.89867C16.6409 8.76541 16.5076 8.63215 16.3744 8.63215H13.9756V17.2943H13.3093V5.56708L10.3775 3.50148C10.111 3.30159 9.71117 3.30159 9.44464 3.50148L6.51283 5.56708V17.3276H5.84651V8.66546H3.41444C3.24786 8.66546 3.14792 8.76541 3.14792 8.93199V17.3276H2.4816C2.2817 17.3276 2.14844 17.4942 2.14844 17.6608C2.14844 17.8607 2.31502 17.9939 2.4816 17.9939H17.3405C17.5404 17.9939 17.6737 17.8607 17.6737 17.6608C17.6404 17.4609 17.5071 17.3276 17.3072 17.3276ZM9.87775 4.96739C10.8772 4.96739 11.6768 5.76697 11.6768 6.73313C11.6768 7.6993 10.8772 8.49888 9.87775 8.49888C8.87827 8.49888 8.07868 7.6993 8.07868 6.73313C8.07868 5.73365 8.87827 4.96739 9.87775 4.96739ZM7.57894 12.8633C7.57894 12.2636 7.81216 11.6972 8.24526 11.2974C8.67837 10.8643 9.24474 10.6644 9.84443 10.6644C11.1104 10.6644 12.1432 11.6639 12.1432 12.8966V17.3276H11.4769V13.1964H8.24526V17.3276H7.57894V12.8633Z" fill="#FB5933"/>
</g>
<defs>
<clipPath id="clip0_9816_41656">
<rect width="20" height="20" fill="white"/>
</clipPath>
</defs>
</svg>
