<svg width="46" height="57" viewBox="0 0 46 57" fill="none" xmlns="http://www.w3.org/2000/svg">
<g filter="url(#filter0_dddd_9816_46978)">
<g filter="url(#filter1_dddd_9816_46978)">
<path fill-rule="evenodd" clip-rule="evenodd" d="M34.6004 26.957L29.1153 32.4421L33.0299 37.3729C33.0761 37.4364 33.1281 37.4942 33.1858 37.5461C34.3752 38.7355 36.7944 38.239 38.5959 36.4376C40.3973 34.6362 40.8938 32.2112 39.7044 31.0275C39.6467 30.9698 39.589 30.9236 39.5312 30.8716L34.6004 26.957Z" fill="url(#paint0_linear_9816_46978)"/>
<g style="mix-blend-mode:multiply">
<path fill-rule="evenodd" clip-rule="evenodd" d="M40.3516 32.879C38.2326 31.1064 36.1136 29.3396 33.9946 27.5671L34.6067 26.9551L39.5317 30.8697C39.5952 30.9217 39.6529 30.9736 39.7049 31.0256C40.1726 31.4933 40.3747 32.1457 40.3458 32.879H40.3516Z" fill="url(#paint1_linear_9816_46978)"/>
</g>
<g style="mix-blend-mode:multiply" opacity="0.75">
<path fill-rule="evenodd" clip-rule="evenodd" d="M30.2131 31.3438C32.1531 33.5667 34.0874 35.7953 36.0273 38.0182C34.9072 38.3473 33.8506 38.2088 33.1866 37.5448C33.1289 37.4871 33.0769 37.4293 33.0308 37.3716L29.1161 32.4408L30.2131 31.3438Z" fill="url(#paint2_linear_9816_46978)"/>
</g>
<g style="mix-blend-mode:screen">
<path fill-rule="evenodd" clip-rule="evenodd" d="M30.4949 28.2606C29.011 29.7445 28.526 31.6556 29.4037 32.5332C30.2813 33.4108 32.1982 32.9258 33.6762 31.442C35.1543 29.9581 35.6451 28.047 34.7675 27.1694C33.8899 26.2917 31.973 26.7767 30.4949 28.2606Z" fill="url(#paint3_radial_9816_46978)"/>
</g>
<path fill-rule="evenodd" clip-rule="evenodd" d="M30.3819 28.2204C28.8634 29.7389 28.3437 31.6789 29.2156 32.5565C30.0932 33.4341 32.0332 32.9087 33.5517 31.3902C35.0702 29.8717 35.5898 27.9317 34.718 27.0541C33.8461 26.1765 31.9004 26.7019 30.3819 28.2204Z" fill="url(#paint4_radial_9816_46978)"/>
<path fill-rule="evenodd" clip-rule="evenodd" d="M29.2262 32.2049C30.0576 33.0075 31.859 32.534 33.2736 31.1194C34.6939 29.6991 35.1616 27.9035 34.359 27.072L26.8762 19.2832L21.4316 24.7279L29.2204 32.2107L29.2262 32.2049Z" fill="url(#paint5_linear_9816_46978)"/>
<path style="mix-blend-mode:multiply" fill-rule="evenodd" clip-rule="evenodd" d="M34.7085 28.5846C31.8967 25.6804 29.0791 22.7819 26.2672 19.8777L26.8735 19.2715L34.3563 27.0603C34.7027 27.4241 34.8124 27.9668 34.7085 28.5846Z" fill="url(#paint6_linear_9816_46978)"/>
<path style="mix-blend-mode:multiply" fill-rule="evenodd" clip-rule="evenodd" d="M22.5211 23.6308C25.5004 26.535 28.4739 29.445 31.4531 32.3492C30.5582 32.7071 29.721 32.6783 29.2244 32.2048L21.4298 24.7162L22.5211 23.625V23.6308Z" fill="url(#paint7_linear_9816_46978)"/>
<path style="mix-blend-mode:multiply" fill-rule="evenodd" clip-rule="evenodd" d="M25.2188 28.3532L21.9277 25.1892L27.3493 19.7676C27.4013 19.8022 27.4532 19.8369 27.5052 19.8831L27.5976 19.9812C28.4175 20.9397 28.0884 23.6245 26.8297 26.0668C26.3389 27.0194 25.7788 27.7989 25.2188 28.3474V28.3532Z" fill="url(#paint8_radial_9816_46978)"/>
<path fill-rule="evenodd" clip-rule="evenodd" d="M21.5522 25.1142C22.4472 25.9688 24.4276 25.3972 26.0269 23.8036C27.6263 22.21 28.1921 20.2181 27.3376 19.3289L24.8779 16.748L18.9656 22.6604L21.5465 25.12L21.5522 25.1142Z" fill="url(#paint9_linear_9816_46978)"/>
<path style="mix-blend-mode:multiply" fill-rule="evenodd" clip-rule="evenodd" d="M22.6211 25.7555L19.3301 22.5915L24.7517 17.1699C24.8036 17.2046 24.8556 17.2392 24.9075 17.2854L24.9999 17.3836C25.8198 18.342 25.4907 21.0268 24.232 23.4691C23.7412 24.4218 23.1812 25.2012 22.6211 25.7498V25.7555Z" fill="url(#paint10_radial_9816_46978)"/>
<path style="mix-blend-mode:multiply" fill-rule="evenodd" clip-rule="evenodd" d="M27.6812 20.9859C26.5264 19.7907 25.3774 18.5956 24.2284 17.4004L24.8867 16.7422L27.3463 19.3231C27.7158 19.7157 27.8197 20.3104 27.6869 20.9859H27.6812Z" fill="url(#paint11_linear_9816_46978)"/>
<path fill-rule="evenodd" clip-rule="evenodd" d="M20.6129 1.07301C20.9016 0.957536 21.3 1.10765 21.5079 1.33861L27.7493 8.22095C27.8937 8.38261 27.9976 8.64243 27.9341 8.85029L22.9282 25.6347C22.8358 25.9407 22.5356 26.1947 22.2296 26.2813L13.3322 28.7814C13.0955 28.8449 12.801 28.7698 12.622 28.6024L5.45677 22.1877C5.23159 21.9856 5.08725 21.6334 5.15653 21.339L7.51801 11.9162L11.4557 5.08001C11.5943 4.84329 11.8195 4.64121 12.0735 4.53728L20.6129 1.07301Z" fill="#666666"/>
<path fill-rule="evenodd" clip-rule="evenodd" d="M17.2484 8.11642L7.58888 11.777L11.4458 5.07942C11.5843 4.84269 11.8095 4.64061 12.0636 4.53668L20.6088 1.07242C20.7531 1.01468 20.9321 1.02045 21.0938 1.07242L17.2484 8.11065V8.11642Z" fill="url(#paint12_radial_9816_46978)"/>
<path fill-rule="evenodd" clip-rule="evenodd" d="M7.59047 11.7778L17.25 8.11719L14.9463 18.7236C14.7961 18.6774 14.6287 18.6774 14.4901 18.7236L5.45417 21.7433C5.37334 21.7722 5.26364 21.7953 5.18858 21.7953C5.13662 21.6451 5.11352 21.4835 5.15394 21.3391L7.51541 11.9163L7.59625 11.7778H7.59047Z" fill="url(#paint13_radial_9816_46978)"/>
<path fill-rule="evenodd" clip-rule="evenodd" d="M14.9489 18.7228L17.2526 8.11636L21.0979 1.07812C21.2596 1.13009 21.4097 1.22824 21.5079 1.34372L27.7493 8.22606C27.8937 8.38773 27.9976 8.64755 27.9341 8.8554L22.9282 25.6398C22.882 25.8014 22.7723 25.9516 22.6338 26.067C22.5818 25.9862 22.5183 25.9111 22.4432 25.8476L15.2606 18.9075C15.1798 18.8267 15.0643 18.769 14.9489 18.7343V18.7228Z" fill="url(#paint14_radial_9816_46978)"/>
<path fill-rule="evenodd" clip-rule="evenodd" d="M15.2597 18.8953L22.4423 25.8354C22.5116 25.9046 22.5808 25.9797 22.6328 26.0548C22.5116 26.1587 22.373 26.2337 22.2286 26.2742L13.3313 28.7742C13.0945 28.8377 12.8001 28.7627 12.6211 28.5952L5.45583 22.1806C5.34613 22.0824 5.24797 21.9381 5.19601 21.7879C5.27107 21.7879 5.38077 21.7591 5.4616 21.736L14.4976 18.7163C14.6361 18.6701 14.8036 18.6701 14.9537 18.7163C15.0749 18.7509 15.1846 18.8087 15.2655 18.8895L15.2597 18.8953Z" fill="url(#paint15_radial_9816_46978)"/>
<path style="mix-blend-mode:multiply" fill-rule="evenodd" clip-rule="evenodd" d="M10.514 9.48499C8.93772 11.0612 8.26797 12.9377 9.01278 13.6825C9.7576 14.4273 11.6399 13.7576 13.2103 12.1813C14.7866 10.6051 15.4563 8.72863 14.7115 7.98381C13.9667 7.239 12.0844 7.90875 10.514 9.48499Z" fill="url(#paint16_radial_9816_46978)"/>
<path fill-rule="evenodd" clip-rule="evenodd" d="M8.87347 12.5336L14.6242 6.89258L15.2535 7.56811C15.5249 7.83948 15.4325 8.43995 15.063 8.95382C14.959 9.96423 14.0295 11.4654 13.0017 12.2911C11.6449 13.3823 10.2419 13.8038 9.62984 13.238L8.87925 12.5393L8.87347 12.5336Z" fill="url(#paint17_linear_9816_46978)"/>
<path style="mix-blend-mode:multiply" opacity="0.5" fill-rule="evenodd" clip-rule="evenodd" d="M15.1718 8.76888C14.7735 8.3474 14.3808 7.93169 13.9825 7.5102L14.6233 6.88086L15.2527 7.55639C15.4894 7.79312 15.4432 8.29543 15.1776 8.76311L15.1718 8.76888Z" fill="url(#paint18_linear_9816_46978)"/>
<path style="mix-blend-mode:multiply" opacity="0.5" fill-rule="evenodd" clip-rule="evenodd" d="M10.0221 11.4023C10.6053 11.9624 11.1942 12.5225 11.7773 13.0825C10.8651 13.5444 10.051 13.631 9.62373 13.2326L8.87314 12.534L10.0221 11.4081V11.4023Z" fill="url(#paint19_linear_9816_46978)"/>
<path style="mix-blend-mode:screen" fill-rule="evenodd" clip-rule="evenodd" d="M10.4524 8.40477C8.89922 9.95792 8.22946 11.7998 8.95118 12.5215C9.6729 13.2432 11.5147 12.5734 13.0679 11.0203C14.621 9.46715 15.2908 7.62531 14.5691 6.90359C13.8473 6.18187 12.0055 6.85163 10.4524 8.40477Z" fill="url(#paint20_radial_9816_46978)"/>
<path fill-rule="evenodd" clip-rule="evenodd" d="M10.4218 8.38141C8.84553 9.95765 8.1469 11.8053 8.8513 12.5097C9.56148 13.2198 11.4091 12.5097 12.9796 10.9392C14.5558 9.36295 15.2544 7.51534 14.55 6.81094C13.8398 6.10077 11.9922 6.81094 10.4218 8.38141Z" fill="url(#paint21_radial_9816_46978)"/>
<path style="mix-blend-mode:screen" fill-rule="evenodd" clip-rule="evenodd" d="M16.6153 11.043L15.4259 17.9022C15.345 18.3583 15.4721 18.7798 15.7954 19.1089L22.0195 25.4312L15.2584 19.1724C15.0044 18.9415 14.6811 18.8433 14.3981 18.9357L6.20516 21.4935L14.0459 18.6413C14.4848 18.4796 14.7908 18.1389 14.9062 17.6828L16.6153 11.043Z" fill="url(#paint22_radial_9816_46978)"/>
<path style="mix-blend-mode:screen" fill-rule="evenodd" clip-rule="evenodd" d="M20.1836 2.75195L17.2216 7.88484L15.1951 8.89525L17.0138 8.38716L16.6847 10.7429L17.493 8.02341L20.1836 2.75195Z" fill="url(#paint23_radial_9816_46978)"/>
</g>
</g>
<defs>
<filter id="filter0_dddd_9816_46978" x="-4" y="-1" width="54.3867" height="62.3555" filterUnits="userSpaceOnUse" color-interpolation-filters="sRGB">
<feFlood flood-opacity="0" result="BackgroundImageFix"/>
<feColorMatrix in="SourceAlpha" type="matrix" values="0 0 0 0 0 0 0 0 0 0 0 0 0 0 0 0 0 0 127 0" result="hardAlpha"/>
<feOffset dy="1"/>
<feGaussianBlur stdDeviation="1"/>
<feColorMatrix type="matrix" values="0 0 0 0 0 0 0 0 0 0 0 0 0 0 0 0 0 0 0.24 0"/>
<feBlend mode="normal" in2="BackgroundImageFix" result="effect1_dropShadow_9816_46978"/>
<feColorMatrix in="SourceAlpha" type="matrix" values="0 0 0 0 0 0 0 0 0 0 0 0 0 0 0 0 0 0 127 0" result="hardAlpha"/>
<feOffset dy="3"/>
<feGaussianBlur stdDeviation="1.5"/>
<feColorMatrix type="matrix" values="0 0 0 0 0 0 0 0 0 0 0 0 0 0 0 0 0 0 0.2 0"/>
<feBlend mode="normal" in2="effect1_dropShadow_9816_46978" result="effect2_dropShadow_9816_46978"/>
<feColorMatrix in="SourceAlpha" type="matrix" values="0 0 0 0 0 0 0 0 0 0 0 0 0 0 0 0 0 0 127 0" result="hardAlpha"/>
<feOffset dy="7"/>
<feGaussianBlur stdDeviation="2"/>
<feColorMatrix type="matrix" values="0 0 0 0 0 0 0 0 0 0 0 0 0 0 0 0 0 0 0.12 0"/>
<feBlend mode="normal" in2="effect2_dropShadow_9816_46978" result="effect3_dropShadow_9816_46978"/>
<feColorMatrix in="SourceAlpha" type="matrix" values="0 0 0 0 0 0 0 0 0 0 0 0 0 0 0 0 0 0 127 0" result="hardAlpha"/>
<feOffset dy="13"/>
<feGaussianBlur stdDeviation="2.5"/>
<feColorMatrix type="matrix" values="0 0 0 0 0 0 0 0 0 0 0 0 0 0 0 0 0 0 0.04 0"/>
<feBlend mode="normal" in2="effect3_dropShadow_9816_46978" result="effect4_dropShadow_9816_46978"/>
<feBlend mode="normal" in="SourceGraphic" in2="effect4_dropShadow_9816_46978" result="shape"/>
</filter>
<filter id="filter1_dddd_9816_46978" x="0.847244" y="0.174136" width="43.7899" height="53.4473" filterUnits="userSpaceOnUse" color-interpolation-filters="sRGB">
<feFlood flood-opacity="0" result="BackgroundImageFix"/>
<feColorMatrix in="SourceAlpha" type="matrix" values="0 0 0 0 0 0 0 0 0 0 0 0 0 0 0 0 0 0 127 0" result="hardAlpha"/>
<feOffset dy="0.857114"/>
<feGaussianBlur stdDeviation="0.857114"/>
<feColorMatrix type="matrix" values="0 0 0 0 0 0 0 0 0 0 0 0 0 0 0 0 0 0 0.24 0"/>
<feBlend mode="normal" in2="BackgroundImageFix" result="effect1_dropShadow_9816_46978"/>
<feColorMatrix in="SourceAlpha" type="matrix" values="0 0 0 0 0 0 0 0 0 0 0 0 0 0 0 0 0 0 127 0" result="hardAlpha"/>
<feOffset dy="2.57134"/>
<feGaussianBlur stdDeviation="1.28567"/>
<feColorMatrix type="matrix" values="0 0 0 0 0 0 0 0 0 0 0 0 0 0 0 0 0 0 0.2 0"/>
<feBlend mode="normal" in2="effect1_dropShadow_9816_46978" result="effect2_dropShadow_9816_46978"/>
<feColorMatrix in="SourceAlpha" type="matrix" values="0 0 0 0 0 0 0 0 0 0 0 0 0 0 0 0 0 0 127 0" result="hardAlpha"/>
<feOffset dy="5.9998"/>
<feGaussianBlur stdDeviation="1.71423"/>
<feColorMatrix type="matrix" values="0 0 0 0 0 0 0 0 0 0 0 0 0 0 0 0 0 0 0.12 0"/>
<feBlend mode="normal" in2="effect2_dropShadow_9816_46978" result="effect3_dropShadow_9816_46978"/>
<feColorMatrix in="SourceAlpha" type="matrix" values="0 0 0 0 0 0 0 0 0 0 0 0 0 0 0 0 0 0 127 0" result="hardAlpha"/>
<feOffset dy="11.1425"/>
<feGaussianBlur stdDeviation="2.14278"/>
<feColorMatrix type="matrix" values="0 0 0 0 0 0 0 0 0 0 0 0 0 0 0 0 0 0 0.04 0"/>
<feBlend mode="normal" in2="effect3_dropShadow_9816_46978" result="effect4_dropShadow_9816_46978"/>
<feBlend mode="normal" in="SourceGraphic" in2="effect4_dropShadow_9816_46978" result="shape"/>
</filter>
<linearGradient id="paint0_linear_9816_46978" x1="38.4881" y1="29.808" x2="31.964" y2="36.3321" gradientUnits="userSpaceOnUse">
<stop stop-color="#D37132"/>
<stop offset="0.37" stop-color="#E5A13B"/>
<stop offset="0.54" stop-color="#CA7D2C"/>
<stop offset="0.73" stop-color="#B25D1F"/>
<stop offset="0.89" stop-color="#A34917"/>
<stop offset="1" stop-color="#9E4215"/>
</linearGradient>
<linearGradient id="paint1_linear_9816_46978" x1="37.8271" y1="29.4386" x2="37.1658" y2="30.2306" gradientUnits="userSpaceOnUse">
<stop stop-color="#6E5750"/>
<stop offset="0.64" stop-color="#CDC5C2"/>
<stop offset="1" stop-color="white"/>
</linearGradient>
<linearGradient id="paint2_linear_9816_46978" x1="33.2426" y1="34.5875" x2="31.7484" y2="35.7959" gradientUnits="userSpaceOnUse">
<stop stop-color="white"/>
<stop offset="0.12" stop-color="#DBD6D4"/>
<stop offset="0.27" stop-color="#B4A9A5"/>
<stop offset="0.42" stop-color="#968580"/>
<stop offset="0.55" stop-color="#806B65"/>
<stop offset="0.67" stop-color="#725C55"/>
<stop offset="0.76" stop-color="#6E5750"/>
<stop offset="0.81" stop-color="#705A53"/>
<stop offset="0.85" stop-color="#79645D"/>
<stop offset="0.89" stop-color="#87756F"/>
<stop offset="0.93" stop-color="#9C8C88"/>
<stop offset="0.97" stop-color="#B6ABA7"/>
<stop offset="1" stop-color="#D6D0CE"/>
</linearGradient>
<radialGradient id="paint3_radial_9816_46978" cx="0" cy="0" r="1" gradientUnits="userSpaceOnUse" gradientTransform="translate(34.3479 30.2231) rotate(135) scale(6.28764)">
<stop stop-color="#CA844B"/>
<stop offset="1" stop-color="#010404"/>
</radialGradient>
<radialGradient id="paint4_radial_9816_46978" cx="0" cy="0" r="1" gradientUnits="userSpaceOnUse" gradientTransform="translate(34.0931 29.566) rotate(135) scale(6.18372)">
<stop stop-color="#FFD599"/>
<stop offset="0.74" stop-color="#542300"/>
</radialGradient>
<linearGradient id="paint5_linear_9816_46978" x1="31.4343" y1="23.8386" x2="25.9921" y2="29.2809" gradientUnits="userSpaceOnUse">
<stop stop-color="#6B3F24"/>
<stop offset="0.29" stop-color="#A36544"/>
<stop offset="0.4" stop-color="#905739"/>
<stop offset="0.61" stop-color="#633721"/>
<stop offset="0.68" stop-color="#5B3320"/>
<stop offset="0.79" stop-color="#45291E"/>
<stop offset="0.94" stop-color="#402518"/>
<stop offset="1" stop-color="#3D2215"/>
</linearGradient>
<linearGradient id="paint6_linear_9816_46978" x1="31.1581" y1="23.5649" x2="30.4232" y2="24.2998" gradientUnits="userSpaceOnUse">
<stop stop-color="#846853"/>
<stop offset="0.55" stop-color="#D4CAC2"/>
<stop offset="0.86" stop-color="white"/>
</linearGradient>
<linearGradient id="paint7_linear_9816_46978" x1="27.0397" y1="27.9376" x2="25.8434" y2="29.1338" gradientUnits="userSpaceOnUse">
<stop offset="0.14" stop-color="white"/>
<stop offset="0.45" stop-color="#D4CAC2"/>
<stop offset="1" stop-color="#846853"/>
</linearGradient>
<radialGradient id="paint8_radial_9816_46978" cx="0" cy="0" r="1" gradientUnits="userSpaceOnUse" gradientTransform="translate(18.7205 21.5272) rotate(135) scale(9.6884)">
<stop offset="0.71" stop-color="#9C8371"/>
<stop offset="0.75" stop-color="#A18978"/>
<stop offset="0.8" stop-color="#B09C8E"/>
<stop offset="0.88" stop-color="#C9BBB2"/>
<stop offset="0.96" stop-color="#EBE6E3"/>
<stop offset="1" stop-color="white"/>
</radialGradient>
<linearGradient id="paint9_linear_9816_46978" x1="26.9306" y1="18.7961" x2="21.0229" y2="24.7037" gradientUnits="userSpaceOnUse">
<stop stop-color="#49526B"/>
<stop offset="0.29" stop-color="#7683A2"/>
<stop offset="0.39" stop-color="#69748F"/>
<stop offset="0.6" stop-color="#474D60"/>
<stop offset="0.71" stop-color="#353845"/>
<stop offset="0.85" stop-color="#383D4A"/>
<stop offset="1" stop-color="#404957"/>
</linearGradient>
<radialGradient id="paint10_radial_9816_46978" cx="0" cy="0" r="1" gradientUnits="userSpaceOnUse" gradientTransform="translate(16.7287 19.3476) rotate(135) scale(8.69531)">
<stop offset="0.71" stop-color="#78899B"/>
<stop offset="0.75" stop-color="#7F8FA0"/>
<stop offset="0.81" stop-color="#95A2B0"/>
<stop offset="0.88" stop-color="#B9C2CB"/>
<stop offset="0.97" stop-color="#EAECEF"/>
<stop offset="1" stop-color="white"/>
</radialGradient>
<linearGradient id="paint11_linear_9816_46978" x1="26.6379" y1="18.5061" x2="25.9193" y2="19.2247" gradientUnits="userSpaceOnUse">
<stop stop-color="#78899B"/>
<stop offset="0.54" stop-color="#C2CAD2"/>
<stop offset="1" stop-color="white"/>
</linearGradient>
<radialGradient id="paint12_radial_9816_46978" cx="0" cy="0" r="1" gradientUnits="userSpaceOnUse" gradientTransform="translate(18.228 7.05855) rotate(135) scale(11.6053)">
<stop stop-color="#C3CFEB"/>
<stop offset="1" stop-color="#4B5C7D"/>
</radialGradient>
<radialGradient id="paint13_radial_9816_46978" cx="0" cy="0" r="1" gradientUnits="userSpaceOnUse" gradientTransform="translate(25.162 8.52091) rotate(135) scale(24.7984)">
<stop stop-color="#A7B4D1"/>
<stop offset="1" stop-color="#4B5C7D"/>
</radialGradient>
<radialGradient id="paint14_radial_9816_46978" cx="0" cy="0" r="1" gradientUnits="userSpaceOnUse" gradientTransform="translate(12.2919 1.61628) rotate(135) scale(28.7996)">
<stop stop-color="#D4E2FF"/>
<stop offset="1" stop-color="#455473"/>
</radialGradient>
<radialGradient id="paint15_radial_9816_46978" cx="0" cy="0" r="1" gradientUnits="userSpaceOnUse" gradientTransform="translate(18.8192 -1.63835) rotate(135) scale(31.7269)">
<stop stop-color="#7284A3"/>
<stop offset="1" stop-color="#313E57"/>
</radialGradient>
<radialGradient id="paint16_radial_9816_46978" cx="0" cy="0" r="1" gradientUnits="userSpaceOnUse" gradientTransform="translate(9.45791 8.80204) rotate(135) scale(5.28301)">
<stop offset="0.71" stop-color="#78899B"/>
<stop offset="0.75" stop-color="#7F8FA0"/>
<stop offset="0.81" stop-color="#95A2B0"/>
<stop offset="0.88" stop-color="#B9C2CB"/>
<stop offset="0.97" stop-color="#EAECEF"/>
<stop offset="1" stop-color="white"/>
</radialGradient>
<linearGradient id="paint17_linear_9816_46978" x1="15.5485" y1="7.81404" x2="9.84911" y2="13.5135" gradientUnits="userSpaceOnUse">
<stop stop-color="#55657E"/>
<stop offset="0.29" stop-color="#AEC6E8"/>
<stop offset="0.39" stop-color="#A0B5D5"/>
<stop offset="0.6" stop-color="#7D8AA6"/>
<stop offset="0.71" stop-color="#69728B"/>
<stop offset="0.81" stop-color="#636E85"/>
<stop offset="0.93" stop-color="#556275"/>
<stop offset="1" stop-color="#4A5A6A"/>
</linearGradient>
<linearGradient id="paint18_linear_9816_46978" x1="15.2252" y1="7.49134" x2="14.5556" y2="8.1609" gradientUnits="userSpaceOnUse">
<stop stop-color="#78899B"/>
<stop offset="0.54" stop-color="#C2CAD2"/>
<stop offset="1" stop-color="white"/>
</linearGradient>
<linearGradient id="paint19_linear_9816_46978" x1="10.9103" y1="12.2156" x2="9.73037" y2="13.3955" gradientUnits="userSpaceOnUse">
<stop stop-color="white"/>
<stop offset="0.46" stop-color="#C2CAD2"/>
<stop offset="1" stop-color="#78899B"/>
</linearGradient>
<radialGradient id="paint20_radial_9816_46978" cx="0" cy="0" r="1" gradientUnits="userSpaceOnUse" gradientTransform="translate(13.9613 9.65071) rotate(135) scale(5.10979)">
<stop stop-color="#DCE9F2"/>
<stop offset="0.14" stop-color="#BAC5CD"/>
<stop offset="0.57" stop-color="#575C5F"/>
<stop offset="0.86" stop-color="#18191A"/>
<stop offset="1"/>
</radialGradient>
<radialGradient id="paint21_radial_9816_46978" cx="0" cy="0" r="1" gradientUnits="userSpaceOnUse" gradientTransform="translate(14.4471 9.11969) rotate(135) scale(7.58097)">
<stop stop-color="#D4E2FF"/>
<stop offset="1" stop-color="#4B5C7D"/>
</radialGradient>
<radialGradient id="paint22_radial_9816_46978" cx="0" cy="0" r="1" gradientUnits="userSpaceOnUse" gradientTransform="translate(15.021 18.5791) rotate(135) scale(10.8951)">
<stop stop-color="#78899B"/>
<stop offset="0.36" stop-color="#49545F"/>
<stop offset="0.79" stop-color="#14171A"/>
<stop offset="1"/>
</radialGradient>
<radialGradient id="paint23_radial_9816_46978" cx="0" cy="0" r="1" gradientUnits="userSpaceOnUse" gradientTransform="translate(17.6871 8.2868) rotate(135) scale(9.00709)">
<stop stop-color="#78899B"/>
<stop offset="0.36" stop-color="#49545F"/>
<stop offset="0.79" stop-color="#14171A"/>
<stop offset="1"/>
</radialGradient>
</defs>
</svg>
