<svg width="20" height="21" viewBox="0 0 20 21" fill="none" xmlns="http://www.w3.org/2000/svg">
<path d="M3.3689 12.8757L2.37236 5.94298C2.31454 5.48316 2.53654 5.0528 2.93581 4.83735C3.33781 4.62135 3.81836 4.67426 4.16309 4.96989L6.6869 7.00771L9.22709 4.46753C9.65199 4.04207 10.3447 4.04207 10.7696 4.46753L13.3098 7.00771L15.8451 4.95735C16.1784 4.67098 16.6611 4.61971 17.0604 4.83516C17.4602 5.05062 17.6827 5.48098 17.6254 5.93153L16.6278 12.8768H3.3689V12.8757ZM3.4529 13.9666V14.5121C3.4529 15.4143 4.18709 16.1484 5.08927 16.1484H14.9074C15.8096 16.1484 16.5438 15.4143 16.5438 14.5121V13.9666H3.4529Z" fill="#FB5933"/>
</svg>
