<svg width="185" height="185" viewBox="0 0 185 185" fill="none" xmlns="http://www.w3.org/2000/svg">
<g clip-path="url(#clip0_6992_88701)">
<rect x="3.5" y="4" width="178.32" height="178.319" rx="89.1596" fill="#F5BEB1" fill-opacity="0.08"/>
<rect x="14.5" y="15" width="155.77" height="155.766" rx="77.883" fill="#ED8F78" fill-opacity="0.12"/>
<rect x="26.5" y="27" width="132.09" height="132.085" rx="66.0426" fill="#FFAB97" fill-opacity="0.16"/>
</g>
<path d="M93.4023 41C65.5577 41 42.9023 63.8797 42.9023 92C42.9023 120.12 65.5577 143 93.4023 143C121.247 143 143.902 120.12 143.902 92C143.902 63.8797 121.247 41 93.4023 41ZM121.627 78.5789L89.3522 110.917C87.4537 112.835 84.4161 112.962 82.3911 111.045L65.3046 95.3233C63.2795 93.406 63.153 90.2105 64.9249 88.1654C66.8234 86.1203 69.9876 85.9925 72.0126 87.9098L85.5552 100.436L114.412 71.2932C116.437 69.2481 119.602 69.2481 121.627 71.2932C123.652 73.3383 123.652 76.5338 121.627 78.5789Z" fill="#FB5933"/>
<defs>
<clipPath id="clip0_6992_88701">
<rect width="178.32" height="178.319" fill="white" transform="translate(3.5 4)"/>
</clipPath>
</defs>
</svg>
