<svg width="129" height="191" viewBox="0 0 129 191" fill="none" xmlns="http://www.w3.org/2000/svg">
<g clip-path="url(#clip0_6992_97183)">
<path d="M62.6139 142.795C58.7231 144.554 54.809 145.311 50.86 145.078C44.7558 144.717 39.0128 142.76 33.6426 139.195C28.2607 135.63 24.335 132.077 21.8421 128.501L0 159.663C5.38188 166.104 12.8257 171.451 22.2964 175.703C31.7787 179.955 40.9116 182.343 49.7184 182.856C61.0296 183.52 71.6769 181.714 81.6602 177.439C91.6435 173.164 99.9143 166.582 106.473 157.682C113.031 148.794 116.689 137.879 117.446 124.948C118.099 113.812 117.062 104.562 114.348 97.2001C111.622 89.8379 107.824 83.9318 102.955 79.5051C98.0738 75.0784 92.5521 71.8633 86.3548 69.8829C85.4345 69.5917 84.5259 69.3238 83.6056 69.0675L121.488 5.71971L24.2534 0L22.0401 37.7081L64.571 40.2127L32.3029 92.9132L33.0485 94.0432C35.786 93.484 38.5585 93.0646 41.3659 92.7734C44.1734 92.4938 48.2739 92.5055 53.6558 92.82C61.5538 93.286 67.5648 95.9769 71.7002 100.904C75.824 105.832 77.6529 112.251 77.1869 120.149C76.8491 125.892 75.3114 130.668 72.5622 134.477C69.813 138.286 66.5047 141.059 62.6139 142.806V142.795Z" fill="url(#paint0_linear_6992_97183)"/>
<path d="M53.6561 92.8091C48.2742 92.4946 44.1737 92.4829 41.3663 92.7625C38.5588 93.0538 35.7864 93.4731 33.0488 94.0323L40.248 101.814C42.9855 101.255 45.758 100.835 48.5654 100.544C51.3729 100.265 55.4733 100.276 60.8552 100.591C66.1439 100.905 70.5589 102.233 74.1585 104.54C73.4479 103.247 72.6441 102.024 71.6889 100.894C67.5651 95.966 61.5542 93.2751 53.6444 92.8091H53.6561Z" fill="url(#paint1_linear_6992_97183)"/>
<path d="M121.488 5.72063L83.6172 69.0568C84.5375 69.3131 85.4461 69.581 86.3664 69.8722C88.7661 70.6411 91.0726 71.6079 93.2743 72.7379L128.688 13.4906L121.488 5.70898V5.72063Z" fill="url(#paint2_linear_6992_97183)"/>
<path d="M110.166 87.2746C109.618 86.7737 109.059 86.296 108.488 85.8301C110.806 89.1268 112.763 92.9011 114.348 97.1879C117.062 104.562 118.099 113.811 117.446 124.936C116.689 137.867 113.02 148.782 106.473 157.67C99.9145 166.57 91.6436 173.152 81.6603 177.427C71.677 181.702 61.0298 183.508 49.7185 182.844C40.9234 182.331 31.7789 179.943 22.2965 175.691C16.6467 173.163 11.7541 170.228 7.56041 166.919L7.21094 167.432C12.5928 173.874 20.0366 179.221 29.5073 183.473C38.9897 187.725 48.1226 190.113 56.9293 190.625C68.2406 191.289 78.8878 189.484 88.8711 185.209C98.8544 180.933 107.125 174.352 113.684 165.452C120.242 156.563 123.9 145.648 124.657 132.718C125.309 121.581 124.273 112.332 121.558 104.97C118.833 97.6073 115.035 91.7012 110.166 87.2746Z" fill="url(#paint3_linear_6992_97183)"/>
<path d="M60.2268 47.3067L64.5719 40.2124L29.6712 38.1621L29.2402 45.4894L60.2268 47.3067Z" fill="url(#paint4_linear_6992_97183)"/>
<path d="M22.0293 37.707L29.2401 45.4886L60.2267 47.3059L64.5718 40.2116L22.0293 37.707Z" fill="url(#paint5_linear_6992_97183)"/>
</g>
<defs>
<linearGradient id="paint0_linear_6992_97183" x1="54.9139" y1="188.517" x2="70.3489" y2="1.8988" gradientUnits="userSpaceOnUse">
<stop offset="0.32" stop-color="#FFE099"/>
<stop offset="0.36" stop-color="#FFE09C"/>
<stop offset="0.52" stop-color="#FFE3AB"/>
<stop offset="0.65" stop-color="#FFE4B0"/>
<stop offset="0.66" stop-color="#FEE0A6"/>
<stop offset="0.67" stop-color="#FDD78D"/>
<stop offset="0.69" stop-color="#FCC864"/>
<stop offset="0.7" stop-color="#FAB42C"/>
<stop offset="0.71" stop-color="#FAB020"/>
<stop offset="0.91" stop-color="#FFC753"/>
<stop offset="1" stop-color="#FFEB7C"/>
</linearGradient>
<linearGradient id="paint1_linear_6992_97183" x1="1.68946" y1="99.7753" x2="99.8448" y2="97.7134" gradientUnits="userSpaceOnUse">
<stop stop-color="#EBAB00"/>
<stop offset="0.22" stop-color="#FFF4A5"/>
<stop offset="0.26" stop-color="#FEF09F"/>
<stop offset="0.31" stop-color="#FDE68F"/>
<stop offset="0.37" stop-color="#FBD574"/>
<stop offset="0.43" stop-color="#F8BE4E"/>
<stop offset="0.49" stop-color="#F4A11F"/>
<stop offset="0.53" stop-color="#F28E00"/>
<stop offset="0.7" stop-color="#CA4E00"/>
<stop offset="0.81" stop-color="#A14D00"/>
<stop offset="1" stop-color="#EBA500"/>
</linearGradient>
<linearGradient id="paint2_linear_6992_97183" x1="131.006" y1="0.0941203" x2="79.8079" y2="84.8646" gradientUnits="userSpaceOnUse">
<stop stop-color="#EBAB00"/>
<stop offset="0.22" stop-color="#FFF4A5"/>
<stop offset="0.26" stop-color="#FEF09F"/>
<stop offset="0.31" stop-color="#FDE68F"/>
<stop offset="0.37" stop-color="#FBD574"/>
<stop offset="0.43" stop-color="#F8BE4E"/>
<stop offset="0.49" stop-color="#F4A11F"/>
<stop offset="0.53" stop-color="#F28E00"/>
<stop offset="0.7" stop-color="#CA4E00"/>
<stop offset="0.81" stop-color="#A14D00"/>
<stop offset="1" stop-color="#EBA500"/>
</linearGradient>
<linearGradient id="paint3_linear_6992_97183" x1="83.0349" y1="80.786" x2="52.6774" y2="208.227" gradientUnits="userSpaceOnUse">
<stop stop-color="#EBAB00"/>
<stop offset="0.22" stop-color="#FFF4A5"/>
<stop offset="0.26" stop-color="#FEF09F"/>
<stop offset="0.31" stop-color="#FDE68F"/>
<stop offset="0.37" stop-color="#FBD574"/>
<stop offset="0.43" stop-color="#F8BE4E"/>
<stop offset="0.49" stop-color="#F4A11F"/>
<stop offset="0.53" stop-color="#F28E00"/>
<stop offset="0.7" stop-color="#CA4E00"/>
<stop offset="0.81" stop-color="#A14D00"/>
<stop offset="1" stop-color="#EBA500"/>
</linearGradient>
<linearGradient id="paint4_linear_6992_97183" x1="46.7139" y1="40.5851" x2="43.988" y2="50.0325" gradientUnits="userSpaceOnUse">
<stop stop-color="#EBAB00"/>
<stop offset="0.22" stop-color="#FFF4A5"/>
<stop offset="0.26" stop-color="#FEF09F"/>
<stop offset="0.31" stop-color="#FDE68F"/>
<stop offset="0.37" stop-color="#FBD574"/>
<stop offset="0.43" stop-color="#F8BE4E"/>
<stop offset="0.49" stop-color="#F4A11F"/>
<stop offset="0.53" stop-color="#F28E00"/>
<stop offset="0.7" stop-color="#CA4E00"/>
<stop offset="0.81" stop-color="#A14D00"/>
<stop offset="1" stop-color="#EBA500"/>
</linearGradient>
<linearGradient id="paint5_linear_6992_97183" x1="-43.2872" y1="38.1613" x2="91.5278" y2="45.1042" gradientUnits="userSpaceOnUse">
<stop stop-color="#EBAB00"/>
<stop offset="0.22" stop-color="#FFF4A5"/>
<stop offset="0.26" stop-color="#FEF09F"/>
<stop offset="0.31" stop-color="#FDE68F"/>
<stop offset="0.37" stop-color="#FBD574"/>
<stop offset="0.43" stop-color="#F8BE4E"/>
<stop offset="0.49" stop-color="#F4A11F"/>
<stop offset="0.53" stop-color="#F28E00"/>
<stop offset="0.7" stop-color="#CA4E00"/>
<stop offset="0.81" stop-color="#A14D00"/>
<stop offset="1" stop-color="#EBA500"/>
</linearGradient>
<clipPath id="clip0_6992_97183">
<rect width="128.688" height="190.766" fill="white"/>
</clipPath>
</defs>
</svg>
