<svg width="20" height="20" viewBox="0 0 20 20" fill="none" xmlns="http://www.w3.org/2000/svg">
<path d="M11.5032 12.7742C11.0551 13.0729 10.5346 13.2308 9.99794 13.2308C9.46132 13.2308 8.94082 13.0729 8.49271 12.7742L1.11211 7.85362C1.07116 7.82632 1.03127 7.79786 0.992188 7.76859V15.8314C0.992188 16.7559 1.74237 17.4895 2.65027 17.4895H17.3456C18.27 17.4895 19.0037 16.7393 19.0037 15.8314V7.76855C18.9645 7.79789 18.9245 7.82642 18.8835 7.85376L11.5032 12.7742Z" fill="#FB5933"/>
<path d="M1.69752 6.97584L9.07812 11.8964C9.35751 12.0827 9.67771 12.1758 9.9979 12.1758C10.3181 12.1758 10.6384 12.0827 10.9178 11.8964L18.2984 6.97584C18.74 6.68157 19.0037 6.18907 19.0037 5.65752C19.0037 4.74354 18.2601 4 17.3462 4H2.6497C1.73576 4.00004 0.992188 4.74357 0.992188 5.6584C0.992188 6.18907 1.25589 6.68157 1.69752 6.97584Z" fill="#FB5933"/>
</svg>
