<svg width="24" height="24" viewBox="0 0 24 24" fill="none" xmlns="http://www.w3.org/2000/svg">
<path d="M18.4006 19.6784H17.655V17.2528C17.6559 16.4201 17.4503 15.6001 17.0566 14.8663C16.6629 14.1325 16.0934 13.5078 15.399 13.048L13.815 11.9984L15.399 10.9488C16.0934 10.4891 16.6629 9.86435 17.0566 9.13055C17.4503 8.39675 17.6559 7.57678 17.655 6.74404V4.31844H18.4006C18.6552 4.31844 18.8994 4.2173 19.0794 4.03726C19.2595 3.85723 19.3606 3.61305 19.3606 3.35844C19.3606 3.10383 19.2595 2.85965 19.0794 2.67961C18.8994 2.49958 18.6552 2.39844 18.4006 2.39844H5.60063C5.34602 2.39844 5.10184 2.49958 4.9218 2.67961C4.74177 2.85965 4.64063 3.10383 4.64062 3.35844C4.64063 3.61305 4.74177 3.85723 4.9218 4.03726C5.10184 4.2173 5.34602 4.31844 5.60063 4.31844H6.49983V6.74404C6.49839 7.57689 6.70377 8.39707 7.09753 9.13096C7.49128 9.86485 8.06109 10.4895 8.75583 10.9488L10.3398 11.9984L8.75583 13.048C8.06406 13.5092 7.49738 14.1347 7.10648 14.8684C6.71558 15.6022 6.51264 16.4214 6.51583 17.2528V19.6784H5.60063C5.34602 19.6784 5.10184 19.7796 4.9218 19.9596C4.74177 20.1397 4.64062 20.3838 4.64062 20.6384C4.64062 20.893 4.74177 21.1372 4.9218 21.3173C5.10184 21.4973 5.34602 21.5984 5.60063 21.5984H18.4006C18.6552 21.5984 18.8994 21.4973 19.0794 21.3173C19.2595 21.1372 19.3606 20.893 19.3606 20.6384C19.3606 20.3838 19.2595 20.1397 19.0794 19.9596C18.8994 19.7796 18.6552 19.6784 18.4006 19.6784ZM8.41983 17.2528C8.4193 16.7372 8.54643 16.2295 8.78989 15.775C9.03334 15.3205 9.38553 14.9333 9.81503 14.648L12.0774 13.1504L14.3366 14.648C14.7665 14.9332 15.1192 15.3202 15.3632 15.7747C15.6072 16.2292 15.7349 16.737 15.735 17.2528V19.6784H8.41983V17.2528Z" fill="#FB5933"/>
</svg>
