<svg width="44" height="36" viewBox="0 0 44 36" fill="none" xmlns="http://www.w3.org/2000/svg">
<g clip-path="url(#clip0_9816_61956)">
<path d="M37.3783 4.28605C37.1418 4.14886 36.9005 4.02587 36.6592 3.9076C36.6498 3.90287 36.6356 3.89341 36.6261 3.88867C36.4274 3.79406 36.2287 3.70418 36.03 3.61902C34.5541 3.00876 33.0781 2.40323 31.6021 1.79297C31.815 1.88285 32.0279 1.97747 32.2407 2.08154C32.482 2.19981 32.7185 2.32281 32.9551 2.46C39.5497 6.26822 41.4231 16.023 37.1418 24.2544C33.1443 31.9323 25.2014 35.5655 18.8008 32.9258C20.2768 33.5361 21.7527 34.1416 23.2287 34.7519C29.6341 37.3916 37.5723 33.7631 41.5697 26.0805C45.851 17.849 43.9776 8.09428 37.383 4.28605H37.3783Z" fill="url(#paint0_linear_9816_61956)"/>
<path d="M32.9528 2.46115C39.5474 6.26938 41.4208 16.0241 37.1395 24.2556C32.8582 32.4823 24.0401 36.0681 17.4455 32.2599C10.8509 28.4517 8.97756 18.697 13.2589 10.4703C17.5401 2.23881 26.3582 -1.34707 32.9528 2.46115Z" fill="url(#paint1_linear_9816_61956)"/>
<path d="M33.7593 2.9707C39.6963 7.08169 41.248 16.3681 37.1418 24.2495C33.1443 31.9274 25.2014 35.5606 18.8008 32.9208C19.3495 33.1479 19.903 33.375 20.4518 33.6021C26.597 35.3051 33.7735 31.6625 37.5013 24.4907C41.688 16.4485 39.9896 6.94923 33.7546 2.9707H33.7593Z" fill="url(#paint2_linear_9816_61956)"/>
<path d="M20.3754 26.6081C16.2786 24.2427 15.1148 18.1827 17.7735 13.0735C20.4321 7.95959 25.9103 5.73616 30.0071 8.09678C34.0991 10.4621 35.2629 16.5222 32.6042 21.6361C29.9456 26.7453 24.4674 28.9734 20.3754 26.6081ZM31.4736 5.27728C26.1279 2.19285 18.9798 5.09751 15.5074 11.7678C12.0351 18.4381 13.5584 26.3479 18.8994 29.4323C24.2403 32.5167 31.3932 29.6121 34.8608 22.9418C38.3331 16.2715 36.8098 8.3617 31.4689 5.27728" fill="url(#paint3_linear_9816_61956)"/>
<path d="M21.8429 23.7902C18.995 22.1439 18.186 17.9336 20.0357 14.3808C21.8854 10.8281 25.6937 9.27639 28.5416 10.9227C31.3894 12.5642 32.1937 16.7793 30.3487 20.3321C28.499 23.8848 24.6908 25.4318 21.8476 23.7902M30.0081 8.10317C25.9113 5.73781 20.4331 7.96598 17.7745 13.0799C15.1158 18.189 16.2795 24.2491 20.3763 26.6144C24.4684 28.9798 29.9466 26.7516 32.6052 21.6425C35.2639 16.5286 34.1001 10.4685 30.0081 8.10317Z" fill="url(#paint4_linear_9816_61956)"/>
<path d="M23.3182 20.9646C21.7193 20.0421 21.2651 17.6767 22.3011 15.6851C23.3419 13.6887 25.4755 12.823 27.0744 13.7455C28.6687 14.668 29.1228 17.0286 28.0868 19.025C27.0508 21.0166 24.9125 21.887 23.3182 20.9646ZM28.5457 10.9212C25.6978 9.27969 21.8896 10.8266 20.0399 14.3794C18.1902 17.9322 18.9991 22.1425 21.847 23.7888C24.6902 25.4303 28.4984 23.8834 30.3481 20.3306C32.1978 16.7779 31.3888 12.5628 28.541 10.9212" fill="url(#paint5_linear_9816_61956)"/>
<path d="M27.0712 13.746C25.4722 12.8236 23.3339 13.6893 22.2979 15.6856C21.2618 17.6773 21.716 20.0426 23.315 20.9651C24.9092 21.8876 27.0475 21.0171 28.0835 19.0255C29.1243 17.0292 28.6701 14.6685 27.0712 13.746Z" fill="url(#paint6_linear_9816_61956)"/>
<path style="mix-blend-mode:multiply" d="M22.7517 17.0684L14.3594 29.6757C15.2298 30.6975 16.2564 31.5775 17.4391 32.2587C17.4485 32.2634 17.4627 32.2729 17.4722 32.2776L26.276 18.497L22.7469 17.0684H22.7517Z" fill="url(#paint7_linear_9816_61956)"/>
<path d="M0.664062 15.3474L7.86421 17.7979L11.4264 14.5384L4.22629 12.0879L0.664062 15.3474Z" fill="url(#paint8_linear_9816_61956)"/>
<path d="M26.0677 15.6991L3.64408 8.06849C2.91082 7.64273 1.93156 8.04484 1.45376 8.95787C0.980689 9.87089 1.18411 10.9542 1.9221 11.38L24.3504 19.0106C25.0837 19.4317 26.0629 19.0343 26.536 18.1213C27.0138 17.2035 26.8057 16.1202 26.0724 15.6991H26.0677Z" fill="url(#paint9_linear_9816_61956)"/>
<path d="M3.64408 8.06849C2.91082 7.64273 1.93156 8.04484 1.45376 8.95787C0.980689 9.87089 1.18411 10.9542 1.9221 11.38C2.65536 11.801 3.63462 11.4036 4.10769 10.4906C4.58549 9.57286 4.37734 8.48953 3.64408 8.06849Z" fill="url(#paint10_linear_9816_61956)"/>
<path d="M5.20502 8.66803L12.4052 11.1185L9.97358 6.10871L2.77344 3.6582L5.20502 8.66803Z" fill="url(#paint11_linear_9816_61956)"/>
</g>
<defs>
<linearGradient id="paint0_linear_9816_61956" x1="36.0017" y1="0.34064" x2="30.41" y2="30.778" gradientUnits="userSpaceOnUse">
<stop stop-color="#FA4B34"/>
<stop offset="1" stop-color="#A10606"/>
</linearGradient>
<linearGradient id="paint1_linear_9816_61956" x1="26.6941" y1="2.92003" x2="22.2425" y2="45.8654" gradientUnits="userSpaceOnUse">
<stop stop-color="#FA4B34"/>
<stop offset="1" stop-color="#A10606"/>
</linearGradient>
<linearGradient id="paint2_linear_9816_61956" x1="29.4591" y1="24.292" x2="52.2848" y2="-14.6796" gradientUnits="userSpaceOnUse">
<stop stop-color="#FA4B34"/>
<stop offset="1" stop-color="#A10606"/>
</linearGradient>
<linearGradient id="paint3_linear_9816_61956" x1="28.6163" y1="11.2995" x2="10.0293" y2="44.1401" gradientUnits="userSpaceOnUse">
<stop stop-color="white"/>
<stop offset="1" stop-color="#D3D6E0"/>
</linearGradient>
<linearGradient id="paint4_linear_9816_61956" x1="26.6871" y1="2.91831" x2="22.2355" y2="45.8637" gradientUnits="userSpaceOnUse">
<stop stop-color="#FA4B34"/>
<stop offset="1" stop-color="#A10606"/>
</linearGradient>
<linearGradient id="paint5_linear_9816_61956" x1="28.6214" y1="11.2997" x2="10.0344" y2="44.1403" gradientUnits="userSpaceOnUse">
<stop stop-color="white"/>
<stop offset="1" stop-color="#D3D6E0"/>
</linearGradient>
<linearGradient id="paint6_linear_9816_61956" x1="26.688" y1="2.91744" x2="22.2364" y2="45.8629" gradientUnits="userSpaceOnUse">
<stop stop-color="#FA4B34"/>
<stop offset="1" stop-color="#A10606"/>
</linearGradient>
<linearGradient id="paint7_linear_9816_61956" x1="17.4675" y1="28.5829" x2="24.5777" y2="17.3711" gradientUnits="userSpaceOnUse">
<stop stop-color="white"/>
<stop offset="1" stop-color="#BFC4D4"/>
</linearGradient>
<linearGradient id="paint8_linear_9816_61956" x1="2.67935" y1="19.288" x2="7.97775" y2="12.4522" gradientUnits="userSpaceOnUse">
<stop stop-color="#FFE32B"/>
<stop offset="1" stop-color="#FF8A14"/>
</linearGradient>
<linearGradient id="paint9_linear_9816_61956" x1="26.1623" y1="15.0368" x2="4.29219" y2="12.3451" gradientUnits="userSpaceOnUse">
<stop stop-color="#E07941"/>
<stop offset="1" stop-color="#E09755"/>
</linearGradient>
<linearGradient id="paint10_linear_9816_61956" x1="3.46431" y1="3.10124" x2="1.42538" y2="22.7999" gradientUnits="userSpaceOnUse">
<stop stop-color="#F2B57E"/>
<stop offset="1" stop-color="#E09755"/>
</linearGradient>
<linearGradient id="paint11_linear_9816_61956" x1="7.21085" y1="4.36308" x2="8.00088" y2="10.688" gradientUnits="userSpaceOnUse">
<stop stop-color="#FFE32B"/>
<stop offset="1" stop-color="#FF8A14"/>
</linearGradient>
<clipPath id="clip0_9816_61956">
<rect width="43.2009" height="34.6667" fill="white" transform="translate(0.644531 0.941406)"/>
</clipPath>
</defs>
</svg>
