<svg width="32" height="26" viewBox="0 0 32 26" fill="none" xmlns="http://www.w3.org/2000/svg">
<path d="M24.8847 24.4717C23.0296 23.4187 21.4637 21.6649 21.0653 19.5494C21.0955 19.5487 21.126 19.5485 21.1559 19.5475C24.8357 19.436 28.6855 18.1729 30.4296 14.7048C31.1513 13.2697 31.6908 11.2808 30.7645 9.81413C29.7853 8.26388 27.5404 8.34054 26.0647 9.01552C24.0369 9.94311 22.5749 12.0389 21.536 13.9257C20.7277 15.394 20.0637 16.9439 20.0238 18.573C18.9058 18.5314 17.792 18.3705 16.7184 18.0891C14.8666 17.6035 13.1043 16.6619 11.9651 15.0891C11.2856 14.1506 11.0592 13.0325 11.0894 11.9066C13.0376 12.1907 15.0186 11.8885 16.4124 10.4294C18.8492 7.87823 14.6027 4.92993 12.1953 6.57972C10.9195 7.4538 10.4295 9.28257 10.2125 10.7585C5.95516 9.76991 1.57908 5.83866 1.70097 1.47169C1.71878 0.839207 0.738064 0.765518 0.720309 1.40076C0.607113 5.44801 3.74089 8.75676 7.10359 10.5602C7.98921 11.0351 9.03046 11.4541 10.1149 11.717C10.0509 13.0733 10.3298 14.4055 11.105 15.559C13.032 18.4267 16.7364 19.4539 20.0799 19.5484C20.1084 19.7578 20.1448 19.9684 20.1972 20.1805C20.74 22.3742 22.4124 24.1965 24.3386 25.2894C24.8861 25.6003 25.4377 24.7853 24.8847 24.4717ZM11.3785 9.90401C11.6283 8.90064 12.0937 7.7484 13.0303 7.20485C14.0166 6.63259 15.5288 7.35372 16.0596 8.26504C16.5152 9.04776 15.708 9.81916 15.1334 10.2381C14.2614 10.8738 13.1942 11.0049 12.1488 10.9985C11.8287 10.9966 11.5034 10.9731 11.1755 10.932C11.2259 10.5835 11.2953 10.2391 11.3785 9.90401ZM21.9854 15.2001C22.5837 13.9011 23.3881 12.6636 24.3427 11.5987C25.0605 10.7979 25.9135 10.1207 26.9163 9.71997C27.9649 9.30104 29.5063 9.48173 30.0629 10.5633C30.9515 12.2903 29.4224 14.9456 28.2412 16.1499C26.9265 17.4906 24.8463 18.0764 23.0567 18.3808C22.3692 18.4977 21.6702 18.5592 20.9689 18.577C20.9568 17.4012 21.504 16.2452 21.9854 15.2001Z" fill="#FB5933"/>
</svg>
