<svg width="130" height="135" viewBox="0 0 130 135" fill="none" xmlns="http://www.w3.org/2000/svg">
<path d="M113.051 63.8212C113.666 84.7395 113.525 109.877 90.3636 114.601C72.2786 118.291 40.8358 120.237 25.5357 107.144C10.5347 94.3065 15.2876 60.0818 18.205 42.3039C22.2221 17.8293 39.0359 11.1006 59.0145 9.83339C72.1638 8.99985 90.1744 8.09523 100.995 18.3322C111.982 28.7256 112.257 49.141 113.053 63.8212C113.37 69.6826 119.743 70.2175 119.415 63.9456C118.386 44.3069 119.382 12.19 97.6959 5.36358C78.1183 -0.799949 49.0851 -0.145918 29.9182 7.48741C9.3655 15.6717 10.1563 48.096 9.41724 67.3792C8.61997 88.1643 7.61571 114.987 31.047 120.169C52.5345 124.922 81.668 126.736 103.049 120.407C124.041 114.194 120.066 81.823 119.413 63.9456C119.185 57.6736 112.878 57.9491 113.051 63.8212Z" fill="#7B9400"/>
<path d="M116.233 63.8812C116.841 77.9624 119.115 99.6219 108.806 110.827C98.3603 122.182 77.9499 120 64.8588 119.721C51.488 119.437 31.2296 120.668 20.6209 109.295C10.3453 98.28 12.1582 77.7883 12.7856 63.8048C13.4438 49.146 13.6622 28.9296 23.9377 17.5072C34.058 6.25716 51.7888 6.31226 64.8588 6.035C77.7009 5.76308 95.5157 4.86912 105.489 16.1334C115.805 27.7851 115.591 49.0767 116.232 63.8812H116.233Z" fill="#C0EB18"/>
<path d="M64.863 6.03522C51.8108 6.29114 34.0622 6.25738 23.9419 17.5074C13.6663 28.9299 13.4513 49.1426 12.7898 63.805C12.4809 70.6617 12.3936 77.6765 12.7834 84.6362C14.0027 69.6095 15.4792 54.1971 20.0186 39.8796C24.6826 25.1692 35.3899 16.9494 48.8707 14.2462C63.8749 11.239 79.9853 9.85633 95.3 11.7118C97.6966 12.0015 99.9817 12.444 102.128 13.0056C91.4317 5.29055 76.8673 5.79884 64.8614 6.03522H64.863Z" fill="#E1FF80"/>
<path d="M64.8614 119.721C77.9525 119.999 98.3629 122.181 108.808 110.828C119.116 99.6223 116.768 78.0553 116.236 63.8817C116.076 59.6002 116.037 55.23 115.699 51.1885C115.143 53.8917 114.345 56.6998 113.705 59.2057C108.866 78.137 100.462 93.2615 81.6801 96.8036C64.918 99.9653 44.6952 101.24 28.3358 94.4576C24.5241 92.8776 21.1054 90.5956 18.8866 86.7603C16.6355 82.8699 15.6247 77.4883 14.6722 71.7851C14.0431 68.0173 13.4512 64.0043 12.9936 59.8757C12.9176 61.1767 12.84 62.4954 12.7898 63.8052C12.2497 77.8971 10.3495 98.2805 20.6251 109.296C31.2338 120.669 51.4922 119.437 64.863 119.721H64.8614Z" fill="#A7D100"/>
<path d="M64.8587 119.721C80.8898 120.055 108.645 123.087 114.186 100.543C110.973 104.981 106.748 108.018 101.42 109.886C84.1791 115.932 63.7461 114.765 45.97 114.567C38.5504 114.486 31.4785 113.856 24.0977 112.237C35.8788 119.913 51.8226 119.449 64.8603 119.721H64.8587Z" fill="#A7D100"/>
<path d="M70.3825 61.7507C72.8654 61.7507 74.8782 59.459 74.8782 56.6322C74.8782 53.8053 72.8654 51.5137 70.3825 51.5137C67.8995 51.5137 65.8867 53.8053 65.8867 56.6322C65.8867 59.459 67.8995 61.7507 70.3825 61.7507Z" fill="#D5FF45"/>
<path d="M97.2309 59.3685C97.1743 59.2316 97.0822 59.0983 96.9479 58.9757C96.8428 58.8459 96.7296 58.7553 96.6148 58.6931C94.6402 57.0083 92.1304 55.8282 89.9552 54.4597C86.8729 52.5189 83.7906 50.5479 80.7276 48.5769C74.8201 44.7754 68.9125 40.9525 62.9597 37.2469C60.487 35.706 57.961 34.3144 55.6193 32.7647C54.2398 31.8512 52.9218 30.9128 51.4437 30.2925C50.3715 29.8429 49.0131 29.4732 47.7986 30.2054C45.9954 31.2949 45.8337 33.863 45.7302 35.6865C44.8925 50.5426 44.6855 65.5142 45.3389 80.3632C45.4877 83.7276 45.0607 87.8615 46.6472 91.1707C48.7349 95.525 53.8064 91.1121 55.6565 90.0066C65.3903 84.1879 74.9947 77.8999 84.604 71.7488C88.0955 69.5148 91.8538 67.5421 95.2321 65.1623C97.2326 63.753 98.7042 61.6131 97.2326 59.3685H97.2309Z" fill="#ECFFB5"/>
<path d="M95.7405 61.3076C95.6855 61.1779 95.5966 61.0535 95.4656 60.9362C95.3637 60.8135 95.2538 60.7282 95.1422 60.6713C93.2242 59.0825 90.7855 57.9717 88.6718 56.6814C85.6768 54.8526 82.6818 52.9954 79.7062 51.1381C73.9668 47.557 68.2291 43.9527 62.4444 40.4604C60.0413 39.0083 57.588 37.6967 55.3143 36.2358C53.9736 35.3738 52.6944 34.4905 51.2584 33.9058C50.2169 33.4811 48.8957 33.1327 47.7168 33.8241C45.9637 34.8513 45.8085 37.272 45.7082 38.9888C44.8948 52.99 44.6926 67.0997 45.3282 81.0938C45.4721 84.2645 45.0581 88.1602 46.5993 91.2793C48.6272 95.383 53.5548 91.2242 55.3515 90.1827C64.8071 84.6981 74.1399 78.7727 83.4742 72.9753C86.8654 70.8693 90.517 69.012 93.7983 66.7691C95.7405 65.4415 97.1701 63.4243 95.7405 61.3094V61.3076Z" fill="#608000"/>
</svg>
