<svg width="800" height="800" viewBox="0 0 800 800" fill="none" xmlns="http://www.w3.org/2000/svg">
<path d="M507 386C555.601 386 595 346.601 595 298C595 249.399 555.601 210 507 210C458.399 210 419 249.399 419 298C419 346.601 458.399 386 507 386Z" fill="#F6B138"/>
<path d="M507 356.666C539.401 356.666 565.667 330.4 565.667 298C565.667 265.599 539.401 239.333 507 239.333C474.599 239.333 448.333 265.599 448.333 298C448.333 330.4 474.599 356.666 507 356.666Z" fill="#985B0B"/>
<path opacity="0.1" d="M439 242.666C453.667 224.666 476.333 212.666 501 210.666C499 210.666 497 210.666 495 210.666C473.667 210.666 454.333 217.999 439 230.666V242.666Z" fill="black"/>
<path d="M507 338.666C529.459 338.666 547.667 320.459 547.667 298C547.667 275.54 529.459 257.333 507 257.333C484.54 257.333 466.333 275.54 466.333 298C466.333 320.459 484.54 338.666 507 338.666Z" fill="#DE9A2B"/>
<path d="M567.333 689.333H179.333C154.667 689.333 134.667 669.333 134.667 644.666V362C134.667 337.333 154.667 317.333 179.333 317.333H568C592.667 317.333 612.667 337.333 612.667 362V645.333C612 670 592 689.333 567.333 689.333Z" fill="#7F5536"/>
<path opacity="0.1" d="M588 682H199.333C174.667 682 154.667 662 154.667 637.333V354C154.667 339.333 162 326 173.333 318C151.333 320.667 134.667 339.333 134.667 362V645.333C134.667 670 154.667 690 179.333 690H568C577.333 690 586.667 686.667 594 682C591.333 681.333 590 682 588 682Z" fill="black"/>
<path d="M631.333 566.667H492.667C481.333 566.667 471.333 557.334 471.333 545.334V462C471.333 450.667 480.667 440.667 492.667 440.667H630.667C642 440.667 652 450 652 462V545.334C652 556.667 642.667 566.667 631.333 566.667Z" fill="#5F381F"/>
<path d="M536 533.333C552.569 533.333 566 519.902 566 503.333C566 486.764 552.569 473.333 536 473.333C519.431 473.333 506 486.764 506 503.333C506 519.902 519.431 533.333 536 533.333Z" fill="#361F11"/>
<path opacity="0.1" d="M542 530.666C525.333 530.666 512 517.333 512 500.666C512 490 518 480.666 526.667 475.333C514.667 479.333 506.667 490.666 506.667 503.333C506.667 520 520 533.333 536.667 533.333C542 533.333 547.333 532 552 528.666C548.667 530 545.333 530.666 542 530.666Z" fill="black"/>
<path opacity="0.1" d="M642 562.666H504C492.667 562.666 482.667 553.333 482.667 541.333V458.666C482.667 451.333 486.667 444.666 492 441.333C480.667 442 472 450.666 472 462.666V546C472 557.333 481.333 567.333 493.333 567.333H631.333C636 567.333 640 566 643.333 564C642.667 562.666 642 562.666 642 562.666Z" fill="black"/>
</svg>
