<svg width="24" height="24" viewBox="0 0 24 24" fill="none" xmlns="http://www.w3.org/2000/svg">
<g clip-path="url(#clip0_9816_62992)">
<path d="M18.2526 20.7493H17.4193V19.916H6.58594V20.7493H5.7526C5.5226 20.7493 5.33594 20.9356 5.33594 21.166C5.33594 21.3964 5.5226 21.5827 5.7526 21.5827H6.58594H17.4193H18.2526C18.4826 21.5827 18.6693 21.3964 18.6693 21.166C18.6693 20.9356 18.4826 20.7493 18.2526 20.7493Z" fill="#FB5933"/>
<path d="M19.918 16.582H15.7513H14.918H9.08464H8.2513H4.08464H2.41797V18.2487C2.41797 18.7083 2.79172 19.082 3.2513 19.082H20.7513C21.2109 19.082 21.5846 18.7083 21.5846 18.2487V16.582H19.918Z" fill="#FB5933"/>
<path d="M20.7513 2.41602H3.2513C2.79172 2.41602 2.41797 2.78977 2.41797 3.24935V15.7493H3.66797H4.08464H8.2513H9.08464H14.918H15.7513H19.918H20.7513H21.5846V3.24935C21.5846 2.78977 21.2109 2.41602 20.7513 2.41602ZM17.8346 9.49935C18.5238 9.49935 19.0846 10.0602 19.0846 10.7493C19.0846 11.4385 18.5238 11.9993 17.8346 11.9993C17.1455 11.9993 16.5846 11.4385 16.5846 10.7493C16.5846 10.0602 17.1455 9.49935 17.8346 9.49935ZM12.0013 6.58268C13.1501 6.58268 14.0846 7.51727 14.0846 8.66602C14.0846 9.81477 13.1501 10.7493 12.0013 10.7493C10.8526 10.7493 9.91797 9.81477 9.91797 8.66602C9.91797 7.51727 10.8526 6.58268 12.0013 6.58268ZM6.16797 9.49935C6.85714 9.49935 7.41797 10.0602 7.41797 10.7493C7.41797 11.4385 6.85714 11.9993 6.16797 11.9993C5.4788 11.9993 4.91797 11.4385 4.91797 10.7493C4.91797 10.0602 5.4788 9.49935 6.16797 9.49935ZM4.08464 14.916V14.0827C4.08464 13.3935 4.64547 12.8327 5.33464 12.8327H7.0013C7.69047 12.8327 8.2513 13.3935 8.2513 14.0827V14.916H4.08464ZM9.08464 14.916V13.2493C9.08464 12.3302 9.83214 11.5827 10.7513 11.5827H13.2513C14.1705 11.5827 14.918 12.3302 14.918 13.2493V14.916H9.08464ZM15.7513 14.916V14.0827C15.7513 13.3935 16.3121 12.8327 17.0013 12.8327H18.668C19.3571 12.8327 19.918 13.3935 19.918 14.0827V14.916H15.7513Z" fill="#FB5933"/>
</g>
<defs>
<clipPath id="clip0_9816_62992">
<rect width="20" height="20" fill="white" transform="translate(2 2)"/>
</clipPath>
</defs>
</svg>
