<?xml version="1.0" encoding="utf-8"?>
<!-- Generator: Adobe Illustrator 22.1.0, SVG Export Plug-In . SVG Version: 6.00 Build 0)  -->
<svg version="1.1" id="Layer_1" xmlns="http://www.w3.org/2000/svg" xmlns:xlink="http://www.w3.org/1999/xlink" x="0px" y="0px"
	 viewBox="0 0 500 453.3" style="enable-background:new 0 0 500 453.3;" xml:space="preserve">
<style type="text/css">
	.st0{fill:#FFFFFF;}
	.st1{fill:url(#SVGID_1_);}
	.st2{fill:url(#SVGID_2_);}
	.st3{fill:url(#SVGID_3_);}
	.st4{fill:url(#SVGID_4_);}
	.st5{fill:url(#SVGID_5_);}
	.st6{fill:url(#SVGID_6_);}
	.st7{fill:url(#SVGID_7_);}
	.st8{fill:url(#SVGID_8_);}
	.st9{fill:url(#SVGID_9_);}
	.st10{fill:url(#SVGID_10_);}
	.st11{fill:url(#SVGID_11_);}
	.st12{fill:url(#SVGID_12_);}
	.st13{fill:url(#SVGID_13_);}
	.st14{fill:url(#SVGID_14_);}
	.st15{fill:url(#SVGID_15_);}
	.st16{fill:url(#SVGID_16_);}
	.st17{fill:url(#SVGID_17_);}
	.st18{fill:url(#SVGID_18_);}
	.st19{fill:url(#SVGID_19_);}
	.st20{fill:url(#SVGID_20_);}
	.st21{fill:url(#SVGID_21_);}
	.st22{fill:url(#SVGID_22_);}
	.st23{fill:none;stroke:#000000;stroke-width:2;stroke-miterlimit:10;}
	.st24{clip-path:url(#SVGID_24_);}
	.st25{fill:url(#SVGID_25_);}
	.st26{fill:url(#SVGID_26_);}
</style>
<g>
	<path class="st0" d="M73.4,190.7l10-65.5l30-21.8l23.7-39.1l35.5-4.6l37.3-5.5H290l77.4,30.9l22.8,19.1l14.6,30.9l7.3,34.6
		c0,0,4.6,20.9,4.6,24.6s-5.5,70.1-6.4,73.7s-26.4,55.5-26.4,55.5s-24.6,26.4-26.4,31.9s-41,81.9-41,81.9l-30.7,15.4l-70.2,0.5
		l-36.7-18l-9.6-25.9L73.4,307v-49.8l-4.1-41.6L73.4,190.7z"/>
	<g id="ShoSho_5_">
		<linearGradient id="SVGID_1_" gradientUnits="userSpaceOnUse" x1="250" y1="453.3356" x2="250" y2="-9.094947e-13">
			<stop  offset="0" style="stop-color:#FCB532"/>
			<stop  offset="1" style="stop-color:#F15A65"/>
		</linearGradient>
		<path class="st1" d="M315.8,7.6C303,16.9,287.4,23.5,276.9,35c0.9,1.7,2.9,1.1,2.7-1.1c14.3-3.5,29.2-11,45-14.8
			c0.4,1.1,3.1-0.1,3.3,1.1c1.1-0.2,1.1-1.5,1.6-2.2c13.7-2.6,22.6,1.1,36.2,7.1c18.7,8.2,38.2,20.8,51.5,34.5
			c-13.8,3.6-27.8,6.9-38.9,13.2c18.1,0.6,36.6,1.2,58.1,3.3c21,20.8,39.7,46.9,49.3,77.3c-14-4.4-24.1-9.5-40.6-11
			c12.2,9.9,26.4,18.3,39.5,29.1c2.9,2.4,7.6,4.9,9.3,7.1c3.4,4.3,4.9,19.6,5.5,27.4c1.5,19.1-0.4,43.6-3.8,60.9
			c-11.4-7.6-20.1-17.9-35.1-21.9c10.2,14.6,19.8,31.6,27.4,49.9c-2.9,12.1-7.1,22.9-13.7,31.2c-4.9,11.7-11.2,22.1-19.7,30.2
			c-6.1-8.9-12.2-17.7-20.8-24.1c-0.5,12.2,11.6,27.4,7.1,41.7c-1.5,4.7-9.8,9.1-14.3,13.7c-5.4,5.6-13,12.9-20.3,16.5
			c-1.3-12.1-1.1-24.1-5.5-34c-4.9,15.8-7.6,33.7-13.7,48.2c-10.2,5.1-20.8,12.8-32.3,14.8c2.4-14,4.6-25.6,4.4-37.8
			c-7.5,13.2-16,29.3-25.2,41.7c-4.9,6.5-5.7,6.7-15.3,9.3c-10.6,2.9-21.7,7.3-32.9,6.6c1.8-4.1,4.8-3.4,7.1-4.9
			c16-10.4,30.5-27.3,26.9-52.6c-1.2-8.3-2.7-22.4-4.9-30.7c-0.8-3-2.5-4.8-2.2-7.1c0.6-4.8,7.6-11.3,9.9-15.3
			c3.2-5.8,6-13.9,9.9-20.3c3.7-6.1,8.3-10.1,15.4-3.3c3-8.8,2.4-22.4,2.7-35.6c5.1,1.3,8.5,4.3,13.7,5.5
			c3.2-10.4,4.6-22.5,5.5-31.8c4.5,1.7,8.1,4.3,12.6,6c4-8,2.3-18.9,3.8-28c4.8,1.3,8.7,3.3,12.6,5.5c-1.9-16.4-8.9-30.6-10.4-45.5
			c5,0.6,8.1,3.2,12.1,4.9c-9.9-30.3-25-56.9-62.5-57.6c-19.6-0.3-37.1-5.7-42.2-24.7c10.9-5.7,16.6-17.2,33.4-15.3
			c-2.2,7.5-10.9,8.5-14.8,14.3c7.9,2.7,16-0.1,23,1.1c11.2,1.9,20.3,11.2,28.5,18.1c7.7,6.5,14.4,13.2,20.8,19.2
			c-5-45.2-48.2-67.6-88.8-77.3c-14-3.4-33.3,9.9-49.9,10.4c-3.7-1.8-18.1-7.2-26.3-9.3c-17.4-4.5-30,1.9-45.5,8.2
			c-14.4,5.8-28.7,12.1-39.5,23c-8.8,9-19.2,28.9-20.8,43.9c3.9,0.2,4.4-4.2,6.6-6.6c7.1-7.9,18.9-16.9,29.1-23
			c4.3-2.6,7.7-6.1,12.6-6.6c7.3-0.7,17.1,1.5,25.2-0.5c-2.8-6.9-12.8-6.5-15.4-13.7c9.6-3.2,17.4,2.8,25.2,8.2
			c2,1.4,7.5,5.9,7.7,7.7c0.4,3.8-4.6,5.5-4.4,9.3c-7.9,8.7-21,13.1-35.6,13.7c-27.6,1.2-43.7,13.1-55.9,32.3
			c-1.3,8.4-7,15.1-9.3,24.1c5.3-0.4,7.1-4.2,12.1-4.9c-1.9,14.9-8.5,29.9-11.5,45.5c6.8,0.4,6.2-4.3,12.6-4.9
			c1.2,8.4,1.5,18,2.2,28c5-0.3,7.9-2.7,11.5-4.4c6.2,5.8,4.3,21.1,7.1,30.7c5.5-0.7,9-3.4,13.2-5.5c2.8,10,1.5,24.1,3.3,35.1
			c7.7-2.4,10-6.4,14.3,2.2c4.8,9.5,16.3,24.8,20.8,34.5c2.1,4.5,0,5.4-1.1,9.3c-3,10.7-6.3,25.2-6,36.7c0.6,28.9,15.9,40,35.6,52.6
			c-12-0.6-19.7-3.5-29.6-6c-11.1-2.8-16.3-2.9-21.9-11c-3-4.4-4.3-10.7-9.3-13.2c-2.9-7.3-5.4-15.1-11-19.7
			c-0.1-3.1-0.9-5.6-2.2-7.7c-3.1,12.7,1.6,23.7,2.7,38.9c-10.8-6.3-21.6-9.5-31.2-16.5c-5.6-13.7-11.7-33.4-13.2-48.8
			c-6.1,8.5-5.8,23.5-7.1,34c-13.7-6.3-21.6-18.2-32.9-26.9c-3.7-14.1,2.1-32.4,7.7-45c-4.6,2.8-8.4,5-12.6,9.9
			c-5.5,6.4-8.5,20.8-16.5,8.8c-6-9-10.8-16.1-15.4-25.2c-1.1-2.3-1.2-5.6-2.7-8.2c-2.1-3.6-8.7-15.7-8.2-21.4
			c0.2-3.1,3-5.8,3.8-8.2c6.2-17.3,15.2-30.8,24.7-42.8c-15,4.2-25.1,13.3-35.6,21.9c-6.5-16.2-5.3-36.7-3.8-55.4
			c1.1-14,1.5-30.1,11.5-37.8c13.8-10.5,30.2-21.3,45.5-30.7c-15.6-0.6-28.5,6.3-43.3,11c10.6-31.4,29-55.1,48.8-77.3
			c15.9-1.9,37-2.3,53.2-3.8c1.7,1.3,4.9,2.5,7.7,1.1c-11.9-7.3-26-9.8-40.6-13.7c19-19.7,46.2-31.3,72.4-43.9
			c26.7,4,49.7,11.7,71.3,20.8c-10.2-13.2-27.4-19.3-41.1-29.1C224.4-2.4,278.7-2.7,315.8,7.6z"/>
		<linearGradient id="SVGID_2_" gradientUnits="userSpaceOnUse" x1="250.8375" y1="407.9345" x2="250.8375" y2="138.1815">
			<stop  offset="0" style="stop-color:#FCB532"/>
			<stop  offset="1" style="stop-color:#F15A65"/>
		</linearGradient>
		<path class="st2" d="M320.8,172.1c-9.9-1.7-18-10.1-29.6-9.3c-10.9,0.8-20.2,8-29.6,11.5c-2.7,11.8,6.3,16.6,15.4,19.2
			c6.4,1.8,13.9,3.9,21.9,7.1c16.3,6.7,44.2,10.1,37.3,35.1c-0.8,2.8-2.3,6.4-3.3,9.3c-7.4,21.8-14.9,42.9-22.5,65.2
			c-3.1,9.3-9.2,19.2-9.9,26.3c-0.4,4.2,0.8,9.9,1.1,14.8c1.4,21.6,10.8,46.1-10.4,52.1c-13.8,3.9-29.5,4.8-43.3,4.4
			c-8.8-0.3-22-1.3-32.9-3.3c-17.7-3.2-22.1-13.4-19.2-32.9c0.6-3.8,2.4-8,2.7-12.1c0.3-3.6-0.5-8,0-11.5c0.6-4.1,2.5-6.8,2.2-10.4
			c-0.5-5.6-4.9-12.9-7.1-19.7c-10.2-30.7-20.4-57.8-29.1-89.9c1.4-18.2,22-20,40-27.4c11.7-4.8,26.6-8.2,36.7-15.4
			c-0.1-5.3,1.1-7.7,0-12.6c-10.7-1.4-19.4-9.6-30.2-10.4c-11.3-0.8-18.7,8.2-29.6,9.9c1.5-12,12-18,23-24.7c4.8-2.9,12.7-8,17-8.8
			c11.1-2,22.2,4.3,31.8,3.8c11.1-0.5,22.2-7.3,32.3-2.7c13.6,6.1,27.1,18.6,35.1,26.3C320.8,168.1,320.8,170.1,320.8,172.1z
			 M184.2,220.9c-2.9,20.9,1.3,41.1,8.8,57.6c1,2.2,0.4,6,4.4,5.5c0.5-20.4,1.4-36.9,7.1-58.7C199,221.7,192.2,220.3,184.2,220.9z
			 M298.8,225.8c4.7,17.1,5.7,37.1,6.6,57.6c9.6-7.4,10.5-25.2,14.8-40c-1.2-6.7-0.3-13.7-0.5-22.5
			C313.3,219.7,304,220.7,298.8,225.8z M213.3,222.5c-1.5,7.1-2.8,19.5,1.6,24.7C224,241.6,231.5,223.8,213.3,222.5z M289.5,247.2
			c2.4-7.2,1.7-14.6,2.2-24.1C273.7,220.6,278.3,243.8,289.5,247.2z M231.4,230.8c-1.2,2.8-2.2,5.9-3.8,8.2c1.4,2.8,3.1,5.3,5.5,7.1
			c3.4-1.5,6.6-3.3,7.7-7.1c-3-1.4-1.7-7.1-4.4-8.8C234.5,231.5,232.9,229.5,231.4,230.8z M253.9,230.2c-4.8-1.4-4.7,2.3-6,6
			c-1.7,4.8-0.2,6.8,3.3,9.9C260.5,246.4,259.9,232,253.9,230.2z M263.7,240.1c4,13,17.8-0.5,9.3-9.3
			C265.5,229.4,265.4,235.6,263.7,240.1z M253.3,280.6c-10.7-3.1-24-4.9-34-7.1c-3.3,8.2-3.9,17-6,26.3c-1.9,8.3-6.7,17.8-6.6,25.8
			c0.3,16.6,25.3,27.1,42.8,28c23.6,1.2,53.8-15,44.4-37.3c-0.6-10.8-5.4-28.2-9.9-42.2C273.2,276.2,261.1,277.7,253.3,280.6z
			 M218.2,394.7c9.1,1.2,15-7,14.3-12.6c-0.6-4.6-8.2-10.1-11.5-15.4c-4-6.6-4.5-13.4-9.3-15.9c-0.4,0-0.7,0-1.1,0
			C206.9,367.1,209.6,383.2,218.2,394.7z M289.5,350.8c-4.4,6.4-7.3,15-11.5,21.4c-1.8,2.7-5.2,4.3-6.6,6.6
			c-2.8,4.6,0.1,13.1,4.9,15.4c11,5.1,16.6-13.4,17-22.5c0.3-6.7-1.3-13.2,0-19.7C291.6,352,291.5,350.5,289.5,350.8z"/>
	</g>
</g>
</svg>
