<svg width="155" height="156" viewBox="0 0 155 156" fill="none" xmlns="http://www.w3.org/2000/svg">
<g filter="url(#filter0_d_6992_92288)">
<path d="M20.7205 76.7505C16.9159 78.3112 9.45852 93.4735 21.6434 107.768L44.3233 98.3974L34.9022 75.1134L20.7402 76.7458L20.7205 76.7505Z" fill="#B59281"/>
<path d="M129.902 74.6668C92.9313 81.0405 56.5503 91.7863 22.0934 106.458C21.5615 107.986 21.0267 109.546 20.5212 111.14C54.5408 95.0371 90.812 83.9207 127.988 78.229C128.637 77.0598 129.262 75.8755 129.889 74.6593L129.902 74.6668Z" fill="white"/>
<path d="M132.298 67.4898C131.957 66.809 131.702 66.0969 131.532 65.3856C131 63.2565 131.146 61.1215 132.006 60.0479C132.173 59.8302 132.372 59.699 132.589 59.6469C96.8399 70.0216 60.3348 80.3374 24.3964 90.1411C24.179 90.1933 23.9806 90.3245 23.8135 90.5422C22.9484 91.596 22.8167 93.7903 23.3797 96.0059C23.5674 96.7445 23.8265 97.4763 24.16 98.1694C25.61 101.165 27.6004 102.536 29.1561 101.923C64.0148 88.2723 100.565 78.1023 137.453 71.8633C135.824 72.1287 133.738 70.4457 132.29 67.5021L132.298 67.4898Z" fill="#EBDACF"/>
<path d="M29.2854 89.1787C28.4804 90.1345 27.6877 91.0979 26.8922 92.0932C62.6212 81.5039 99.1433 71.2154 135.092 61.6705C135.887 60.6752 136.67 59.6723 137.444 58.6299C101.743 68.8992 65.2424 79.2347 29.2854 89.1787Z" fill="#B59281"/>
<path d="M130.786 53.287C95.6307 65.7446 59.1229 76.0924 22.6219 83.8998C24.7427 83.464 27.4363 85.5028 29.2716 89.1892C65.2361 79.233 101.736 68.8974 137.438 58.6282C135.478 54.5118 132.824 52.5474 130.786 53.287Z" fill="#EBDACF"/>
<path d="M142.716 60.2777C142.11 57.8842 141.261 55.4761 140.21 53.2312C137.766 48.0087 134.762 44.4147 131.766 43.1172C130.082 42.3719 128.508 42.384 127.097 43.036C92.8832 58.8512 56.3828 69.1868 18.9337 73.565C20.4779 73.3825 22.1861 73.8398 23.9481 74.8692C27.1044 76.7029 30.0612 80.0994 32.2789 84.509C33.2366 86.4106 33.962 88.3887 34.4654 90.3993C35.9536 96.3839 35.4458 102.628 32.9372 106.281C32.3401 107.145 31.6493 107.749 30.8847 108.09C65.195 92.502 101.764 82.4111 139.263 78.2822C140.089 78.1989 140.849 77.8389 141.501 77.1601C144.243 74.3918 144.559 67.5249 142.721 60.2975L142.716 60.2777Z" fill="#F5E9E1"/>
<path d="M72.136 92.3412C73.2503 93.3276 87.9083 89.0165 88.2138 87.7208C88.1951 76.9746 84.7925 67.8449 80.0957 60.854C74.5924 62.5192 69.0511 64.0264 63.4691 65.4076C67.32 69.3522 73.8537 78.2948 72.1313 92.3215L72.136 92.3412Z" fill="#EE283D"/>
<path d="M82.3861 79.905C84.4295 78.7983 85.8252 77.1261 86.5579 75.2159C85.4257 70.9324 83.7896 67.031 81.7796 63.5745C80.1402 62.6201 78.3 62.0482 76.4286 61.9122C74.0541 62.5969 71.6748 63.2618 69.2786 63.8994C67.6608 65.0816 66.5614 66.6827 66.042 68.4372C68.0959 71.1623 70.2212 74.9254 71.4222 79.7566C74.8006 81.5579 79.0102 81.7284 82.3738 79.8975L82.3861 79.905Z" fill="#9F1B29"/>
<path d="M34.4621 90.3996C35.9503 96.3843 35.4426 102.628 32.9339 106.281C30.1428 110.367 25.2687 108.559 21.8451 101.388C21.1224 99.9003 20.5586 98.2909 20.1501 96.6755C18.9199 91.8095 19.16 87.0191 21.0482 84.8735C23.2003 82.4347 26.9407 84.5253 29.2718 89.1898C28.4668 90.1456 27.6741 91.109 26.8786 92.1043C25.9841 90.2921 24.6011 89.5792 23.8009 90.5548C22.9358 91.6086 22.8041 93.8028 23.3671 96.0185C23.5547 96.757 23.8139 97.4889 24.1474 98.182C25.9914 101.992 28.7155 103.156 30.276 100.995C31.8639 98.817 32.1676 94.8576 31.1961 91.0266C30.8805 89.7546 30.417 88.4762 29.8172 87.2828C28.2597 84.1879 26.2319 81.8327 24.0847 80.6345C21.9376 79.4363 19.9357 79.5405 18.5012 81.1384C16.8628 82.9315 16.2505 86.4321 16.7687 91.0301C16.9504 92.6582 17.2696 94.3368 17.6923 96.0115C18.6638 99.8425 20.2225 103.595 22.0799 106.503C21.5479 108.031 21.0132 109.591 20.5077 111.185C17.9679 107.218 15.8249 101.945 14.4564 96.5894C13.848 94.2279 13.4024 91.8483 13.1433 89.5493C12.368 82.704 13.2684 77.6612 15.6944 75.188C17.8169 73.0176 20.7884 73.0359 23.9448 74.8696C27.0889 76.6958 30.0579 80.0998 32.2756 84.5094C33.2334 86.4109 33.9588 88.3891 34.4621 90.3996Z" fill="#D6B09C"/>
<path d="M78.135 75.8744L74.6278 76.3431L71.926 101.847L76.1306 96.8035L79.3522 100.84L80.5153 89.856L84.9762 98.2264L86.4576 91.9874L91.6245 92.691L81.2589 73.258L78.135 75.8744Z" fill="#1E9EFF"/>
<path d="M74.66 67.4279L71.6157 80.7729C73.4306 82.4772 75.9185 83.3252 78.5582 83.039L78.8921 81.5538L79.4156 82.8989C79.9469 82.791 80.4793 82.6424 81.0127 82.4532C83.3325 81.5792 85.2456 79.9425 86.5688 77.9346L81.5999 65.1613L78.1876 67.3886L74.6496 67.4378L74.66 67.4279Z" fill="#077AD6"/>
<path d="M84.0142 75.7608C83.9296 75.8438 83.8253 75.9315 83.7407 76.0145C83.1788 76.5463 82.5264 77.0059 81.7957 77.4006C76.889 80.0719 70.2288 78.4835 66.9263 73.8639C66.1385 72.7575 65.6075 71.5894 65.3353 70.4114C65.3258 70.3719 65.321 70.3521 65.3116 70.3126C65.2879 70.2138 65.2689 70.1348 65.2452 70.036C65.5344 71.2412 66.0701 72.4291 66.875 73.5628C70.2529 78.2792 77.0411 79.8787 82.0419 77.1639C82.7801 76.7569 83.44 76.2852 84.0217 75.7486L84.0142 75.7608Z" fill="#E36D00"/>
<path d="M86.9991 70.1566C86.9102 70.4391 86.8335 70.7292 86.7446 71.0117C86.6556 71.2942 86.5667 71.5767 86.49 71.8668C85.8387 74.029 84.3125 75.9415 82.0585 77.1719C77.0577 79.8867 70.2695 78.2871 66.8916 73.5708C65.0507 70.9931 64.6032 68.0393 65.3968 65.425C65.5747 64.86 65.7403 64.2874 65.9256 63.7101C65.1395 66.3121 65.5795 69.2782 67.4204 71.8559C70.7861 76.5647 77.5865 78.1717 82.5873 75.4569C84.8611 74.2218 86.3675 72.3141 87.0189 70.1519L86.9991 70.1566Z" fill="#FDC816"/>
<path d="M87.042 65.1648C87.0704 65.2833 87.0989 65.4019 87.1198 65.5326C88.0367 69.3977 86.3627 73.3934 82.5533 75.4566C77.5525 78.1714 70.7595 76.5521 67.3864 71.8556C64.5142 67.8537 65.0345 62.8811 68.3433 59.8201C68.4279 59.7371 68.5322 59.6494 68.6168 59.5664C65.3775 62.569 64.8533 67.438 67.6745 71.3581C70.9769 75.9776 77.6446 77.5538 82.5438 74.8947C86.2789 72.8702 87.9202 68.9555 87.0297 65.1572L87.042 65.1648Z" fill="#FFE70F"/>
<path d="M85.4493 61.7097C88.7639 66.3368 87.4734 72.2359 82.5742 74.895C77.6674 77.5664 71.0072 75.9779 67.7048 71.3584C64.4024 66.7389 65.6806 60.8322 70.5921 58.1806C75.4989 55.5093 82.1591 57.0977 85.4615 61.7173L85.4493 61.7097Z" fill="#FDC816"/>
<path d="M85.8295 62.2983C85.7106 62.1074 85.5794 61.9091 85.4407 61.7229C84.5604 60.4924 83.4414 59.4863 82.1797 58.7129L78.128 76.1819C79.6715 76.0832 81.1786 75.6589 82.5656 74.9082C82.6945 74.8355 82.8308 74.7506 82.9596 74.6779L85.8295 62.2983Z" fill="#FDD616"/>
<path d="M75.8977 56.8968C74.0547 56.8793 72.2125 57.3004 70.5753 58.1843C70.0205 58.4846 69.4997 58.8394 69.0476 59.2195L66.6457 69.5435C66.9207 70.1671 67.2672 70.7839 67.688 71.3621C68.7533 72.8408 70.1493 73.9998 71.7358 74.8207L75.893 56.877L75.8977 56.8968Z" fill="#FDD616"/>
<path d="M83.4031 62.6499C80.847 59.0946 75.7283 57.878 71.9462 59.9243C68.1641 61.9706 67.1771 66.5223 69.7332 70.0776C72.277 73.6254 77.408 74.8495 81.1901 72.8032C84.9599 70.7494 85.9591 66.2052 83.4031 62.6499Z" fill="#FFE70F"/>
<path d="M83.3953 62.8335C80.8392 59.2782 75.7205 58.0616 71.9384 60.1079C68.1563 62.1542 67.1693 66.7059 69.7254 70.2612C72.2814 73.8165 77.4001 75.0331 81.1823 72.9868C84.9521 70.933 85.9513 66.3888 83.415 62.8287L83.3953 62.8335Z" fill="#FF930F"/>
<path d="M71.7686 60.9097C75.5385 58.8559 80.6769 60.0678 83.2255 63.6353C84.4172 65.2927 84.8355 67.1669 84.5553 68.9162C85.1232 66.9725 84.7795 64.7565 83.4029 62.851C80.8469 59.2957 75.7282 58.0791 71.9461 60.1254C69.9299 61.2151 68.7029 63.0244 68.3957 65.01C68.8748 63.3489 70.0346 61.8691 71.7611 60.922L71.7686 60.9097Z" fill="#E36D00"/>
<path d="M68.9979 59.2434L66.6213 69.4987C66.6213 69.4987 66.6553 69.5532 66.6525 69.5852L69.0675 59.1849C69.0675 59.1849 69.0252 59.2264 68.9979 59.2434Z" fill="#FDE051"/>
<path d="M81.4106 75.9994C81.1632 76.1006 80.9234 76.1895 80.6713 76.2709L80.5602 77.8542C80.8198 77.7606 81.0671 77.6594 81.3023 77.5508L81.4031 76.0117L81.4106 75.9994Z" fill="#FFE70F"/>
<path d="M70.0265 76.5335C70.5777 76.8714 71.1439 77.1848 71.7402 77.4492L71.8715 75.558C71.2828 75.2813 70.7118 74.9482 70.1708 74.566L70.0265 76.5335Z" fill="#FFE70F"/>
<path d="M77.8954 78.4294C78.5071 78.3662 79.0971 78.256 79.6973 78.1015L79.8112 76.4861C79.226 76.6161 78.6313 76.7066 78.0149 76.75L77.8954 78.4294Z" fill="#FFE70F"/>
</g>
<defs>
<filter id="filter0_d_6992_92288" x="8.87305" y="42.5527" width="139.004" height="76.6328" filterUnits="userSpaceOnUse" color-interpolation-filters="sRGB">
<feFlood flood-opacity="0" result="BackgroundImageFix"/>
<feColorMatrix in="SourceAlpha" type="matrix" values="0 0 0 0 0 0 0 0 0 0 0 0 0 0 0 0 0 0 127 0" result="hardAlpha"/>
<feOffset dy="4"/>
<feGaussianBlur stdDeviation="2"/>
<feComposite in2="hardAlpha" operator="out"/>
<feColorMatrix type="matrix" values="0 0 0 0 0 0 0 0 0 0 0 0 0 0 0 0 0 0 0.25 0"/>
<feBlend mode="normal" in2="BackgroundImageFix" result="effect1_dropShadow_6992_92288"/>
<feBlend mode="normal" in="SourceGraphic" in2="effect1_dropShadow_6992_92288" result="shape"/>
</filter>
</defs>
</svg>
