<svg width="24" height="24" viewBox="0 0 24 24" fill="none" xmlns="http://www.w3.org/2000/svg">
<mask id="mask0_9098_14927" style="mask-type:luminance" maskUnits="userSpaceOnUse" x="0" y="0" width="24" height="24">
<path d="M23.9766 23.9766V0.0234394H0.0234375V23.9766H23.9766Z" fill="white"/>
<path d="M23.9766 23.9766V0.0234394H0.0234375V23.9766H23.9766Z" stroke="white" stroke-width="0.046875"/>
</mask>
<g mask="url(#mask0_9098_14927)">
<path d="M14.0586 20.0625C14.0586 20.0625 8.37333 20.0625 4.73047 20.0625C2.50409 20.0625 0.699219 18.2576 0.699219 16.0312C0.699219 13.8049 2.50409 12 4.73047 12H19.2617C21.4881 12 23.293 10.1951 23.293 7.96875C23.293 5.74238 21.4881 3.9375 19.2617 3.9375H10.6367" stroke="#FB5933" stroke-width="1.40625" stroke-miterlimit="10" stroke-linecap="round"/>
<path d="M19.9891 23.0391C19.9891 23.0391 16.6797 19.9779 16.6797 17.989C16.6797 15.9493 18.3895 14.7656 19.9891 14.7656C21.5886 14.7656 23.2985 15.9493 23.2985 17.989C23.2985 19.9779 19.9891 23.0391 19.9891 23.0391Z" fill="white" stroke="#FB5933" stroke-width="1.40625" stroke-miterlimit="10"/>
<rect x="19.0117" y="17.0039" width="2" height="2" rx="1" fill="#FB5933"/>
<path d="M4.00859 9C4.00859 9 0.699219 5.93883 0.699219 3.94992C0.699219 1.9102 2.40908 0.726562 4.00859 0.726562C5.60816 0.726562 7.31801 1.9102 7.31801 3.94992C7.31801 5.93883 4.00859 9 4.00859 9Z" fill="white" stroke="#FB5933" stroke-width="1.40625" stroke-miterlimit="10"/>
</g>
<rect x="3.01562" y="3.00391" width="2" height="2" rx="1" fill="#FB5933"/>
</svg>
